<svg width="77" height="76" viewBox="0 0 77 76" fill="none" xmlns="http://www.w3.org/2000/svg">
<path d="M44.8493 31.771C44.8125 31.3531 44.6113 30.9668 44.2898 30.6971C43.9684 30.4274 43.5531 30.2963 43.1351 30.3326L34.7216 31.0664C34.3031 31.1031 33.9164 31.3044 33.6463 31.6262C33.3763 31.948 33.2452 32.3638 33.2818 32.7823C33.3184 33.2008 33.5198 33.5875 33.8416 33.8576C34.1634 34.1276 34.5792 34.2587 34.9977 34.2221L39.6026 33.82L31.7761 43.1472C31.5062 43.4689 31.3751 43.8846 31.4117 44.3029C31.4483 44.7213 31.6496 45.1079 31.9712 45.3778C32.2929 45.6478 32.7087 45.7788 33.127 45.7422C33.5453 45.7056 33.932 45.5044 34.2019 45.1827L42.0284 35.8554L42.4312 40.4595C42.4493 40.6667 42.5081 40.8683 42.6041 41.0528C42.7001 41.2373 42.8316 41.4011 42.9909 41.5348C43.1502 41.6685 43.3343 41.7695 43.5327 41.832C43.7311 41.8945 43.9398 41.9174 44.147 41.8993C44.3542 41.8812 44.5558 41.8224 44.7403 41.7264C44.9248 41.6303 45.0886 41.4989 45.2223 41.3395C45.356 41.1802 45.457 40.9961 45.5195 40.7977C45.5821 40.5994 45.6049 40.3906 45.5868 40.1834L44.8493 31.771Z" fill="white"/>
<path d="M34.9541 33.724L34.9542 33.724L39.5591 33.3218L40.7613 33.2169L39.9856 34.1413L32.1591 43.4686C31.9744 43.6887 31.8847 43.9731 31.9098 44.2593C31.9348 44.5456 32.0725 44.8101 32.2926 44.9948C32.5127 45.1795 32.7972 45.2692 33.0834 45.2441C33.3696 45.2191 33.6342 45.0814 33.8189 44.8613L41.6453 35.5341L42.4213 34.6094L42.5265 35.8119L42.9293 40.4159C42.9417 40.5577 42.9819 40.6957 43.0476 40.8219C43.1133 40.9482 43.2033 41.0602 43.3123 41.1517C43.4213 41.2432 43.5473 41.3123 43.6831 41.3551L43.5327 41.832L43.6831 41.3551C43.8188 41.3979 43.9617 41.4136 44.1034 41.4012C44.2452 41.3888 44.3832 41.3486 44.5094 41.2828C44.6357 41.2171 44.7478 41.1272 44.8393 41.0181C44.9307 40.9091 44.9999 40.7831 45.0427 40.6474C45.0855 40.5117 45.1011 40.3688 45.0887 40.2271C45.0887 40.2271 45.0887 40.227 45.0887 40.227L44.3512 31.8149C44.3512 31.8148 44.3512 31.8148 44.3512 31.8147C44.326 31.5288 44.1883 31.2646 43.9684 31.0801C43.7486 30.8956 43.4645 30.8059 43.1785 30.8307L34.9541 33.724ZM34.9541 33.724C34.6677 33.749 34.3832 33.6593 34.163 33.4745C33.9428 33.2898 33.805 33.0251 33.7799 32.7387C33.7549 32.4524 33.8446 32.1678 34.0294 31.9476C34.2141 31.7274 34.4787 31.5896 34.765 31.5646C34.7651 31.5646 34.7651 31.5645 34.7652 31.5645L43.1783 30.8307L34.9541 33.724Z" stroke="url(#paint0_linear_332_319)" stroke-opacity="0.6"/>
<circle cx="38.5" cy="38" r="38" fill="url(#paint1_linear_332_319)" fill-opacity="0.4"/>
<circle cx="38.5" cy="38" r="37.5" stroke="url(#paint2_linear_332_319)" stroke-opacity="0.6"/>
<defs>
<linearGradient id="paint0_linear_332_319" x1="43.8928" y1="26.7615" x2="42.5542" y2="48.3015" gradientUnits="userSpaceOnUse">
<stop stop-color="#FF2F01" stop-opacity="0.2"/>
<stop offset="1" stop-color="#FF2F01" stop-opacity="0.7"/>
</linearGradient>
<linearGradient id="paint1_linear_332_319" x1="61.5714" y1="55.1" x2="108.943" y2="-26.4762" gradientUnits="userSpaceOnUse">
<stop stop-color="#FF2F01" stop-opacity="0.6"/>
<stop offset="1" stop-opacity="0"/>
<stop offset="1" stop-color="#FF2F01" stop-opacity="0.4"/>
</linearGradient>
<linearGradient id="paint2_linear_332_319" x1="24.25" y1="-10.944" x2="70.5139" y2="68.5098" gradientUnits="userSpaceOnUse">
<stop stop-color="#FF2F01" stop-opacity="0.2"/>
<stop offset="1" stop-color="#FF2F01" stop-opacity="0.7"/>
</linearGradient>
</defs>
</svg>
