<svg width="15" height="16" viewBox="0 0 15 16" fill="none" xmlns="http://www.w3.org/2000/svg">
<mask id="path-1-inside-1_716_2987" fill="white">
<path d="M14.0429 1.73367C14.0061 1.3157 13.8048 0.929445 13.4834 0.659741C13.162 0.390037 12.7467 0.258941 12.3287 0.29525L3.9152 1.02909C3.49674 1.0657 3.10996 1.26704 2.83995 1.58883C2.56994 1.91061 2.43881 2.32648 2.47542 2.74494C2.51203 3.1634 2.71338 3.55018 3.03517 3.82019C3.35695 4.0902 3.77282 4.22132 4.19128 4.18471L8.79615 3.78259L0.969677 13.1098C0.699754 13.4315 0.568674 13.8472 0.605272 14.2656C0.641872 14.6839 0.843151 15.0705 1.16483 15.3405C1.48652 15.6104 1.90225 15.7415 2.32058 15.7049C2.73891 15.6683 3.12556 15.467 3.39548 15.1453L11.222 5.81808L11.6248 10.4221C11.6429 10.6293 11.7017 10.8309 11.7977 11.0154C11.8937 11.1999 12.0252 11.3637 12.1845 11.4974C12.3438 11.6311 12.5279 11.7321 12.7263 11.7946C12.9247 11.8572 13.1334 11.88 13.3406 11.8619C13.5478 11.8438 13.7494 11.785 13.9339 11.689C14.1184 11.5929 14.2822 11.4615 14.4159 11.3022C14.5496 11.1428 14.6506 10.9587 14.7131 10.7604C14.7757 10.562 14.7985 10.3533 14.7804 10.1461L14.0429 1.73367Z"/>
</mask>
<path d="M14.0429 1.73367C14.0061 1.3157 13.8048 0.929445 13.4834 0.659741C13.162 0.390037 12.7467 0.258941 12.3287 0.29525L3.9152 1.02909C3.49674 1.0657 3.10996 1.26704 2.83995 1.58883C2.56994 1.91061 2.43881 2.32648 2.47542 2.74494C2.51203 3.1634 2.71338 3.55018 3.03517 3.82019C3.35695 4.0902 3.77282 4.22132 4.19128 4.18471L8.79615 3.78259L0.969677 13.1098C0.699754 13.4315 0.568674 13.8472 0.605272 14.2656C0.641872 14.6839 0.843151 15.0705 1.16483 15.3405C1.48652 15.6104 1.90225 15.7415 2.32058 15.7049C2.73891 15.6683 3.12556 15.467 3.39548 15.1453L11.222 5.81808L11.6248 10.4221C11.6429 10.6293 11.7017 10.8309 11.7977 11.0154C11.8937 11.1999 12.0252 11.3637 12.1845 11.4974C12.3438 11.6311 12.5279 11.7321 12.7263 11.7946C12.9247 11.8572 13.1334 11.88 13.3406 11.8619C13.5478 11.8438 13.7494 11.785 13.9339 11.689C14.1184 11.5929 14.2822 11.4615 14.4159 11.3022C14.5496 11.1428 14.6506 10.9587 14.7131 10.7604C14.7757 10.562 14.7985 10.3533 14.7804 10.1461L14.0429 1.73367Z" stroke="white" stroke-width="2" mask="url(#path-1-inside-1_716_2987)"/>
</svg>
