<svg width="15" height="16" viewBox="0 0 15 16" fill="none" xmlns="http://www.w3.org/2000/svg">
<path d="M3.95471 3.68649L3.95479 3.68649L8.55966 3.28436L9.76192 3.17937L8.98618 4.10386L1.15971 13.4311C0.975022 13.6512 0.885335 13.9356 0.910377 14.2219C0.935418 14.5081 1.07314 14.7726 1.29323 14.9573C1.51333 15.142 1.79778 15.2317 2.08401 15.2067C2.37023 15.1816 2.63478 15.0439 2.81947 14.8238L10.6459 5.49657L11.4219 4.57187L11.5271 5.77438L11.9299 10.3784C11.9423 10.5202 11.9825 10.6582 12.0482 10.7844C12.1139 10.9107 12.2039 11.0228 12.3129 11.1143C12.4219 11.2057 12.5479 11.2749 12.6837 11.3177C12.8194 11.3605 12.9623 11.3761 13.104 11.3637C13.2458 11.3513 13.3838 11.3111 13.51 11.2454C13.6363 11.1796 13.7484 11.0897 13.8399 10.9807C13.9313 10.8716 14.0005 10.7456 14.0433 10.6099C14.0861 10.4742 14.1017 10.3314 14.0893 10.1896L3.95471 3.68649ZM3.95471 3.68649C3.66835 3.71155 3.38377 3.62182 3.16357 3.43705C2.94336 3.25228 2.80558 2.9876 2.78053 2.70124C2.75548 2.41488 2.8452 2.1303 3.02997 1.9101C3.21472 1.68993 3.47934 1.55216 3.76565 1.52707C3.76569 1.52707 3.76574 1.52706 3.76578 1.52706L12.1789 0.793253L3.95471 3.68649ZM13.3518 1.77743L14.0893 10.1895L12.1791 0.793237C12.4651 0.768447 12.7492 0.858145 12.969 1.04264C13.1889 1.22713 13.3266 1.49132 13.3518 1.77721C13.3518 1.77728 13.3518 1.77736 13.3518 1.77743Z" stroke="white"/>
</svg>
