<svg width="15" height="16" viewBox="0 0 15 16" fill="none" xmlns="http://www.w3.org/2000/svg">
<path fill-rule="evenodd" clip-rule="evenodd" d="M8.81049 0.979129C8.05362 0.34029 6.9464 0.340291 6.18952 0.979129L5.50022 1.56093C5.17852 1.83245 4.78043 1.99736 4.36096 2.03283L3.46215 2.10884C2.47523 2.19231 1.69231 2.97523 1.60884 3.96215L1.53283 4.86096C1.49736 5.28043 1.33245 5.67852 1.06093 6.00023L0.479129 6.68952C-0.15971 7.4464 -0.159709 8.55362 0.479129 9.31049L1.06093 9.99978C1.33245 10.3215 1.49736 10.7196 1.53283 11.1391L1.60884 12.0379C1.69231 13.0248 2.47523 13.8078 3.46215 13.8912L4.36096 13.9671C4.78043 14.0027 5.17852 14.1676 5.50023 14.4391L6.18952 15.0209C6.9464 15.6597 8.05362 15.6597 8.81049 15.0209L9.49978 14.4391C9.82148 14.1676 10.2196 14.0027 10.6391 13.9671L11.5379 13.8912C12.5248 13.8078 13.3078 13.0248 13.3912 12.0379L13.4671 11.1391C13.5027 10.7196 13.6676 10.3215 13.9391 9.99978L14.5209 9.31049C15.1597 8.55362 15.1597 7.4464 14.5209 6.68952L13.9391 6.00022C13.6676 5.67852 13.5027 5.28043 13.4671 4.86096L13.3912 3.96215C13.3078 2.97523 12.5248 2.19231 11.5379 2.10884L10.6391 2.03283C10.2196 1.99736 9.82148 1.83245 9.49978 1.56093L8.81049 0.979129ZM11.1945 6.6148C11.5516 6.25775 11.5516 5.67886 11.1945 5.32181C10.8376 4.96475 10.2586 4.96475 9.90153 5.32181L6.48457 8.7388L5.09932 7.35356C4.74227 6.9965 4.16338 6.9965 3.80633 7.35356C3.44927 7.7106 3.44927 8.2895 3.80633 8.64655L5.83808 10.6783C6.19513 11.0353 6.77402 11.0353 7.13107 10.6783L11.1945 6.6148Z" fill="#FF2F01" fill-opacity="0.7"/>
</svg>
