<svg width="36" height="36" viewBox="0 0 36 36" fill="none" xmlns="http://www.w3.org/2000/svg">
<path d="M35.8101 18.0022C35.8101 27.891 27.7938 35.9075 17.9052 35.9075C8.01636 35.9075 0 27.891 0 18.0022C0 8.11353 8.01636 0.097168 17.9052 0.097168C27.7937 0.097168 35.8101 8.11353 35.8101 18.0022Z" fill="white" fill-opacity="0.2"/>
<path d="M23.2658 13.2329C23.262 13.4253 23.2451 13.6173 23.2154 13.8074C22.8159 16.3543 20.6296 18.2337 18.0536 18.2337H15.4937C15.2319 18.2337 15.0087 18.4242 14.968 18.6831L14.1647 23.7744L13.6616 26.9684C13.6518 27.0301 13.6555 27.0932 13.6724 27.1534C13.6894 27.2135 13.7191 27.2693 13.7597 27.3168C13.8003 27.3643 13.8507 27.4024 13.9074 27.4286C13.9642 27.4547 14.0259 27.4683 14.0884 27.4682H16.8669C16.9937 27.4681 17.1163 27.4228 17.2126 27.3404C17.309 27.2581 17.3728 27.144 17.3927 27.0188L18.1245 22.3769C18.1443 22.2517 18.2082 22.1376 18.3047 22.0552C18.4011 21.9728 18.5238 21.9275 18.6507 21.9275H20.2865C22.8628 21.9275 25.0489 20.0481 25.4484 17.5012C25.732 15.6936 24.8216 14.0487 23.2658 13.2329Z" fill="#A19A99"/>
<path d="M13.2115 9.00049C12.9496 9.00049 12.7264 9.19096 12.6857 9.44951L10.5054 23.2753C10.464 23.5378 10.6668 23.7751 10.9326 23.7751H14.1659L14.9687 18.6839L15.8422 13.1433C15.8621 13.0181 15.9259 12.9041 16.0223 12.8217C16.1186 12.7393 16.2412 12.694 16.368 12.6939H21C21.8429 12.6939 22.6118 12.8905 23.2665 13.2336C23.3113 10.9149 21.398 9.00049 18.7674 9.00049H13.2115Z" fill="white"/>
<path d="M16.3686 12.6938C16.2418 12.694 16.1192 12.7393 16.0228 12.8216C15.9265 12.904 15.8626 13.0181 15.8428 13.1433L14.9692 18.6838C15.01 18.425 15.2329 18.2344 15.495 18.2344H18.0548C20.6311 18.2344 22.8172 16.355 23.2167 13.8081C23.2464 13.6179 23.2632 13.426 23.2671 13.2336C22.6123 12.8903 21.8433 12.6938 21.0005 12.6938H16.3686Z" fill="white"/>
</svg>
