<svg width="36" height="36" viewBox="0 0 36 36" fill="none" xmlns="http://www.w3.org/2000/svg">
<path d="M36 18.002C36 27.9432 27.9412 36.0022 18.0001 36.0022C8.05887 36.0022 0 27.9432 0 18.002C0 8.06083 8.05887 0.00195312 18.0001 0.00195312C27.9411 0.00195312 36 8.06083 36 18.002Z" fill="white" fill-opacity="0.2"/>
<path d="M16.1548 18.6866V14.5376H11.8838V11.7773H23.8188V14.5765H19.5477V18.6866H16.1548Z" fill="white"/>
<path fill-rule="evenodd" clip-rule="evenodd" d="M10.0479 18.0368C10.0479 16.9871 13.4807 16.1318 17.7517 16.1318C22.0228 16.1318 25.4556 16.9871 25.4556 18.0368C25.4556 19.0865 22.0228 19.9418 17.7517 19.9418C13.4807 19.9418 10.0479 19.0865 10.0479 18.0368ZM24.8169 18.0373C24.5375 17.6485 22.2224 16.4434 17.7517 16.4434C13.2811 16.4434 10.9659 17.6097 10.6865 18.0373C10.9659 18.4261 13.2811 19.0092 17.7517 19.0092C22.2623 19.0092 24.5375 18.4261 24.8169 18.0373Z" fill="white"/>
<path d="M17.7519 19.941C17.1931 19.941 16.6742 19.9022 16.1553 19.8633V25.6948H19.5083V19.8633C18.9494 19.9022 18.3507 19.941 17.7519 19.941Z" fill="white"/>
</svg>
