<svg width="36" height="36" viewBox="0 0 36 36" fill="none" xmlns="http://www.w3.org/2000/svg">
<path d="M18 36.002C27.9411 36.002 36 27.9431 36 18.002C36 8.06083 27.9411 0.00195312 18 0.00195312C8.05888 0.00195312 0 8.06083 0 18.002C0 27.9431 8.05888 36.002 18 36.002Z" fill="white" fill-opacity="0.2"/>
<path fill-rule="evenodd" clip-rule="evenodd" d="M13.8462 17.0687L18.7122 13.9056L23.5385 17.0883L18.691 8.30957L13.8462 17.0687ZM14.0319 17.9822L18.7176 14.8945L23.3423 17.9593L18.7202 21.0504L14.0319 17.9822ZM13.8463 18.8663C15.554 19.9862 17.336 21.1584 18.7123 22.0655L23.5386 18.8663C21.7911 22.072 20.3352 24.7407 18.7123 27.6942L17.7173 25.8906C16.3803 23.4671 15.0015 20.968 13.8463 18.8663Z" fill="white"/>
<path fill-rule="evenodd" clip-rule="evenodd" d="M18.6924 8.30957L18.7106 13.9056L23.5385 17.0883L18.6924 8.30957ZM18.7152 14.8945L23.3705 17.9593L18.7175 21.0504L18.7152 14.8945ZM18.7108 22.0655L23.5388 18.8663C22.0413 22.072 18.7108 27.6942 18.7108 27.6942V22.0655Z" fill="white"/>
</svg>
