<svg width="37" height="36" viewBox="0 0 37 36" fill="none" xmlns="http://www.w3.org/2000/svg">
<path d="M36.6202 18.0022C36.6202 27.891 28.6039 35.9075 18.7152 35.9075C8.82642 35.9075 0.810059 27.891 0.810059 18.0022C0.810059 8.11353 8.82642 0.097168 18.7152 0.097168C28.6038 0.097168 36.6202 8.11353 36.6202 18.0022Z" fill="white" fill-opacity="0.2"/>
<path d="M22.4663 19.6217C22.4663 17.6826 21.3027 17.0177 18.9757 16.7408C17.3136 16.5191 16.9811 16.0759 16.9811 15.3001C16.9811 14.5244 17.5352 14.0259 18.6433 14.0259C19.6406 14.0259 20.1947 14.3583 20.4717 15.1894C20.5271 15.3556 20.6933 15.4663 20.8595 15.4663H21.7459C21.9676 15.4663 22.1338 15.3001 22.1338 15.0786V15.0231C21.9122 13.8042 20.9149 12.8623 19.6406 12.7516V11.4218C19.6406 11.2002 19.4744 11.034 19.1974 10.9785H18.3663C18.1446 10.9785 17.9784 11.1447 17.923 11.4218V12.6961C16.2608 12.9178 15.2082 14.0258 15.2082 15.411C15.2082 17.2394 16.3163 17.9596 18.6433 18.2367C20.1947 18.5137 20.6933 18.8461 20.6933 19.7326C20.6933 20.6192 19.9176 21.2286 18.865 21.2286C17.4243 21.2286 16.9257 20.619 16.7595 19.788C16.7042 19.5664 16.5379 19.4555 16.3717 19.4555H15.4297C15.2082 19.4555 15.042 19.6217 15.042 19.8434V19.8989C15.2635 21.2839 16.1501 22.2812 17.9784 22.5583V23.888C17.9784 24.1096 18.1446 24.2758 18.4216 24.3312H19.2527C19.4744 24.3312 19.6406 24.165 19.696 23.888V22.5583C21.3582 22.2812 22.4663 21.1177 22.4663 19.6217Z" fill="white"/>
<path d="M15.9844 25.4389C11.6628 23.8877 9.44652 19.0674 11.0534 14.8011C11.8844 12.4741 13.7128 10.7012 15.9844 9.87009C16.2061 9.75933 16.3168 9.59311 16.3168 9.31599V8.54037C16.3168 8.3187 16.2061 8.15248 15.9844 8.09717C15.9289 8.09717 15.8182 8.09717 15.7627 8.15248C10.4993 9.81464 7.61815 15.4107 9.28031 20.6741C10.2776 23.7768 12.6601 26.1592 15.7627 27.1565C15.9844 27.2673 16.2061 27.1565 16.2614 26.9349C16.3168 26.8796 16.3168 26.8241 16.3168 26.7133V25.9376C16.3168 25.7714 16.1506 25.5498 15.9844 25.4389ZM21.8574 8.15248C21.6357 8.04172 21.4141 8.15248 21.3587 8.37415C21.3033 8.4296 21.3033 8.48492 21.3033 8.59582V9.37144C21.3033 9.59311 21.4695 9.81464 21.6357 9.92554C25.9573 11.4768 28.1736 16.2971 26.5668 20.5634C25.7357 22.8904 23.9073 24.6633 21.6357 25.4944C21.4141 25.6051 21.3033 25.7714 21.3033 26.0485V26.8241C21.3033 27.0458 21.4141 27.212 21.6357 27.2673C21.6912 27.2673 21.8019 27.2673 21.8574 27.212C27.1208 25.5498 30.002 19.9538 28.3398 14.6904C27.3425 11.5322 24.9046 9.14978 21.8574 8.15248Z" fill="white"/>
</svg>
