<svg width="37" height="36" viewBox="0 0 37 36" fill="none" xmlns="http://www.w3.org/2000/svg">
<path d="M36.2718 22.3572C33.8674 32.0012 24.0991 37.8698 14.4539 35.4655C4.8133 33.0611 -1.05592 23.2927 1.34904 13.6492C3.75231 4.0041 13.5201 -1.86569 23.1624 0.538708C32.807 2.9431 38.6757 12.7126 36.2713 22.3572H36.2718Z" fill="white" fill-opacity="0.2"/>
<path fill-rule="evenodd" clip-rule="evenodd" d="M24.2309 15.9106C24.4736 14.2856 23.2363 13.412 21.5445 12.8293L22.0933 10.628L20.753 10.2941L20.2187 12.4373C19.8669 12.3495 19.5051 12.2667 19.1456 12.1847L19.6837 10.0273L18.3445 9.69336L17.7953 11.8939C17.5038 11.8275 17.2176 11.7618 16.9397 11.6927L16.9412 11.6859L15.0934 11.2245L14.7369 12.6556C14.7369 12.6556 15.7311 12.8834 15.7101 12.8976C16.2528 13.033 16.3512 13.3922 16.3344 13.6769L15.7093 16.1846C15.7467 16.1941 15.7952 16.2079 15.8486 16.2292L15.7074 16.1941L14.8308 19.7071C14.7644 19.8719 14.5961 20.1192 14.2168 20.0254C14.2301 20.0448 13.2428 19.7823 13.2428 19.7823L12.5776 21.3164L14.3217 21.7511C14.5186 21.8005 14.7131 21.8512 14.9055 21.9014L14.906 21.9015C15.0304 21.934 15.1539 21.9662 15.2766 21.9976L14.722 24.2245L16.0604 24.5584L16.61 22.3556C16.9752 22.4548 17.3301 22.5464 17.6774 22.6327L17.1302 24.8252L18.4701 25.1591L19.0246 22.9369C21.3094 23.3692 23.0279 23.1948 23.7504 21.1287C24.3331 19.4647 23.7218 18.5049 22.5196 17.8787C23.3951 17.676 24.0545 17.1001 24.2305 15.9106H24.2309ZM21.1688 20.2036C20.7884 21.7308 18.3975 21.0989 17.3045 20.8101C17.2066 20.7842 17.1191 20.7611 17.0444 20.7425L17.7802 17.7928C17.8715 17.8156 17.983 17.8407 18.1094 17.869C19.2401 18.1227 21.5574 18.6427 21.1692 20.2036H21.1688ZM18.337 16.5003C19.249 16.7436 21.2369 17.2739 21.5832 15.8866C21.9373 14.4673 20.0042 14.0395 19.0602 13.8306C18.954 13.8071 18.8604 13.7864 18.7839 13.7674L18.1168 16.4426C18.18 16.4584 18.254 16.4781 18.337 16.5003Z" fill="white"/>
</svg>
