<svg width="309" height="123" viewBox="0 0 309 123" fill="none" xmlns="http://www.w3.org/2000/svg">
<rect width="126" height="30" rx="4" fill="url(#paint0_linear_459_19508)" fill-opacity="0.6"/>
<rect x="0.5" y="0.5" width="125" height="29" rx="3.5" stroke="url(#paint1_linear_459_19508)" stroke-opacity="0.4"/>
<path d="M260.92 21.4545V12.4545H261.892V13.4943H262.011C262.085 13.3807 262.188 13.2358 262.318 13.0597C262.452 12.8807 262.642 12.7216 262.889 12.5824C263.139 12.4403 263.477 12.3693 263.903 12.3693C264.455 12.3693 264.94 12.5071 265.361 12.7827C265.781 13.0582 266.109 13.4489 266.345 13.9545C266.581 14.4602 266.699 15.0568 266.699 15.7443C266.699 16.4375 266.581 17.0384 266.345 17.5469C266.109 18.0526 265.783 18.4446 265.365 18.723C264.947 18.9986 264.466 19.1364 263.92 19.1364C263.5 19.1364 263.163 19.0668 262.911 18.9276C262.658 18.7855 262.463 18.625 262.327 18.446C262.19 18.2642 262.085 18.1136 262.011 17.9943H261.926V21.4545H260.92ZM261.909 15.7273C261.909 16.2216 261.982 16.6577 262.126 17.0355C262.271 17.4105 262.483 17.7045 262.761 17.9176C263.04 18.1278 263.381 18.233 263.784 18.233C264.205 18.233 264.555 18.1222 264.837 17.9006C265.121 17.6761 265.334 17.375 265.476 16.9972C265.621 16.6165 265.693 16.1932 265.693 15.7273C265.693 15.267 265.622 14.8523 265.48 14.483C265.341 14.1108 265.129 13.8168 264.845 13.6009C264.564 13.3821 264.21 13.2727 263.784 13.2727C263.375 13.2727 263.031 13.3764 262.753 13.5838C262.474 13.7884 262.264 14.0753 262.122 14.4446C261.98 14.8111 261.909 15.2386 261.909 15.7273ZM269.239 10.2727V19H268.233V10.2727H269.239ZM273.007 19.1534C272.592 19.1534 272.216 19.0753 271.877 18.919C271.539 18.7599 271.271 18.5312 271.072 18.233C270.873 17.9318 270.774 17.5682 270.774 17.142C270.774 16.767 270.848 16.4631 270.995 16.2301C271.143 15.9943 271.341 15.8097 271.588 15.6761C271.835 15.5426 272.108 15.4432 272.406 15.3778C272.707 15.3097 273.01 15.2557 273.314 15.2159C273.711 15.1648 274.034 15.1264 274.281 15.1009C274.531 15.0724 274.713 15.0256 274.826 14.9602C274.943 14.8949 275.001 14.7812 275.001 14.6193V14.5852C275.001 14.1648 274.886 13.8381 274.656 13.6051C274.429 13.3722 274.083 13.2557 273.62 13.2557C273.14 13.2557 272.764 13.3608 272.491 13.571C272.218 13.7812 272.027 14.0057 271.916 14.2443L270.961 13.9034C271.132 13.5057 271.359 13.196 271.643 12.9744C271.93 12.75 272.243 12.5937 272.581 12.5057C272.922 12.4148 273.257 12.3693 273.586 12.3693C273.797 12.3693 274.038 12.3949 274.311 12.446C274.586 12.4943 274.852 12.5952 275.108 12.7486C275.366 12.902 275.581 13.1335 275.751 13.4432C275.922 13.7528 276.007 14.1676 276.007 14.6875V19H275.001V18.1136H274.95C274.882 18.2557 274.768 18.4077 274.609 18.5696C274.45 18.7315 274.238 18.8693 273.974 18.983C273.71 19.0966 273.387 19.1534 273.007 19.1534ZM273.16 18.25C273.558 18.25 273.893 18.1719 274.166 18.0156C274.441 17.8594 274.649 17.6577 274.788 17.4105C274.93 17.1634 275.001 16.9034 275.001 16.6307V15.7102C274.958 15.7614 274.865 15.8082 274.72 15.8509C274.578 15.8906 274.413 15.9261 274.225 15.9574C274.041 15.9858 273.86 16.0114 273.684 16.0341C273.511 16.054 273.37 16.071 273.262 16.0852C273.001 16.1193 272.757 16.1747 272.529 16.2514C272.305 16.3253 272.123 16.4375 271.984 16.5881C271.848 16.7358 271.779 16.9375 271.779 17.1932C271.779 17.5426 271.909 17.8068 272.167 17.9858C272.429 18.1619 272.76 18.25 273.16 18.25ZM280.689 12.4545V13.3068H277.297V12.4545H280.689ZM278.286 10.8864H279.291V17.125C279.291 17.4091 279.332 17.6222 279.415 17.7642C279.5 17.9034 279.608 17.9972 279.739 18.0455C279.872 18.0909 280.013 18.1136 280.161 18.1136C280.271 18.1136 280.362 18.108 280.433 18.0966C280.504 18.0824 280.561 18.071 280.604 18.0625L280.808 18.9659C280.74 18.9915 280.645 19.017 280.523 19.0426C280.401 19.071 280.246 19.0852 280.058 19.0852C279.774 19.0852 279.496 19.0241 279.223 18.902C278.953 18.7798 278.729 18.5938 278.55 18.3438C278.374 18.0938 278.286 17.7784 278.286 17.3977V10.8864ZM282.202 19V12.4545H283.207V19H282.202ZM282.713 11.3636C282.517 11.3636 282.348 11.2969 282.206 11.1634C282.067 11.0298 281.997 10.8693 281.997 10.6818C281.997 10.4943 282.067 10.3338 282.206 10.2003C282.348 10.0668 282.517 10 282.713 10C282.909 10 283.077 10.0668 283.216 10.2003C283.358 10.3338 283.429 10.4943 283.429 10.6818C283.429 10.8693 283.358 11.0298 283.216 11.1634C283.077 11.2969 282.909 11.3636 282.713 11.3636ZM286.055 15.0625V19H285.049V12.4545H286.021V13.4773H286.106C286.26 13.1449 286.493 12.8778 286.805 12.6761C287.118 12.4716 287.521 12.3693 288.015 12.3693C288.458 12.3693 288.846 12.4602 289.179 12.642C289.511 12.821 289.77 13.0938 289.954 13.4602C290.139 13.8239 290.231 14.2841 290.231 14.8409V19H289.225V14.9091C289.225 14.3949 289.092 13.9943 288.825 13.7074C288.558 13.4176 288.191 13.2727 287.725 13.2727C287.404 13.2727 287.118 13.3423 286.865 13.4815C286.615 13.6207 286.417 13.8239 286.272 14.0909C286.127 14.358 286.055 14.6818 286.055 15.0625ZM296.194 16.3239V12.4545H297.2V19H296.194V17.892H296.126C295.972 18.2244 295.734 18.5071 295.41 18.7401C295.086 18.9702 294.677 19.0852 294.183 19.0852C293.773 19.0852 293.41 18.9957 293.092 18.8168C292.773 18.6349 292.523 18.3622 292.342 17.9986C292.16 17.6321 292.069 17.1705 292.069 16.6136V12.4545H293.075V16.5455C293.075 17.0227 293.208 17.4034 293.475 17.6875C293.745 17.9716 294.089 18.1136 294.506 18.1136C294.756 18.1136 295.011 18.0497 295.269 17.9219C295.531 17.794 295.749 17.598 295.925 17.3338C296.104 17.0696 296.194 16.733 296.194 16.3239ZM299.042 19V12.4545H300.013V13.4773H300.098C300.235 13.1278 300.455 12.8565 300.759 12.6634C301.063 12.4673 301.428 12.3693 301.854 12.3693C302.286 12.3693 302.645 12.4673 302.932 12.6634C303.222 12.8565 303.448 13.1278 303.61 13.4773H303.678C303.846 13.1392 304.097 12.8707 304.432 12.6719C304.767 12.4702 305.169 12.3693 305.638 12.3693C306.223 12.3693 306.702 12.5526 307.074 12.919C307.446 13.2827 307.632 13.8494 307.632 14.6193V19H306.627V14.6193C306.627 14.1364 306.495 13.7912 306.23 13.5838C305.966 13.3764 305.655 13.2727 305.297 13.2727C304.837 13.2727 304.48 13.4119 304.228 13.6903C303.975 13.9659 303.848 14.3153 303.848 14.7386V19H302.826V14.517C302.826 14.1449 302.705 13.8452 302.463 13.6179C302.222 13.3878 301.911 13.2727 301.53 13.2727C301.269 13.2727 301.025 13.3423 300.797 13.4815C300.573 13.6207 300.391 13.8139 300.252 14.0611C300.115 14.3054 300.047 14.5881 300.047 14.9091V19H299.042Z" fill="#A19A99"/>
<rect y="31" width="239" height="30" rx="4" fill="url(#paint2_linear_459_19508)" fill-opacity="0.6"/>
<rect x="0.5" y="31.5" width="238" height="29" rx="3.5" stroke="url(#paint3_linear_459_19508)" stroke-opacity="0.4"/>
<path d="M287.562 52.5909C287.077 52.5909 286.659 52.5284 286.31 52.4034C285.96 52.2812 285.669 52.1193 285.436 51.9176C285.206 51.7188 285.023 51.5057 284.886 51.2784L285.688 50.7159C285.778 50.8352 285.893 50.9716 286.033 51.125C286.172 51.2812 286.362 51.4162 286.604 51.5298C286.848 51.6463 287.168 51.7045 287.562 51.7045C288.091 51.7045 288.527 51.5767 288.871 51.321C289.214 51.0653 289.386 50.6648 289.386 50.1193V48.7898H289.301C289.227 48.9091 289.122 49.0568 288.986 49.233C288.852 49.4062 288.659 49.5611 288.406 49.6974C288.156 49.831 287.818 49.8977 287.392 49.8977C286.864 49.8977 286.389 49.7727 285.969 49.5227C285.551 49.2727 285.22 48.9091 284.976 48.4318C284.734 47.9545 284.614 47.375 284.614 46.6932C284.614 46.0227 284.732 45.4389 284.967 44.9418C285.203 44.4418 285.531 44.0554 285.952 43.7827C286.372 43.5071 286.858 43.3693 287.409 43.3693C287.835 43.3693 288.173 43.4403 288.423 43.5824C288.676 43.7216 288.869 43.8807 289.003 44.0597C289.139 44.2358 289.244 44.3807 289.318 44.4943H289.42V43.4545H290.392V50.1875C290.392 50.75 290.264 51.2074 290.009 51.5597C289.756 51.9148 289.415 52.1747 288.986 52.3395C288.56 52.5071 288.085 52.5909 287.562 52.5909ZM287.528 48.9943C287.932 48.9943 288.273 48.902 288.551 48.7173C288.83 48.5327 289.041 48.267 289.186 47.9205C289.331 47.5739 289.403 47.1591 289.403 46.6761C289.403 46.2045 289.332 45.7884 289.19 45.4276C289.048 45.0668 288.838 44.7841 288.56 44.5795C288.281 44.375 287.938 44.2727 287.528 44.2727C287.102 44.2727 286.747 44.3807 286.463 44.5966C286.182 44.8125 285.97 45.1023 285.828 45.4659C285.689 45.8295 285.619 46.233 285.619 46.6761C285.619 47.1307 285.69 47.5327 285.832 47.8821C285.977 48.2287 286.19 48.5014 286.472 48.7003C286.756 48.8963 287.108 48.9943 287.528 48.9943ZM294.892 50.1364C294.301 50.1364 293.783 49.9957 293.337 49.7145C292.893 49.4332 292.547 49.0398 292.297 48.5341C292.05 48.0284 291.926 47.4375 291.926 46.7614C291.926 46.0795 292.05 45.4844 292.297 44.9759C292.547 44.4673 292.893 44.0724 293.337 43.7912C293.783 43.5099 294.301 43.3693 294.892 43.3693C295.483 43.3693 296 43.5099 296.443 43.7912C296.889 44.0724 297.236 44.4673 297.483 44.9759C297.733 45.4844 297.858 46.0795 297.858 46.7614C297.858 47.4375 297.733 48.0284 297.483 48.5341C297.236 49.0398 296.889 49.4332 296.443 49.7145C296 49.9957 295.483 50.1364 294.892 50.1364ZM294.892 49.233C295.341 49.233 295.71 49.1179 296 48.8878C296.29 48.6577 296.504 48.3551 296.643 47.9801C296.783 47.6051 296.852 47.1989 296.852 46.7614C296.852 46.3239 296.783 45.9162 296.643 45.5384C296.504 45.1605 296.29 44.8551 296 44.6222C295.71 44.3892 295.341 44.2727 294.892 44.2727C294.443 44.2727 294.074 44.3892 293.784 44.6222C293.494 44.8551 293.28 45.1605 293.141 45.5384C293.001 45.9162 292.932 46.3239 292.932 46.7614C292.932 47.1989 293.001 47.6051 293.141 47.9801C293.28 48.3551 293.494 48.6577 293.784 48.8878C294.074 49.1179 294.443 49.233 294.892 49.233ZM300.399 41.2727V50H299.393V41.2727H300.399ZM304.712 50.1364C304.167 50.1364 303.685 49.9986 303.268 49.723C302.85 49.4446 302.523 49.0526 302.288 48.5469C302.052 48.0384 301.934 47.4375 301.934 46.7443C301.934 46.0568 302.052 45.4602 302.288 44.9545C302.523 44.4489 302.852 44.0582 303.272 43.7827C303.692 43.5071 304.178 43.3693 304.729 43.3693C305.156 43.3693 305.492 43.4403 305.739 43.5824C305.989 43.7216 306.18 43.8807 306.31 44.0597C306.444 44.2358 306.548 44.3807 306.621 44.4943H306.707V41.2727H307.712V50H306.741V48.9943H306.621C306.548 49.1136 306.442 49.2642 306.306 49.446C306.17 49.625 305.975 49.7855 305.722 49.9276C305.469 50.0668 305.133 50.1364 304.712 50.1364ZM304.849 49.233C305.252 49.233 305.593 49.1278 305.871 48.9176C306.15 48.7045 306.362 48.4105 306.506 48.0355C306.651 47.6577 306.724 47.2216 306.724 46.7273C306.724 46.2386 306.653 45.8111 306.511 45.4446C306.369 45.0753 306.158 44.7884 305.88 44.5838C305.602 44.3764 305.258 44.2727 304.849 44.2727C304.423 44.2727 304.067 44.3821 303.783 44.6009C303.502 44.8168 303.29 45.1108 303.148 45.483C303.009 45.8523 302.94 46.267 302.94 46.7273C302.94 47.1932 303.011 47.6165 303.153 47.9972C303.298 48.375 303.511 48.6761 303.792 48.9006C304.076 49.1222 304.428 49.233 304.849 49.233Z" fill="#A19A99"/>
<rect y="62" width="179" height="30" rx="4" fill="url(#paint4_linear_459_19508)" fill-opacity="0.6"/>
<rect x="0.5" y="62.5" width="178" height="29" rx="3.5" stroke="url(#paint5_linear_459_19508)" stroke-opacity="0.4"/>
<path d="M284.557 75.9205L283.653 76.1761C283.597 76.0256 283.513 75.8793 283.402 75.7372C283.294 75.5923 283.146 75.473 282.959 75.3793C282.771 75.2855 282.531 75.2386 282.239 75.2386C281.838 75.2386 281.504 75.331 281.237 75.5156C280.973 75.6974 280.841 75.929 280.841 76.2102C280.841 76.4602 280.932 76.6577 281.114 76.8026C281.295 76.9474 281.58 77.0682 281.966 77.1648L282.938 77.4034C283.523 77.5455 283.959 77.7628 284.246 78.0554C284.533 78.3452 284.676 78.7187 284.676 79.1761C284.676 79.5511 284.568 79.8864 284.352 80.1818C284.139 80.4773 283.841 80.7102 283.457 80.8807C283.074 81.0511 282.628 81.1364 282.119 81.1364C281.452 81.1364 280.899 80.9915 280.462 80.7017C280.024 80.4119 279.747 79.9886 279.631 79.4318L280.585 79.1932C280.676 79.5455 280.848 79.8097 281.101 79.9858C281.357 80.1619 281.69 80.25 282.102 80.25C282.571 80.25 282.943 80.1506 283.219 79.9517C283.497 79.75 283.636 79.5085 283.636 79.2273C283.636 79 283.557 78.8097 283.398 78.6562C283.239 78.5 282.994 78.3835 282.665 78.3068L281.574 78.0511C280.974 77.9091 280.534 77.6889 280.253 77.3906C279.974 77.0895 279.835 76.7131 279.835 76.2614C279.835 75.892 279.939 75.5653 280.146 75.2812C280.357 74.9972 280.642 74.7741 281.003 74.6122C281.366 74.4503 281.778 74.3693 282.239 74.3693C282.886 74.3693 283.395 74.5114 283.764 74.7955C284.136 75.0795 284.401 75.4545 284.557 75.9205ZM286.19 81V74.4545H287.196V81H286.19ZM286.701 73.3636C286.505 73.3636 286.336 73.2969 286.194 73.1634C286.055 73.0298 285.985 72.8693 285.985 72.6818C285.985 72.4943 286.055 72.3338 286.194 72.2003C286.336 72.0668 286.505 72 286.701 72C286.897 72 287.065 72.0668 287.204 72.2003C287.346 72.3338 287.417 72.4943 287.417 72.6818C287.417 72.8693 287.346 73.0298 287.204 73.1634C287.065 73.2969 286.897 73.3636 286.701 73.3636ZM290.043 72.2727V81H289.038V72.2727H290.043ZM297.238 74.4545L294.817 81H293.794L291.374 74.4545H292.465L294.272 79.6705H294.34L296.147 74.4545H297.238ZM301.075 81.1364C300.444 81.1364 299.9 80.9972 299.443 80.7188C298.988 80.4375 298.637 80.0455 298.39 79.5426C298.146 79.0369 298.024 78.4489 298.024 77.7784C298.024 77.108 298.146 76.517 298.39 76.0057C298.637 75.4915 298.981 75.0909 299.422 74.804C299.865 74.5142 300.382 74.3693 300.973 74.3693C301.314 74.3693 301.65 74.4261 301.983 74.5398C302.315 74.6534 302.618 74.8381 302.89 75.0938C303.163 75.3466 303.38 75.6818 303.542 76.0994C303.704 76.517 303.785 77.0312 303.785 77.642V78.0682H298.74V77.1989H302.762C302.762 76.8295 302.689 76.5 302.541 76.2102C302.396 75.9205 302.189 75.6918 301.919 75.5241C301.652 75.3565 301.336 75.2727 300.973 75.2727C300.572 75.2727 300.225 75.3722 299.933 75.571C299.643 75.767 299.42 76.0227 299.264 76.3381C299.108 76.6534 299.029 76.9915 299.029 77.3523V77.9318C299.029 78.4261 299.115 78.8452 299.285 79.1889C299.458 79.5298 299.699 79.7898 300.005 79.9688C300.312 80.1449 300.669 80.233 301.075 80.233C301.339 80.233 301.578 80.196 301.791 80.1222C302.007 80.0455 302.193 79.9318 302.349 79.7812C302.505 79.6278 302.626 79.4375 302.711 79.2102L303.683 79.483C303.581 79.8125 303.409 80.1023 303.167 80.3523C302.926 80.5994 302.627 80.7926 302.272 80.9318C301.917 81.0682 301.518 81.1364 301.075 81.1364ZM305.315 81V74.4545H306.287V75.4432H306.355C306.474 75.1193 306.69 74.8565 307.002 74.6548C307.315 74.4531 307.667 74.3523 308.059 74.3523C308.133 74.3523 308.225 74.3537 308.336 74.3565C308.447 74.3594 308.531 74.3636 308.588 74.3693V75.392C308.554 75.3835 308.475 75.3707 308.353 75.3537C308.234 75.3338 308.108 75.3239 307.974 75.3239C307.656 75.3239 307.372 75.3906 307.122 75.5241C306.875 75.6548 306.679 75.8366 306.534 76.0696C306.392 76.2997 306.321 76.5625 306.321 76.858V81H305.315Z" fill="#A19A99"/>
<rect y="93" width="309" height="30" rx="4" fill="url(#paint6_linear_459_19508)" fill-opacity="0.6"/>
<rect x="0.5" y="93.5" width="308" height="29" rx="3.5" stroke="url(#paint7_linear_459_19508)" stroke-opacity="0.4"/>
<defs>
<linearGradient id="paint0_linear_459_19508" x1="39.375" y1="-4.32" x2="45.0875" y2="36.8849" gradientUnits="userSpaceOnUse">
<stop stop-color="#FF2F01" stop-opacity="0.2"/>
<stop offset="1" stop-color="#FF2F01" stop-opacity="0.7"/>
</linearGradient>
<linearGradient id="paint1_linear_459_19508" x1="101.25" y1="21.75" x2="107.092" y2="-20.5021" gradientUnits="userSpaceOnUse">
<stop stop-color="#FF2F01" stop-opacity="0.6"/>
<stop offset="1" stop-opacity="0"/>
<stop offset="1" stop-color="#FF2F01" stop-opacity="0.4"/>
</linearGradient>
<linearGradient id="paint2_linear_459_19508" x1="74.6875" y1="26.68" x2="77.7407" y2="68.4537" gradientUnits="userSpaceOnUse">
<stop stop-color="#FF2F01" stop-opacity="0.2"/>
<stop offset="1" stop-color="#FF2F01" stop-opacity="0.7"/>
</linearGradient>
<linearGradient id="paint3_linear_459_19508" x1="192.054" y1="52.75" x2="195.176" y2="9.91778" gradientUnits="userSpaceOnUse">
<stop stop-color="#FF2F01" stop-opacity="0.6"/>
<stop offset="1" stop-opacity="0"/>
<stop offset="1" stop-color="#FF2F01" stop-opacity="0.4"/>
</linearGradient>
<linearGradient id="paint4_linear_459_19508" x1="55.9375" y1="57.68" x2="59.9972" y2="99.2807" gradientUnits="userSpaceOnUse">
<stop stop-color="#FF2F01" stop-opacity="0.2"/>
<stop offset="1" stop-color="#FF2F01" stop-opacity="0.7"/>
</linearGradient>
<linearGradient id="paint5_linear_459_19508" x1="143.839" y1="83.75" x2="147.991" y2="41.0942" gradientUnits="userSpaceOnUse">
<stop stop-color="#FF2F01" stop-opacity="0.6"/>
<stop offset="1" stop-opacity="0"/>
<stop offset="1" stop-color="#FF2F01" stop-opacity="0.4"/>
</linearGradient>
<linearGradient id="paint6_linear_459_19508" x1="96.5625" y1="88.68" x2="98.9291" y2="130.543" gradientUnits="userSpaceOnUse">
<stop stop-color="#FF2F01" stop-opacity="0.2"/>
<stop offset="1" stop-color="#FF2F01" stop-opacity="0.7"/>
</linearGradient>
<linearGradient id="paint7_linear_459_19508" x1="248.304" y1="114.75" x2="250.724" y2="71.8266" gradientUnits="userSpaceOnUse">
<stop stop-color="#FF2F01" stop-opacity="0.6"/>
<stop offset="1" stop-opacity="0"/>
<stop offset="1" stop-color="#FF2F01" stop-opacity="0.4"/>
</linearGradient>
</defs>
</svg>
