<svg width="307" height="149" viewBox="0 0 307 149" fill="none" xmlns="http://www.w3.org/2000/svg">
<circle cx="40" cy="40" r="40" fill="url(#paint0_linear_459_19837)" fill-opacity="0.4"/>
<circle cx="40" cy="40" r="39.5" stroke="url(#paint1_linear_459_19837)" stroke-opacity="0.6"/>
<circle cx="120.667" cy="25" r="25" fill="url(#paint2_linear_459_19837)" fill-opacity="0.4"/>
<circle cx="120.667" cy="25" r="24.5" stroke="url(#paint3_linear_459_19837)" stroke-opacity="0.6"/>
<circle cx="201.333" cy="40" r="40" fill="url(#paint4_linear_459_19837)" fill-opacity="0.4"/>
<circle cx="201.333" cy="40" r="39.5" stroke="url(#paint5_linear_459_19837)" stroke-opacity="0.6"/>
<circle cx="55" cy="112" r="25" fill="url(#paint6_linear_459_19837)" fill-opacity="0.4"/>
<circle cx="55" cy="112" r="24.5" stroke="url(#paint7_linear_459_19837)" stroke-opacity="0.6"/>
<circle cx="204" cy="108" r="15" fill="url(#paint8_linear_459_19837)" fill-opacity="0.4"/>
<circle cx="204" cy="108" r="14.5" stroke="url(#paint9_linear_459_19837)" stroke-opacity="0.6"/>
<circle cx="282" cy="25" r="25" fill="url(#paint10_linear_459_19837)" fill-opacity="0.4"/>
<circle cx="282" cy="25" r="24.5" stroke="url(#paint11_linear_459_19837)" stroke-opacity="0.6"/>
<circle cx="136" cy="109" r="40" fill="url(#paint12_linear_459_19837)" fill-opacity="0.4"/>
<circle cx="136" cy="109" r="39.5" stroke="url(#paint13_linear_459_19837)" stroke-opacity="0.6"/>
<circle cx="270.5" cy="105.5" r="36.5" fill="url(#paint14_linear_459_19837)" fill-opacity="0.4"/>
<circle cx="270.5" cy="105.5" r="36" stroke="url(#paint15_linear_459_19837)" stroke-opacity="0.6"/>
<path fill-rule="evenodd" clip-rule="evenodd" d="M31.9332 30.4243C32.7216 29.7877 34.085 29.8717 34.7341 30.6478C35.8449 31.9694 36.9302 33.3098 38.0311 34.638C39.4387 36.3548 40.8702 38.0552 42.2612 39.7832C39.8423 42.653 37.4566 45.5456 35.0515 48.4251C34.6822 48.8473 34.367 49.3229 33.891 49.6534C33.442 49.9651 32.8372 50.0629 32.2937 49.9473C31.7701 49.8281 31.3123 49.4721 31.1166 49.0062C30.9872 48.7342 30.9894 48.4322 31.0115 48.1419C31.079 47.7248 31.3217 47.3525 31.5998 47.0256C33.6986 44.632 35.7891 42.2323 37.8901 39.8397C37.4002 39.2459 36.8738 38.6755 36.3702 38.0909C34.9282 36.4505 33.4918 34.8061 32.0532 33.1632C31.7502 32.828 31.4754 32.4532 31.3654 32.0229C31.2282 31.4484 31.4489 30.8108 31.9332 30.4243Z" fill="url(#paint16_linear_459_19837)" fill-opacity="0.6"/>
<path fill-rule="evenodd" clip-rule="evenodd" d="M46.3139 30.3297C46.722 30.0516 47.2516 29.9635 47.7492 30.0195C48.3513 30.1127 48.8976 30.5054 49.1066 31.0386C49.3504 31.637 49.1458 32.3158 48.7212 32.7996C47.0449 34.7354 45.3508 36.6579 43.6816 38.5982C43.592 38.5437 43.5412 38.4531 43.4737 38.3798C42.8113 37.5817 42.1335 36.7939 41.48 35.9902C42.7914 34.4176 44.0946 32.8394 45.4028 31.2642C45.6825 30.9347 45.9346 30.5721 46.3139 30.3297Z" fill="url(#paint17_linear_459_19837)" fill-opacity="0.6"/>
<path fill-rule="evenodd" clip-rule="evenodd" d="M43.4831 41.1689C43.5478 41.1001 43.5893 41.0069 43.6805 40.9637C45.374 42.9264 47.0825 44.879 48.7826 46.8366C49.0629 47.1508 49.3333 47.4895 49.4505 47.8877C49.612 48.4367 49.4489 49.0596 49.0209 49.4726C48.2811 50.1963 46.8547 50.1764 46.1603 49.4054C45.6748 48.8645 45.2292 48.2941 44.7587 47.7421C43.6413 46.3874 42.4973 45.0501 41.391 43.6883C42.0948 42.8531 42.7848 42.0077 43.4831 41.1689Z" fill="url(#paint18_linear_459_19837)" fill-opacity="0.6"/>
<path fill-rule="evenodd" clip-rule="evenodd" d="M121.263 19.5526C121.423 19.248 121.055 18.8793 120.753 19.0383C120.508 19.1371 120.445 19.496 120.636 19.6776C120.817 19.8669 121.17 19.8008 121.263 19.5526ZM117.904 19.6869C117.922 19.4851 117.69 19.3155 117.507 19.3917C117.252 19.4603 117.224 19.8663 117.471 19.9631C117.658 20.0673 117.923 19.906 117.904 19.6869ZM124.155 19.9693C123.869 19.9343 123.823 19.4794 124.099 19.3878C124.313 19.2824 124.509 19.48 124.541 19.6848C124.496 19.8597 124.351 20.0199 124.155 19.9693ZM118.942 21.2425C118.989 20.8829 118.552 20.5913 118.246 20.7871C117.959 20.9354 117.919 21.3777 118.18 21.5705C118.449 21.816 118.926 21.6056 118.942 21.2425ZM122.924 20.9949C123.061 20.639 123.615 20.6282 123.771 20.9747C123.925 21.2443 123.735 21.5783 123.461 21.6699C123.098 21.7384 122.753 21.342 122.924 20.9949ZM120.923 21.095C120.635 21.1158 120.359 21.3438 120.362 21.6497C120.346 21.8997 120.523 22.1039 120.733 22.208C120.754 22.2093 120.775 22.211 120.797 22.2128L120.797 22.2128L120.797 22.2128L120.797 22.2128L120.797 22.2128C120.915 22.2223 121.038 22.2322 121.145 22.1717C121.421 22.0485 121.557 21.6789 121.404 21.4104C121.322 21.2158 121.114 21.1336 120.923 21.095ZM115.535 22.0955C115.815 21.9217 116.193 22.2389 116.087 22.5461C116.028 22.8119 115.675 22.92 115.473 22.7503C115.257 22.5914 115.291 22.2092 115.535 22.0955ZM126.502 22.4253C126.53 22.1224 126.138 21.9087 125.901 22.095C125.657 22.2461 125.683 22.6497 125.943 22.7676C126.179 22.9099 126.518 22.7015 126.502 22.4253ZM121.72 22.645C122.112 22.5027 122.577 22.6729 122.801 23.026C123.095 23.4575 122.939 24.1147 122.481 24.3623C122.007 24.6552 121.315 24.4069 121.14 23.8724C120.942 23.3939 121.231 22.795 121.72 22.645ZM120.649 23.1076C120.439 22.6587 119.854 22.4849 119.42 22.692C118.957 22.9009 118.744 23.5171 118.984 23.9707C119.198 24.4398 119.821 24.632 120.263 24.3785C120.705 24.1529 120.896 23.5445 120.649 23.1076ZM117.117 23.4873C117.15 23.2045 117.414 23.0206 117.681 23.0015C117.968 23.0365 118.197 23.2617 118.228 23.5551C118.209 23.8456 117.987 24.1295 117.682 24.1278C117.347 24.1569 117.053 23.82 117.117 23.4873ZM124.726 23.5547C124.741 23.1553 124.263 22.8606 123.919 23.063C123.549 23.239 123.522 23.8212 123.878 24.0279C124.22 24.2762 124.749 23.9779 124.726 23.5547ZM118.484 24.5546C118.887 24.4427 119.347 24.6344 119.544 25.0082C119.761 25.3844 119.672 25.9071 119.336 26.183C118.905 26.5878 118.111 26.4253 117.882 25.8729C117.618 25.3665 117.938 24.6879 118.484 24.5546ZM123.908 24.952C123.697 24.5918 123.238 24.4394 122.846 24.5525C122.296 24.7046 122.005 25.4094 122.294 25.9081C122.533 26.3902 123.205 26.552 123.639 26.2437C124.053 25.9782 124.186 25.3639 123.908 24.952ZM115.895 25.0224C116.242 24.8896 116.628 25.2772 116.487 25.6254C116.401 25.9427 115.958 26.06 115.73 25.8261C115.462 25.6064 115.561 25.1177 115.895 25.0224ZM125.817 24.9629C125.521 24.979 125.31 25.2368 125.32 25.5278C125.378 25.6636 125.448 25.8052 125.585 25.8755C125.877 26.038 126.289 25.8029 126.267 25.457C126.286 25.1951 126.055 25.001 125.817 24.9629ZM114.185 25.1933C114.394 25.1011 114.653 25.2842 114.605 25.5189C114.594 25.7846 114.205 25.8868 114.063 25.6648C113.937 25.5106 114.012 25.2728 114.185 25.1933ZM127.818 25.332C127.76 25.1582 127.524 25.082 127.376 25.188C127.131 25.3201 127.227 25.7773 127.524 25.7499C127.736 25.782 127.917 25.5219 127.818 25.332ZM119.62 26.4636C120.171 26.319 120.762 26.7827 120.766 27.3553C120.802 27.9339 120.219 28.4469 119.655 28.3133C119.22 28.2425 118.878 27.8186 118.892 27.374C118.891 26.9487 119.209 26.5535 119.62 26.4636ZM122.96 27.3625C122.969 26.7766 122.359 26.3046 121.8 26.4624C121.469 26.5455 121.189 26.8213 121.115 27.1605C120.971 27.6694 121.354 28.2457 121.873 28.3135C122.425 28.4262 122.989 27.9304 122.96 27.3625ZM117.597 26.8148C117.983 26.7482 118.346 27.1839 118.189 27.5548C118.075 27.9499 117.505 28.0571 117.254 27.7343C116.958 27.4243 117.179 26.8576 117.597 26.8148ZM124.732 27.3656C124.759 26.9876 124.336 26.6864 123.991 26.8322C123.574 26.966 123.505 27.6077 123.886 27.8257C124.224 28.0686 124.746 27.7817 124.732 27.3656ZM125.778 28.6429C125.643 28.3887 125.888 28.0518 126.167 28.0988C126.299 28.0966 126.393 28.1952 126.478 28.2845L126.493 28.3L126.496 28.3258C126.514 28.4707 126.535 28.6369 126.418 28.7464C126.25 28.9613 125.869 28.9 125.778 28.6429ZM116.112 28.5643C116.171 28.2559 115.795 27.994 115.534 28.1696C115.285 28.2976 115.276 28.6976 115.517 28.8381C115.741 28.9929 116.081 28.837 116.112 28.5643ZM120.693 28.7405C121.035 28.5881 121.47 28.8887 121.438 29.2691C121.463 29.6894 120.925 29.9804 120.59 29.728C120.219 29.5113 120.281 28.8738 120.693 28.7405ZM118.959 29.7452C118.985 29.4161 118.595 29.1488 118.303 29.3036C118.098 29.381 118.015 29.6096 118.011 29.8148C118.081 30.0032 118.224 30.2012 118.443 30.2059C118.707 30.2459 118.968 30.0155 118.959 29.7452ZM123.144 29.3083C123.443 29.1214 123.869 29.3899 123.84 29.7419C123.848 30.1098 123.367 30.3455 123.088 30.1038C122.818 29.9143 122.851 29.4589 123.144 29.3083ZM124.225 30.915C124.009 30.9614 123.852 31.2066 123.985 31.4102C124.122 31.6466 124.521 31.562 124.547 31.2864C124.583 31.0828 124.399 30.9507 124.225 30.915ZM117.304 31.2334C117.357 31.0721 117.485 30.9117 117.673 30.9537C117.948 30.9734 118.029 31.3906 117.789 31.5192C117.573 31.6662 117.323 31.465 117.304 31.2334ZM121.087 31.1906C120.886 31.0638 120.58 31.1799 120.527 31.4185C120.431 31.6597 120.662 31.9511 120.917 31.9209C121.054 31.9245 121.16 31.8257 121.243 31.7269C121.259 31.6602 121.275 31.5935 121.294 31.5269L121.292 31.5226C121.259 31.3956 121.219 31.2477 121.087 31.1906Z" fill="url(#paint19_linear_459_19837)" fill-opacity="0.6"/>
<path fill-rule="evenodd" clip-rule="evenodd" d="M208.35 105.767C208.928 106.654 209.236 107.691 209.235 108.75C209.236 109.809 208.928 110.846 208.349 111.734L210.5 113.885L208.885 115.5L206.734 113.349C205.874 113.908 204.851 114.235 203.75 114.235C202.649 114.235 201.626 113.908 200.767 113.349L198.616 115.5L197 113.885L199.151 111.734C198.593 110.874 198.265 109.851 198.265 108.75C198.265 107.649 198.592 106.626 199.151 105.767L197 103.616L198.616 102L200.767 104.15C201.626 103.592 202.649 103.265 203.75 103.265C204.851 103.265 205.874 103.592 206.734 104.151L208.885 102L210.5 103.616L208.35 105.767ZM203.75 105.375C201.889 105.375 200.375 106.889 200.375 108.75C200.377 110.613 201.887 112.123 203.75 112.125C204.224 112.125 204.693 112.024 205.125 111.829L202.898 109.602L204.602 107.897L206.829 110.125C207.018 109.704 207.125 109.24 207.125 108.75C207.125 106.889 205.611 105.375 203.75 105.375Z" fill="url(#paint20_linear_459_19837)" fill-opacity="0.6"/>
<path fill-rule="evenodd" clip-rule="evenodd" d="M280.616 31.7552L282.44 29.7339C282.47 29.7035 282.45 29.653 282.399 29.653H280.391C280.381 29.653 280.36 29.6429 280.35 29.6328L278.65 27.753C278.64 27.7327 278.63 27.7125 278.64 27.6923L281.487 22.8714C281.497 22.8512 281.497 22.831 281.487 22.8209L280.309 20.8198C280.289 20.7894 280.238 20.7894 280.217 20.8198L276.008 27.9551C275.997 27.9753 275.997 27.9955 276.008 28.0157L279.387 31.7653C279.398 31.7754 279.408 31.7855 279.428 31.7855H280.576C280.586 31.7754 280.606 31.7653 280.616 31.7552Z" fill="url(#paint21_linear_459_19837)" fill-opacity="0.6"/>
<path d="M280.678 20.0315C280.668 20.0517 280.668 20.0719 280.678 20.082L281.907 22.164L285.164 27.6822C285.174 27.7024 285.174 27.7227 285.154 27.7429L283.433 29.6429L281.6 31.6845C281.569 31.7148 281.59 31.7653 281.641 31.7653H284.386C284.396 31.7653 284.416 31.7552 284.427 31.7451L287.806 27.9955C287.817 27.9753 287.827 27.9551 287.817 27.9349L281.948 18.0304C281.938 17.9899 281.887 17.9899 281.866 18.0304L280.678 20.0315Z" fill="url(#paint22_linear_459_19837)" fill-opacity="0.6"/>
<path fill-rule="evenodd" clip-rule="evenodd" d="M56.3891 119.069C55.4261 119.069 54.7241 118.849 54.2834 118.396C53.8426 117.942 53.6294 117.468 53.6294 116.944C53.6294 116.76 53.6653 116.596 53.7491 116.467C53.821 116.339 53.9264 116.236 54.0582 116.166C54.1899 116.096 54.3552 116.049 54.5469 116.049C54.7385 116.049 54.9038 116.084 55.0356 116.166C55.1673 116.236 55.2727 116.339 55.3446 116.467C55.4165 116.596 55.4644 116.757 55.4644 116.944C55.4644 117.176 55.4045 117.363 55.2967 117.5C55.1889 117.641 55.0476 117.744 54.8918 117.79C55.0236 117.963 55.2368 118.092 55.5219 118.174C55.807 118.255 56.092 118.29 56.3795 118.29C56.7844 118.29 57.1413 118.185 57.4623 117.977C57.7833 117.769 58.0205 117.456 58.1762 117.049C58.3319 116.643 58.4014 116.18 58.4014 115.657C58.4014 115.089 58.3176 114.612 58.1523 114.217C57.9846 113.81 57.7474 113.509 57.4264 113.324C57.1054 113.128 56.7604 113.034 56.3795 113.034C56.1304 113.034 55.8333 113.14 55.4644 113.336L54.7936 113.649V113.324L57.8265 109.379H53.6294V113.476C53.6294 113.813 53.7012 114.091 53.8545 114.313C54.0103 114.532 54.2474 114.638 54.5565 114.638C54.8056 114.638 55.0332 114.556 55.2584 114.395C55.4836 114.231 55.6752 114.035 55.8405 113.815C55.8645 113.768 55.8884 113.733 55.9124 113.722C55.9483 113.698 55.9723 113.686 56.0082 113.686C56.0681 113.686 56.128 113.71 56.2094 113.768C56.2813 113.85 56.3172 113.941 56.3172 114.046C56.3172 114.093 56.2933 114.163 56.2813 114.254C56.1136 114.638 55.8764 114.927 55.5674 115.124C55.2584 115.32 54.9254 115.425 54.5565 115.425C53.6413 115.425 53.0209 115.252 52.6639 114.904C52.319 114.556 52.1417 114.079 52.1417 113.488V109.379H50V108.613H52.1537V106.872L51.665 106.395V106H53.0927L53.627 106.266V108.601L59.1824 108.589L59.7286 109.122L56.3292 112.455C56.5304 112.373 56.746 112.326 56.9712 112.303C57.3402 112.303 57.757 112.42 58.2074 112.651C58.6721 112.871 59.0291 113.184 59.2782 113.579C59.5274 113.974 59.695 114.345 59.7669 114.705C59.8388 115.065 59.8867 115.378 59.8867 115.668C59.8867 116.306 59.743 116.898 59.4699 117.444C59.1968 117.989 58.7799 118.407 58.2098 118.674C57.6492 118.94 57.0431 119.069 56.3891 119.069Z" fill="url(#paint23_linear_459_19837)" fill-opacity="0.6"/>
<g opacity="0.8">
<path d="M270.839 91L270.646 91.6562V110.698L270.839 110.891L279.678 105.666L270.839 91Z" fill="url(#paint24_linear_459_19837)" fill-opacity="0.6"/>
<path d="M270.839 91L262 105.666L270.839 110.891V101.648V91Z" fill="url(#paint25_linear_459_19837)" fill-opacity="0.6"/>
<path d="M270.839 113.766L270.73 113.899V120.682L270.839 121L279.683 108.544L270.839 113.766Z" fill="url(#paint26_linear_459_19837)" fill-opacity="0.6"/>
<path d="M270.839 121V113.766L262 108.544L270.839 121Z" fill="url(#paint27_linear_459_19837)" fill-opacity="0.6"/>
<path d="M270.839 110.891L279.677 105.666L270.839 101.648V110.891Z" fill="url(#paint28_linear_459_19837)" fill-opacity="0.6"/>
<path d="M262 105.666L270.839 110.891V101.648L262 105.666Z" fill="url(#paint29_linear_459_19837)" fill-opacity="0.6"/>
</g>
<path fill-rule="evenodd" clip-rule="evenodd" d="M216.139 36.08C216.767 31.8771 213.567 29.6178 209.192 28.1105L210.611 22.4173L207.144 21.5536L205.763 27.0969C204.853 26.8698 203.917 26.6556 202.987 26.4434L204.379 20.8637L200.915 20L199.495 25.6913C198.741 25.5196 198 25.3498 197.282 25.1711L197.286 25.1534L192.507 23.96L191.585 27.6614C191.585 27.6614 194.156 28.2507 194.102 28.2872C195.505 28.6376 195.76 29.5664 195.716 30.3028L194.1 36.7886C194.196 36.8133 194.322 36.8489 194.46 36.9041L194.095 36.8133L191.828 45.8991C191.656 46.3255 191.22 46.9651 190.239 46.7223C190.274 46.7726 187.72 46.0935 187.72 46.0935L186 50.0614L190.511 51.1857C191.02 51.3133 191.523 51.4445 192.021 51.5743L192.021 51.5743L192.021 51.5746C192.343 51.6585 192.663 51.7419 192.98 51.8233L191.546 57.5827L195.008 58.4464L196.429 52.7492C197.374 53.0058 198.292 53.2427 199.19 53.4658L197.774 59.1363L201.24 60L202.674 54.2524C208.584 55.3708 213.028 54.9197 214.897 49.5758C216.404 45.2723 214.823 42.7899 211.714 41.1701C213.978 40.646 215.683 39.1566 216.138 36.08H216.139ZM208.22 47.1833C207.236 51.1332 201.053 49.4989 198.226 48.7518L198.226 48.7518C197.973 48.6849 197.746 48.6251 197.553 48.5771L199.456 40.9482C199.692 41.0071 199.981 41.0718 200.308 41.1452C203.232 41.8014 209.225 43.1463 208.221 47.1833H208.22ZM200.895 37.6051C203.254 38.2344 208.396 39.606 209.291 36.0179C210.207 32.3472 205.207 31.2408 202.766 30.7005C202.491 30.6397 202.249 30.5861 202.051 30.5368L200.326 37.456C200.489 37.4967 200.681 37.5478 200.895 37.6051Z" fill="url(#paint30_linear_459_19837)" fill-opacity="0.6"/>
<path d="M133.776 107.492V102.966H127.638V99H144.789V103.022H138.651V107.492H133.776Z" fill="url(#paint31_linear_459_19837)" fill-opacity="0.6"/>
<path fill-rule="evenodd" clip-rule="evenodd" d="M125 107.994C125 106.486 129.933 105.257 136.07 105.257C142.208 105.257 147.141 106.486 147.141 107.994C147.141 109.503 142.208 110.732 136.07 110.732C129.933 110.732 125 109.503 125 107.994ZM146.223 107.994C145.821 107.436 142.494 105.704 136.07 105.704C129.646 105.704 126.319 107.38 125.917 107.994C126.319 108.553 129.646 109.391 136.07 109.391C142.552 109.391 145.821 108.553 146.223 107.994Z" fill="url(#paint32_linear_459_19837)" fill-opacity="0.6"/>
<path d="M138.651 108.888V105.76C137.848 105.704 136.988 105.648 136.128 105.648C135.325 105.648 134.579 105.648 133.833 105.704V108.832C134.522 108.832 135.325 108.888 136.128 108.888C136.988 108.944 137.848 108.944 138.651 108.888Z" fill="url(#paint33_linear_459_19837)" fill-opacity="0.6"/>
<path d="M136.071 110.732C135.267 110.732 134.522 110.732 133.776 110.676V119H138.594V110.62C137.791 110.676 136.931 110.732 136.071 110.732Z" fill="url(#paint34_linear_459_19837)" fill-opacity="0.6"/>
<defs>
<linearGradient id="paint0_linear_459_19837" x1="64.2857" y1="58" x2="114.15" y2="-27.8697" gradientUnits="userSpaceOnUse">
<stop stop-color="#FF2F01" stop-opacity="0.6"/>
<stop offset="1" stop-opacity="0"/>
<stop offset="1" stop-color="#FF2F01" stop-opacity="0.4"/>
</linearGradient>
<linearGradient id="paint1_linear_459_19837" x1="25" y1="-11.52" x2="73.6988" y2="72.1155" gradientUnits="userSpaceOnUse">
<stop stop-color="#FF2F01" stop-opacity="0.2"/>
<stop offset="1" stop-color="#FF2F01" stop-opacity="0.7"/>
</linearGradient>
<linearGradient id="paint2_linear_459_19837" x1="135.845" y1="36.25" x2="167.011" y2="-17.4185" gradientUnits="userSpaceOnUse">
<stop stop-color="#FF2F01" stop-opacity="0.6"/>
<stop offset="1" stop-opacity="0"/>
<stop offset="1" stop-color="#FF2F01" stop-opacity="0.4"/>
</linearGradient>
<linearGradient id="paint3_linear_459_19837" x1="111.292" y1="-7.2" x2="141.728" y2="45.0722" gradientUnits="userSpaceOnUse">
<stop stop-color="#FF2F01" stop-opacity="0.2"/>
<stop offset="1" stop-color="#FF2F01" stop-opacity="0.7"/>
</linearGradient>
<linearGradient id="paint4_linear_459_19837" x1="225.619" y1="58" x2="275.484" y2="-27.8697" gradientUnits="userSpaceOnUse">
<stop stop-color="#FF2F01" stop-opacity="0.6"/>
<stop offset="1" stop-opacity="0"/>
<stop offset="1" stop-color="#FF2F01" stop-opacity="0.4"/>
</linearGradient>
<linearGradient id="paint5_linear_459_19837" x1="186.333" y1="-11.52" x2="235.032" y2="72.1155" gradientUnits="userSpaceOnUse">
<stop stop-color="#FF2F01" stop-opacity="0.2"/>
<stop offset="1" stop-color="#FF2F01" stop-opacity="0.7"/>
</linearGradient>
<linearGradient id="paint6_linear_459_19837" x1="70.1786" y1="123.25" x2="101.344" y2="69.5815" gradientUnits="userSpaceOnUse">
<stop stop-color="#FF2F01" stop-opacity="0.6"/>
<stop offset="1" stop-opacity="0"/>
<stop offset="1" stop-color="#FF2F01" stop-opacity="0.4"/>
</linearGradient>
<linearGradient id="paint7_linear_459_19837" x1="45.625" y1="79.8" x2="76.0618" y2="132.072" gradientUnits="userSpaceOnUse">
<stop stop-color="#FF2F01" stop-opacity="0.2"/>
<stop offset="1" stop-color="#FF2F01" stop-opacity="0.7"/>
</linearGradient>
<linearGradient id="paint8_linear_459_19837" x1="213.107" y1="114.75" x2="231.806" y2="82.5489" gradientUnits="userSpaceOnUse">
<stop stop-color="#FF2F01" stop-opacity="0.6"/>
<stop offset="1" stop-opacity="0"/>
<stop offset="1" stop-color="#FF2F01" stop-opacity="0.4"/>
</linearGradient>
<linearGradient id="paint9_linear_459_19837" x1="198.375" y1="88.68" x2="216.637" y2="120.043" gradientUnits="userSpaceOnUse">
<stop stop-color="#FF2F01" stop-opacity="0.2"/>
<stop offset="1" stop-color="#FF2F01" stop-opacity="0.7"/>
</linearGradient>
<linearGradient id="paint10_linear_459_19837" x1="297.179" y1="36.25" x2="328.344" y2="-17.4185" gradientUnits="userSpaceOnUse">
<stop stop-color="#FF2F01" stop-opacity="0.6"/>
<stop offset="1" stop-opacity="0"/>
<stop offset="1" stop-color="#FF2F01" stop-opacity="0.4"/>
</linearGradient>
<linearGradient id="paint11_linear_459_19837" x1="272.625" y1="-7.2" x2="303.062" y2="45.0722" gradientUnits="userSpaceOnUse">
<stop stop-color="#FF2F01" stop-opacity="0.2"/>
<stop offset="1" stop-color="#FF2F01" stop-opacity="0.7"/>
</linearGradient>
<linearGradient id="paint12_linear_459_19837" x1="160.286" y1="127" x2="210.15" y2="41.1303" gradientUnits="userSpaceOnUse">
<stop stop-color="#FF2F01" stop-opacity="0.6"/>
<stop offset="1" stop-opacity="0"/>
<stop offset="1" stop-color="#FF2F01" stop-opacity="0.4"/>
</linearGradient>
<linearGradient id="paint13_linear_459_19837" x1="121" y1="57.48" x2="169.699" y2="141.116" gradientUnits="userSpaceOnUse">
<stop stop-color="#FF2F01" stop-opacity="0.2"/>
<stop offset="1" stop-color="#FF2F01" stop-opacity="0.7"/>
</linearGradient>
<linearGradient id="paint14_linear_459_19837" x1="292.661" y1="121.925" x2="338.162" y2="43.5689" gradientUnits="userSpaceOnUse">
<stop stop-color="#FF2F01" stop-opacity="0.6"/>
<stop offset="1" stop-opacity="0"/>
<stop offset="1" stop-color="#FF2F01" stop-opacity="0.4"/>
</linearGradient>
<linearGradient id="paint15_linear_459_19837" x1="256.812" y1="58.488" x2="301.25" y2="134.805" gradientUnits="userSpaceOnUse">
<stop stop-color="#FF2F01" stop-opacity="0.2"/>
<stop offset="1" stop-color="#FF2F01" stop-opacity="0.7"/>
</linearGradient>
<linearGradient id="paint16_linear_459_19837" x1="34.5191" y1="27.1208" x2="48.5063" y2="40.6504" gradientUnits="userSpaceOnUse">
<stop stop-color="#FF2F01" stop-opacity="0.2"/>
<stop offset="1" stop-color="#FF2F01" stop-opacity="0.7"/>
</linearGradient>
<linearGradient id="paint17_linear_459_19837" x1="43.896" y1="28.7659" x2="49.3845" y2="37.2448" gradientUnits="userSpaceOnUse">
<stop stop-color="#FF2F01" stop-opacity="0.2"/>
<stop offset="1" stop-color="#FF2F01" stop-opacity="0.7"/>
</linearGradient>
<linearGradient id="paint18_linear_459_19837" x1="43.9287" y1="39.6624" x2="49.7015" y2="48.572" gradientUnits="userSpaceOnUse">
<stop stop-color="#FF2F01" stop-opacity="0.2"/>
<stop offset="1" stop-color="#FF2F01" stop-opacity="0.7"/>
</linearGradient>
<linearGradient id="paint19_linear_459_19837" x1="118.327" y1="17.1391" x2="125.917" y2="31.1052" gradientUnits="userSpaceOnUse">
<stop stop-color="#FF2F01" stop-opacity="0.2"/>
<stop offset="1" stop-color="#FF2F01" stop-opacity="0.7"/>
</linearGradient>
<linearGradient id="paint20_linear_459_19837" x1="201.219" y1="100.056" x2="209.437" y2="114.169" gradientUnits="userSpaceOnUse">
<stop stop-color="#FF2F01" stop-opacity="0.2"/>
<stop offset="1" stop-color="#FF2F01" stop-opacity="0.7"/>
</linearGradient>
<linearGradient id="paint21_linear_459_19837" x1="278.017" y1="19.2147" x2="285.708" y2="26.9728" gradientUnits="userSpaceOnUse">
<stop stop-color="#FF2F01" stop-opacity="0.2"/>
<stop offset="1" stop-color="#FF2F01" stop-opacity="0.7"/>
</linearGradient>
<linearGradient id="paint22_linear_459_19837" x1="282.905" y1="16.0178" x2="292.477" y2="24.5578" gradientUnits="userSpaceOnUse">
<stop stop-color="#FF2F01" stop-opacity="0.2"/>
<stop offset="1" stop-color="#FF2F01" stop-opacity="0.7"/>
</linearGradient>
<linearGradient id="paint23_linear_459_19837" x1="53.0896" y1="104.118" x2="61.9322" y2="115.607" gradientUnits="userSpaceOnUse">
<stop stop-color="#FF2F01" stop-opacity="0.2"/>
<stop offset="1" stop-color="#FF2F01" stop-opacity="0.7"/>
</linearGradient>
<linearGradient id="paint24_linear_459_19837" x1="273.468" y1="88.1357" x2="286.971" y2="98.6658" gradientUnits="userSpaceOnUse">
<stop stop-color="#FF2F01" stop-opacity="0.2"/>
<stop offset="1" stop-color="#FF2F01" stop-opacity="0.7"/>
</linearGradient>
<linearGradient id="paint25_linear_459_19837" x1="264.762" y1="88.1357" x2="278.191" y2="98.3844" gradientUnits="userSpaceOnUse">
<stop stop-color="#FF2F01" stop-opacity="0.2"/>
<stop offset="1" stop-color="#FF2F01" stop-opacity="0.7"/>
</linearGradient>
<linearGradient id="paint26_linear_459_19837" x1="273.528" y1="106.751" x2="282.056" y2="117.279" gradientUnits="userSpaceOnUse">
<stop stop-color="#FF2F01" stop-opacity="0.2"/>
<stop offset="1" stop-color="#FF2F01" stop-opacity="0.7"/>
</linearGradient>
<linearGradient id="paint27_linear_459_19837" x1="264.762" y1="106.751" x2="273.313" y2="117.171" gradientUnits="userSpaceOnUse">
<stop stop-color="#FF2F01" stop-opacity="0.2"/>
<stop offset="1" stop-color="#FF2F01" stop-opacity="0.7"/>
</linearGradient>
<linearGradient id="paint28_linear_459_19837" x1="273.601" y1="100.318" x2="279.348" y2="109.757" gradientUnits="userSpaceOnUse">
<stop stop-color="#FF2F01" stop-opacity="0.2"/>
<stop offset="1" stop-color="#FF2F01" stop-opacity="0.7"/>
</linearGradient>
<linearGradient id="paint29_linear_459_19837" x1="264.762" y1="100.318" x2="270.509" y2="109.757" gradientUnits="userSpaceOnUse">
<stop stop-color="#FF2F01" stop-opacity="0.2"/>
<stop offset="1" stop-color="#FF2F01" stop-opacity="0.7"/>
</linearGradient>
<linearGradient id="paint30_linear_459_19837" x1="195.443" y1="14.24" x2="222.518" y2="49.3675" gradientUnits="userSpaceOnUse">
<stop stop-color="#FF2F01" stop-opacity="0.2"/>
<stop offset="1" stop-color="#FF2F01" stop-opacity="0.7"/>
</linearGradient>
<linearGradient id="paint31_linear_459_19837" x1="132.998" y1="97.7772" x2="136.162" y2="108.752" gradientUnits="userSpaceOnUse">
<stop stop-color="#FF2F01" stop-opacity="0.2"/>
<stop offset="1" stop-color="#FF2F01" stop-opacity="0.7"/>
</linearGradient>
<linearGradient id="paint32_linear_459_19837" x1="131.919" y1="104.468" x2="133" y2="111.977" gradientUnits="userSpaceOnUse">
<stop stop-color="#FF2F01" stop-opacity="0.2"/>
<stop offset="1" stop-color="#FF2F01" stop-opacity="0.7"/>
</linearGradient>
<linearGradient id="paint33_linear_459_19837" x1="135.339" y1="105.175" x2="136.914" y2="109.145" gradientUnits="userSpaceOnUse">
<stop stop-color="#FF2F01" stop-opacity="0.2"/>
<stop offset="1" stop-color="#FF2F01" stop-opacity="0.7"/>
</linearGradient>
<linearGradient id="paint34_linear_459_19837" x1="135.282" y1="109.413" x2="141.147" y2="115.205" gradientUnits="userSpaceOnUse">
<stop stop-color="#FF2F01" stop-opacity="0.2"/>
<stop offset="1" stop-color="#FF2F01" stop-opacity="0.7"/>
</linearGradient>
</defs>
</svg>
