<svg width="320" height="123" viewBox="0 0 320 123" fill="none" xmlns="http://www.w3.org/2000/svg">
<g opacity="0.24" clip-path="url(#clip0_459_19076)">
<path d="M296.022 29.0186C304.011 29.0186 304.011 13.5051 312 13.5051V123H-247.243V112.681C-238.588 112.681 -239.254 118.388 -231.264 118.388C-223.275 118.388 -223.275 102.181 -215.286 102.181C-207.297 102.181 -208.628 107.168 -199.308 107.168C-189.987 107.168 -192.65 116.504 -183.329 116.504C-174.009 116.504 -176.006 112.958 -167.351 112.958C-158.696 112.958 -160.36 96.0591 -151.373 96.0591C-142.385 96.0591 -144.715 101.572 -135.394 101.572C-126.073 101.572 -127.738 109.163 -119.416 109.163C-111.094 109.163 -112.425 83.953 -103.437 83.953C-94.4496 83.953 -95.4483 92.6794 -87.4591 92.6794C-79.4699 92.6794 -80.8015 80.4625 -71.4807 80.4625C-62.16 80.4625 -64.1573 88.2747 -55.5024 88.2747C-46.8474 88.2747 -48.179 56.3335 -39.524 56.3335C-30.869 56.3335 -32.5335 65.226 -23.5457 65.226C-14.5578 65.226 -16.888 71.099 -7.56729 71.099C1.75342 71.099 -0.576752 55.8625 8.41107 55.8625C17.3989 55.8625 15.0687 63.3422 24.3894 63.3422C33.7102 63.3422 32.0457 51.0145 40.3678 51.0145C48.6899 51.0145 47.6912 30.4037 56.3462 30.4037C65.0011 30.4037 63.6696 64.8936 72.3245 64.8936C80.9795 64.8936 79.9808 40.7368 88.3029 40.7368C96.625 40.7368 94.9606 51.3193 104.281 51.3193C113.602 51.3193 111.605 60.8213 120.26 60.8213C128.915 60.8213 127.916 45.0862 136.238 45.0862C144.56 45.0862 143.894 60.0456 152.216 60.0456C160.538 60.0456 159.54 53.397 168.195 53.397C176.85 53.397 175.518 39.6841 184.173 39.6841C192.828 39.6841 191.497 45.1693 200.151 45.1693C208.806 45.1693 208.141 25.1402 216.13 25.1402C224.119 25.1402 222.787 52.5936 232.108 52.5936C241.429 52.5936 239.099 33.9497 248.087 33.9497C257.074 33.9497 255.743 41.6233 264.065 41.6233C272.387 41.6233 271.721 22.5085 280.043 22.5085C288.365 22.5085 288.032 29.0186 296.022 29.0186Z" fill="url(#paint0_linear_459_19076)"/>
</g>
<g clip-path="url(#clip1_459_19076)">
<path d="M312 13.5051C304.011 13.5051 304.011 29.0186 296.022 29.0186C288.032 29.0186 288.365 22.5085 280.043 22.5085C271.721 22.5085 272.387 41.6234 264.065 41.6234C255.743 41.6234 257.074 33.9497 248.087 33.9497C239.099 33.9497 241.429 52.5936 232.108 52.5936C222.787 52.5936 224.119 25.1402 216.13 25.1402C208.141 25.1402 208.806 45.1693 200.151 45.1693C191.497 45.1693 192.828 39.6842 184.173 39.6842C175.518 39.6842 176.85 53.397 168.195 53.397C159.54 53.397 160.538 60.0457 152.216 60.0457C143.894 60.0457 144.56 45.0862 136.238 45.0862C127.916 45.0862 128.915 60.8213 120.26 60.8213C111.605 60.8213 113.602 51.3193 104.281 51.3193C94.9606 51.3193 96.625 40.7369 88.3029 40.7369C79.9808 40.7369 80.9795 64.8936 72.3245 64.8936C63.6696 64.8936 65.0011 30.4038 56.3462 30.4038C47.6912 30.4038 48.6899 51.0146 40.3678 51.0146C32.0457 51.0146 33.7102 63.3423 24.3894 63.3423C15.0687 63.3423 17.3989 55.8625 8.41108 55.8625C-0.576746 55.8625 1.75343 71.099 -7.56728 71.099C-16.888 71.099 -14.5578 65.2261 -23.5456 65.2261C-32.5335 65.2261 -30.8691 56.3335 -39.524 56.3335C-48.179 56.3335 -46.8474 88.2747 -55.5024 88.2747C-64.1573 88.2747 -62.16 80.4625 -71.4807 80.4625C-80.8014 80.4625 -79.4699 92.6794 -87.4591 92.6794C-95.4483 92.6794 -94.4496 83.9531 -103.437 83.9531C-112.425 83.9531 -111.094 109.163 -119.416 109.163C-127.738 109.163 -126.073 101.572 -135.394 101.572C-144.715 101.572 -142.385 96.0592 -151.373 96.0592C-160.36 96.0592 -158.696 112.958 -167.351 112.958C-176.006 112.958 -174.009 116.504 -183.329 116.504C-192.65 116.504 -189.987 107.168 -199.308 107.168C-208.628 107.168 -207.297 102.181 -215.286 102.181C-223.275 102.181 -223.275 118.388 -231.264 118.388C-239.254 118.388 -238.588 112.681 -247.243 112.681" stroke="#FF2F01" stroke-width="0.665765"/>
</g>
<rect width="5.32612" height="5.32612" rx="2.66306" transform="matrix(-1 0 0 1 298.674 26.5526)" fill="#FF2F01"/>
<rect x="0.332883" y="-0.332883" width="5.99189" height="5.99189" rx="2.99594" transform="matrix(-1 0 0 1 299.34 26.5526)" stroke="url(#paint1_linear_459_19076)" stroke-opacity="0.6" stroke-width="0.665765"/>
<rect width="5.32612" height="5.32612" rx="2.66306" transform="matrix(-1 0 0 1 282.696 20.0182)" fill="#FF2F01"/>
<rect x="0.332883" y="-0.332883" width="5.99189" height="5.99189" rx="2.99594" transform="matrix(-1 0 0 1 283.361 20.0182)" stroke="url(#paint2_linear_459_19076)" stroke-opacity="0.6" stroke-width="0.665765"/>
<rect width="5.32612" height="5.32612" rx="2.66306" transform="matrix(-1 0 0 1 266.717 39.237)" fill="#FF2F01"/>
<rect x="0.332883" y="-0.332883" width="5.99189" height="5.99189" rx="2.99594" transform="matrix(-1 0 0 1 267.383 39.237)" stroke="url(#paint3_linear_459_19076)" stroke-opacity="0.6" stroke-width="0.665765"/>
<rect width="5.32612" height="5.32612" rx="2.66306" transform="matrix(-1 0 0 1 250.739 31.5495)" fill="#FF2F01"/>
<rect x="0.332883" y="-0.332883" width="5.99189" height="5.99189" rx="2.99594" transform="matrix(-1 0 0 1 251.405 31.5495)" stroke="url(#paint4_linear_459_19076)" stroke-opacity="0.6" stroke-width="0.665765"/>
<rect width="5.32612" height="5.32612" rx="2.66306" transform="matrix(-1 0 0 1 314.652 10.7932)" fill="#FF2F01"/>
<rect x="0.332883" y="-0.332883" width="5.99189" height="5.99189" rx="2.99594" transform="matrix(-1 0 0 1 315.318 10.7932)" stroke="url(#paint5_linear_459_19076)" stroke-opacity="0.6" stroke-width="0.665765"/>
<rect width="5.32612" height="5.32612" rx="2.66306" transform="matrix(-1 0 0 1 218.782 22.7088)" fill="#FF2F01"/>
<rect x="0.332883" y="-0.332883" width="5.99189" height="5.99189" rx="2.99594" transform="matrix(-1 0 0 1 219.448 22.7088)" stroke="url(#paint6_linear_459_19076)" stroke-opacity="0.6" stroke-width="0.665765"/>
<rect width="5.32612" height="5.32612" rx="2.66306" transform="matrix(-1 0 0 1 202.804 43.0807)" fill="#FF2F01"/>
<rect x="0.332883" y="-0.332883" width="5.99189" height="5.99189" rx="2.99594" transform="matrix(-1 0 0 1 203.469 43.0807)" stroke="url(#paint7_linear_459_19076)" stroke-opacity="0.6" stroke-width="0.665765"/>
<rect width="5.32612" height="5.32612" rx="2.66306" transform="matrix(-1 0 0 1 186.825 37.6994)" fill="#FF2F01"/>
<rect x="0.332883" y="-0.332883" width="5.99189" height="5.99189" rx="2.99594" transform="matrix(-1 0 0 1 187.491 37.6994)" stroke="url(#paint8_linear_459_19076)" stroke-opacity="0.6" stroke-width="0.665765"/>
<rect width="5.32612" height="5.32612" rx="2.66306" transform="matrix(-1 0 0 1 170.847 51.1526)" fill="#FF2F01"/>
<rect x="0.332883" y="-0.332883" width="5.99189" height="5.99189" rx="2.99594" transform="matrix(-1 0 0 1 171.513 51.1526)" stroke="url(#paint9_linear_459_19076)" stroke-opacity="0.6" stroke-width="0.665765"/>
<rect width="5.32612" height="5.32612" rx="2.66306" transform="matrix(-1 0 0 1 234.76 50.3839)" fill="#FF2F01"/>
<rect x="0.332883" y="-0.332883" width="5.99189" height="5.99189" rx="2.99594" transform="matrix(-1 0 0 1 235.426 50.3839)" stroke="url(#paint10_linear_459_19076)" stroke-opacity="0.6" stroke-width="0.665765"/>
<rect width="5.32612" height="5.32612" rx="2.66306" transform="matrix(-1 0 0 1 138.89 42.6963)" fill="#FF2F01"/>
<rect x="0.332883" y="-0.332883" width="5.99189" height="5.99189" rx="2.99594" transform="matrix(-1 0 0 1 139.556 42.6963)" stroke="url(#paint11_linear_459_19076)" stroke-opacity="0.6" stroke-width="0.665765"/>
<rect width="5.32612" height="5.32612" rx="2.66306" transform="matrix(-1 0 0 1 122.912 58.4557)" fill="#FF2F01"/>
<rect x="0.332883" y="-0.332883" width="5.99189" height="5.99189" rx="2.99594" transform="matrix(-1 0 0 1 123.578 58.4557)" stroke="url(#paint12_linear_459_19076)" stroke-opacity="0.6" stroke-width="0.665765"/>
<rect width="5.32612" height="5.32612" rx="2.66306" transform="matrix(-1 0 0 1 106.934 49.2307)" fill="#FF2F01"/>
<rect x="0.332883" y="-0.332883" width="5.99189" height="5.99189" rx="2.99594" transform="matrix(-1 0 0 1 107.599 49.2307)" stroke="url(#paint13_linear_459_19076)" stroke-opacity="0.6" stroke-width="0.665765"/>
<rect width="5.32612" height="5.32612" rx="2.66306" transform="matrix(-1 0 0 1 90.9551 38.4682)" fill="#FF2F01"/>
<rect x="0.332883" y="-0.332883" width="5.99189" height="5.99189" rx="2.99594" transform="matrix(-1 0 0 1 91.6208 38.4682)" stroke="url(#paint14_linear_459_19076)" stroke-opacity="0.6" stroke-width="0.665765"/>
<rect width="5.32612" height="5.32612" rx="2.66306" transform="matrix(-1 0 0 1 74.9768 62.6838)" fill="#FF2F01"/>
<rect x="0.332883" y="-0.332883" width="5.99189" height="5.99189" rx="2.99594" transform="matrix(-1 0 0 1 75.6426 62.6838)" stroke="url(#paint15_linear_459_19076)" stroke-opacity="0.6" stroke-width="0.665765"/>
<rect width="5.32612" height="5.32612" rx="2.66306" transform="matrix(-1 0 0 1 154.869 58.0713)" fill="#FF2F01"/>
<rect x="0.332883" y="-0.332883" width="5.99189" height="5.99189" rx="2.99594" transform="matrix(-1 0 0 1 155.534 58.0713)" stroke="url(#paint16_linear_459_19076)" stroke-opacity="0.6" stroke-width="0.665765"/>
<rect width="5.32612" height="5.32612" rx="2.66306" transform="matrix(-1 0 0 1 43.02 48.8463)" fill="#FF2F01"/>
<rect x="0.332883" y="-0.332883" width="5.99189" height="5.99189" rx="2.99594" transform="matrix(-1 0 0 1 43.6858 48.8463)" stroke="url(#paint17_linear_459_19076)" stroke-opacity="0.6" stroke-width="0.665765"/>
<rect width="5.32612" height="5.32612" rx="2.66306" transform="matrix(-1 0 0 1 27.0417 61.1463)" fill="#FF2F01"/>
<rect x="0.332883" y="-0.332883" width="5.99189" height="5.99189" rx="2.99594" transform="matrix(-1 0 0 1 27.7075 61.1463)" stroke="url(#paint18_linear_459_19076)" stroke-opacity="0.6" stroke-width="0.665765"/>
<rect width="5.32612" height="5.32612" rx="2.66306" transform="matrix(-1 0 0 1 11.0635 53.4588)" fill="#FF2F01"/>
<rect x="0.332883" y="-0.332883" width="5.99189" height="5.99189" rx="2.99594" transform="matrix(-1 0 0 1 11.7292 53.4588)" stroke="url(#paint19_linear_459_19076)" stroke-opacity="0.6" stroke-width="0.665765"/>
<rect width="5.32612" height="5.32612" rx="2.66306" transform="matrix(-1 0 0 1 58.9985 28.0901)" fill="#FF2F01"/>
<rect x="0.332883" y="-0.332883" width="5.99189" height="5.99189" rx="2.99594" transform="matrix(-1 0 0 1 59.6643 28.0901)" stroke="url(#paint20_linear_459_19076)" stroke-opacity="0.6" stroke-width="0.665765"/>
<defs>
<linearGradient id="paint0_linear_459_19076" x1="-90.7994" y1="39.814" x2="-83.1019" y2="137.192" gradientUnits="userSpaceOnUse">
<stop stop-color="#FF2F01" stop-opacity="0.6"/>
<stop offset="1"/>
<stop offset="1" stop-color="#FF2F01" stop-opacity="0.4"/>
</linearGradient>
<linearGradient id="paint1_linear_459_19076" x1="1.66441" y1="-0.766961" x2="4.90661" y2="4.8012" gradientUnits="userSpaceOnUse">
<stop stop-color="#FF2F01" stop-opacity="0.2"/>
<stop offset="1" stop-color="#FF2F01" stop-opacity="0.7"/>
</linearGradient>
<linearGradient id="paint2_linear_459_19076" x1="1.66441" y1="-0.766961" x2="4.90661" y2="4.8012" gradientUnits="userSpaceOnUse">
<stop stop-color="#FF2F01" stop-opacity="0.2"/>
<stop offset="1" stop-color="#FF2F01" stop-opacity="0.7"/>
</linearGradient>
<linearGradient id="paint3_linear_459_19076" x1="1.66441" y1="-0.766961" x2="4.90661" y2="4.8012" gradientUnits="userSpaceOnUse">
<stop stop-color="#FF2F01" stop-opacity="0.2"/>
<stop offset="1" stop-color="#FF2F01" stop-opacity="0.7"/>
</linearGradient>
<linearGradient id="paint4_linear_459_19076" x1="1.66441" y1="-0.766961" x2="4.90661" y2="4.8012" gradientUnits="userSpaceOnUse">
<stop stop-color="#FF2F01" stop-opacity="0.2"/>
<stop offset="1" stop-color="#FF2F01" stop-opacity="0.7"/>
</linearGradient>
<linearGradient id="paint5_linear_459_19076" x1="1.66441" y1="-0.766961" x2="4.90661" y2="4.8012" gradientUnits="userSpaceOnUse">
<stop stop-color="#FF2F01" stop-opacity="0.2"/>
<stop offset="1" stop-color="#FF2F01" stop-opacity="0.7"/>
</linearGradient>
<linearGradient id="paint6_linear_459_19076" x1="1.66441" y1="-0.766961" x2="4.90661" y2="4.8012" gradientUnits="userSpaceOnUse">
<stop stop-color="#FF2F01" stop-opacity="0.2"/>
<stop offset="1" stop-color="#FF2F01" stop-opacity="0.7"/>
</linearGradient>
<linearGradient id="paint7_linear_459_19076" x1="1.66441" y1="-0.766961" x2="4.90661" y2="4.8012" gradientUnits="userSpaceOnUse">
<stop stop-color="#FF2F01" stop-opacity="0.2"/>
<stop offset="1" stop-color="#FF2F01" stop-opacity="0.7"/>
</linearGradient>
<linearGradient id="paint8_linear_459_19076" x1="1.66441" y1="-0.766961" x2="4.90661" y2="4.8012" gradientUnits="userSpaceOnUse">
<stop stop-color="#FF2F01" stop-opacity="0.2"/>
<stop offset="1" stop-color="#FF2F01" stop-opacity="0.7"/>
</linearGradient>
<linearGradient id="paint9_linear_459_19076" x1="1.66441" y1="-0.766961" x2="4.90661" y2="4.8012" gradientUnits="userSpaceOnUse">
<stop stop-color="#FF2F01" stop-opacity="0.2"/>
<stop offset="1" stop-color="#FF2F01" stop-opacity="0.7"/>
</linearGradient>
<linearGradient id="paint10_linear_459_19076" x1="1.66441" y1="-0.766961" x2="4.90661" y2="4.8012" gradientUnits="userSpaceOnUse">
<stop stop-color="#FF2F01" stop-opacity="0.2"/>
<stop offset="1" stop-color="#FF2F01" stop-opacity="0.7"/>
</linearGradient>
<linearGradient id="paint11_linear_459_19076" x1="1.66441" y1="-0.766961" x2="4.90661" y2="4.8012" gradientUnits="userSpaceOnUse">
<stop stop-color="#FF2F01" stop-opacity="0.2"/>
<stop offset="1" stop-color="#FF2F01" stop-opacity="0.7"/>
</linearGradient>
<linearGradient id="paint12_linear_459_19076" x1="1.66441" y1="-0.766961" x2="4.90661" y2="4.8012" gradientUnits="userSpaceOnUse">
<stop stop-color="#FF2F01" stop-opacity="0.2"/>
<stop offset="1" stop-color="#FF2F01" stop-opacity="0.7"/>
</linearGradient>
<linearGradient id="paint13_linear_459_19076" x1="1.66441" y1="-0.766961" x2="4.90661" y2="4.8012" gradientUnits="userSpaceOnUse">
<stop stop-color="#FF2F01" stop-opacity="0.2"/>
<stop offset="1" stop-color="#FF2F01" stop-opacity="0.7"/>
</linearGradient>
<linearGradient id="paint14_linear_459_19076" x1="1.66441" y1="-0.766961" x2="4.90661" y2="4.8012" gradientUnits="userSpaceOnUse">
<stop stop-color="#FF2F01" stop-opacity="0.2"/>
<stop offset="1" stop-color="#FF2F01" stop-opacity="0.7"/>
</linearGradient>
<linearGradient id="paint15_linear_459_19076" x1="1.66441" y1="-0.766961" x2="4.90661" y2="4.8012" gradientUnits="userSpaceOnUse">
<stop stop-color="#FF2F01" stop-opacity="0.2"/>
<stop offset="1" stop-color="#FF2F01" stop-opacity="0.7"/>
</linearGradient>
<linearGradient id="paint16_linear_459_19076" x1="1.66441" y1="-0.766961" x2="4.90661" y2="4.8012" gradientUnits="userSpaceOnUse">
<stop stop-color="#FF2F01" stop-opacity="0.2"/>
<stop offset="1" stop-color="#FF2F01" stop-opacity="0.7"/>
</linearGradient>
<linearGradient id="paint17_linear_459_19076" x1="1.66441" y1="-0.766961" x2="4.90661" y2="4.8012" gradientUnits="userSpaceOnUse">
<stop stop-color="#FF2F01" stop-opacity="0.2"/>
<stop offset="1" stop-color="#FF2F01" stop-opacity="0.7"/>
</linearGradient>
<linearGradient id="paint18_linear_459_19076" x1="1.66441" y1="-0.766961" x2="4.90661" y2="4.8012" gradientUnits="userSpaceOnUse">
<stop stop-color="#FF2F01" stop-opacity="0.2"/>
<stop offset="1" stop-color="#FF2F01" stop-opacity="0.7"/>
</linearGradient>
<linearGradient id="paint19_linear_459_19076" x1="1.66441" y1="-0.766961" x2="4.90661" y2="4.8012" gradientUnits="userSpaceOnUse">
<stop stop-color="#FF2F01" stop-opacity="0.2"/>
<stop offset="1" stop-color="#FF2F01" stop-opacity="0.7"/>
</linearGradient>
<linearGradient id="paint20_linear_459_19076" x1="1.66441" y1="-0.766961" x2="4.90661" y2="4.8012" gradientUnits="userSpaceOnUse">
<stop stop-color="#FF2F01" stop-opacity="0.2"/>
<stop offset="1" stop-color="#FF2F01" stop-opacity="0.7"/>
</linearGradient>
<clipPath id="clip0_459_19076">
<rect width="307" height="109.495" fill="white" transform="matrix(-1 0 0 1 312 13.5051)"/>
</clipPath>
<clipPath id="clip1_459_19076">
<rect width="307" height="109.547" fill="white" transform="matrix(-1 0 0 1 312 13.4532)"/>
</clipPath>
</defs>
</svg>
