<svg width="320" height="137" viewBox="0 0 320 137" fill="none" xmlns="http://www.w3.org/2000/svg">
<g opacity="0.16" clip-path="url(#clip0_459_20039)">
<path d="M23.9784 32.3556L8 15.0927V136.935H567.243V39.9082L551.264 25.7279L535.286 62.4426L519.308 57.7261L503.329 85.2235L487.351 74.4342L471.373 106.956L455.394 89.1385L439.416 121.537L423.437 93.4851L407.459 103.196L391.481 48.5397L375.502 40.124L359.524 59.3291L343.546 65.8027L327.567 31.2767L311.589 48.5397L295.611 56.8629L279.632 43.145L263.654 85.2235L247.675 72.2763L231.697 103.565L215.719 57.1712L199.74 91.6972L183.762 118.671L167.784 66.8816L151.805 76.592L135.827 44.2239L119.849 57.1712L103.87 28.0399L87.8918 72.2763L71.9135 96.0129L55.9351 46.3818L39.9567 59.3291L23.9784 32.3556Z" fill="#FF2F01"/>
</g>
<g clip-path="url(#clip1_459_20039)">
<path d="M8 15.0927L23.9784 32.3556L39.9567 59.3291L55.9351 46.3818L71.9135 96.0129L87.8918 72.2763L103.87 28.0399L119.849 57.1712L135.827 44.2239L151.805 76.592L167.784 66.8816L183.762 118.671L199.74 91.6972L215.719 57.1712L231.697 103.565L247.675 72.2763L263.654 85.2235L279.632 43.145L295.611 56.8629L311.589 48.5397L327.567 31.2767L343.546 65.8027L359.524 59.3291L375.502 40.124L391.481 48.5397L407.459 103.196L423.437 93.4851L439.416 121.537L455.394 89.1385L471.373 106.956L487.351 74.4342L503.329 85.2235L519.308 57.7261L535.286 62.4426L551.264 25.7279L567.243 39.9082" stroke="#FF2F01" stroke-width="0.665765"/>
</g>
<rect x="21.326" y="29.3479" width="5.32612" height="5.32612" rx="2.66306" fill="#FF2F01"/>
<rect x="20.9932" y="29.015" width="5.99189" height="5.99189" rx="2.99594" stroke="url(#paint0_linear_459_20039)" stroke-opacity="0.4" stroke-width="0.665765"/>
<rect x="37.3044" y="56.2944" width="5.32612" height="5.32612" rx="2.66306" fill="#FF2F01"/>
<rect x="36.9716" y="55.9616" width="5.99189" height="5.99189" rx="2.99594" stroke="url(#paint1_linear_459_20039)" stroke-opacity="0.4" stroke-width="0.665765"/>
<rect x="53.2828" y="43.4628" width="5.32612" height="5.32612" rx="2.66306" fill="#FF2F01"/>
<rect x="52.95" y="43.1299" width="5.99189" height="5.99189" rx="2.99594" stroke="url(#paint2_linear_459_20039)" stroke-opacity="0.4" stroke-width="0.665765"/>
<rect x="69.2612" y="93.0784" width="5.32612" height="5.32612" rx="2.66306" fill="#FF2F01"/>
<rect x="68.9283" y="92.7455" width="5.99189" height="5.99189" rx="2.99594" stroke="url(#paint3_linear_459_20039)" stroke-opacity="0.4" stroke-width="0.665765"/>
<rect x="5.34778" y="11.8113" width="5.32612" height="5.32612" rx="2.66306" fill="#FF2F01"/>
<rect x="5.0149" y="11.4785" width="5.99189" height="5.99189" rx="2.99594" stroke="url(#paint4_linear_459_20039)" stroke-opacity="0.4" stroke-width="0.665765"/>
<rect x="101.218" y="25.0707" width="5.32612" height="5.32612" rx="2.66306" fill="#FF2F01"/>
<rect x="100.885" y="24.7379" width="5.99189" height="5.99189" rx="2.99594" stroke="url(#paint5_linear_459_20039)" stroke-opacity="0.4" stroke-width="0.665765"/>
<rect x="117.196" y="54.5835" width="5.32612" height="5.32612" rx="2.66306" fill="#FF2F01"/>
<rect x="116.863" y="54.2506" width="5.99189" height="5.99189" rx="2.99594" stroke="url(#paint6_linear_459_20039)" stroke-opacity="0.4" stroke-width="0.665765"/>
<rect x="133.175" y="41.7518" width="5.32612" height="5.32612" rx="2.66306" fill="#FF2F01"/>
<rect x="132.842" y="41.4189" width="5.99189" height="5.99189" rx="2.99594" stroke="url(#paint7_linear_459_20039)" stroke-opacity="0.4" stroke-width="0.665765"/>
<rect x="149.153" y="73.831" width="5.32612" height="5.32612" rx="2.66306" fill="#FF2F01"/>
<rect x="148.82" y="73.4981" width="5.99189" height="5.99189" rx="2.99594" stroke="url(#paint8_linear_459_20039)" stroke-opacity="0.4" stroke-width="0.665765"/>
<rect x="85.2395" y="69.5537" width="5.32612" height="5.32612" rx="2.66306" fill="#FF2F01"/>
<rect x="84.9066" y="69.2208" width="5.99189" height="5.99189" rx="2.99594" stroke="url(#paint9_linear_459_20039)" stroke-opacity="0.4" stroke-width="0.665765"/>
<rect x="181.11" y="115.748" width="5.32612" height="5.32612" rx="2.66306" fill="#FF2F01"/>
<rect x="180.777" y="115.415" width="5.99189" height="5.99189" rx="2.99594" stroke="url(#paint10_linear_459_20039)" stroke-opacity="0.4" stroke-width="0.665765"/>
<rect x="197.088" y="88.8011" width="5.32612" height="5.32612" rx="2.66306" fill="#FF2F01"/>
<rect x="196.755" y="88.4683" width="5.99189" height="5.99189" rx="2.99594" stroke="url(#paint11_linear_459_20039)" stroke-opacity="0.4" stroke-width="0.665765"/>
<rect x="213.066" y="54.5835" width="5.32612" height="5.32612" rx="2.66306" fill="#FF2F01"/>
<rect x="212.734" y="54.2506" width="5.99189" height="5.99189" rx="2.99594" stroke="url(#paint12_linear_459_20039)" stroke-opacity="0.4" stroke-width="0.665765"/>
<rect x="229.045" y="100.777" width="5.32612" height="5.32612" rx="2.66306" fill="#FF2F01"/>
<rect x="228.712" y="100.445" width="5.99189" height="5.99189" rx="2.99594" stroke="url(#paint13_linear_459_20039)" stroke-opacity="0.4" stroke-width="0.665765"/>
<rect x="245.023" y="69.5537" width="5.32612" height="5.32612" rx="2.66306" fill="#FF2F01"/>
<rect x="244.69" y="69.2208" width="5.99189" height="5.99189" rx="2.99594" stroke="url(#paint14_linear_459_20039)" stroke-opacity="0.4" stroke-width="0.665765"/>
<rect x="165.131" y="64.4211" width="5.32612" height="5.32612" rx="2.66306" fill="#FF2F01"/>
<rect x="164.798" y="64.0882" width="5.99189" height="5.99189" rx="2.99594" stroke="url(#paint15_linear_459_20039)" stroke-opacity="0.4" stroke-width="0.665765"/>
<rect x="276.98" y="40.4687" width="5.32612" height="5.32612" rx="2.66306" fill="#FF2F01"/>
<rect x="276.647" y="40.1358" width="5.99189" height="5.99189" rx="2.99594" stroke="url(#paint16_linear_459_20039)" stroke-opacity="0.6" stroke-width="0.665765"/>
<rect x="292.958" y="54.1558" width="5.32612" height="5.32612" rx="2.66306" fill="#FF2F01"/>
<rect x="292.625" y="53.8229" width="5.99189" height="5.99189" rx="2.99594" stroke="url(#paint17_linear_459_20039)" stroke-opacity="0.6" stroke-width="0.665765"/>
<rect x="308.937" y="45.6014" width="5.32612" height="5.32612" rx="2.66306" fill="#FF2F01"/>
<rect x="308.604" y="45.2685" width="5.99189" height="5.99189" rx="2.99594" stroke="url(#paint18_linear_459_20039)" stroke-opacity="0.6" stroke-width="0.665765"/>
<defs>
<linearGradient id="paint0_linear_459_20039" x1="25.606" y1="33.2093" x2="28.9258" y2="27.4924" gradientUnits="userSpaceOnUse">
<stop stop-color="#FF2F01" stop-opacity="0.6"/>
<stop offset="1" stop-opacity="0"/>
<stop offset="1" stop-color="#FF2F01" stop-opacity="0.4"/>
</linearGradient>
<linearGradient id="paint1_linear_459_20039" x1="41.5844" y1="60.1559" x2="44.9042" y2="54.439" gradientUnits="userSpaceOnUse">
<stop stop-color="#FF2F01" stop-opacity="0.6"/>
<stop offset="1" stop-opacity="0"/>
<stop offset="1" stop-color="#FF2F01" stop-opacity="0.4"/>
</linearGradient>
<linearGradient id="paint2_linear_459_20039" x1="57.5628" y1="47.3242" x2="60.8826" y2="41.6073" gradientUnits="userSpaceOnUse">
<stop stop-color="#FF2F01" stop-opacity="0.6"/>
<stop offset="1" stop-opacity="0"/>
<stop offset="1" stop-color="#FF2F01" stop-opacity="0.4"/>
</linearGradient>
<linearGradient id="paint3_linear_459_20039" x1="73.5411" y1="96.9399" x2="76.861" y2="91.223" gradientUnits="userSpaceOnUse">
<stop stop-color="#FF2F01" stop-opacity="0.6"/>
<stop offset="1" stop-opacity="0"/>
<stop offset="1" stop-color="#FF2F01" stop-opacity="0.4"/>
</linearGradient>
<linearGradient id="paint4_linear_459_20039" x1="9.6277" y1="15.6728" x2="12.9475" y2="9.95588" gradientUnits="userSpaceOnUse">
<stop stop-color="#FF2F01" stop-opacity="0.6"/>
<stop offset="1" stop-opacity="0"/>
<stop offset="1" stop-color="#FF2F01" stop-opacity="0.4"/>
</linearGradient>
<linearGradient id="paint5_linear_459_20039" x1="105.498" y1="28.9322" x2="108.818" y2="23.2153" gradientUnits="userSpaceOnUse">
<stop stop-color="#FF2F01" stop-opacity="0.6"/>
<stop offset="1" stop-opacity="0"/>
<stop offset="1" stop-color="#FF2F01" stop-opacity="0.4"/>
</linearGradient>
<linearGradient id="paint6_linear_459_20039" x1="121.476" y1="58.4449" x2="124.796" y2="52.728" gradientUnits="userSpaceOnUse">
<stop stop-color="#FF2F01" stop-opacity="0.6"/>
<stop offset="1" stop-opacity="0"/>
<stop offset="1" stop-color="#FF2F01" stop-opacity="0.4"/>
</linearGradient>
<linearGradient id="paint7_linear_459_20039" x1="137.455" y1="45.6133" x2="140.774" y2="39.8964" gradientUnits="userSpaceOnUse">
<stop stop-color="#FF2F01" stop-opacity="0.6"/>
<stop offset="1" stop-opacity="0"/>
<stop offset="1" stop-color="#FF2F01" stop-opacity="0.4"/>
</linearGradient>
<linearGradient id="paint8_linear_459_20039" x1="153.433" y1="77.6924" x2="156.753" y2="71.9755" gradientUnits="userSpaceOnUse">
<stop stop-color="#FF2F01" stop-opacity="0.6"/>
<stop offset="1" stop-opacity="0"/>
<stop offset="1" stop-color="#FF2F01" stop-opacity="0.4"/>
</linearGradient>
<linearGradient id="paint9_linear_459_20039" x1="89.5194" y1="73.4151" x2="92.8392" y2="67.6982" gradientUnits="userSpaceOnUse">
<stop stop-color="#FF2F01" stop-opacity="0.6"/>
<stop offset="1" stop-opacity="0"/>
<stop offset="1" stop-color="#FF2F01" stop-opacity="0.4"/>
</linearGradient>
<linearGradient id="paint10_linear_459_20039" x1="185.39" y1="119.609" x2="188.709" y2="113.892" gradientUnits="userSpaceOnUse">
<stop stop-color="#FF2F01" stop-opacity="0.6"/>
<stop offset="1" stop-opacity="0"/>
<stop offset="1" stop-color="#FF2F01" stop-opacity="0.4"/>
</linearGradient>
<linearGradient id="paint11_linear_459_20039" x1="201.368" y1="92.6626" x2="204.688" y2="86.9457" gradientUnits="userSpaceOnUse">
<stop stop-color="#FF2F01" stop-opacity="0.6"/>
<stop offset="1" stop-opacity="0"/>
<stop offset="1" stop-color="#FF2F01" stop-opacity="0.4"/>
</linearGradient>
<linearGradient id="paint12_linear_459_20039" x1="217.346" y1="58.4449" x2="220.666" y2="52.728" gradientUnits="userSpaceOnUse">
<stop stop-color="#FF2F01" stop-opacity="0.6"/>
<stop offset="1" stop-opacity="0"/>
<stop offset="1" stop-color="#FF2F01" stop-opacity="0.4"/>
</linearGradient>
<linearGradient id="paint13_linear_459_20039" x1="233.325" y1="104.639" x2="236.645" y2="98.9219" gradientUnits="userSpaceOnUse">
<stop stop-color="#FF2F01" stop-opacity="0.6"/>
<stop offset="1" stop-opacity="0"/>
<stop offset="1" stop-color="#FF2F01" stop-opacity="0.4"/>
</linearGradient>
<linearGradient id="paint14_linear_459_20039" x1="249.303" y1="73.4151" x2="252.623" y2="67.6982" gradientUnits="userSpaceOnUse">
<stop stop-color="#FF2F01" stop-opacity="0.6"/>
<stop offset="1" stop-opacity="0"/>
<stop offset="1" stop-color="#FF2F01" stop-opacity="0.4"/>
</linearGradient>
<linearGradient id="paint15_linear_459_20039" x1="169.411" y1="68.2825" x2="172.731" y2="62.5656" gradientUnits="userSpaceOnUse">
<stop stop-color="#FF2F01" stop-opacity="0.6"/>
<stop offset="1" stop-opacity="0"/>
<stop offset="1" stop-color="#FF2F01" stop-opacity="0.4"/>
</linearGradient>
<linearGradient id="paint16_linear_459_20039" x1="278.644" y1="39.7017" x2="281.887" y2="45.2699" gradientUnits="userSpaceOnUse">
<stop stop-color="#FF2F01" stop-opacity="0.2"/>
<stop offset="1" stop-color="#FF2F01" stop-opacity="0.7"/>
</linearGradient>
<linearGradient id="paint17_linear_459_20039" x1="294.623" y1="53.3888" x2="297.865" y2="58.957" gradientUnits="userSpaceOnUse">
<stop stop-color="#FF2F01" stop-opacity="0.2"/>
<stop offset="1" stop-color="#FF2F01" stop-opacity="0.7"/>
</linearGradient>
<linearGradient id="paint18_linear_459_20039" x1="310.601" y1="44.8344" x2="313.843" y2="50.4026" gradientUnits="userSpaceOnUse">
<stop stop-color="#FF2F01" stop-opacity="0.2"/>
<stop offset="1" stop-color="#FF2F01" stop-opacity="0.7"/>
</linearGradient>
<clipPath id="clip0_459_20039">
<rect width="307" height="121.843" fill="white" transform="translate(8 15.0927)"/>
</clipPath>
<clipPath id="clip1_459_20039">
<rect width="307" height="106.445" fill="white" transform="translate(8 15.0927)"/>
</clipPath>
</defs>
</svg>
