<svg width="183" height="46" viewBox="0 0 183 46" fill="none" xmlns="http://www.w3.org/2000/svg">
<mask id="path-1-inside-1_616_220" fill="white">
<path d="M173.609 0.706609C164.157 12.2402 151.95 22.1841 138.053 29.6468C123.124 37.6638 106.264 42.8056 89.1884 44.5501C72.1123 46.2946 54.844 44.6391 39.1377 39.7519C24.2647 35.124 10.8128 27.6046 0 17.8933"/>
<path d="M174.483 0.154175C172.13 2.89885 169.701 4.69832 166.516 6.40844C163.095 8.24556 159.232 9.42384 155.319 9.8236C151.406 10.2234 147.449 9.844 143.849 8.72407C140.441 7.66356 137.359 5.94044 134.881 3.71504"/>
<path d="M182.945 30.8494C179.743 30.6622 176.851 29.7396 174.529 28.1586C172.034 26.4602 170.199 24.0044 169.212 21.0406C168.224 18.0768 168.084 14.6093 168.807 10.9905C169.492 7.56366 170.549 4.11537 173.041 0.641552"/>
</mask>
<path d="M138.053 29.6468L138.526 30.5279L138.053 29.6468ZM89.1884 44.5501L89.29 45.5449L89.1884 44.5501ZM39.1377 39.7519L38.8406 40.7067L39.1377 39.7519ZM166.516 6.40844L166.99 7.28945L166.516 6.40844ZM155.319 9.8236L155.42 10.8184L155.319 9.8236ZM143.849 8.72407L143.552 9.67891L143.849 8.72407ZM174.529 28.1586L173.966 28.9853L174.529 28.1586ZM169.212 21.0406L168.263 21.3567L169.212 21.0406ZM168.807 10.9905L167.827 10.7946L168.807 10.9905ZM172.836 0.0727382C163.471 11.4997 151.368 21.3616 137.58 28.7658L138.526 30.5279C152.532 23.0066 164.843 12.9808 174.383 1.34048L172.836 0.0727382ZM137.58 28.7658C122.767 36.7201 106.034 41.8239 89.0867 43.5553L89.29 45.5449C106.494 43.7873 123.48 38.6074 138.526 30.5279L137.58 28.7658ZM89.0867 43.5553C72.139 45.2866 55.0067 43.6424 39.4348 38.7971L38.8406 40.7067C54.6813 45.6358 72.0856 47.3025 89.29 45.5449L89.0867 43.5553ZM39.4348 38.7971C24.6896 34.2089 11.3666 26.7579 0.668196 17.1493L-0.668196 18.6373C10.2589 28.4513 23.8398 36.0391 38.8406 40.7067L39.4348 38.7971ZM173.723 -0.496616C171.467 2.13637 169.142 3.86339 166.043 5.52742L166.99 7.28945C170.26 5.53325 172.794 3.66134 175.242 0.804966L173.723 -0.496616ZM166.043 5.52742C162.739 7.30187 159.002 8.44213 155.217 8.82878L155.42 10.8184C159.462 10.4056 163.452 9.18924 166.99 7.28945L166.043 5.52742ZM155.217 8.82878C151.432 9.21542 147.611 8.84732 144.147 7.76922L143.552 9.67891C147.286 10.8407 151.379 11.2313 155.42 10.8184L155.217 8.82878ZM144.147 7.76922C140.866 6.74848 137.913 5.09375 135.549 2.97106L134.213 4.45903C136.805 6.78712 140.016 8.57864 143.552 9.67891L144.147 7.76922ZM183.003 29.8511C179.955 29.6729 177.244 28.7971 175.091 27.332L173.966 28.9853C176.459 30.6822 179.53 31.6515 182.887 31.8477L183.003 29.8511ZM175.091 27.332C172.784 25.7614 171.081 23.4882 170.16 20.7244L168.263 21.3567C169.317 24.5205 171.283 27.159 173.966 28.9853L175.091 27.332ZM170.16 20.7244C169.237 17.9533 169.093 14.6657 169.788 11.1864L167.827 10.7946C167.076 14.553 167.211 18.2003 168.263 21.3567L170.16 20.7244ZM169.788 11.1864C170.457 7.83493 171.475 4.53932 173.854 1.22447L172.228 0.0586298C169.622 3.69142 168.526 7.29238 167.827 10.7946L169.788 11.1864Z" fill="white" mask="url(#path-1-inside-1_616_220)"/>
</svg>
