<svg width="183" height="46" viewBox="0 0 183 46" fill="none" xmlns="http://www.w3.org/2000/svg">
<mask id="path-1-inside-1_341_128" fill="white">
<path d="M173.609 44.5582C164.157 33.0246 151.95 23.0807 138.053 15.618C123.124 7.60103 106.264 2.45917 89.1884 0.714699C72.1123 -1.02977 54.844 0.625681 39.1377 5.51288C24.2647 10.1408 10.8128 17.6602 0 27.3715"/>
<path d="M174.483 45.1106C172.13 42.3659 169.701 40.5665 166.516 38.8563C163.095 37.0192 159.232 35.8409 155.319 35.4412C151.406 35.0414 147.449 35.4208 143.849 36.5407C140.441 37.6012 137.359 39.3243 134.881 41.5497"/>
<path d="M182.945 14.4154C179.743 14.6026 176.851 15.5251 174.529 17.1061C172.034 18.8046 170.199 21.2604 169.212 24.2242C168.224 27.188 168.084 30.6554 168.807 34.2743C169.492 37.7011 170.549 41.1494 173.041 44.6232"/>
</mask>
<path d="M138.053 15.618L138.526 14.7369L138.053 15.618ZM89.1884 0.714699L89.29 -0.280123V-0.280123L89.1884 0.714699ZM39.1377 5.51288L38.8406 4.55804L39.1377 5.51288ZM166.516 38.8563L166.99 37.9753L166.516 38.8563ZM155.319 35.4412L155.42 34.4464L155.319 35.4412ZM143.849 36.5407L143.552 35.5859L143.849 36.5407ZM174.529 17.1061L173.966 16.2795L174.529 17.1061ZM169.212 24.2242L168.263 23.908L169.212 24.2242ZM168.807 34.2743L167.827 34.4702L168.807 34.2743ZM174.383 43.9243C164.843 32.284 152.532 22.2582 138.526 14.7369L137.58 16.499C151.368 23.9032 163.471 33.7651 172.836 45.1921L174.383 43.9243ZM138.526 14.7369C123.48 6.65735 106.494 1.47746 89.29 -0.280123L89.0867 1.70952C106.034 3.44088 122.767 8.54471 137.58 16.499L138.526 14.7369ZM89.29 -0.280123C72.0856 -2.0377 54.6813 -0.370999 38.8406 4.55804L39.4348 6.46772C55.0067 1.62236 72.139 -0.021844 89.0867 1.70952L89.29 -0.280123ZM38.8406 4.55804C23.8398 9.22569 10.2589 16.8135 -0.668196 26.6275L0.668196 28.1155C11.3666 18.5069 24.6896 11.0559 39.4348 6.46772L38.8406 4.55804ZM175.242 44.4598C172.794 41.6035 170.26 39.7315 166.99 37.9753L166.043 39.7374C169.142 41.4014 171.467 43.1284 173.723 45.7614L175.242 44.4598ZM166.99 37.9753C163.452 36.0755 159.462 34.8592 155.42 34.4464L155.217 36.436C159.002 36.8227 162.739 37.9629 166.043 39.7374L166.99 37.9753ZM155.42 34.4464C151.379 34.0335 147.286 34.4241 143.552 35.5859L144.147 37.4956C147.611 36.4175 151.432 36.0494 155.217 36.436L155.42 34.4464ZM143.552 35.5859C140.016 36.6861 136.805 38.4777 134.213 40.8058L135.549 42.2937C137.913 40.171 140.866 38.5163 144.147 37.4956L143.552 35.5859ZM182.887 13.4171C179.53 13.6133 176.459 14.5826 173.966 16.2795L175.091 17.9328C177.244 16.4677 179.955 15.5919 183.003 15.4137L182.887 13.4171ZM173.966 16.2795C171.283 18.1058 169.317 20.7443 168.263 23.908L170.16 24.5404C171.081 21.7766 172.784 19.5033 175.091 17.9328L173.966 16.2795ZM168.263 23.908C167.211 27.0645 167.076 30.7118 167.827 34.4702L169.788 34.0784C169.093 30.5991 169.237 27.3115 170.16 24.5404L168.263 23.908ZM167.827 34.4702C168.526 37.9724 169.622 41.5734 172.228 45.2062L173.854 44.0403C171.475 40.7255 170.457 37.4299 169.788 34.0784L167.827 34.4702Z" fill="white" mask="url(#path-1-inside-1_341_128)"/>
</svg>
