<svg width="109" height="120" viewBox="0 0 109 120" fill="none" xmlns="http://www.w3.org/2000/svg">
<g clip-path="url(#clip0_581_1742)">
<path d="M-12.7261 135.156L114.914 -85.922" stroke="white" stroke-opacity="0.2" stroke-linecap="round"/>
<path d="M-9.4917 137.024L118.148 -84.0546" stroke="white" stroke-opacity="0.2" stroke-linecap="round"/>
<path d="M-6.25732 138.891L121.382 -82.1872" stroke="white" stroke-opacity="0.2" stroke-linecap="round"/>
<path d="M-3.02295 140.759L124.617 -80.3198" stroke="white" stroke-opacity="0.2" stroke-linecap="round"/>
<path d="M0.211426 142.626L127.851 -78.4523" stroke="white" stroke-opacity="0.2" stroke-linecap="round"/>
<path d="M3.44629 144.493L131.086 -76.585" stroke="white" stroke-opacity="0.2" stroke-linecap="round"/>
<path d="M6.68066 146.361L134.32 -74.7175" stroke="white" stroke-opacity="0.2" stroke-linecap="round"/>
<path d="M9.91504 148.228L137.555 -72.8501" stroke="white" stroke-opacity="0.2" stroke-linecap="round"/>
<path d="M13.1494 150.096L140.789 -70.9827" stroke="white" stroke-opacity="0.2" stroke-linecap="round"/>
<path d="M16.3838 151.963L144.023 -69.1153" stroke="white" stroke-opacity="0.2" stroke-linecap="round"/>
<path d="M19.6182 153.83L147.258 -67.2479" stroke="white" stroke-opacity="0.2" stroke-linecap="round"/>
<path d="M22.853 155.698L150.493 -65.3804" stroke="white" stroke-opacity="0.2" stroke-linecap="round"/>
<path d="M26.0874 157.565L153.727 -63.5131" stroke="white" stroke-opacity="0.2" stroke-linecap="round"/>
<path d="M29.3218 159.433L156.961 -61.6456" stroke="white" stroke-opacity="0.2" stroke-linecap="round"/>
<path d="M32.5562 161.3L160.196 -59.7782" stroke="white" stroke-opacity="0.2" stroke-linecap="round"/>
<path d="M35.7905 163.167L163.43 -57.9108" stroke="white" stroke-opacity="0.2" stroke-linecap="round"/>
<path d="M39.0249 165.035L166.665 -56.0434" stroke="white" stroke-opacity="0.2" stroke-linecap="round"/>
<path d="M42.2598 166.902L169.899 -54.176" stroke="white" stroke-opacity="0.2" stroke-linecap="round"/>
<path d="M45.4941 168.77L173.134 -52.3086" stroke="white" stroke-opacity="0.2" stroke-linecap="round"/>
<path d="M48.7285 170.637L176.368 -50.4412" stroke="white" stroke-opacity="0.2" stroke-linecap="round"/>
<path d="M51.9629 172.505L179.603 -48.5737" stroke="white" stroke-opacity="0.2" stroke-linecap="round"/>
<path d="M55.1973 174.372L182.837 -46.7064" stroke="white" stroke-opacity="0.2" stroke-linecap="round"/>
<path d="M58.4316 176.239L186.071 -44.8389" stroke="white" stroke-opacity="0.2" stroke-linecap="round"/>
</g>
<path d="M6.10336 87.9423C7.76458 90.8196 10.7674 92.6536 14.6302 93.5775C18.4909 94.5009 23.2794 94.5352 28.655 93.764C39.4107 92.2209 52.6748 87.4299 65.9215 79.7819C79.1683 72.1338 89.9494 63.0423 96.6636 54.4992C100.019 50.2294 102.384 46.0653 103.515 42.2601C104.646 38.4528 104.559 34.9354 102.898 32.058C101.237 29.1807 98.2337 27.3468 94.3709 26.4229C90.5102 25.4995 85.7217 25.4652 80.3461 26.2364C69.5904 27.7795 56.3264 32.5705 43.0796 40.2185C29.8329 47.8665 19.0517 56.9581 12.3375 65.5012C8.98178 69.771 6.61727 73.9351 5.48661 77.7402C4.3553 81.5475 4.44214 85.065 6.10336 87.9423ZM10.2603 85.5423C8.96252 83.2946 8.82265 80.4329 9.81511 77.0929C10.8082 73.7507 12.918 69.9993 16.0052 66.0711C22.1769 58.2182 32.1564 49.784 44.4908 42.6627C56.8251 35.5414 69.1192 31.1161 79.0058 29.6977C83.9513 28.9881 88.255 29.0368 91.646 29.8478C95.0348 30.6583 97.4431 32.2103 98.7409 34.458C100.039 36.7058 100.178 39.5674 99.186 42.9075C98.1929 46.2497 96.0832 50.0011 92.9959 53.9293C86.8242 61.7822 76.8448 70.2164 64.5104 77.3377C52.176 84.459 39.882 88.8843 29.9953 90.3027C25.0498 91.0123 20.7461 90.9636 17.3551 90.1526C13.9663 89.3421 11.558 87.7901 10.2603 85.5423Z" fill="white" stroke="white" stroke-width="1.5"/>
<path d="M65.5461 40.8679C91.9164 56.0928 108.348 77.0008 102.248 87.5672C96.1473 98.1336 69.8245 94.3571 43.4542 79.1322C17.0839 63.9073 0.651959 42.9993 6.75247 32.4329C12.853 21.8665 39.1758 25.643 65.5461 40.8679Z" stroke="white" stroke-width="1.56863" stroke-linecap="round" stroke-dasharray="0.1 4.9"/>
<defs>
<clipPath id="clip0_581_1742">
<rect width="31.3725" height="31.3725" rx="15.6863" transform="matrix(1 0 0 -1 38.8145 75.4611)" fill="white"/>
</clipPath>
</defs>
</svg>
