<svg width="101" height="100" viewBox="0 0 101 100" fill="none" xmlns="http://www.w3.org/2000/svg">
<rect width="21" height="35" rx="2" transform="matrix(-1 0 0 1 89 46.9999)" fill="white" fill-opacity="0.2"/>
<rect x="-0.25" y="0.25" width="20.5" height="34.5" rx="1.75" transform="matrix(-1 0 0 1 88.5 46.9999)" stroke="white" stroke-opacity="0.2" stroke-width="0.5"/>
<g clip-path="url(#clip0_581_1464)">
<path d="M148 162.917L-22.8775 -133.052" stroke="white"/>
<path d="M143.67 165.417L-27.2076 -130.552" stroke="white"/>
<path d="M139.34 167.917L-31.5377 -128.052" stroke="white"/>
<path d="M135.01 170.417L-35.8678 -125.552" stroke="white"/>
<path d="M130.68 172.917L-40.1978 -123.052" stroke="white"/>
<path d="M126.35 175.417L-44.5279 -120.552" stroke="white"/>
<path d="M122.019 177.917L-48.8585 -118.052" stroke="white"/>
<path d="M117.689 180.417L-53.1886 -115.552" stroke="white"/>
<path d="M113.359 182.917L-57.5186 -113.052" stroke="white"/>
<path d="M109.029 185.417L-61.8487 -110.552" stroke="white"/>
<path d="M104.699 187.917L-66.1788 -108.052" stroke="white"/>
<path d="M100.369 190.417L-70.5089 -105.552" stroke="white"/>
<path d="M96.0386 192.917L-74.8389 -103.052" stroke="white"/>
<path d="M91.7085 195.417L-79.169 -100.552" stroke="white"/>
<path d="M87.3784 197.917L-83.4991 -98.0517" stroke="white"/>
<path d="M83.0479 200.417L-87.8297 -95.5517" stroke="white"/>
<path d="M78.7178 202.917L-92.1598 -93.0517" stroke="white"/>
<path d="M74.3877 205.417L-96.4898 -90.5517" stroke="white"/>
<path d="M70.0576 207.917L-100.82 -88.0517" stroke="white"/>
<path d="M65.7275 210.417L-105.15 -85.5517" stroke="white"/>
<path d="M61.3975 212.917L-109.48 -83.0517" stroke="white"/>
<path d="M57.0674 215.417L-113.81 -80.5517" stroke="white"/>
<path d="M52.7373 217.917L-118.14 -78.0517" stroke="white"/>
</g>
<circle cx="0.986842" cy="0.986842" r="0.986842" transform="matrix(4.37114e-08 -1 -1 -4.37114e-08 37.6562 82.9999)" fill="white"/>
<circle cx="0.986842" cy="0.986842" r="0.986842" transform="matrix(4.37114e-08 -1 -1 -4.37114e-08 37.6562 77.1562)" fill="white"/>
<circle cx="0.986842" cy="0.986842" r="0.986842" transform="matrix(4.37114e-08 -1 -1 -4.37114e-08 37.6562 71.3125)" fill="white"/>
<circle cx="0.986842" cy="0.986842" r="0.986842" transform="matrix(4.37114e-08 -1 -1 -4.37114e-08 37.6562 65.4689)" fill="white"/>
<circle cx="0.986842" cy="0.986842" r="0.986842" transform="matrix(4.37114e-08 -1 -1 -4.37114e-08 37.6562 59.6252)" fill="white"/>
<circle cx="0.986842" cy="0.986842" r="0.986842" transform="matrix(4.37114e-08 -1 -1 -4.37114e-08 37.6562 53.7816)" fill="white"/>
<circle cx="0.986842" cy="0.986842" r="0.986842" transform="matrix(4.37114e-08 -1 -1 -4.37114e-08 37.6562 47.938)" fill="white"/>
<circle cx="0.986842" cy="0.986842" r="0.986842" transform="matrix(4.37114e-08 -1 -1 -4.37114e-08 37.6562 42.0942)" fill="white"/>
<circle cx="0.986842" cy="0.986842" r="0.986842" transform="matrix(4.37114e-08 -1 -1 -4.37114e-08 37.6562 36.2506)" fill="white"/>
<circle cx="0.986842" cy="0.986842" r="0.986842" transform="matrix(4.37114e-08 -1 -1 -4.37114e-08 37.6562 30.407)" fill="white"/>
<circle cx="0.986842" cy="0.986842" r="0.986842" transform="matrix(4.37114e-08 -1 -1 -4.37114e-08 37.6562 24.5634)" fill="white"/>
<circle cx="0.986842" cy="0.986842" r="0.986842" transform="matrix(4.37114e-08 -1 -1 -4.37114e-08 37.6562 18.7197)" fill="white"/>
<circle cx="0.986842" cy="0.986842" r="0.986842" transform="matrix(4.37114e-08 -1 -1 -4.37114e-08 33.6562 82.9999)" fill="white"/>
<circle cx="0.986842" cy="0.986842" r="0.986842" transform="matrix(4.37114e-08 -1 -1 -4.37114e-08 33.6562 77.1562)" fill="white"/>
<circle cx="0.986842" cy="0.986842" r="0.986842" transform="matrix(4.37114e-08 -1 -1 -4.37114e-08 33.6562 71.3125)" fill="white"/>
<circle cx="0.986842" cy="0.986842" r="0.986842" transform="matrix(4.37114e-08 -1 -1 -4.37114e-08 33.6562 65.4689)" fill="white"/>
<circle cx="0.986842" cy="0.986842" r="0.986842" transform="matrix(4.37114e-08 -1 -1 -4.37114e-08 33.6562 59.6252)" fill="white"/>
<circle cx="0.986842" cy="0.986842" r="0.986842" transform="matrix(4.37114e-08 -1 -1 -4.37114e-08 33.6562 53.7816)" fill="white"/>
<circle cx="0.986842" cy="0.986842" r="0.986842" transform="matrix(4.37114e-08 -1 -1 -4.37114e-08 33.6562 47.938)" fill="white"/>
<circle cx="0.986842" cy="0.986842" r="0.986842" transform="matrix(4.37114e-08 -1 -1 -4.37114e-08 33.6562 42.0942)" fill="white"/>
<circle cx="0.986842" cy="0.986842" r="0.986842" transform="matrix(4.37114e-08 -1 -1 -4.37114e-08 33.6562 36.2506)" fill="white"/>
<circle cx="0.986842" cy="0.986842" r="0.986842" transform="matrix(4.37114e-08 -1 -1 -4.37114e-08 33.6562 30.407)" fill="white"/>
<circle cx="0.986842" cy="0.986842" r="0.986842" transform="matrix(4.37114e-08 -1 -1 -4.37114e-08 33.6562 24.5634)" fill="white"/>
<circle cx="0.986842" cy="0.986842" r="0.986842" transform="matrix(4.37114e-08 -1 -1 -4.37114e-08 33.6562 18.7197)" fill="white"/>
<circle cx="0.986842" cy="0.986842" r="0.986842" transform="matrix(4.37114e-08 -1 -1 -4.37114e-08 29.6562 82.9999)" fill="white"/>
<circle cx="0.986842" cy="0.986842" r="0.986842" transform="matrix(4.37114e-08 -1 -1 -4.37114e-08 29.6562 77.1562)" fill="white"/>
<circle cx="0.986842" cy="0.986842" r="0.986842" transform="matrix(4.37114e-08 -1 -1 -4.37114e-08 29.6562 71.3125)" fill="white"/>
<circle cx="0.986842" cy="0.986842" r="0.986842" transform="matrix(4.37114e-08 -1 -1 -4.37114e-08 29.6562 65.4689)" fill="white"/>
<circle cx="0.986842" cy="0.986842" r="0.986842" transform="matrix(4.37114e-08 -1 -1 -4.37114e-08 29.6562 59.6252)" fill="white"/>
<circle cx="0.986842" cy="0.986842" r="0.986842" transform="matrix(4.37114e-08 -1 -1 -4.37114e-08 29.6562 53.7816)" fill="white"/>
<circle cx="0.986842" cy="0.986842" r="0.986842" transform="matrix(4.37114e-08 -1 -1 -4.37114e-08 29.6562 47.938)" fill="white"/>
<circle cx="0.986842" cy="0.986842" r="0.986842" transform="matrix(4.37114e-08 -1 -1 -4.37114e-08 29.6562 42.0942)" fill="white"/>
<circle cx="0.986842" cy="0.986842" r="0.986842" transform="matrix(4.37114e-08 -1 -1 -4.37114e-08 29.6562 36.2506)" fill="white"/>
<circle cx="0.986842" cy="0.986842" r="0.986842" transform="matrix(4.37114e-08 -1 -1 -4.37114e-08 29.6562 30.407)" fill="white"/>
<circle cx="0.986842" cy="0.986842" r="0.986842" transform="matrix(4.37114e-08 -1 -1 -4.37114e-08 29.6562 24.5634)" fill="white"/>
<circle cx="0.986842" cy="0.986842" r="0.986842" transform="matrix(4.37114e-08 -1 -1 -4.37114e-08 29.6562 18.7197)" fill="white"/>
<circle cx="0.986842" cy="0.986842" r="0.986842" transform="matrix(4.37114e-08 -1 -1 -4.37114e-08 25.6562 82.9999)" fill="white"/>
<circle cx="0.986842" cy="0.986842" r="0.986842" transform="matrix(4.37114e-08 -1 -1 -4.37114e-08 25.6562 77.1562)" fill="white"/>
<circle cx="0.986842" cy="0.986842" r="0.986842" transform="matrix(4.37114e-08 -1 -1 -4.37114e-08 25.6562 71.3125)" fill="white"/>
<circle cx="0.986842" cy="0.986842" r="0.986842" transform="matrix(4.37114e-08 -1 -1 -4.37114e-08 25.6562 65.4689)" fill="white"/>
<circle cx="0.986842" cy="0.986842" r="0.986842" transform="matrix(4.37114e-08 -1 -1 -4.37114e-08 25.6562 59.6252)" fill="white"/>
<circle cx="0.986842" cy="0.986842" r="0.986842" transform="matrix(4.37114e-08 -1 -1 -4.37114e-08 25.6562 53.7816)" fill="white"/>
<circle cx="0.986842" cy="0.986842" r="0.986842" transform="matrix(4.37114e-08 -1 -1 -4.37114e-08 25.6562 47.938)" fill="white"/>
<circle cx="0.986842" cy="0.986842" r="0.986842" transform="matrix(4.37114e-08 -1 -1 -4.37114e-08 25.6562 42.0942)" fill="white"/>
<circle cx="0.986842" cy="0.986842" r="0.986842" transform="matrix(4.37114e-08 -1 -1 -4.37114e-08 25.6562 36.2506)" fill="white"/>
<circle cx="0.986842" cy="0.986842" r="0.986842" transform="matrix(4.37114e-08 -1 -1 -4.37114e-08 25.6562 30.407)" fill="white"/>
<circle cx="0.986842" cy="0.986842" r="0.986842" transform="matrix(4.37114e-08 -1 -1 -4.37114e-08 25.6562 24.5634)" fill="white"/>
<circle cx="0.986842" cy="0.986842" r="0.986842" transform="matrix(4.37114e-08 -1 -1 -4.37114e-08 25.6562 18.7197)" fill="white"/>
<circle cx="0.986842" cy="0.986842" r="0.986842" transform="matrix(4.37114e-08 -1 -1 -4.37114e-08 21.6562 82.9999)" fill="white"/>
<circle cx="0.986842" cy="0.986842" r="0.986842" transform="matrix(4.37114e-08 -1 -1 -4.37114e-08 21.6562 77.1562)" fill="white"/>
<circle cx="0.986842" cy="0.986842" r="0.986842" transform="matrix(4.37114e-08 -1 -1 -4.37114e-08 21.6562 71.3125)" fill="white"/>
<circle cx="0.986842" cy="0.986842" r="0.986842" transform="matrix(4.37114e-08 -1 -1 -4.37114e-08 21.6562 65.4689)" fill="white"/>
<circle cx="0.986842" cy="0.986842" r="0.986842" transform="matrix(4.37114e-08 -1 -1 -4.37114e-08 21.6562 59.6252)" fill="white"/>
<circle cx="0.986842" cy="0.986842" r="0.986842" transform="matrix(4.37114e-08 -1 -1 -4.37114e-08 21.6562 53.7816)" fill="white"/>
<circle cx="0.986842" cy="0.986842" r="0.986842" transform="matrix(4.37114e-08 -1 -1 -4.37114e-08 21.6562 47.938)" fill="white"/>
<circle cx="0.986842" cy="0.986842" r="0.986842" transform="matrix(4.37114e-08 -1 -1 -4.37114e-08 21.6562 42.0942)" fill="white"/>
<circle cx="0.986842" cy="0.986842" r="0.986842" transform="matrix(4.37114e-08 -1 -1 -4.37114e-08 21.6562 36.2506)" fill="white"/>
<circle cx="0.986842" cy="0.986842" r="0.986842" transform="matrix(4.37114e-08 -1 -1 -4.37114e-08 21.6562 30.407)" fill="white"/>
<circle cx="0.986842" cy="0.986842" r="0.986842" transform="matrix(4.37114e-08 -1 -1 -4.37114e-08 21.6562 24.5634)" fill="white"/>
<circle cx="0.986842" cy="0.986842" r="0.986842" transform="matrix(4.37114e-08 -1 -1 -4.37114e-08 21.6562 18.7197)" fill="white"/>
<circle cx="0.986842" cy="0.986842" r="0.986842" transform="matrix(4.37114e-08 -1 -1 -4.37114e-08 21.6562 12.876)" fill="white"/>
<path d="M98.5 50C99.6046 50 100.504 50.8959 100.46 51.9996C100.092 61.1878 97.1966 70.1112 92.0735 77.7785C86.5794 86.001 78.7705 92.4096 69.6342 96.194C60.4979 99.9784 50.4445 100.969 40.7455 99.0393C31.0464 97.11 22.1373 92.348 15.1447 85.3553C8.15204 78.3627 3.39 69.4536 1.46074 59.7545C-0.468525 50.0555 0.521642 40.0021 4.30602 30.8658C8.09041 21.7295 14.499 13.9206 22.7215 8.42652C30.3888 3.30338 39.3122 0.407645 48.5004 0.0399866C49.6041 -0.0041763 50.5 0.895431 50.5 2V3C50.5 4.10457 49.604 4.99536 48.5005 5.04443C40.3016 5.40902 32.3443 8.0102 25.4993 12.5839C18.0991 17.5285 12.3314 24.5566 8.92542 32.7792C5.51948 41.0019 4.62833 50.0499 6.36466 58.7791C8.101 67.5082 12.3868 75.5264 18.6802 81.8198C24.9736 88.1132 32.9918 92.399 41.7209 94.1353C50.4501 95.8717 59.4981 94.9805 67.7208 91.5746C75.9434 88.1686 82.9715 82.4009 87.9161 75.0007C92.4898 68.1557 95.091 60.1984 95.4556 51.9995C95.5046 50.896 96.3954 50 97.5 50H98.5Z" fill="white"/>
<defs>
<clipPath id="clip0_581_1464">
<rect x="61" y="82.9999" width="17" height="53" rx="2" transform="rotate(180 61 82.9999)" fill="white"/>
</clipPath>
</defs>
</svg>
