<svg width="101" height="100" viewBox="0 0 101 100" fill="none" xmlns="http://www.w3.org/2000/svg">
<circle cx="58.9375" cy="0.9375" r="0.9375" fill="white"/>
<circle cx="67.0625" cy="0.9375" r="0.9375" fill="white"/>
<circle cx="75.1875" cy="0.9375" r="0.9375" fill="white"/>
<circle cx="83.3125" cy="0.9375" r="0.9375" fill="white"/>
<circle cx="91.4375" cy="0.9375" r="0.9375" fill="white"/>
<circle cx="99.5625" cy="0.9375" r="0.9375" fill="white"/>
<circle cx="58.9375" cy="9.0625" r="0.9375" fill="white"/>
<circle cx="67.0625" cy="9.0625" r="0.9375" fill="white"/>
<circle cx="75.1875" cy="9.0625" r="0.9375" fill="white"/>
<circle cx="83.3125" cy="9.0625" r="0.9375" fill="white"/>
<circle cx="91.4375" cy="9.0625" r="0.9375" fill="white"/>
<circle cx="99.5625" cy="9.0625" r="0.9375" fill="white"/>
<circle cx="58.9375" cy="17.1875" r="0.9375" fill="white"/>
<circle cx="67.0625" cy="17.1875" r="0.9375" fill="white"/>
<circle cx="75.1875" cy="17.1875" r="0.9375" fill="white"/>
<circle cx="83.3125" cy="17.1875" r="0.9375" fill="white"/>
<circle cx="91.4375" cy="17.1875" r="0.9375" fill="white"/>
<circle cx="99.5625" cy="17.1875" r="0.9375" fill="white"/>
<circle cx="58.9375" cy="25.3125" r="0.9375" fill="white"/>
<circle cx="67.0625" cy="25.3125" r="0.9375" fill="white"/>
<circle cx="75.1875" cy="25.3125" r="0.9375" fill="white"/>
<circle cx="83.3125" cy="25.3125" r="0.9375" fill="white"/>
<circle cx="91.4375" cy="25.3125" r="0.9375" fill="white"/>
<circle cx="99.5625" cy="25.3125" r="0.9375" fill="white"/>
<circle cx="58.9375" cy="33.4375" r="0.9375" fill="white"/>
<circle cx="67.0625" cy="33.4375" r="0.9375" fill="white"/>
<circle cx="75.1875" cy="33.4375" r="0.9375" fill="white"/>
<circle cx="83.3125" cy="33.4375" r="0.9375" fill="white"/>
<circle cx="91.4375" cy="33.4375" r="0.9375" fill="white"/>
<circle cx="99.5625" cy="33.4375" r="0.9375" fill="white"/>
<circle cx="58.9375" cy="41.5625" r="0.9375" fill="white"/>
<circle cx="67.0625" cy="41.5625" r="0.9375" fill="white"/>
<circle cx="75.1875" cy="41.5625" r="0.9375" fill="white"/>
<circle cx="83.3125" cy="41.5625" r="0.9375" fill="white"/>
<circle cx="91.4375" cy="41.5625" r="0.9375" fill="white"/>
<circle cx="99.5625" cy="41.5625" r="0.9375" fill="white"/>
<path d="M17.8966 45.4114C16.9224 44.433 15.3395 44.4295 14.3611 45.4037C13.3826 46.3779 13.3792 47.9609 14.3534 48.9393L17.8966 45.4114ZM92.8966 24.2639C93.8708 23.2855 93.8674 21.7026 92.8889 20.7284C91.9105 19.7542 90.3276 19.7576 89.3534 20.7361L92.8966 24.2639ZM39.9233 71.0766L38.1517 72.8405L39.9233 71.0766ZM14.3534 48.9393L38.1517 72.8405L41.6948 69.3127L17.8966 45.4114L14.3534 48.9393ZM44.5294 72.8405L92.8966 24.2639L89.3534 20.7361L40.9862 69.3127L44.5294 72.8405ZM38.1517 72.8405C39.9106 74.6071 42.7704 74.6071 44.5294 72.8405L40.9862 69.3127C41.1816 69.1164 41.4994 69.1164 41.6948 69.3127L38.1517 72.8405Z" fill="white" fill-opacity="0.2"/>
<path d="M98.5 50C99.6046 50 100.504 50.8959 100.46 51.9996C100.092 61.1878 97.1966 70.1112 92.0735 77.7785C86.5794 86.001 78.7705 92.4096 69.6342 96.194C60.4979 99.9784 50.4445 100.969 40.7455 99.0393C31.0464 97.11 22.1373 92.348 15.1447 85.3553C8.15204 78.3627 3.39 69.4536 1.46074 59.7545C-0.468525 50.0555 0.521642 40.0021 4.30602 30.8658C8.09041 21.7295 14.499 13.9206 22.7215 8.42652C30.3888 3.30338 39.3122 0.407645 48.5004 0.0399866C49.6041 -0.0041763 50.5 0.895431 50.5 2V3C50.5 4.10457 49.604 4.99536 48.5005 5.04443C40.3016 5.40902 32.3443 8.0102 25.4993 12.5839C18.0991 17.5285 12.3314 24.5566 8.92542 32.7792C5.51948 41.0019 4.62833 50.0499 6.36466 58.7791C8.101 67.5082 12.3868 75.5264 18.6802 81.8198C24.9736 88.1132 32.9918 92.399 41.7209 94.1353C50.4501 95.8717 59.4981 94.9805 67.7208 91.5746C75.9434 88.1686 82.9715 82.4009 87.9161 75.0007C92.4898 68.1557 95.091 60.1984 95.4556 51.9995C95.5046 50.896 96.3954 50 97.5 50H98.5Z" fill="white"/>
</svg>
