<svg width="37" height="36" viewBox="0 0 37 36" fill="none" xmlns="http://www.w3.org/2000/svg">
<path d="M36.5713 17.9999C36.5713 27.9411 28.5125 36.0001 18.5714 36.0001C8.63016 36.0001 0.571289 27.9411 0.571289 17.9999C0.571289 8.05877 8.63016 -0.000106812 18.5714 -0.000106812C28.5124 -0.000106812 36.5713 8.05877 36.5713 17.9999Z" fill="#FF2F01"/>
<path d="M16.7256 18.6847V14.5357H12.4546V11.7754H24.3896V14.5746H20.1185V18.6847H16.7256Z" fill="white"/>
<path fill-rule="evenodd" clip-rule="evenodd" d="M10.6187 18.0345C10.6187 16.9848 14.0515 16.1295 18.3225 16.1295C22.5936 16.1295 26.0264 16.9848 26.0264 18.0345C26.0264 19.0842 22.5936 19.9395 18.3225 19.9395C14.0515 19.9395 10.6187 19.0842 10.6187 18.0345ZM25.3878 18.0347C25.1084 17.6459 22.7933 16.4407 18.3226 16.4407C13.852 16.4407 11.5368 17.607 11.2574 18.0347C11.5368 18.4234 13.852 19.0066 18.3226 19.0066C22.8332 19.0066 25.1084 18.4234 25.3878 18.0347Z" fill="white"/>
<path d="M18.3227 19.9395C17.7639 19.9395 17.245 19.9006 16.7261 19.8618V25.6933H20.0791V19.8618C19.5202 19.9006 18.9215 19.9395 18.3227 19.9395Z" fill="white"/>
</svg>
