<svg width="37" height="36" viewBox="0 0 37 36" fill="none" xmlns="http://www.w3.org/2000/svg">
<path d="M35.6044 22.355C33.2 31.9991 23.4316 37.8677 13.7865 35.4633C4.14582 33.0589 -1.7234 23.2906 0.681556 13.6471C3.08483 4.00198 12.8526 -1.86781 22.4949 0.536587C32.1395 2.94098 38.0082 12.7105 35.6038 22.355H35.6044Z" fill="#FF2F01"/>
<path fill-rule="evenodd" clip-rule="evenodd" d="M23.5634 15.9086C23.8061 14.2836 22.5688 13.41 20.877 12.8273L21.4258 10.626L20.0855 10.2921L19.5512 12.4353C19.1994 12.3475 18.8376 12.2647 18.4781 12.1827L19.0162 10.0253L17.677 9.69136L17.1279 11.8919C16.8363 11.8255 16.5501 11.7598 16.2722 11.6907L16.2738 11.6839L14.4259 11.2225L14.0694 12.6536C14.0694 12.6536 15.0636 12.8814 15.0426 12.8956C15.5853 13.031 15.6838 13.3902 15.667 13.6749L15.0419 16.1826C15.0793 16.1921 15.1277 16.2059 15.1811 16.2272L15.0399 16.1921L14.1633 19.7051C14.0969 19.8699 13.9286 20.1172 13.5493 20.0234C13.5626 20.0428 12.5753 19.7803 12.5753 19.7803L11.9102 21.3144L13.6542 21.7491C13.8511 21.7985 14.0456 21.8492 14.238 21.8994L14.2385 21.8995C14.3629 21.932 14.4864 21.9642 14.6091 21.9956L14.0546 24.2225L15.393 24.5564L15.9425 22.3536C16.3077 22.4528 16.6627 22.5444 17.0099 22.6307L16.4627 24.8232L17.8026 25.1571L18.3571 22.9349C20.642 23.3672 22.3605 23.1928 23.0829 21.1267C23.6657 19.4627 23.0543 18.5029 21.8521 17.8767C22.7276 17.674 23.3871 17.0981 23.563 15.9086H23.5634ZM20.5013 20.2016C20.1209 21.7288 17.73 21.0969 16.637 20.808C16.5391 20.7822 16.4516 20.7591 16.377 20.7405L17.1127 17.7908C17.204 17.8136 17.3156 17.8386 17.4419 17.867C18.5726 18.1207 20.8899 18.6407 20.5017 20.2016H20.5013ZM17.6694 16.4983C18.5814 16.7416 20.5693 17.2719 20.9156 15.8846C21.2697 14.4653 19.3366 14.0375 18.3926 13.8286C18.2864 13.8051 18.1928 13.7844 18.1163 13.7654L17.4492 16.4406C17.5123 16.4564 17.5864 16.4761 17.6694 16.4983Z" fill="white"/>
</svg>
