<svg width="331" height="355" viewBox="0 0 331 355" fill="none" xmlns="http://www.w3.org/2000/svg">
<path d="M196.739 281.854C179.98 283.676 162.258 282.034 145.135 277.052C126.741 271.7 109.067 262.5 93.9077 250.387C78.7483 238.274 66.1258 223.265 57.3224 206.886C48.9862 191.375 44.086 174.657 43.0508 158.26" stroke="white"/>
<mask id="path-2-inside-1_0_1" fill="white">
<path d="M197.882 282.1C193.81 282.452 190.426 281.981 186.502 280.839C182.287 279.613 178.237 277.504 174.763 274.729C171.289 271.953 168.397 268.513 166.379 264.76C164.469 261.206 163.346 257.375 163.109 253.617"/>
</mask>
<path d="M186.502 280.839L186.223 281.799L186.502 280.839ZM174.763 274.729L174.139 275.51L174.139 275.51L174.763 274.729ZM166.379 264.76L165.498 265.233L165.498 265.233L166.379 264.76ZM197.796 281.104C193.871 281.443 190.612 280.993 186.782 279.879L186.223 281.799C190.24 282.968 193.75 283.461 197.968 283.096L197.796 281.104ZM186.782 279.879C182.694 278.689 178.76 276.643 175.387 273.947L174.139 275.51C177.713 278.366 181.88 280.536 186.223 281.799L186.782 279.879ZM175.387 273.947C172.014 271.252 169.211 267.916 167.26 264.287L165.498 265.233C167.582 269.111 170.564 272.653 174.139 275.51L175.387 273.947ZM167.26 264.287C165.413 260.85 164.334 257.158 164.107 253.554L162.111 253.68C162.358 257.591 163.525 261.561 165.498 265.233L167.26 264.287Z" fill="white" mask="url(#path-2-inside-1_0_1)"/>
<mask id="path-4-inside-2_0_1" fill="white">
<path d="M180.406 313.567C177.97 310.881 176.367 307.847 175.745 304.732C175.077 301.386 175.541 297.952 177.091 294.779C178.641 291.605 181.274 288.697 184.722 286.35C187.988 284.127 191.571 282.181 196.333 281.352"/>
</mask>
<path d="M175.745 304.732L174.765 304.928L175.745 304.732ZM177.091 294.779L176.192 294.34L176.192 294.34L177.091 294.779ZM184.722 286.35L184.159 285.523L184.722 286.35ZM181.146 312.896C178.814 310.323 177.308 307.449 176.726 304.536L174.765 304.928C175.427 308.245 177.126 311.438 179.665 314.239L181.146 312.896ZM176.726 304.536C176.102 301.413 176.532 298.202 177.99 295.218L176.192 294.34C174.55 297.703 174.052 301.359 174.765 304.928L176.726 304.536ZM177.99 295.218C179.45 292.227 181.954 289.444 185.285 287.176L184.159 285.523C180.593 287.951 177.831 290.984 176.192 294.34L177.99 295.218ZM185.285 287.176C188.487 284.996 191.936 283.133 196.504 282.337L196.161 280.366C191.207 281.23 187.489 283.257 184.159 285.523L185.285 287.176Z" fill="white" mask="url(#path-4-inside-2_0_1)"/>
<path d="M300.585 176.109C293.204 189.066 282.841 200.919 270.395 210.61C257.024 221.021 241.268 228.921 224.727 233.509C208.187 238.097 190.886 239.365 174.582 237.186C159.143 235.121 144.619 229.968 132.329 222.211" stroke="white"/>
<mask id="path-7-inside-3_0_1" fill="white">
<path d="M301.353 175.417C299.495 178.518 297.403 180.7 294.551 182.921C291.487 185.306 287.876 187.117 284.086 188.168C280.295 189.22 276.331 189.51 272.595 189.011C269.057 188.538 265.729 187.357 262.912 185.579"/>
</mask>
<path d="M294.551 182.921L295.165 183.71L294.551 182.921ZM284.086 188.168L284.353 189.132L284.086 188.168ZM272.595 189.011L272.462 190.002L272.595 189.011ZM300.495 174.903C298.713 177.878 296.712 179.971 293.936 182.132L295.165 183.71C298.094 181.429 300.277 179.158 302.211 175.931L300.495 174.903ZM293.936 182.132C290.977 184.436 287.485 186.188 283.818 187.205L284.353 189.132C288.268 188.046 291.996 186.177 295.165 183.71L293.936 182.132ZM283.818 187.205C280.152 188.221 276.324 188.5 272.727 188.02L272.462 190.002C276.338 190.52 280.438 190.218 284.353 189.132L283.818 187.205ZM272.727 188.02C269.322 187.564 266.132 186.429 263.446 184.734L262.378 186.425C265.325 188.285 268.792 189.511 272.462 190.002L272.727 188.02Z" fill="white" mask="url(#path-7-inside-3_0_1)"/>
<mask id="path-9-inside-4_0_1" fill="white">
<path d="M314.851 204.255C311.662 204.608 308.657 204.184 306.102 203.016C303.357 201.761 301.136 199.648 299.665 196.892C298.193 194.136 297.473 190.742 297.578 187.053C297.677 183.56 298.14 179.983 300.014 176.14"/>
</mask>
<path d="M306.102 203.016L305.686 203.925L306.102 203.016ZM299.665 196.892L298.783 197.363L298.783 197.363L299.665 196.892ZM297.578 187.053L296.579 187.024L296.579 187.024L297.578 187.053ZM314.741 203.261C311.705 203.597 308.886 203.189 306.518 202.107L305.686 203.925C308.428 205.18 311.619 205.619 314.961 205.249L314.741 203.261ZM306.518 202.107C303.98 200.946 301.919 198.991 300.547 196.421L298.783 197.363C300.354 200.305 302.735 202.576 305.686 203.925L306.518 202.107ZM300.547 196.421C299.171 193.844 298.477 190.628 298.578 187.081L296.579 187.024C296.47 190.855 297.216 194.428 298.783 197.363L300.547 196.421ZM298.578 187.081C298.675 183.665 299.125 180.245 300.913 176.578L299.115 175.702C297.156 179.72 296.68 183.454 296.579 187.024L298.578 187.081Z" fill="white" mask="url(#path-9-inside-4_0_1)"/>
<path fill-rule="evenodd" clip-rule="evenodd" d="M197.789 2.49733C185.366 1.20822 172.701 2.28104 160.674 5.64812C148.131 9.15957 136.291 15.1638 126.047 23.2078C115.803 31.2519 107.162 41.33 100.776 52.682C94.3901 64.0339 90.2636 76.6518 88.7079 89.5834C87.1522 102.515 88.1684 115.752 91.6799 128.294C95.1913 140.837 101.196 152.677 109.24 162.921C117.284 173.165 127.362 181.806 138.714 188.192C150.066 194.578 162.684 198.705 175.615 200.26C188.547 201.816 201.783 200.8 214.326 197.288C226.869 193.777 238.709 187.773 248.953 179.729C259.197 171.685 267.838 161.606 274.224 150.255C280.61 138.903 284.737 126.285 286.292 113.353C287.848 100.421 286.832 87.1849 283.32 74.6423C279.809 62.0996 273.805 50.2596 265.76 40.0155C257.716 29.7714 247.638 21.1304 236.286 14.7444C224.934 8.35836 212.317 4.23184 199.385 2.67614C198.94 2.62257 198.494 2.57205 198.048 2.52459C197.962 2.51539 197.875 2.50632 197.789 2.49733ZM160.404 4.68514C172.553 1.2841 185.344 0.200592 197.892 1.50267L197.892 1.50267C197.979 1.51174 198.066 1.5209 198.154 1.5302L198.154 1.5302C198.604 1.57815 199.055 1.62919 199.504 1.6833C212.566 3.25468 225.31 7.42242 236.777 13.8728C248.243 20.3232 258.422 29.0505 266.547 39.3979C274.672 49.7453 280.736 61.7036 284.283 74.3727C287.83 87.0418 288.856 100.41 287.285 113.473C285.714 126.535 281.546 139.278 275.096 150.745C268.645 162.211 259.918 172.39 249.57 180.515C239.223 188.64 227.265 194.705 214.596 198.251C201.927 201.798 188.558 202.825 175.496 201.253C162.434 199.682 149.69 195.514 138.223 189.064C126.757 182.613 116.578 173.886 108.453 163.539C100.328 153.191 94.2638 141.233 90.7169 128.564C87.17 115.895 86.1437 102.526 87.715 89.464C89.2864 76.402 93.4542 63.6581 99.9046 52.1917C106.355 40.7253 115.082 30.5464 125.43 22.4213C135.777 14.2962 147.735 8.232 160.404 4.68514ZM170.411 2.66136C171.312 3.88194 172.281 5.06737 173.316 6.212L173.019 6.48016L173.316 6.212C175.684 8.83366 178.39 11.2408 181.374 13.366C187.412 17.6669 194.579 20.8069 202.145 22.4628C209.711 24.1187 217.662 24.2873 225.188 22.9526C231.09 21.9059 236.723 19.9361 241.739 17.1845L242.22 18.0613C237.105 20.8672 231.368 22.8723 225.363 23.9372C217.706 25.2951 209.623 25.1231 201.931 23.4397C194.239 21.7562 186.947 18.5631 180.794 14.1805C177.753 12.0143 174.992 9.55902 172.574 6.88241C171.518 5.7137 170.527 4.5027 169.606 3.25502L170.411 2.66136ZM89.6156 119.222C97.0319 132.483 107.804 144.475 120.968 154.088C134.869 164.24 151.415 171.723 168.924 175.773C186.433 179.822 204.877 180.432 222.38 177.541C238.672 174.85 254.124 169.13 267.381 160.908L267.908 161.758C254.534 170.052 238.957 175.817 222.543 178.528C204.91 181.441 186.334 180.826 168.699 176.747C151.064 172.668 134.393 165.13 120.378 154.896C107.107 145.204 96.2341 133.105 88.7428 119.71L89.6156 119.222ZM201.678 3.04413C198.064 4.36968 194.493 5.90958 190.985 7.65242C179.781 13.2188 169.216 20.8545 159.883 30.1855C147.04 43.0245 136.55 59.0542 129.482 76.6458C122.414 94.2374 118.779 113.363 118.946 132.076C119.102 149.612 122.597 166.76 129.095 181.992L128.175 182.384C121.623 167.025 118.103 149.745 117.946 132.085C117.777 113.239 121.438 93.9842 128.554 76.2729C135.67 58.5617 146.234 42.4169 159.176 29.4783C168.582 20.0741 179.235 12.3735 190.54 6.75686C194.08 4.99817 197.684 3.44372 201.334 2.10527L201.678 3.04413ZM162.729 198.258L208.712 3.65979L209.685 3.88976L163.702 198.488L162.729 198.258ZM94.9443 62.9605C95.1432 62.769 95.4597 62.7749 95.6513 62.9738C106.976 74.7313 121.485 85.8439 136.489 93.9957C151.495 102.149 167.966 108.216 185.005 111.866C202.043 115.516 219.641 116.748 236.838 115.493C248.197 114.665 260.377 112.447 271.789 109.304C277.221 107.807 282.476 106.102 287.384 104.237C287.643 104.139 287.931 104.269 288.029 104.527C288.127 104.785 287.998 105.074 287.74 105.172C282.8 107.049 277.514 108.764 272.055 110.268C260.587 113.427 248.343 115.657 236.911 116.491C219.618 117.752 201.926 116.514 184.795 112.844C167.665 109.174 151.103 103.074 136.012 94.8744C120.918 86.6739 106.327 75.499 94.931 63.6675C94.7394 63.4686 94.7454 63.1521 94.9443 62.9605ZM241.925 51.8446C236.272 34.6287 227.347 18.8899 216.016 6.12335L216.764 5.45955C228.191 18.3343 237.182 34.1947 242.875 51.5327C248.751 69.4303 251.106 88.879 249.7 107.906C248.294 126.933 243.13 145.513 234.729 161.761C226.754 177.184 215.872 190.486 203.088 200.456L202.473 199.667C215.136 189.792 225.927 176.606 233.84 161.302C242.177 145.179 247.306 126.73 248.703 107.832C250.099 88.934 247.76 69.6164 241.925 51.8446Z" fill="white"/>
</svg>
