<svg width="101" height="100" viewBox="0 0 101 100" fill="none" xmlns="http://www.w3.org/2000/svg">
<mask id="path-1-inside-1_581_1695" fill="white">
<path d="M98.5 50C99.6046 50 100.504 50.8962 100.46 51.9999C99.9588 64.5338 94.7597 76.4509 85.8553 85.3553C76.4785 94.7322 63.7608 100 50.5 100C37.2392 100 24.5215 94.7322 15.1447 85.3553C6.24027 76.4509 1.04124 64.5338 0.539965 51.9999C0.495825 50.8962 1.39543 50 2.5 50L3.5 50C4.60457 50 5.49536 50.8961 5.5444 51.9996C6.04248 63.207 10.7136 73.8532 18.6802 81.8198C27.1193 90.2589 38.5653 95 50.5 95C62.4347 95 73.8807 90.2589 82.3198 81.8198C90.2864 73.8532 94.9575 63.207 95.4556 51.9996C95.5046 50.8961 96.3954 50 97.5 50L98.5 50Z"/>
</mask>
<path d="M98.5 50C99.6046 50 100.504 50.8962 100.46 51.9999C99.9588 64.5338 94.7597 76.4509 85.8553 85.3553C76.4785 94.7322 63.7608 100 50.5 100C37.2392 100 24.5215 94.7322 15.1447 85.3553C6.24027 76.4509 1.04124 64.5338 0.539965 51.9999C0.495825 50.8962 1.39543 50 2.5 50L3.5 50C4.60457 50 5.49536 50.8961 5.5444 51.9996C6.04248 63.207 10.7136 73.8532 18.6802 81.8198C27.1193 90.2589 38.5653 95 50.5 95C62.4347 95 73.8807 90.2589 82.3198 81.8198C90.2864 73.8532 94.9575 63.207 95.4556 51.9996C95.5046 50.8961 96.3954 50 97.5 50L98.5 50Z" fill="white" stroke="white" stroke-opacity="0.2" stroke-width="1.25" mask="url(#path-1-inside-1_581_1695)"/>
<circle cx="30.1875" cy="41.5625" r="0.9375" transform="rotate(-90 30.1875 41.5625)" fill="white"/>
<circle cx="30.1875" cy="33.4375" r="0.9375" transform="rotate(-90 30.1875 33.4375)" fill="white"/>
<circle cx="30.1875" cy="25.3125" r="0.9375" transform="rotate(-90 30.1875 25.3125)" fill="white"/>
<circle cx="30.1875" cy="17.1875" r="0.9375" transform="rotate(-90 30.1875 17.1875)" fill="white"/>
<circle cx="30.1875" cy="9.0625" r="0.9375" transform="rotate(-90 30.1875 9.0625)" fill="white"/>
<circle cx="30.1875" cy="0.9375" r="0.9375" transform="rotate(-90 30.1875 0.9375)" fill="white"/>
<circle cx="38.3125" cy="41.5625" r="0.9375" transform="rotate(-90 38.3125 41.5625)" fill="white"/>
<circle cx="38.3125" cy="33.4375" r="0.9375" transform="rotate(-90 38.3125 33.4375)" fill="white"/>
<circle cx="38.3125" cy="25.3125" r="0.9375" transform="rotate(-90 38.3125 25.3125)" fill="white"/>
<circle cx="38.3125" cy="17.1875" r="0.9375" transform="rotate(-90 38.3125 17.1875)" fill="white"/>
<circle cx="38.3125" cy="9.0625" r="0.9375" transform="rotate(-90 38.3125 9.0625)" fill="white"/>
<circle cx="38.3125" cy="0.9375" r="0.9375" transform="rotate(-90 38.3125 0.9375)" fill="white"/>
<circle cx="46.4375" cy="41.5625" r="0.9375" transform="rotate(-90 46.4375 41.5625)" fill="white"/>
<circle cx="46.4375" cy="33.4375" r="0.9375" transform="rotate(-90 46.4375 33.4375)" fill="white"/>
<circle cx="46.4375" cy="25.3125" r="0.9375" transform="rotate(-90 46.4375 25.3125)" fill="white"/>
<circle cx="46.4375" cy="17.1875" r="0.9375" transform="rotate(-90 46.4375 17.1875)" fill="white"/>
<circle cx="46.4375" cy="9.0625" r="0.9375" transform="rotate(-90 46.4375 9.0625)" fill="white"/>
<circle cx="46.4375" cy="0.9375" r="0.9375" transform="rotate(-90 46.4375 0.9375)" fill="white"/>
<circle cx="54.5625" cy="41.5625" r="0.9375" transform="rotate(-90 54.5625 41.5625)" fill="white"/>
<circle cx="54.5625" cy="33.4375" r="0.9375" transform="rotate(-90 54.5625 33.4375)" fill="white"/>
<circle cx="54.5625" cy="25.3125" r="0.9375" transform="rotate(-90 54.5625 25.3125)" fill="white"/>
<circle cx="54.5625" cy="17.1875" r="0.9375" transform="rotate(-90 54.5625 17.1875)" fill="white"/>
<circle cx="54.5625" cy="9.0625" r="0.9375" transform="rotate(-90 54.5625 9.0625)" fill="white"/>
<circle cx="54.5625" cy="0.9375" r="0.9375" transform="rotate(-90 54.5625 0.9375)" fill="white"/>
<circle cx="62.6875" cy="41.5625" r="0.9375" transform="rotate(-90 62.6875 41.5625)" fill="white"/>
<circle cx="62.6875" cy="33.4375" r="0.9375" transform="rotate(-90 62.6875 33.4375)" fill="white"/>
<circle cx="62.6875" cy="25.3125" r="0.9375" transform="rotate(-90 62.6875 25.3125)" fill="white"/>
<circle cx="62.6875" cy="17.1875" r="0.9375" transform="rotate(-90 62.6875 17.1875)" fill="white"/>
<circle cx="62.6875" cy="9.0625" r="0.9375" transform="rotate(-90 62.6875 9.0625)" fill="white"/>
<circle cx="62.6875" cy="0.9375" r="0.9375" transform="rotate(-90 62.6875 0.9375)" fill="white"/>
<circle cx="70.8125" cy="41.5625" r="0.9375" transform="rotate(-90 70.8125 41.5625)" fill="white"/>
<circle cx="70.8125" cy="33.4375" r="0.9375" transform="rotate(-90 70.8125 33.4375)" fill="white"/>
<circle cx="70.8125" cy="25.3125" r="0.9375" transform="rotate(-90 70.8125 25.3125)" fill="white"/>
<circle cx="70.8125" cy="17.1875" r="0.9375" transform="rotate(-90 70.8125 17.1875)" fill="white"/>
<circle cx="70.8125" cy="9.0625" r="0.9375" transform="rotate(-90 70.8125 9.0625)" fill="white"/>
<circle cx="70.8125" cy="0.9375" r="0.9375" transform="rotate(-90 70.8125 0.9375)" fill="white"/>
<rect x="35.1875" y="88.75" width="63.75" height="6.25" rx="2" transform="rotate(-90 35.1875 88.75)" fill="white" fill-opacity="0.2"/>
<rect x="35.4375" y="88.5" width="63.25" height="5.75" rx="1.75" transform="rotate(-90 35.4375 88.5)" stroke="white" stroke-opacity="0.2" stroke-width="0.5"/>
<rect x="58.9375" y="88.75" width="76.25" height="6.25" rx="2" transform="rotate(-90 58.9375 88.75)" fill="white" fill-opacity="0.2"/>
<rect x="59.1875" y="88.5" width="75.75" height="5.75" rx="1.75" transform="rotate(-90 59.1875 88.5)" stroke="white" stroke-opacity="0.2" stroke-width="0.5"/>
<rect x="11.4375" y="65.625" width="28.125" height="6.25" rx="2" transform="rotate(-90 11.4375 65.625)" fill="white" fill-opacity="0.2"/>
<rect x="11.6875" y="65.375" width="27.625" height="5.75" rx="1.75" transform="rotate(-90 11.6875 65.375)" stroke="white" stroke-opacity="0.2" stroke-width="0.5"/>
<rect x="82.6875" y="65.625" width="65.625" height="6.25" rx="2" transform="rotate(-90 82.6875 65.625)" fill="white" fill-opacity="0.2"/>
<rect x="82.9375" y="65.375" width="65.125" height="5.75" rx="1.75" transform="rotate(-90 82.9375 65.375)" stroke="white" stroke-opacity="0.2" stroke-width="0.5"/>
</svg>
