<svg width="46" height="183" viewBox="0 0 46 183" fill="none" xmlns="http://www.w3.org/2000/svg">
<mask id="path-1-inside-1_2014_1201" fill="white">
<path d="M45.4554 173.672C33.9218 164.219 23.9779 152.013 16.5152 138.115C8.49823 123.186 3.35637 106.327 1.6119 89.2509C-0.132571 72.1748 1.52288 54.9065 6.41008 39.2002C11.038 24.3272 18.5574 10.8753 28.2687 0.0625"/>
<path d="M46.0078 174.545C43.2631 172.193 41.4637 169.764 39.7536 166.579C37.9164 163.158 36.7381 159.294 36.3384 155.381C35.9386 151.468 36.318 147.511 37.4379 143.912C38.4984 140.504 40.2215 137.421 42.4469 134.943"/>
<path d="M15.3126 183.008C15.4998 179.805 16.4223 176.914 18.0033 174.591C19.7018 172.096 22.1576 170.262 25.1214 169.274C28.0852 168.286 31.5526 168.147 35.1715 168.87C38.5983 169.554 42.0466 170.611 45.5204 173.104"/>
</mask>
<path d="M16.5152 138.115L15.6341 138.589L15.6341 138.589L16.5152 138.115ZM1.6119 89.2509L0.617078 89.3525L0.617078 89.3525L1.6119 89.2509ZM6.41008 39.2002L5.45524 38.9031L5.45524 38.9031L6.41008 39.2002ZM39.7536 166.579L38.8725 167.052L38.8725 167.052L39.7536 166.579ZM36.3384 155.381L35.3436 155.483L35.3436 155.483L36.3384 155.381ZM37.4379 143.912L36.4831 143.615L36.4831 143.615L37.4379 143.912ZM18.0033 174.591L17.1767 174.028L17.1767 174.028L18.0033 174.591ZM25.1214 169.274L24.8052 168.325L24.8052 168.325L25.1214 169.274ZM35.1715 168.87L35.3674 167.889L35.3674 167.889L35.1715 168.87ZM45.4554 173.672L46.0892 172.898C34.6623 163.533 24.8003 151.431 17.3962 137.642L16.5152 138.115L15.6341 138.589C23.1554 152.595 33.1812 164.905 44.8215 174.445L45.4554 173.672ZM16.5152 138.115L17.3962 137.642C9.44191 122.83 4.33809 106.097 2.60672 89.1492L1.6119 89.2509L0.617078 89.3525C2.37466 106.557 7.55454 123.542 15.6341 138.589L16.5152 138.115ZM1.6119 89.2509L2.60672 89.1492C0.875357 72.2015 2.51956 55.0692 7.36492 39.4973L6.41008 39.2002L5.45524 38.9031C0.526201 54.7438 -1.1405 72.1481 0.617078 89.3525L1.6119 89.2509ZM6.41008 39.2002L7.36492 39.4973C11.9531 24.7521 19.4041 11.4291 29.0127 0.730696L28.2687 0.0625L27.5247 -0.605696C17.7107 10.3214 10.1229 23.9023 5.45524 38.9031L6.41008 39.2002ZM46.0078 174.545L46.6586 173.786C44.0256 171.529 42.2986 169.205 40.6346 166.106L39.7536 166.579L38.8725 167.052C40.6287 170.323 42.5007 172.856 45.357 175.304L46.0078 174.545ZM39.7536 166.579L40.6346 166.106C38.8601 162.801 37.7199 159.064 37.3332 155.28L36.3384 155.381L35.3436 155.483C35.7564 159.524 36.9727 163.514 38.8725 167.052L39.7536 166.579ZM36.3384 155.381L37.3332 155.28C36.9466 151.495 37.3147 147.674 38.3928 144.209L37.4379 143.912L36.4831 143.615C35.3213 147.348 34.9307 151.442 35.3436 155.483L36.3384 155.381ZM37.4379 143.912L38.3928 144.209C39.4135 140.929 41.0682 137.975 43.1909 135.612L42.4469 134.943L41.703 134.275C39.3749 136.867 37.5833 140.079 36.4831 143.615L37.4379 143.912ZM15.3126 183.008L16.3109 183.066C16.4891 180.017 17.3649 177.306 18.83 175.154L18.0033 174.591L17.1767 174.028C15.4798 176.521 14.5105 179.593 14.3143 182.949L15.3126 183.008ZM18.0033 174.591L18.83 175.154C20.4005 172.847 22.6738 171.144 25.4376 170.223L25.1214 169.274L24.8052 168.325C21.6415 169.38 19.003 171.346 17.1767 174.028L18.0033 174.591ZM25.1214 169.274L25.4376 170.223C28.2087 169.299 31.4963 169.155 34.9756 169.85L35.1715 168.87L35.3674 167.889C31.609 167.138 27.9617 167.273 24.8052 168.325L25.1214 169.274ZM35.1715 168.87L34.9756 169.85C38.3271 170.52 41.6227 171.538 44.9375 173.916L45.5204 173.104L46.1034 172.291C42.4706 169.685 38.8696 168.589 35.3674 167.889L35.1715 168.87Z" fill="white" mask="url(#path-1-inside-1_2014_1201)"/>
</svg>
