<svg width="46" height="183" viewBox="0 0 46 183" fill="none" xmlns="http://www.w3.org/2000/svg">
<mask id="path-1-inside-1_2014_1203" fill="white">
<path d="M1.49016 173.672C13.0238 164.219 22.9677 152.013 30.4304 138.115C38.4473 123.186 43.5892 106.327 45.3336 89.2509C47.0781 72.1748 45.4227 54.9065 40.5355 39.2002C35.9076 24.3272 28.3881 10.8753 18.6768 0.0625"/>
<path d="M0.937729 174.545C3.68241 172.193 5.48187 169.764 7.19199 166.579C9.02911 163.158 10.2074 159.294 10.6072 155.381C11.0069 151.468 10.6276 147.511 9.50762 143.912C8.44711 140.504 6.72399 137.421 4.4986 134.943"/>
<path d="M31.6329 183.008C31.4458 179.805 30.5232 176.914 28.9422 174.591C27.2438 172.096 24.7879 170.262 21.8241 169.274C18.8603 168.286 15.3929 168.147 11.774 168.87C8.34721 169.554 4.89893 170.611 1.42511 173.104"/>
</mask>
<path d="M30.4304 138.115L31.3114 138.589L31.3114 138.589L30.4304 138.115ZM45.3336 89.2509L46.3285 89.3525L46.3285 89.3525L45.3336 89.2509ZM40.5355 39.2002L41.4903 38.9031L41.4903 38.9031L40.5355 39.2002ZM7.19199 166.579L8.073 167.052L8.073 167.052L7.19199 166.579ZM10.6072 155.381L11.602 155.483L11.602 155.483L10.6072 155.381ZM9.50762 143.912L10.4625 143.615L10.4625 143.615L9.50762 143.912ZM28.9422 174.591L29.7688 174.028L29.7688 174.028L28.9422 174.591ZM21.8241 169.274L22.1403 168.325L22.1403 168.325L21.8241 169.274ZM11.774 168.87L11.5782 167.889L11.5782 167.889L11.774 168.87ZM1.49016 173.672L2.12403 174.445C13.7643 164.905 23.7902 152.595 31.3114 138.589L30.4304 138.115L29.5494 137.642C22.1452 151.431 12.2832 163.533 0.856291 172.898L1.49016 173.672ZM30.4304 138.115L31.3114 138.589C39.391 123.542 44.5709 106.557 46.3285 89.3525L45.3336 89.2509L44.3388 89.1492C42.6075 106.097 37.5036 122.83 29.5494 137.642L30.4304 138.115ZM45.3336 89.2509L46.3285 89.3525C48.086 72.1481 46.4193 54.7438 41.4903 38.9031L40.5355 39.2002L39.5806 39.4973C44.426 55.0692 46.0702 72.2015 44.3388 89.1492L45.3336 89.2509ZM40.5355 39.2002L41.4903 38.9031C36.8226 23.9023 29.2348 10.3214 19.4208 -0.605696L18.6768 0.0625L17.9328 0.730696C27.5414 11.4291 34.9925 24.7521 39.5806 39.4973L40.5355 39.2002ZM0.937729 174.545L1.58852 175.304C4.44489 172.856 6.3168 170.323 8.073 167.052L7.19199 166.579L6.31098 166.106C4.64694 169.205 2.91992 171.529 0.286938 173.786L0.937729 174.545ZM7.19199 166.579L8.073 167.052C9.9728 163.514 11.1891 159.524 11.602 155.483L10.6072 155.381L9.61233 155.28C9.22568 159.064 8.08543 162.801 6.31098 166.106L7.19199 166.579ZM10.6072 155.381L11.602 155.483C12.0148 151.442 11.6242 147.348 10.4625 143.615L9.50762 143.912L8.55278 144.209C9.63087 147.674 9.99898 151.495 9.61233 155.28L10.6072 155.381ZM9.50762 143.912L10.4625 143.615C9.3622 140.079 7.57068 136.867 5.24258 134.275L4.4986 134.943L3.75461 135.612C5.87731 137.975 7.53203 140.929 8.55278 144.209L9.50762 143.912ZM31.6329 183.008L32.6312 182.949C32.4351 179.593 31.4657 176.521 29.7688 174.028L28.9422 174.591L28.1156 175.154C29.5807 177.306 30.4564 180.017 30.6347 183.066L31.6329 183.008ZM28.9422 174.591L29.7688 174.028C27.9425 171.346 25.3041 169.38 22.1403 168.325L21.8241 169.274L21.508 170.223C24.2718 171.144 26.545 172.847 28.1156 175.154L28.9422 174.591ZM21.8241 169.274L22.1403 168.325C18.9839 167.273 15.3365 167.138 11.5782 167.889L11.774 168.87L11.9699 169.85C15.4493 169.155 18.7368 169.299 21.508 170.223L21.8241 169.274ZM11.774 168.87L11.5782 167.889C8.07594 168.589 4.47498 169.685 0.842184 172.291L1.42511 173.104L2.00803 173.916C5.32288 171.538 8.61848 170.52 11.9699 169.85L11.774 168.87Z" fill="white" mask="url(#path-1-inside-1_2014_1203)"/>
</svg>
