<svg width="36" height="36" viewBox="0 0 36 36" fill="none" xmlns="http://www.w3.org/2000/svg">
<path d="M18 36C27.9411 36 36 27.9411 36 18C36 8.05888 27.9411 0 18 0C8.05888 0 0 8.05888 0 18C0 27.9411 8.05888 36 18 36Z" fill="#FF2F01"/>
<path fill-rule="evenodd" clip-rule="evenodd" d="M13.8462 17.0668L18.7122 13.9037L23.5385 17.0864L18.691 8.30769L13.8462 17.0668ZM14.0319 17.9804L18.7176 14.8926L23.3423 17.9574L18.7202 21.0485L14.0319 17.9804ZM13.8463 18.8645C15.554 19.9843 17.336 21.1566 18.7123 22.0636L23.5386 18.8645C21.7911 22.0701 20.3352 24.7388 18.7123 27.6923L17.7173 25.8887C16.3803 23.4653 15.0015 20.9661 13.8463 18.8645Z" fill="white"/>
<path fill-rule="evenodd" clip-rule="evenodd" d="M18.6924 8.30771L18.7106 13.9037L23.5385 17.0865L18.6924 8.30771ZM18.7152 14.8926L23.3705 17.9575L18.7175 21.0485L18.7152 14.8926ZM18.7108 22.0636L23.5388 18.8645C22.0413 22.0702 18.7108 27.6923 18.7108 27.6923V22.0636Z" fill="white"/>
</svg>
