<svg width="37" height="36" viewBox="0 0 37 36" fill="none" xmlns="http://www.w3.org/2000/svg">
<path d="M36.1761 22.355C33.7717 31.9991 24.0034 37.8677 14.3582 35.4633C4.7176 33.0589 -1.15163 23.2906 1.25333 13.6471C3.6566 4.00198 13.4244 -1.86781 23.0667 0.536587C32.7113 2.94098 38.58 12.7105 36.1756 22.355H36.1761Z" fill="#FF2F01"/>
<path d="M23.803 12H25.971L21.4593 16.4671C19.8254 18.084 17.1764 18.084 15.5413 16.4671L11.0278 12H13.1976L16.6253 15.3934C17.1247 15.8856 17.7978 16.1616 18.499 16.1616C19.2002 16.1616 19.8732 15.8856 20.3727 15.3934L23.803 12Z" fill="white"/>
<path d="M13.1699 24.4218H11.0005L15.5415 19.9271C17.1754 18.3102 19.8244 18.3102 21.4595 19.9271L26.0005 24.4218H23.8325L20.3755 21.0008C19.8761 20.5086 19.203 20.2327 18.5018 20.2327C17.8006 20.2327 17.1275 20.5086 16.6281 21.0008L13.1699 24.4218Z" fill="white"/>
</svg>
