<svg width="320" height="369" viewBox="0 0 320 369" fill="none" xmlns="http://www.w3.org/2000/svg">
<rect x="0.882683" y="249.429" width="80" height="35" rx="17.5" transform="rotate(-5.95644 0.882683 249.429)" stroke="white"/>
<path d="M27.2332 270.49C26.5098 270.565 25.8522 270.449 25.2602 270.141C24.6679 269.83 24.1804 269.355 23.7977 268.717C23.4147 268.075 23.1752 267.295 23.0793 266.376C22.9842 265.464 23.058 264.657 23.3007 263.953C23.5434 263.25 23.9245 262.687 24.444 262.263C24.9634 261.839 25.5886 261.59 26.3195 261.513C26.8846 261.454 27.3409 261.502 27.6883 261.656C28.0391 261.806 28.3135 261.991 28.5116 262.21C28.713 262.425 28.8706 262.603 28.9842 262.743L29.0973 262.732L28.6515 258.459L29.9852 258.32L31.1927 269.894L29.9043 270.028L29.7651 268.694L29.6069 268.711C29.5254 268.879 29.4069 269.094 29.2512 269.354C29.0951 269.61 28.8593 269.85 28.5436 270.073C28.2276 270.293 27.7908 270.431 27.2332 270.49ZM27.289 269.273C27.824 269.217 28.2615 269.03 28.6017 268.713C28.9414 268.392 29.1814 267.973 29.3216 267.455C29.4615 266.934 29.4972 266.346 29.4288 265.69C29.3612 265.042 29.2079 264.485 28.9688 264.019C28.7293 263.549 28.4108 263.197 28.0133 262.965C27.6154 262.728 27.1452 262.638 26.6027 262.695C26.0376 262.754 25.5818 262.948 25.2353 263.277C24.8922 263.603 24.6522 264.022 24.5153 264.535C24.3818 265.044 24.3469 265.604 24.4106 266.214C24.4751 266.832 24.6278 267.383 24.8689 267.869C25.1133 268.35 25.4375 268.719 25.8415 268.978C26.2489 269.233 26.7314 269.331 27.289 269.273ZM37.4787 269.421C36.6423 269.508 35.9016 269.399 35.2565 269.093C34.6148 268.783 34.0953 268.311 33.698 267.679C33.304 267.042 33.0606 266.279 32.9679 265.39C32.8751 264.501 32.9553 263.7 33.2086 262.988C33.4652 262.272 33.8656 261.693 34.4099 261.252C34.9575 260.806 35.6231 260.543 36.4068 260.461C36.8589 260.414 37.3132 260.442 37.7697 260.547C38.2262 260.652 38.653 260.855 39.05 261.156C39.4467 261.454 39.7813 261.868 40.0538 262.4C40.3263 262.931 40.5048 263.602 40.5893 264.412L40.6483 264.977L33.9573 265.675L33.8371 264.522L39.1717 263.965C39.1206 263.476 38.9771 263.049 38.7411 262.685C38.5089 262.321 38.2022 262.046 37.8211 261.861C37.4438 261.676 37.014 261.609 36.5318 261.659C36.0006 261.714 35.5547 261.894 35.1942 262.198C34.837 262.498 34.5766 262.868 34.4131 263.308C34.2495 263.748 34.1926 264.207 34.2426 264.685L34.3228 265.454C34.3912 266.11 34.5622 266.653 34.8358 267.086C35.1127 267.514 35.4671 267.825 35.8987 268.02C36.33 268.211 36.815 268.279 37.3537 268.223C37.7041 268.186 38.0154 268.104 38.2878 267.977C38.5635 267.845 38.7945 267.669 38.9809 267.447C39.1669 267.222 39.3007 266.953 39.3822 266.64L40.7084 266.867C40.6184 267.318 40.4306 267.726 40.1449 268.091C39.8589 268.453 39.49 268.75 39.0384 268.984C38.5863 269.214 38.0664 269.359 37.4787 269.421ZM45.6583 268.59C45.1082 268.647 44.5982 268.596 44.1283 268.436C43.6579 268.271 43.2703 268.005 42.9653 267.637C42.6599 267.265 42.4777 266.797 42.4188 266.232C42.3669 265.734 42.4228 265.321 42.5864 264.992C42.7497 264.659 42.986 264.386 43.2953 264.175C43.6046 263.964 43.9525 263.794 44.339 263.666C44.729 263.534 45.1227 263.421 45.5203 263.326C46.0407 263.203 46.463 263.108 46.7872 263.04C47.1148 262.967 47.3495 262.88 47.4911 262.778C47.6365 262.675 47.698 262.516 47.6756 262.301L47.6709 262.256C47.6128 261.699 47.415 261.281 47.0776 261.004C46.7439 260.727 46.2701 260.62 45.656 260.684C45.0193 260.75 44.5347 260.942 44.2021 261.258C43.8695 261.575 43.6462 261.899 43.5323 262.231L42.2193 261.911C42.3903 261.36 42.6489 260.918 42.995 260.585C43.3444 260.247 43.7372 259.997 44.1733 259.833C44.6129 259.666 45.0511 259.559 45.4881 259.513C45.7669 259.484 46.0907 259.485 46.4595 259.515C46.8316 259.541 47.1978 259.638 47.5581 259.806C47.9221 259.973 48.2386 260.251 48.5075 260.638C48.7764 261.025 48.9468 261.563 49.0187 262.253L49.6154 267.972L48.2818 268.111L48.1591 266.935L48.0913 266.942C48.0206 267.14 47.8909 267.357 47.7023 267.594C47.5137 267.831 47.2521 268.043 46.9175 268.23C46.5828 268.417 46.1631 268.537 45.6583 268.59ZM45.7367 267.371C46.2641 267.316 46.6979 267.166 47.0379 266.921C47.3818 266.676 47.6289 266.379 47.7793 266.032C47.9335 265.685 47.9917 265.33 47.9539 264.969L47.8266 263.748C47.7771 263.822 47.6593 263.897 47.4731 263.973C47.2902 264.046 47.0766 264.116 46.8323 264.183C46.5913 264.246 46.3556 264.305 46.1252 264.36C45.8981 264.41 45.714 264.452 45.5728 264.486C45.2309 264.567 44.9146 264.675 44.6238 264.808C44.3364 264.937 44.1108 265.111 43.947 265.33C43.7866 265.544 43.7241 265.821 43.7595 266.16C43.8079 266.624 44.0158 266.956 44.3834 267.158C44.7544 267.355 45.2055 267.426 45.7367 267.371ZM52.1758 256.005L53.3833 267.578L52.0497 267.718L50.8421 256.144L52.1758 256.005ZM61.2717 259.946L60.109 260.41C60.0128 260.218 59.8814 260.036 59.7149 259.863C59.5516 259.685 59.3392 259.548 59.0776 259.449C58.816 259.351 58.4912 259.322 58.1031 259.362C57.5719 259.418 57.142 259.587 56.8134 259.868C56.4882 260.146 56.345 260.471 56.384 260.844C56.4186 261.176 56.5664 261.425 56.8276 261.592C57.0888 261.759 57.4822 261.88 58.0079 261.955L59.3294 262.137C60.1252 262.244 60.7335 262.472 61.1545 262.82C61.5751 263.165 61.8171 263.64 61.8804 264.247C61.9323 264.744 61.8355 265.204 61.59 265.625C61.3484 266.047 60.985 266.397 60.5 266.676C60.015 266.955 59.4353 267.13 58.7609 267.2C57.8756 267.293 57.1227 267.177 56.5025 266.853C55.8822 266.529 55.4563 266.006 55.2248 265.284L56.4576 264.835C56.6269 265.29 56.8914 265.617 57.2511 265.815C57.6145 266.013 58.0694 266.084 58.6157 266.027C59.2373 265.962 59.7171 265.779 60.055 265.477C60.3963 265.171 60.5475 264.832 60.5086 264.459C60.4771 264.157 60.3453 263.916 60.1131 263.734C59.8805 263.549 59.5404 263.428 59.0927 263.372L57.6107 263.184C56.7961 263.079 56.1817 262.848 55.7674 262.491C55.3566 262.13 55.1199 261.65 55.0574 261.051C55.0063 260.562 55.0986 260.114 55.3343 259.708C55.5738 259.303 55.9215 258.967 56.3776 258.703C56.8374 258.438 57.3725 258.273 57.9828 258.21C58.8418 258.12 59.5358 258.238 60.0649 258.564C60.5977 258.889 61 259.35 61.2717 259.946Z" fill="white"/>
<rect x="0.882683" y="333.64" width="80" height="35" rx="17.5" transform="rotate(-5.95644 0.882683 333.64)" stroke="white"/>
<path d="M24.2763 358.117L23.031 346.182L24.3195 346.047L24.4633 347.426L24.6216 347.41C24.7038 347.249 24.8194 347.043 24.9683 346.791C25.1206 346.535 25.351 346.298 25.6595 346.079C25.9714 345.856 26.4099 345.715 26.975 345.656C27.7059 345.58 28.3692 345.695 28.9649 346.003C29.5606 346.31 30.0498 346.782 30.4324 347.42C30.8151 348.058 31.054 348.833 31.1491 349.745C31.245 350.664 31.1718 351.477 30.9295 352.184C30.6868 352.888 30.3078 353.453 29.7925 353.88C29.2768 354.303 28.6573 354.552 27.9339 354.628C27.3763 354.686 26.9203 354.64 26.5657 354.491C26.2107 354.337 25.9305 354.151 25.7249 353.933C25.5189 353.71 25.3587 353.525 25.2442 353.377L25.1312 353.389L25.6099 357.978L24.2763 358.117ZM24.7949 350.385C24.8633 351.041 25.0197 351.609 25.2641 352.09C25.5081 352.567 25.8295 352.928 26.2282 353.172C26.6265 353.412 27.0931 353.504 27.6281 353.449C28.1857 353.39 28.6356 353.195 28.9779 352.862C29.3236 352.525 29.5645 352.096 29.7006 351.576C29.8401 351.051 29.8776 350.479 29.8131 349.861C29.7494 349.251 29.5978 348.711 29.3584 348.241C29.1223 347.767 28.8009 347.406 28.3943 347.159C27.9911 346.908 27.5069 346.812 26.9418 346.871C26.3993 346.927 25.9577 347.112 25.6172 347.426C25.2763 347.736 25.0372 348.145 24.9 348.655C24.7623 349.16 24.7273 349.737 24.7949 350.385ZM33.634 353.85L32.7284 345.17L34.0168 345.036L34.1536 346.347L34.244 346.337C34.3574 345.891 34.6074 345.513 34.9939 345.202C35.3804 344.891 35.8336 344.709 36.3535 344.655C36.4515 344.644 36.5741 344.634 36.7215 344.622C36.8688 344.61 36.9805 344.604 37.0566 344.604L37.1981 345.96C37.1518 345.954 37.0464 345.948 36.882 345.942C36.721 345.932 36.552 345.936 36.375 345.955C35.953 345.999 35.5855 346.127 35.2724 346.338C34.9627 346.546 34.728 346.814 34.568 347.143C34.4115 347.468 34.3537 347.826 34.3946 348.218L34.9677 353.711L33.634 353.85ZM42.836 353.073C42.0524 353.155 41.3453 353.04 40.7149 352.729C40.0883 352.417 39.5742 351.943 39.1727 351.307C38.775 350.671 38.5294 349.904 38.4358 349.008C38.3415 348.103 38.423 347.297 38.6804 346.588C38.9416 345.879 39.3466 345.308 39.8954 344.874C40.4479 344.439 41.116 344.181 41.8997 344.099C42.6833 344.017 43.3884 344.132 44.0151 344.444C44.6455 344.755 45.1597 345.231 45.5579 345.871C45.9597 346.511 46.2079 347.283 46.3022 348.187C46.3958 349.083 46.3117 349.884 46.0502 350.59C45.7924 351.294 45.3872 351.864 44.8346 352.299C44.2858 352.733 43.6196 352.991 42.836 353.073ZM42.711 351.875C43.3062 351.813 43.7801 351.609 44.1325 351.264C44.485 350.919 44.7275 350.488 44.8603 349.971C44.993 349.454 45.0291 348.906 44.9685 348.326C44.908 347.746 44.7593 347.215 44.5224 346.733C44.2855 346.251 43.9588 345.876 43.5423 345.607C43.1258 345.338 42.6199 345.235 42.0247 345.297C41.4294 345.359 40.9558 345.565 40.6037 345.914C40.2517 346.263 40.0095 346.697 39.8772 347.218C39.7448 347.738 39.7089 348.288 39.7695 348.868C39.83 349.449 39.9785 349.978 40.215 350.456C40.4515 350.934 40.7778 351.305 41.1939 351.57C41.61 351.835 42.1157 351.937 42.711 351.875ZM51.7459 343.186L51.8638 344.316L47.1846 344.804L47.0667 343.674L51.7459 343.186ZM49.3739 352.208L48.3432 342.33C48.2913 341.832 48.3649 341.406 48.5639 341.05C48.7628 340.694 49.0402 340.414 49.3959 340.209C49.7515 340.004 50.1366 339.88 50.551 339.837C50.8788 339.803 51.149 339.801 51.3617 339.833C51.5744 339.864 51.734 339.897 51.8405 339.931L51.5765 341.124C51.5063 341.109 51.4091 341.09 51.2851 341.069C51.1647 341.047 51.0085 341.046 50.8164 341.066C50.3756 341.112 50.0688 341.257 49.8961 341.499C49.7271 341.742 49.6651 342.078 49.7099 342.507L50.7075 352.069L49.3739 352.208ZM54.5206 351.671L53.615 342.991L54.9487 342.852L55.8543 351.532L54.5206 351.671ZM54.1422 341.473C53.8822 341.5 53.6488 341.435 53.442 341.278C53.2389 341.12 53.1244 340.917 53.0984 340.668C53.0725 340.42 53.1426 340.197 53.3087 340.001C53.4786 339.804 53.6935 339.692 53.9535 339.665C54.2135 339.638 54.445 339.703 54.648 339.861C54.8549 340.018 54.9713 340.221 54.9972 340.47C55.0232 340.719 54.9512 340.941 54.7813 341.138C54.6152 341.334 54.4021 341.446 54.1422 341.473ZM61.1663 342.203L61.2842 343.333L56.7859 343.802L56.668 342.672L61.1663 342.203ZM57.7621 340.456L59.0958 340.317L59.959 348.59C59.9983 348.967 60.0824 349.244 60.2113 349.421C60.3436 349.593 60.4997 349.703 60.6797 349.749C60.8631 349.79 61.0527 349.801 61.2486 349.781C61.3955 349.765 61.5153 349.745 61.6079 349.72C61.7001 349.692 61.7739 349.669 61.8292 349.652L62.2255 350.821C62.1386 350.865 62.0159 350.912 61.8575 350.963C61.6994 351.017 61.496 351.057 61.2474 351.083C60.8707 351.123 60.493 351.08 60.1144 350.956C59.7396 350.831 59.4162 350.616 59.1443 350.309C58.8761 350.002 58.7157 349.596 58.663 349.091L57.7621 340.456Z" fill="white"/>
<rect x="206.549" y="316.829" width="109" height="35" rx="17.5" transform="rotate(-5.95644 206.549 316.829)" stroke="white"/>
<path d="M232.179 337.988C231.629 338.045 231.119 337.994 230.649 337.833C230.178 337.669 229.791 337.403 229.486 337.035C229.18 336.663 228.998 336.194 228.939 335.629C228.887 335.132 228.943 334.719 229.107 334.389C229.27 334.056 229.506 333.784 229.816 333.573C230.125 333.361 230.473 333.192 230.859 333.064C231.249 332.932 231.643 332.818 232.041 332.724C232.561 332.601 232.983 332.505 233.308 332.437C233.635 332.365 233.87 332.278 234.012 332.175C234.157 332.072 234.218 331.914 234.196 331.699L234.191 331.654C234.133 331.096 233.935 330.679 233.598 330.402C233.264 330.124 232.791 330.018 232.176 330.082C231.54 330.148 231.055 330.34 230.723 330.656C230.39 330.973 230.167 331.297 230.053 331.629L228.74 331.309C228.911 330.757 229.169 330.315 229.515 329.982C229.865 329.645 230.258 329.394 230.694 329.231C231.133 329.063 231.572 328.957 232.009 328.911C232.287 328.882 232.611 328.882 232.98 328.912C233.352 328.938 233.718 329.035 234.079 329.203C234.443 329.371 234.759 329.648 235.028 330.035C235.297 330.423 235.467 330.961 235.539 331.65L236.136 337.369L234.802 337.508L234.68 336.333L234.612 336.34C234.541 336.538 234.411 336.755 234.223 336.992C234.034 337.229 233.773 337.441 233.438 337.628C233.103 337.815 232.684 337.935 232.179 337.988ZM232.257 336.768C232.785 336.713 233.218 336.563 233.558 336.318C233.902 336.073 234.149 335.777 234.3 335.43C234.454 335.083 234.512 334.728 234.474 334.366L234.347 333.146C234.298 333.219 234.18 333.294 233.993 333.371C233.811 333.443 233.597 333.513 233.353 333.581C233.112 333.644 232.876 333.703 232.646 333.757C232.419 333.808 232.234 333.85 232.093 333.884C231.751 333.965 231.435 334.072 231.144 334.205C230.857 334.334 230.631 334.508 230.467 334.727C230.307 334.942 230.245 335.219 230.28 335.558C230.328 336.021 230.536 336.354 230.904 336.555C231.275 336.753 231.726 336.824 232.257 336.768ZM242.115 336.928C241.302 337.013 240.581 336.894 239.953 336.571C239.325 336.248 238.818 335.766 238.431 335.125C238.044 334.483 237.806 333.729 237.715 332.863C237.623 331.981 237.704 331.186 237.958 330.478C238.215 329.766 238.615 329.189 239.159 328.748C239.707 328.302 240.373 328.038 241.156 327.956C241.767 327.893 242.329 327.948 242.842 328.123C243.355 328.298 243.789 328.573 244.145 328.947C244.5 329.321 244.743 329.776 244.875 330.311L243.542 330.45C243.399 330.065 243.136 329.738 242.754 329.469C242.375 329.197 241.892 329.091 241.304 329.152C240.784 329.206 240.342 329.39 239.979 329.702C239.619 330.01 239.355 330.42 239.188 330.933C239.023 331.441 238.976 332.023 239.044 332.678C239.114 333.349 239.28 333.922 239.543 334.397C239.81 334.872 240.152 335.227 240.568 335.461C240.989 335.696 241.463 335.785 241.99 335.73C242.337 335.694 242.645 335.601 242.915 335.451C243.185 335.301 243.406 335.102 243.579 334.856C243.751 334.61 243.862 334.324 243.912 333.999L245.246 333.859C245.224 334.38 245.085 334.861 244.831 335.302C244.579 335.74 244.223 336.105 243.762 336.396C243.305 336.684 242.756 336.861 242.115 336.928ZM251.005 336.001C250.191 336.086 249.47 335.967 248.842 335.644C248.214 335.321 247.707 334.838 247.32 334.197C246.933 333.556 246.695 332.802 246.604 331.935C246.512 331.054 246.593 330.259 246.847 329.551C247.104 328.838 247.504 328.261 248.049 327.82C248.596 327.374 249.262 327.111 250.046 327.029C250.656 326.965 251.218 327.021 251.731 327.196C252.244 327.371 252.679 327.645 253.034 328.02C253.389 328.394 253.633 328.848 253.765 329.383L252.431 329.522C252.288 329.137 252.025 328.81 251.643 328.542C251.264 328.269 250.781 328.163 250.193 328.225C249.673 328.279 249.232 328.462 248.868 328.774C248.508 329.082 248.244 329.492 248.077 330.005C247.913 330.513 247.865 331.095 247.933 331.751C248.003 332.422 248.17 332.995 248.433 333.47C248.699 333.945 249.041 334.299 249.458 334.534C249.878 334.768 250.352 334.858 250.88 334.803C251.226 334.766 251.534 334.673 251.804 334.523C252.074 334.373 252.296 334.175 252.468 333.929C252.64 333.682 252.751 333.396 252.801 333.071L254.135 332.932C254.113 333.452 253.975 333.933 253.72 334.375C253.468 334.812 253.112 335.177 252.651 335.469C252.194 335.757 251.645 335.934 251.005 336.001ZM259.894 335.073C259.11 335.155 258.403 335.04 257.773 334.729C257.146 334.417 256.632 333.943 256.231 333.307C255.833 332.671 255.587 331.905 255.494 331.008C255.399 330.104 255.481 329.297 255.738 328.589C255.999 327.88 256.404 327.308 256.953 326.874C257.506 326.439 258.174 326.181 258.957 326.099C259.741 326.017 260.446 326.132 261.073 326.444C261.703 326.755 262.218 327.231 262.616 327.871C263.018 328.511 263.266 329.283 263.36 330.187C263.454 331.084 263.37 331.885 263.108 332.59C262.85 333.295 262.445 333.864 261.892 334.299C261.344 334.733 260.677 334.991 259.894 335.073ZM259.769 333.875C260.364 333.813 260.838 333.609 261.19 333.264C261.543 332.919 261.785 332.488 261.918 331.971C262.051 331.455 262.087 330.906 262.026 330.326C261.966 329.746 261.817 329.215 261.58 328.733C261.343 328.251 261.017 327.876 260.6 327.607C260.184 327.338 259.678 327.235 259.082 327.297C258.487 327.359 258.014 327.565 257.662 327.914C257.309 328.263 257.067 328.698 256.935 329.218C256.803 329.738 256.767 330.289 256.827 330.869C256.888 331.449 257.036 331.978 257.273 332.456C257.509 332.934 257.836 333.306 258.252 333.571C258.668 333.836 259.174 333.937 259.769 333.875ZM270.944 330.15L270.409 325.019L271.742 324.88L272.648 333.56L271.314 333.699L271.161 332.23L271.071 332.239C270.913 332.701 270.636 333.109 270.238 333.463C269.841 333.813 269.314 334.022 268.659 334.09C268.116 334.147 267.622 334.078 267.175 333.885C266.728 333.688 266.358 333.361 266.067 332.904C265.775 332.443 265.591 331.843 265.514 331.105L264.938 325.589L266.272 325.45L266.838 330.875C266.904 331.508 267.134 331.995 267.527 332.334C267.924 332.674 268.4 332.815 268.954 332.757C269.285 332.722 269.614 332.602 269.939 332.397C270.268 332.191 270.531 331.901 270.728 331.526C270.928 331.151 271.001 330.692 270.944 330.15ZM275.879 327.944L276.424 333.166L275.091 333.305L274.185 324.625L275.473 324.49L275.615 325.847L275.728 325.835C275.885 325.373 276.157 324.986 276.544 324.676C276.93 324.361 277.451 324.17 278.106 324.101C278.694 324.04 279.221 324.107 279.687 324.302C280.152 324.493 280.533 324.819 280.829 325.28C281.124 325.736 281.31 326.334 281.387 327.072L281.962 332.588L280.629 332.727L280.063 327.302C279.992 326.62 279.759 326.107 279.365 325.764C278.971 325.416 278.465 325.275 277.847 325.339C277.421 325.384 277.05 325.516 276.734 325.735C276.422 325.955 276.188 326.251 276.033 326.625C275.878 327 275.827 327.439 275.879 327.944ZM287.269 323.26L287.387 324.39L282.888 324.859L282.77 323.729L287.269 323.26ZM283.865 321.512L285.198 321.373L286.061 329.647C286.101 330.023 286.185 330.3 286.314 330.477C286.446 330.65 286.602 330.759 286.782 330.805C286.966 330.847 287.155 330.858 287.351 330.837C287.498 330.822 287.618 330.802 287.71 330.777C287.803 330.748 287.876 330.725 287.932 330.708L288.328 331.878C288.241 331.921 288.118 331.968 287.96 332.019C287.802 332.074 287.598 332.114 287.35 332.14C286.973 332.179 286.595 332.137 286.217 332.013C285.842 331.888 285.519 331.672 285.247 331.365C284.979 331.058 284.818 330.652 284.765 330.147L283.865 321.512ZM295.471 324.369L294.308 324.833C294.212 324.641 294.081 324.459 293.914 324.286C293.751 324.109 293.538 323.971 293.277 323.872C293.015 323.774 292.69 323.745 292.302 323.786C291.771 323.841 291.341 324.01 291.013 324.291C290.687 324.569 290.544 324.894 290.583 325.267C290.618 325.599 290.766 325.848 291.027 326.015C291.288 326.182 291.681 326.303 292.207 326.378L293.529 326.56C294.324 326.667 294.933 326.895 295.354 327.243C295.774 327.588 296.016 328.063 296.079 328.67C296.131 329.167 296.035 329.627 295.789 330.048C295.547 330.47 295.184 330.82 294.699 331.099C294.214 331.378 293.634 331.553 292.96 331.623C292.075 331.716 291.322 331.6 290.702 331.276C290.081 330.952 289.655 330.429 289.424 329.707L290.657 329.259C290.826 329.713 291.091 330.04 291.45 330.238C291.814 330.437 292.269 330.507 292.815 330.45C293.436 330.385 293.916 330.202 294.254 329.9C294.595 329.594 294.747 329.255 294.708 328.882C294.676 328.58 294.544 328.339 294.312 328.157C294.08 327.972 293.74 327.851 293.292 327.795L291.81 327.607C290.995 327.502 290.381 327.271 289.967 326.914C289.556 326.553 289.319 326.073 289.256 325.474C289.205 324.985 289.298 324.537 289.533 324.132C289.773 323.726 290.121 323.39 290.577 323.126C291.037 322.861 291.572 322.696 292.182 322.633C293.041 322.543 293.735 322.661 294.264 322.987C294.797 323.312 295.199 323.773 295.471 324.369Z" fill="white"/>
<rect x="50.657" y="274.547" width="164" height="35" rx="17.5" transform="rotate(10 50.657 274.547)" stroke="white"/>
<path d="M69.4821 301.937C68.9375 301.841 68.4613 301.651 68.0536 301.368C67.6465 301.081 67.347 300.718 67.1549 300.281C66.9635 299.839 66.9171 299.339 67.0158 298.779C67.1026 298.287 67.27 297.905 67.5179 297.633C67.7665 297.358 68.0685 297.161 68.4239 297.043C68.7794 296.925 69.1605 296.857 69.5673 296.84C69.9785 296.821 70.3883 296.82 70.7967 296.838C71.3308 296.863 71.763 296.887 72.0935 296.911C72.4283 296.931 72.6779 296.912 72.8423 296.852C73.0103 296.794 73.1131 296.658 73.1506 296.445L73.1585 296.4C73.2559 295.848 73.1804 295.393 72.9322 295.034C72.6877 294.675 72.2614 294.442 71.6534 294.335C71.023 294.224 70.5044 294.275 70.0976 294.488C69.6908 294.701 69.387 294.951 69.1863 295.239L68.0118 294.57C68.3277 294.087 68.6979 293.733 69.1222 293.508C69.5509 293.28 69.9974 293.147 70.4617 293.109C70.9304 293.069 71.3811 293.087 71.8139 293.163C72.0899 293.212 72.4011 293.301 72.7473 293.432C73.098 293.559 73.4234 293.753 73.7236 294.014C74.0276 294.275 74.2556 294.628 74.4077 295.075C74.5599 295.521 74.5757 296.085 74.4554 296.768L73.4569 302.43L72.1364 302.197L72.3416 301.034L72.2744 301.022C72.152 301.192 71.9676 301.366 71.7212 301.542C71.4748 301.717 71.165 301.849 70.7918 301.937C70.4186 302.025 69.982 302.025 69.4821 301.937ZM69.8927 300.786C70.415 300.878 70.8733 300.854 71.2675 300.711C71.6656 300.57 71.9846 300.353 72.2246 300.061C72.4683 299.769 72.6218 299.444 72.6849 299.086L72.898 297.878C72.8302 297.935 72.6963 297.975 72.4962 297.997C72.3004 298.017 72.0759 298.025 71.8224 298.023C71.5734 298.017 71.3306 298.009 71.094 297.998C70.8619 297.984 70.6733 297.974 70.5282 297.968C70.1772 297.952 69.8435 297.968 69.5273 298.016C69.2155 298.061 68.9508 298.166 68.7332 298.332C68.5199 298.494 68.3837 298.743 68.3245 299.079C68.2436 299.538 68.3521 299.915 68.6502 300.21C68.9526 300.501 69.3668 300.694 69.8927 300.786ZM79.3272 303.65C78.5214 303.508 77.8611 303.195 77.3463 302.712C76.8314 302.229 76.4762 301.626 76.2806 300.903C76.085 300.18 76.0628 299.39 76.2141 298.532C76.368 297.659 76.6643 296.917 77.1028 296.306C77.5457 295.691 78.0895 295.247 78.7342 294.972C79.3832 294.694 80.0957 294.624 80.8716 294.76C81.4759 294.867 82.0008 295.075 82.4463 295.384C82.8917 295.694 83.2338 296.077 83.4723 296.534C83.7109 296.992 83.8202 297.496 83.8 298.046L82.4795 297.813C82.4479 297.404 82.2852 297.017 81.9916 296.654C81.7023 296.288 81.2667 296.053 80.6848 295.951C80.17 295.86 79.6949 295.915 79.2596 296.115C78.8287 296.312 78.4623 296.634 78.1604 297.081C77.863 297.524 77.657 298.071 77.5425 298.72C77.4255 299.384 77.428 299.98 77.55 300.51C77.6758 301.039 77.9069 301.474 78.2431 301.815C78.583 302.155 79.0141 302.372 79.5363 302.464C79.8795 302.524 80.2015 302.52 80.5024 302.449C80.8032 302.379 81.0703 302.25 81.3038 302.06C81.5372 301.87 81.7226 301.626 81.8599 301.327L83.1804 301.56C83.0164 302.054 82.7511 302.479 82.3848 302.833C82.0228 303.185 81.5801 303.438 81.0568 303.591C80.5379 303.742 79.9613 303.762 79.3272 303.65ZM88.1289 305.202C87.3231 305.06 86.6628 304.747 86.148 304.264C85.6332 303.781 85.2779 303.178 85.0823 302.455C84.8867 301.732 84.8646 300.942 85.0158 300.084C85.1698 299.211 85.466 298.469 85.9045 297.858C86.3475 297.243 86.8913 296.799 87.5359 296.524C88.1849 296.246 88.8974 296.176 89.6733 296.312C90.2776 296.419 90.8025 296.627 91.248 296.936C91.6935 297.246 92.0355 297.629 92.2741 298.086C92.5126 298.544 92.6219 299.048 92.6018 299.598L91.2812 299.365C91.2496 298.956 91.0869 298.569 90.7933 298.206C90.504 297.84 90.0684 297.605 89.4865 297.503C88.9717 297.412 88.4967 297.467 88.0614 297.667C87.6304 297.864 87.264 298.186 86.9622 298.633C86.6647 299.076 86.4587 299.623 86.3443 300.272C86.2272 300.936 86.2297 301.532 86.3518 302.062C86.4776 302.591 86.7086 303.026 87.0448 303.367C87.3847 303.707 87.8158 303.924 88.3381 304.016C88.6812 304.076 89.0033 304.071 89.3041 304.001C89.6049 303.931 89.872 303.802 90.1055 303.612C90.3389 303.422 90.5243 303.178 90.6616 302.879L91.9822 303.112C91.8181 303.606 91.5529 304.031 91.1865 304.385C90.8245 304.737 90.3818 304.99 89.8585 305.143C89.3396 305.294 88.763 305.314 88.1289 305.202ZM96.9306 306.754C96.1547 306.617 95.5065 306.312 94.9859 305.84C94.4691 305.368 94.1051 304.771 93.8939 304.049C93.6865 303.328 93.661 302.523 93.8176 301.636C93.9754 300.74 94.2755 299.987 94.7178 299.377C95.1638 298.767 95.7103 298.329 96.3574 298.062C97.0081 297.796 97.7215 297.731 98.4974 297.868C99.2733 298.005 99.9197 298.309 100.436 298.781C100.957 299.254 101.321 299.853 101.527 300.578C101.738 301.303 101.764 302.114 101.606 303.009C101.45 303.897 101.149 304.644 100.704 305.25C100.262 305.857 99.7158 306.293 99.065 306.559C98.418 306.826 97.7065 306.891 96.9306 306.754ZM97.1398 305.568C97.7292 305.672 98.2408 305.606 98.6745 305.371C99.1083 305.136 99.46 304.788 99.7296 304.328C99.9992 303.868 100.185 303.351 100.286 302.776C100.387 302.202 100.39 301.65 100.295 301.122C100.2 300.594 99.9887 300.143 99.6621 299.77C99.3356 299.397 98.8776 299.158 98.2882 299.055C97.6988 298.951 97.1869 299.018 96.7525 299.257C96.3181 299.496 95.9657 299.847 95.6954 300.311C95.4252 300.775 95.2394 301.294 95.1381 301.868C95.0368 302.443 95.0341 302.992 95.1301 303.517C95.2261 304.042 95.4376 304.489 95.7649 304.858C96.0921 305.227 96.5504 305.464 97.1398 305.568ZM108.908 305.058L109.804 299.977L111.125 300.21L109.609 308.805L108.289 308.572L108.545 307.117L108.456 307.101C108.177 307.502 107.799 307.818 107.319 308.049C106.841 308.276 106.277 308.333 105.628 308.218C105.091 308.124 104.634 307.922 104.258 307.613C103.882 307.301 103.617 306.885 103.462 306.365C103.309 305.842 103.296 305.215 103.425 304.484L104.388 299.022L105.708 299.255L104.761 304.627C104.651 305.254 104.738 305.784 105.023 306.219C105.311 306.655 105.73 306.921 106.278 307.018C106.607 307.075 106.955 307.05 107.324 306.942C107.697 306.835 108.03 306.628 108.322 306.322C108.618 306.017 108.814 305.595 108.908 305.058ZM114.26 304.294L113.349 309.464L112.028 309.231L113.544 300.637L114.819 300.862L114.583 302.205L114.694 302.224C114.973 301.823 115.341 301.527 115.798 301.334C116.255 301.138 116.809 301.097 117.458 301.212C118.04 301.314 118.528 301.523 118.922 301.839C119.317 302.151 119.593 302.569 119.751 303.093C119.909 303.613 119.924 304.239 119.795 304.97L118.832 310.431L117.512 310.198L118.459 304.827C118.578 304.151 118.495 303.595 118.211 303.156C117.928 302.714 117.48 302.439 116.868 302.331C116.447 302.256 116.054 302.281 115.689 302.406C115.329 302.53 115.023 302.751 114.771 303.069C114.519 303.386 114.348 303.794 114.26 304.294ZM126.499 302.921L126.301 304.04L121.847 303.255L122.045 302.136L126.499 302.921ZM123.706 300.305L125.026 300.538L123.582 308.73C123.516 309.103 123.521 309.392 123.596 309.598C123.676 309.801 123.796 309.949 123.956 310.042C124.121 310.133 124.3 310.195 124.494 310.23C124.64 310.255 124.761 310.269 124.856 310.27C124.953 310.268 125.03 310.266 125.088 310.265L125.148 311.499C125.052 311.516 124.921 311.528 124.755 311.533C124.588 311.542 124.381 311.525 124.135 311.482C123.762 311.416 123.411 311.271 123.081 311.048C122.755 310.825 122.503 310.528 122.326 310.159C122.153 309.79 122.11 309.355 122.198 308.855L123.706 300.305ZM131.58 312.679L133.601 301.219L134.921 301.452L134.175 305.682L134.287 305.702C134.411 305.57 134.578 305.403 134.791 305.202C135.008 304.998 135.294 304.834 135.651 304.708C136.012 304.579 136.473 304.564 137.032 304.663C137.756 304.791 138.362 305.084 138.85 305.543C139.338 306.002 139.679 306.591 139.871 307.31C140.064 308.028 140.081 308.839 139.921 309.742C139.761 310.652 139.467 311.414 139.04 312.027C138.613 312.636 138.093 313.075 137.48 313.344C136.868 313.609 136.204 313.679 135.488 313.553C134.936 313.455 134.51 313.286 134.21 313.045C133.911 312.8 133.693 312.544 133.555 312.277C133.418 312.007 133.315 311.785 133.245 311.611L133.089 311.583L132.856 312.904L131.58 312.679ZM133.636 308.611C133.522 309.26 133.516 309.849 133.619 310.379C133.722 310.905 133.932 311.34 134.248 311.684C134.565 312.024 134.988 312.241 135.518 312.335C136.07 312.432 136.556 312.368 136.977 312.142C137.402 311.913 137.751 311.567 138.025 311.104C138.304 310.637 138.497 310.098 138.605 309.487C138.711 308.882 138.714 308.321 138.613 307.803C138.517 307.283 138.307 306.847 137.984 306.498C137.665 306.146 137.226 305.92 136.666 305.822C136.129 305.727 135.654 305.784 135.24 305.991C134.827 306.195 134.485 306.524 134.213 306.976C133.941 307.424 133.749 307.969 133.636 308.611ZM143.681 315.02C143.137 314.924 142.66 314.735 142.253 314.451C141.846 314.164 141.546 313.802 141.354 313.364C141.163 312.922 141.116 312.422 141.215 311.862C141.302 311.37 141.469 310.988 141.717 310.716C141.966 310.441 142.268 310.244 142.623 310.126C142.979 310.008 143.36 309.94 143.766 309.924C144.178 309.904 144.587 309.903 144.996 309.921C145.53 309.946 145.962 309.97 146.293 309.994C146.627 310.015 146.877 309.995 147.041 309.936C147.209 309.877 147.312 309.741 147.35 309.529L147.358 309.484C147.455 308.932 147.38 308.476 147.131 308.117C146.887 307.758 146.461 307.526 145.853 307.418C145.222 307.307 144.703 307.358 144.297 307.571C143.89 307.784 143.586 308.034 143.385 308.322L142.211 307.653C142.527 307.17 142.897 306.816 143.321 306.591C143.75 306.363 144.197 306.23 144.661 306.193C145.13 306.152 145.58 306.17 146.013 306.247C146.289 306.295 146.6 306.385 146.946 306.515C147.297 306.642 147.623 306.836 147.923 307.097C148.227 307.358 148.455 307.712 148.607 308.158C148.759 308.604 148.775 309.168 148.654 309.851L147.656 315.514L146.335 315.281L146.541 314.117L146.474 314.105C146.351 314.276 146.167 314.449 145.92 314.625C145.674 314.801 145.364 314.933 144.991 315.021C144.618 315.109 144.181 315.109 143.681 315.02ZM144.092 313.87C144.614 313.962 145.072 313.937 145.467 313.795C145.865 313.653 146.184 313.437 146.424 313.144C146.667 312.853 146.821 312.528 146.884 312.17L147.097 310.961C147.029 311.018 146.895 311.058 146.695 311.081C146.5 311.1 146.275 311.108 146.022 311.106C145.773 311.101 145.53 311.092 145.293 311.081C145.061 311.067 144.872 311.057 144.727 311.051C144.376 311.035 144.043 311.051 143.726 311.099C143.415 311.144 143.15 311.25 142.932 311.415C142.719 311.578 142.583 311.827 142.524 312.162C142.443 312.621 142.551 312.998 142.849 313.293C143.152 313.585 143.566 313.777 144.092 313.87ZM153.407 304.712L151.387 316.171L150.066 315.939L152.087 304.479L153.407 304.712ZM156.299 317.245C155.754 317.149 155.278 316.96 154.871 316.676C154.463 316.389 154.164 316.026 153.972 315.589C153.78 315.147 153.734 314.647 153.833 314.087C153.92 313.595 154.087 313.213 154.335 312.941C154.583 312.666 154.885 312.469 155.241 312.351C155.596 312.233 155.977 312.165 156.384 312.149C156.796 312.129 157.205 312.128 157.614 312.146C158.148 312.171 158.58 312.195 158.91 312.219C159.245 312.24 159.495 312.22 159.659 312.161C159.827 312.102 159.93 311.966 159.968 311.753L159.975 311.709C160.073 311.157 159.997 310.701 159.749 310.342C159.505 309.983 159.078 309.75 158.47 309.643C157.84 309.532 157.321 309.583 156.915 309.796C156.508 310.009 156.204 310.259 156.003 310.547L154.829 309.878C155.145 309.395 155.515 309.041 155.939 308.816C156.368 308.588 156.814 308.455 157.279 308.418C157.747 308.377 158.198 308.395 158.631 308.471C158.907 308.52 159.218 308.61 159.564 308.74C159.915 308.867 160.24 309.061 160.541 309.322C160.845 309.583 161.073 309.937 161.225 310.383C161.377 310.829 161.393 311.393 161.272 312.076L160.274 317.738L158.953 317.506L159.159 316.342L159.091 316.33C158.969 316.501 158.785 316.674 158.538 316.85C158.292 317.025 157.982 317.157 157.609 317.245C157.236 317.333 156.799 317.333 156.299 317.245ZM156.71 316.095C157.232 316.187 157.69 316.162 158.085 316.02C158.483 315.878 158.802 315.661 159.042 315.369C159.285 315.078 159.439 314.753 159.502 314.395L159.715 313.186C159.647 313.243 159.513 313.283 159.313 313.305C159.117 313.325 158.893 313.333 158.639 313.331C158.39 313.325 158.148 313.317 157.911 313.306C157.679 313.292 157.49 313.282 157.345 313.276C156.994 313.26 156.661 313.276 156.344 313.324C156.033 313.369 155.768 313.475 155.55 313.64C155.337 313.802 155.201 314.051 155.141 314.387C155.061 314.846 155.169 315.223 155.467 315.518C155.77 315.81 156.184 316.002 156.71 316.095ZM164.916 313.226L164.005 318.396L162.684 318.163L164.2 309.569L165.475 309.794L165.239 311.137L165.35 311.156C165.629 310.755 165.997 310.459 166.454 310.266C166.911 310.07 167.465 310.029 168.114 310.144C168.696 310.246 169.184 310.455 169.578 310.771C169.973 311.083 170.25 311.501 170.407 312.025C170.565 312.545 170.58 313.171 170.451 313.902L169.488 319.363L168.168 319.13L169.115 313.759C169.234 313.083 169.151 312.527 168.867 312.088C168.584 311.646 168.136 311.371 167.524 311.263C167.103 311.188 166.71 311.213 166.346 311.338C165.985 311.462 165.679 311.683 165.427 312.001C165.175 312.318 165.004 312.726 164.916 313.226ZM175.361 320.583C174.556 320.441 173.895 320.129 173.38 319.646C172.866 319.163 172.51 318.559 172.315 317.837C172.119 317.114 172.097 316.323 172.248 315.465C172.402 314.592 172.698 313.85 173.137 313.239C173.58 312.625 174.124 312.18 174.768 311.905C175.417 311.628 176.13 311.557 176.906 311.694C177.51 311.8 178.035 312.008 178.48 312.318C178.926 312.627 179.268 313.01 179.507 313.468C179.745 313.925 179.854 314.429 179.834 314.98L178.514 314.747C178.482 314.337 178.319 313.951 178.026 313.588C177.736 313.221 177.301 312.987 176.719 312.884C176.204 312.793 175.729 312.848 175.294 313.048C174.863 313.245 174.496 313.567 174.195 314.014C173.897 314.458 173.691 315.004 173.577 315.653C173.46 316.317 173.462 316.914 173.584 317.443C173.71 317.973 173.941 318.408 174.277 318.748C174.617 319.089 175.048 319.305 175.57 319.397C175.914 319.458 176.236 319.453 176.537 319.383C176.837 319.313 177.104 319.183 177.338 318.993C177.571 318.804 177.757 318.56 177.894 318.261L179.215 318.493C179.051 318.988 178.785 319.412 178.419 319.767C178.057 320.118 177.614 320.371 177.091 320.525C176.572 320.676 175.995 320.695 175.361 320.583ZM184.275 322.155C183.447 322.009 182.765 321.7 182.229 321.229C181.697 320.754 181.327 320.158 181.119 319.441C180.915 318.72 180.891 317.92 181.046 317.039C181.201 316.159 181.498 315.411 181.938 314.797C182.381 314.179 182.925 313.732 183.57 313.457C184.219 313.18 184.932 313.109 185.707 313.246C186.155 313.325 186.584 313.477 186.994 313.703C187.404 313.93 187.759 314.242 188.058 314.641C188.357 315.036 188.565 315.527 188.681 316.113C188.797 316.698 188.784 317.392 188.643 318.194L188.544 318.754L181.919 317.586L182.12 316.444L187.402 317.376C187.488 316.891 187.467 316.441 187.34 316.026C187.217 315.612 186.998 315.264 186.682 314.981C186.37 314.699 185.976 314.516 185.498 314.432C184.972 314.339 184.494 314.39 184.064 314.583C183.638 314.773 183.286 315.057 183.008 315.435C182.73 315.813 182.549 316.239 182.465 316.713L182.331 317.474C182.217 318.123 182.232 318.693 182.376 319.184C182.524 319.671 182.779 320.068 183.141 320.374C183.503 320.677 183.951 320.875 184.484 320.969C184.831 321.03 185.153 321.037 185.45 320.989C185.751 320.938 186.022 320.832 186.262 320.671C186.502 320.505 186.705 320.284 186.87 320.005L188.082 320.588C187.872 320.997 187.579 321.338 187.204 321.61C186.83 321.879 186.393 322.063 185.895 322.164C185.397 322.261 184.857 322.258 184.275 322.155Z" fill="white"/>
<path d="M253.289 112.913C251.725 125.91 247.578 138.591 241.16 150C234.742 161.409 226.057 171.537 215.762 179.622C205.466 187.707 193.567 193.741 180.961 197.27C168.355 200.799 155.052 201.82 142.056 200.257C129.059 198.693 116.378 194.546 104.969 188.128C93.5595 181.71 83.4309 173.026 75.3463 162.73C67.2618 152.434 61.2275 140.535 57.6984 127.929C54.1692 115.323 53.1479 102.021 54.7115 89.0237C56.275 76.0269 60.4221 63.346 66.8403 51.9369C73.2585 40.5277 81.9427 30.3991 92.2385 22.3146C102.534 14.23 114.433 8.19578 127.039 4.66663C139.127 1.28257 151.855 0.204406 164.34 1.5C164.427 1.50903 164.514 1.51815 164.601 1.52739C165.049 1.5751 165.497 1.62588 165.945 1.67972C178.941 3.24326 191.622 7.39039 203.031 13.8086C214.441 20.2268 224.569 28.911 232.654 39.2067C240.738 49.5024 246.773 61.4016 250.302 74.0075C253.831 86.6133 254.852 99.916 253.289 112.913Z" stroke="white"/>
</svg>
