<svg width="61" height="20" viewBox="0 0 61 20" fill="none" xmlns="http://www.w3.org/2000/svg">
<path fill-rule="evenodd" clip-rule="evenodd" d="M5.68882 5.81647C5.74852 5.87464 5.81945 5.9208 5.89753 5.9523C5.97562 5.98379 6.05933 6 6.14387 6C6.22841 6 6.31211 5.98379 6.3902 5.9523C6.46828 5.9208 6.53921 5.87464 6.59891 5.81647L10.0002 2.50919L13.4014 5.81647C13.4612 5.87455 13.5321 5.92062 13.6102 5.95206C13.6883 5.98349 13.772 5.99967 13.8565 5.99967C13.941 5.99967 14.0247 5.98349 14.1027 5.95206C14.1808 5.92062 14.2518 5.87455 14.3115 5.81647C14.3713 5.75838 14.4187 5.68943 14.451 5.61354C14.4834 5.53765 14.5 5.45631 14.5 5.37416C14.5 5.29202 14.4834 5.21068 14.451 5.13479C14.4187 5.0589 14.3713 4.98994 14.3115 4.93186L10.4552 1.18354C10.3955 1.12536 10.3246 1.0792 10.2465 1.04771C10.1684 1.01621 10.0847 1 10.0002 1C9.91563 1 9.83192 1.01621 9.75384 1.04771C9.67575 1.0792 9.60483 1.12536 9.54512 1.18354L5.68882 4.93186C5.62897 4.98989 5.58148 5.05883 5.54908 5.13473C5.51668 5.21063 5.5 5.29199 5.5 5.37416C5.5 5.45634 5.51668 5.5377 5.54908 5.6136C5.58148 5.6895 5.62897 5.75843 5.68882 5.81647Z" fill="#B5B5B5"/>
<path fill-rule="evenodd" clip-rule="evenodd" d="M10 15C10.1326 15 10.2598 14.9315 10.3536 14.8096C10.4473 14.6877 10.5 14.5224 10.5 14.35V2.65C10.5 2.47761 10.4473 2.31228 10.3536 2.19038C10.2598 2.06848 10.1326 2 10 2C9.86739 2 9.74021 2.06848 9.64645 2.19038C9.55268 2.31228 9.5 2.47761 9.5 2.65V14.35C9.5 14.5224 9.55268 14.6877 9.64645 14.8096C9.74021 14.9315 9.86739 15 10 15Z" fill="#B5B5B5"/>
<path fill-rule="evenodd" clip-rule="evenodd" d="M2.5 18.05C2.5 18.5672 2.70114 19.0632 3.05916 19.4289C3.41718 19.7946 3.90277 20 4.40909 20H14.5909C15.0972 20 15.5828 19.7946 15.9408 19.4289C16.2989 19.0632 16.5 18.5672 16.5 18.05V8.95C16.5 8.43283 16.2989 7.93684 15.9408 7.57114C15.5828 7.20545 15.0972 7 14.5909 7H12.6818C12.513 7 12.3512 7.06848 12.2318 7.19038C12.1125 7.31228 12.0455 7.47761 12.0455 7.65C12.0455 7.82239 12.1125 7.98772 12.2318 8.10962C12.3512 8.23152 12.513 8.3 12.6818 8.3H14.5909C14.7597 8.3 14.9215 8.36848 15.0409 8.49038C15.1602 8.61228 15.2273 8.77761 15.2273 8.95V18.05C15.2273 18.2224 15.1602 18.3877 15.0409 18.5096C14.9215 18.6315 14.7597 18.7 14.5909 18.7H4.40909C4.24032 18.7 4.07846 18.6315 3.95911 18.5096C3.83977 18.3877 3.77273 18.2224 3.77273 18.05V8.95C3.77273 8.77761 3.83977 8.61228 3.95911 8.49038C4.07846 8.36848 4.24032 8.3 4.40909 8.3H6.31818C6.48696 8.3 6.64882 8.23152 6.76816 8.10962C6.8875 7.98772 6.95455 7.82239 6.95455 7.65C6.95455 7.47761 6.8875 7.31228 6.76816 7.19038C6.64882 7.06848 6.48696 7 6.31818 7H4.40909C3.90277 7 3.41718 7.20545 3.05916 7.57114C2.70114 7.93684 2.5 8.43283 2.5 8.95V18.05Z" fill="#B5B5B5"/>
<path fill-rule="evenodd" clip-rule="evenodd" d="M51.2657 3.23431C51.1157 3.08429 50.9122 3 50.7 3C50.4878 3 50.2843 3.08429 50.1343 3.23431C49.9843 3.38434 49.9 3.58783 49.9 3.8V9.10718C49.84 9.14184 49.7842 9.18444 49.7343 9.23431C49.6844 9.28418 49.6418 9.33996 49.6072 9.4H44.3C44.0878 9.4 43.8843 9.48429 43.7343 9.63432C43.5843 9.78434 43.5 9.98783 43.5 10.2C43.5 10.4122 43.5843 10.6157 43.7343 10.7657C43.8843 10.9157 44.0878 11 44.3 11H49.5V16.2C49.5 16.4122 49.5843 16.6157 49.7343 16.7657C49.8843 16.9157 50.0878 17 50.3 17C50.5122 17 50.7157 16.9157 50.8657 16.7657C51.0157 16.6157 51.1 16.4122 51.1 16.2V10.8928C51.16 10.8582 51.2158 10.8156 51.2657 10.7657C51.3156 10.7158 51.3582 10.66 51.3928 10.6H56.7C56.9122 10.6 57.1157 10.5157 57.2657 10.3657C57.4157 10.2157 57.5 10.0122 57.5 9.8C57.5 9.58783 57.4157 9.38434 57.2657 9.23431C57.1157 9.08429 56.9122 9 56.7 9H51.5V3.8C51.5 3.58783 51.4157 3.38434 51.2657 3.23431Z" fill="#B5B5B5"/>
</svg>
