<svg width="53" height="12" viewBox="0 0 53 12" fill="none" xmlns="http://www.w3.org/2000/svg">
<path fill-rule="evenodd" clip-rule="evenodd" d="M6.5 12C9.81371 12 12.5 9.31371 12.5 6C12.5 2.68629 9.81371 0 6.5 0C3.18629 0 0.5 2.68629 0.5 6C0.5 9.31371 3.18629 12 6.5 12Z" fill="#ED6A5E"/>
<path fill-rule="evenodd" clip-rule="evenodd" d="M26.5 12C29.8137 12 32.5 9.31371 32.5 6C32.5 2.68629 29.8137 0 26.5 0C23.1863 0 20.5 2.68629 20.5 6C20.5 9.31371 23.1863 12 26.5 12Z" fill="#F4BF4F"/>
<path fill-rule="evenodd" clip-rule="evenodd" d="M46.5 12C49.8137 12 52.5 9.31371 52.5 6C52.5 2.68629 49.8137 0 46.5 0C43.1863 0 40.5 2.68629 40.5 6C40.5 9.31371 43.1863 12 46.5 12Z" fill="#61C554"/>
</svg>
