<svg width="77" height="76" fill="none" xmlns="http://www.w3.org/2000/svg"><path d="M44.85 31.771a1.583 1.583 0 00-1.715-1.438l-8.413.733a1.584 1.584 0 00.276 3.156l4.605-.402-7.827 9.327a1.583 1.583 0 002.426 2.036l7.826-9.328.403 4.605a1.584 1.584 0 103.156-.277l-.738-8.412z" fill="#fff"/><path d="M34.954 33.724h0l4.605-.402 1.202-.105-.775.924-7.827 9.328a1.083 1.083 0 101.66 1.392l7.826-9.327.776-.925.105 1.203.403 4.604a1.084 1.084 0 00.754.94l-.15.476.15-.477a1.084 1.084 0 001.406-1.128s0 0 0 0l-.738-8.412s0 0 0 0a1.083 1.083 0 00-1.172-.984l-8.225 2.893zm0 0a1.084 1.084 0 01-.189-2.16s0 0 0 0l8.413-.733-8.224 2.893z" stroke="url(#paint0_linear_332_319)" stroke-opacity=".6"/><circle cx="38.5" cy="38" r="38" fill="url(#paint1_linear_332_319)" fill-opacity=".4"/><circle cx="38.5" cy="38" r="37.5" stroke="url(#paint2_linear_332_319)" stroke-opacity=".6"/><defs><linearGradient id="paint0_linear_332_319" x1="43.893" y1="26.762" x2="42.554" y2="48.301" gradientUnits="userSpaceOnUse"><stop stop-color="#FF2F01" stop-opacity=".2"/><stop offset="1" stop-color="#FF2F01" stop-opacity=".7"/></linearGradient><linearGradient id="paint1_linear_332_319" x1="61.571" y1="55.1" x2="108.943" y2="-26.476" gradientUnits="userSpaceOnUse"><stop stop-color="#FF2F01" stop-opacity=".6"/><stop offset="1" stop-opacity="0"/><stop offset="1" stop-color="#FF2F01" stop-opacity=".4"/></linearGradient><linearGradient id="paint2_linear_332_319" x1="24.25" y1="-10.944" x2="70.514" y2="68.51" gradientUnits="userSpaceOnUse"><stop stop-color="#FF2F01" stop-opacity=".2"/><stop offset="1" stop-color="#FF2F01" stop-opacity=".7"/></linearGradient></defs></svg>