<svg width="15" height="16" fill="none" xmlns="http://www.w3.org/2000/svg"><mask id="a" fill="#fff"><path d="M14.043 1.734A1.583 1.583 0 0012.329.295l-8.414.734a1.584 1.584 0 10.276 3.156l4.605-.402L.97 13.11a1.583 1.583 0 002.425 2.035l7.827-9.327.403 4.604a1.584 1.584 0 003.155-.276l-.737-8.412z"/></mask><path d="M14.043 1.734A1.583 1.583 0 0012.329.295l-8.414.734a1.584 1.584 0 10.276 3.156l4.605-.402L.97 13.11a1.583 1.583 0 002.425 2.035l7.827-9.327.403 4.604a1.584 1.584 0 003.155-.276l-.737-8.412z" stroke="#fff" stroke-width="2" mask="url(#a)"/></svg>