<svg width="15" height="16" fill="none" xmlns="http://www.w3.org/2000/svg"><path fill-rule="evenodd" clip-rule="evenodd" d="M8.81.98a2.032 2.032 0 00-2.62 0l-.69.58c-.321.272-.72.437-1.139.473l-.899.076A2.032 2.032 0 001.61 3.962l-.076.899c-.036.42-.2.818-.472 1.14L.48 6.69a2.032 2.032 0 000 2.62l.582.69c.271.322.436.72.472 1.14l.076.898a2.03 2.03 0 001.853 1.853l.899.076c.42.036.818.2 1.14.472l.689.582a2.032 2.032 0 002.62 0l.69-.582c.321-.271.72-.436 1.14-.472l.898-.076a2.032 2.032 0 001.853-1.853l.076-.899c.036-.42.2-.817.472-1.14l.582-.689a2.032 2.032 0 000-2.62L13.939 6a2.033 2.033 0 01-.472-1.139l-.076-.899a2.032 2.032 0 00-1.853-1.853l-.899-.076c-.42-.036-.818-.2-1.14-.472L8.81.979zm2.384 5.635a.914.914 0 10-1.292-1.293L6.485 8.739 5.099 7.354a.914.914 0 10-1.293 1.293l2.032 2.031a.914.914 0 001.293 0l4.063-4.063z" fill="#FF2F01" fill-opacity=".7"/></svg>