<svg width="36" height="36" fill="none" xmlns="http://www.w3.org/2000/svg"><path d="M36 18.002c0 9.941-8.059 18-18 18s-18-8.059-18-18 8.059-18 18-18 18 8.059 18 18z" fill="#fff" fill-opacity=".2"/><path d="M16.155 18.687v-4.15h-4.271v-2.76h11.935v2.8h-4.271v4.11h-3.393z" fill="#fff"/><path fill-rule="evenodd" clip-rule="evenodd" d="M10.048 18.037c0-1.05 3.433-1.905 7.704-1.905 4.27 0 7.704.855 7.704 1.905s-3.433 1.905-7.704 1.905-7.704-.855-7.704-1.905zm14.769 0c-.28-.389-2.595-1.594-7.065-1.594-4.47 0-6.786 1.167-7.065 1.594.279.39 2.594.972 7.065.972 4.51 0 6.786-.583 7.065-.972z" fill="#fff"/><path d="M17.752 19.941a20.88 20.88 0 01-1.597-.078v5.832h3.353v-5.832c-.559.04-1.157.078-1.756.078z" fill="#fff"/></svg>