<svg width="36" height="36" fill="none" xmlns="http://www.w3.org/2000/svg"><path d="M35.81 18.002c0 9.889-8.016 17.905-17.905 17.905C8.016 35.907 0 27.892 0 18.002 0 8.114 8.016.097 17.905.097c9.889 0 17.905 8.017 17.905 17.905z" fill="#fff" fill-opacity=".2"/><path d="M23.266 13.233c-.004.192-.02.384-.05.574a5.229 5.229 0 01-5.162 4.427h-2.56a.532.532 0 00-.526.45l-.803 5.09-.503 3.194a.433.433 0 00.426.5h2.779a.532.532 0 00.526-.45l.732-4.641a.532.532 0 01.526-.45h1.636a5.228 5.228 0 005.161-4.426c.284-1.807-.626-3.452-2.182-4.268z" fill="#A19A99"/><path d="M13.211 9a.532.532 0 00-.525.45l-2.18 13.825c-.042.263.16.5.427.5h3.233l.803-5.091.873-5.54a.533.533 0 01.526-.45H21a4.86 4.86 0 012.267.54C23.31 10.914 21.398 9 18.767 9h-5.556z" fill="#fff"/><path d="M16.369 12.694a.534.534 0 00-.526.45l-.874 5.54a.532.532 0 01.526-.45h2.56a5.228 5.228 0 005.162-4.426c.03-.19.046-.382.05-.574a4.86 4.86 0 00-2.267-.54h-4.63z" fill="#fff"/></svg>