<svg width="36" height="36" fill="none" xmlns="http://www.w3.org/2000/svg"><path d="M18 36.002c9.941 0 18-8.059 18-18s-8.059-18-18-18-18 8.059-18 18 8.059 18 18 18z" fill="#fff" fill-opacity=".2"/><path fill-rule="evenodd" clip-rule="evenodd" d="M13.846 17.069l4.866-3.163 4.826 3.182-4.847-8.778-4.845 8.759zm.186.913l4.686-3.087 4.624 3.064-4.622 3.091-4.688-3.068zm-.186.884a2655.1 2655.1 0 014.866 3.2l4.827-3.2a2894.39 2894.39 0 01-4.827 8.828l-.995-1.803a5299.992 5299.992 0 01-3.87-7.025z" fill="#fff"/><path fill-rule="evenodd" clip-rule="evenodd" d="M18.692 8.31l.019 5.596 4.828 3.182-4.847-8.778zm.023 6.585l4.655 3.064-4.652 3.091-.003-6.155zm-.004 7.17l4.828-3.199c-1.498 3.206-4.828 8.828-4.828 8.828v-5.628z" fill="#fff"/></svg>