<svg width="37" height="36" fill="none" xmlns="http://www.w3.org/2000/svg"><path d="M36.62 18.002c0 9.889-8.016 17.905-17.905 17.905C8.826 35.907.81 27.892.81 18.002.81 8.114 8.826.097 18.715.097c9.889 0 17.905 8.017 17.905 17.905z" fill="#fff" fill-opacity=".2"/><path d="M22.466 19.622c0-1.94-1.163-2.604-3.49-2.881-1.662-.222-1.995-.665-1.995-1.44 0-.777.554-1.275 1.662-1.275.998 0 1.552.332 1.829 1.163a.417.417 0 00.387.277h.887a.379.379 0 00.388-.387v-.056a2.768 2.768 0 00-2.493-2.271v-1.33c0-.222-.167-.388-.444-.444h-.83c-.222 0-.389.167-.444.444v1.274c-1.662.222-2.715 1.33-2.715 2.715 0 1.828 1.108 2.549 3.435 2.826 1.552.277 2.05.61 2.05 1.496s-.775 1.496-1.828 1.496c-1.44 0-1.94-.61-2.105-1.441-.056-.222-.222-.332-.388-.332h-.942a.379.379 0 00-.388.387v.056c.222 1.385 1.108 2.382 2.936 2.66v1.329c0 .222.167.388.444.443h.83c.222 0 .389-.166.444-.443v-1.33c1.662-.277 2.77-1.44 2.77-2.936z" fill="#fff"/><path d="M15.984 25.439c-4.321-1.551-6.537-6.372-4.93-10.638.83-2.327 2.659-4.1 4.93-4.93.222-.112.333-.278.333-.555V8.54c0-.221-.11-.388-.333-.443-.055 0-.166 0-.221.055-5.264 1.663-8.145 7.259-6.483 12.522a9.967 9.967 0 006.483 6.483c.221.11.443 0 .498-.222.056-.055.056-.11.056-.222v-.775c0-.167-.166-.388-.333-.5zm5.873-17.287c-.221-.11-.443 0-.498.222-.056.056-.056.11-.056.222v.775c0 .222.166.444.333.555 4.321 1.55 6.538 6.371 4.93 10.637-.83 2.327-2.659 4.1-4.93 4.931-.222.111-.333.277-.333.555v.775c0 .222.111.388.333.443.055 0 .166 0 .221-.055 5.264-1.662 8.145-7.258 6.483-12.522a10.049 10.049 0 00-6.483-6.538z" fill="#fff"/></svg>