<svg width="37" height="36" fill="none" xmlns="http://www.w3.org/2000/svg"><path d="M36.272 22.357c-2.405 9.644-12.173 15.513-21.818 13.108-9.64-2.404-15.51-12.172-13.105-21.816C3.752 4.004 13.52-1.866 23.162.54c9.645 2.404 15.514 12.174 13.11 21.818z" fill="#fff" fill-opacity=".2"/><path fill-rule="evenodd" clip-rule="evenodd" d="M24.23 15.91c.244-1.624-.994-2.498-2.686-3.08l.55-2.202-1.341-.334-.534 2.143c-.352-.087-.714-.17-1.073-.252l.538-2.158-1.34-.334-.549 2.2a44.847 44.847 0 01-.855-.2l.001-.007-1.848-.461-.356 1.43s.994.228.973.243c.543.135.641.494.624.779l-.625 2.508c.038.01.086.023.14.044l-.142-.035-.876 3.513c-.067.165-.235.412-.614.318.013.02-.974-.243-.974-.243l-.665 1.534 1.744.435.584.15.37.097-.554 2.226 1.338.334.55-2.202c.365.099.72.19 1.067.277l-.547 2.192 1.34.334.555-2.222c2.284.432 4.003.258 4.725-1.808.583-1.664-.028-2.624-1.23-3.25.875-.203 1.535-.779 1.71-1.968zm-3.061 4.294c-.38 1.527-2.771.895-3.864.606a19.49 19.49 0 00-.26-.067l.735-2.95c.091.023.203.048.33.076 1.13.254 3.447.774 3.06 2.335h-.001zM18.337 16.5c.912.244 2.9.774 3.246-.613.354-1.42-1.579-1.848-2.523-2.056-.106-.024-.2-.045-.276-.064l-.667 2.676c.063.015.137.035.22.057z" fill="#fff"/></svg>