<svg width="307" height="149" fill="none" xmlns="http://www.w3.org/2000/svg"><circle cx="40" cy="40" r="40" fill="url(#paint0_linear_459_19837)" fill-opacity=".4"/><circle cx="40" cy="40" r="39.5" stroke="url(#paint1_linear_459_19837)" stroke-opacity=".6"/><circle cx="120.667" cy="25" r="25" fill="url(#paint2_linear_459_19837)" fill-opacity=".4"/><circle cx="120.667" cy="25" r="24.5" stroke="url(#paint3_linear_459_19837)" stroke-opacity=".6"/><circle cx="201.333" cy="40" r="40" fill="url(#paint4_linear_459_19837)" fill-opacity=".4"/><circle cx="201.333" cy="40" r="39.5" stroke="url(#paint5_linear_459_19837)" stroke-opacity=".6"/><circle cx="55" cy="112" r="25" fill="url(#paint6_linear_459_19837)" fill-opacity=".4"/><circle cx="55" cy="112" r="24.5" stroke="url(#paint7_linear_459_19837)" stroke-opacity=".6"/><circle cx="204" cy="108" r="15" fill="url(#paint8_linear_459_19837)" fill-opacity=".4"/><circle cx="204" cy="108" r="14.5" stroke="url(#paint9_linear_459_19837)" stroke-opacity=".6"/><circle cx="282" cy="25" r="25" fill="url(#paint10_linear_459_19837)" fill-opacity=".4"/><circle cx="282" cy="25" r="24.5" stroke="url(#paint11_linear_459_19837)" stroke-opacity=".6"/><circle cx="136" cy="109" r="40" fill="url(#paint12_linear_459_19837)" fill-opacity=".4"/><circle cx="136" cy="109" r="39.5" stroke="url(#paint13_linear_459_19837)" stroke-opacity=".6"/><circle cx="270.5" cy="105.5" r="36.5" fill="url(#paint14_linear_459_19837)" fill-opacity=".4"/><circle cx="270.5" cy="105.5" r="36" stroke="url(#paint15_linear_459_19837)" stroke-opacity=".6"/><path fill-rule="evenodd" clip-rule="evenodd" d="M31.933 30.424c.789-.636 2.152-.552 2.801.224 1.11 1.321 2.196 2.662 3.297 3.99 1.408 1.717 2.84 3.417 4.23 5.145-2.419 2.87-4.804 5.763-7.21 8.642-.369.422-.684.898-1.16 1.228-.449.312-1.054.41-1.597.294-.524-.119-.982-.475-1.177-.94-.13-.273-.128-.575-.105-.865.067-.417.31-.79.588-1.116 2.099-2.394 4.19-4.794 6.29-7.186-.49-.594-1.016-1.165-1.52-1.75-1.442-1.64-2.878-3.284-4.317-4.927-.303-.335-.578-.71-.688-1.14a1.6 1.6 0 01.568-1.599z" fill="url(#paint16_linear_459_19837)" fill-opacity=".6"/><path fill-rule="evenodd" clip-rule="evenodd" d="M46.314 30.33c.408-.278.938-.366 1.435-.31.602.093 1.149.485 1.358 1.019.243.598.039 1.277-.386 1.76-1.676 1.936-3.37 3.859-5.04 5.8-.089-.055-.14-.146-.207-.22-.663-.797-1.34-1.585-1.994-2.389 1.311-1.572 2.615-3.15 3.923-4.726.28-.33.532-.692.91-.934z" fill="url(#paint17_linear_459_19837)" fill-opacity=".6"/><path fill-rule="evenodd" clip-rule="evenodd" d="M43.483 41.169c.065-.069.106-.162.198-.205 1.693 1.962 3.402 3.915 5.102 5.873.28.314.55.652.667 1.05a1.6 1.6 0 01-.43 1.586c-.739.723-2.165.703-2.86-.068-.485-.54-.93-1.11-1.401-1.663-1.118-1.355-2.262-2.692-3.368-4.054.704-.835 1.394-1.68 2.092-2.52z" fill="url(#paint18_linear_459_19837)" fill-opacity=".6"/><path fill-rule="evenodd" clip-rule="evenodd" d="M121.263 19.553c.16-.305-.208-.674-.51-.515-.245.1-.308.458-.117.64.181.189.534.123.627-.125zm-3.359.134c.018-.202-.214-.372-.397-.295-.255.068-.283.474-.036.571.187.104.452-.057.433-.276zm6.251.282c-.286-.035-.332-.49-.056-.581.214-.106.41.092.442.297-.045.175-.19.335-.386.284zm-5.213 1.273c.047-.36-.39-.65-.696-.455-.287.148-.327.59-.066.784.269.245.746.035.762-.329zm3.982-.247c.137-.356.691-.367.847-.02.154.27-.036.603-.31.695-.363.068-.708-.328-.537-.675zm-2.001.1c-.288.02-.564.249-.561.555-.016.25.161.454.371.558l.064.005c.118.01.241.02.348-.041.276-.123.412-.493.259-.762-.082-.194-.29-.276-.481-.315zm-5.388 1c.28-.173.658.144.552.451-.059.266-.412.374-.614.204-.216-.159-.182-.54.062-.654zm10.967.33c.028-.303-.364-.516-.601-.33-.244.151-.218.555.042.673.236.142.575-.067.559-.343zm-4.782.22a.936.936 0 011.081.381c.294.431.138 1.089-.32 1.336-.474.293-1.166.045-1.341-.49-.198-.478.091-1.077.58-1.227zm-1.071.463c-.21-.45-.795-.623-1.229-.416-.463.209-.676.825-.436 1.279.214.469.837.661 1.279.407.442-.225.633-.834.386-1.27zm-3.532.38c.033-.284.297-.467.564-.486.287.035.516.26.547.553-.019.29-.241.575-.546.573-.335.029-.629-.308-.565-.64zm7.609.067c.015-.4-.463-.694-.807-.492-.37.176-.397.758-.041.965.342.248.871-.05.848-.473zm-6.242 1a.939.939 0 011.06.453.95.95 0 01-.208 1.175c-.431.405-1.225.242-1.454-.31-.264-.507.056-1.185.602-1.318zm5.424.397c-.211-.36-.67-.513-1.062-.4-.55.153-.841.857-.552 1.356.239.482.911.644 1.345.336.414-.266.547-.88.269-1.292zm-8.013.07c.347-.132.733.255.592.603-.086.318-.529.435-.757.201-.268-.22-.169-.708.165-.804zm9.922-.06a.536.536 0 00-.497.566c.058.136.128.277.265.348.292.162.704-.073.682-.419.019-.262-.212-.456-.45-.494zm-11.632.231c.209-.092.468.091.42.326-.011.266-.4.368-.542.146-.126-.154-.051-.392.122-.472zm13.633.139c-.058-.174-.294-.25-.442-.144-.245.132-.149.59.148.562.212.032.393-.228.294-.418zm-8.198 1.132c.551-.145 1.142.319 1.146.891.036.579-.547 1.092-1.111.958-.435-.07-.777-.494-.763-.939a.952.952 0 01.728-.91zm3.34.899c.009-.586-.601-1.058-1.16-.9a.947.947 0 00-.685.697c-.144.51.239 1.086.758 1.154.552.112 1.116-.384 1.087-.951zm-5.363-.548c.386-.067.749.369.592.74-.114.395-.684.502-.935.18-.296-.31-.075-.877.343-.92zm7.135.55c.027-.377-.396-.679-.741-.533-.417.134-.486.776-.105.994.338.243.86-.044.846-.46zm1.046 1.278c-.135-.254.11-.591.389-.544.132-.002.226.096.311.186l.015.015.003.026c.018.145.039.31-.078.42-.168.215-.549.154-.64-.103zm-9.666-.079c.059-.308-.317-.57-.578-.394-.249.128-.258.528-.017.668.224.155.564-.001.595-.274zm4.581.177c.342-.153.777.148.745.528.025.42-.513.711-.848.459-.371-.217-.309-.854.103-.988zm-1.734 1.004c.026-.329-.364-.596-.656-.441-.205.077-.288.306-.292.51.07.19.213.387.432.392.264.04.525-.19.516-.46zm4.185-.437c.299-.187.725.082.696.434.008.368-.473.604-.752.362-.27-.19-.237-.645.056-.796zm1.081 1.607c-.216.046-.373.292-.24.495.137.237.536.152.562-.124.036-.203-.148-.335-.322-.371zm-6.921.318c.053-.16.181-.321.369-.28.275.02.356.438.116.566-.216.147-.466-.054-.485-.286zm3.783-.042c-.201-.127-.507-.011-.56.228-.096.24.135.532.39.502.137.003.243-.095.326-.194.016-.067.032-.134.051-.2l-.002-.004c-.033-.127-.073-.275-.205-.332z" fill="url(#paint19_linear_459_19837)" fill-opacity=".6"/><path fill-rule="evenodd" clip-rule="evenodd" d="M208.35 105.767c.578.887.886 1.924.885 2.983a5.455 5.455 0 01-.886 2.984l2.151 2.151-1.615 1.615-2.151-2.151a5.455 5.455 0 01-2.984.886 5.449 5.449 0 01-2.983-.886l-2.151 2.151-1.616-1.615 2.151-2.151a5.463 5.463 0 010-5.967L197 103.616l1.616-1.616 2.151 2.15a5.457 5.457 0 012.983-.885c1.101 0 2.124.327 2.984.886l2.151-2.151 1.615 1.616-2.15 2.151zm-4.6-.392a3.379 3.379 0 00-3.375 3.375 3.379 3.379 0 003.375 3.375c.474 0 .943-.101 1.375-.296l-2.227-2.227 1.704-1.705 2.227 2.228c.189-.421.296-.885.296-1.375a3.379 3.379 0 00-3.375-3.375z" fill="url(#paint20_linear_459_19837)" fill-opacity=".6"/><path fill-rule="evenodd" clip-rule="evenodd" d="M280.616 31.755l1.824-2.021c.03-.03.01-.081-.041-.081h-2.008a.078.078 0 01-.041-.02l-1.7-1.88c-.01-.02-.02-.04-.01-.06l2.847-4.822c.01-.02.01-.04 0-.05l-1.178-2.001c-.02-.03-.071-.03-.092 0l-4.209 7.135a.06.06 0 000 .06l3.379 3.75c.011.01.021.02.041.02h1.148c.01-.01.03-.02.04-.03z" fill="url(#paint21_linear_459_19837)" fill-opacity=".6"/><path d="M280.678 20.032c-.01.02-.01.04 0 .05l1.229 2.082 3.257 5.518c.01.02.01.04-.01.06l-1.721 1.9-1.833 2.043c-.031.03-.01.08.041.08h2.745c.01 0 .03-.01.041-.02l3.379-3.75c.011-.02.021-.04.011-.06l-5.869-9.905c-.01-.04-.061-.04-.082 0l-1.188 2.002z" fill="url(#paint22_linear_459_19837)" fill-opacity=".6"/><path fill-rule="evenodd" clip-rule="evenodd" d="M56.39 119.069c-.964 0-1.666-.22-2.107-.673-.44-.454-.654-.928-.654-1.452 0-.184.036-.348.12-.477a.76.76 0 01.31-.301c.13-.07.296-.117.488-.117s.357.035.489.117a.76.76 0 01.309.301c.072.129.12.29.12.477 0 .232-.06.419-.168.556a.805.805 0 01-.405.29c.132.173.345.302.63.384.285.081.57.116.858.116a1.94 1.94 0 001.082-.313c.321-.208.558-.521.714-.928.156-.406.225-.869.225-1.392 0-.568-.083-1.045-.249-1.44-.167-.407-.405-.708-.726-.893a1.958 1.958 0 00-1.047-.29c-.249 0-.546.106-.915.302l-.67.313v-.325l3.033-3.945h-4.198v4.097c0 .337.072.615.226.837.155.219.392.325.702.325.249 0 .476-.082.701-.243.226-.164.417-.36.582-.58.024-.047.048-.082.072-.093.036-.024.06-.036.096-.036.06 0 .12.024.201.082a.407.407 0 01.108.278c0 .047-.024.117-.036.208-.167.384-.405.673-.714.87a1.848 1.848 0 01-1.01.301c-.916 0-1.536-.173-1.893-.521-.345-.348-.522-.825-.522-1.416v-4.109H50v-.766h2.154v-1.741l-.489-.477V106h1.428l.534.266v2.335l5.555-.012.547.533-3.4 3.333c.201-.082.417-.129.642-.152.37 0 .786.117 1.236.348.465.22.822.533 1.071.928.25.395.417.766.489 1.126a5 5 0 01.12.963 3.92 3.92 0 01-.417 1.776 2.62 2.62 0 01-1.26 1.23 4.187 4.187 0 01-1.82.395z" fill="url(#paint23_linear_459_19837)" fill-opacity=".6"/><g opacity=".8" fill-opacity=".6"><path d="M270.839 91l-.193.656v19.042l.193.193 8.839-5.225L270.839 91z" fill="url(#paint24_linear_459_19837)"/><path d="M270.839 91L262 105.666l8.839 5.225V91z" fill="url(#paint25_linear_459_19837)"/><path d="M270.839 113.766l-.109.133v6.783l.109.318 8.844-12.456-8.844 5.222z" fill="url(#paint26_linear_459_19837)"/><path d="M270.839 121v-7.234L262 108.544 270.839 121z" fill="url(#paint27_linear_459_19837)"/><path d="M270.839 110.891l8.838-5.225-8.838-4.018v9.243z" fill="url(#paint28_linear_459_19837)"/><path d="M262 105.666l8.839 5.225v-9.243L262 105.666z" fill="url(#paint29_linear_459_19837)"/></g><path fill-rule="evenodd" clip-rule="evenodd" d="M216.139 36.08c.628-4.203-2.572-6.462-6.947-7.97l1.419-5.693-3.467-.863-1.381 5.543c-.91-.227-1.846-.441-2.776-.654l1.392-5.58-3.464-.863-1.42 5.691a107.5 107.5 0 01-2.213-.52l.004-.018-4.779-1.193-.922 3.701s2.571.59 2.517.626c1.403.35 1.658 1.28 1.614 2.016l-1.616 6.486c.096.024.222.06.36.115l-.365-.09-2.267 9.085c-.172.426-.608 1.066-1.589.823.035.05-2.519-.629-2.519-.629L186 50.061l4.511 1.125c.509.127 1.012.258 1.51.388l.959.25-1.434 5.759 3.462.863 1.421-5.697c.945.257 1.863.494 2.761.717l-1.416 5.67 3.466.864 1.434-5.748c5.91 1.119 10.354.668 12.223-4.676 1.507-4.304-.074-6.786-3.183-8.406 2.264-.524 3.969-2.013 4.424-5.09h.001zm-7.919 11.103c-.984 3.95-7.167 2.316-9.994 1.569-.253-.067-.48-.127-.673-.175l1.903-7.629c.236.06.525.124.852.197 2.924.656 8.917 2.001 7.913 6.038h-.001zm-7.325-9.578c2.359.63 7.501 2.001 8.396-1.587.916-3.67-4.084-4.777-6.525-5.317a29.83 29.83 0 01-.715-.164l-1.725 6.919c.163.04.355.092.569.15z" fill="url(#paint30_linear_459_19837)" fill-opacity=".6"/><path d="M133.776 107.492v-4.526h-6.138V99h17.151v4.022h-6.138v4.47h-4.875z" fill="url(#paint31_linear_459_19837)" fill-opacity=".6"/><path fill-rule="evenodd" clip-rule="evenodd" d="M125 107.994c0-1.508 4.933-2.737 11.07-2.737 6.138 0 11.071 1.229 11.071 2.737 0 1.509-4.933 2.738-11.071 2.738-6.137 0-11.07-1.229-11.07-2.738zm21.223 0c-.402-.558-3.729-2.29-10.153-2.29s-9.751 1.676-10.153 2.29c.402.559 3.729 1.397 10.153 1.397 6.482 0 9.751-.838 10.153-1.397z" fill="url(#paint32_linear_459_19837)" fill-opacity=".6"/><path d="M138.651 108.888v-3.128a36.36 36.36 0 00-2.523-.112c-.803 0-1.549 0-2.295.056v3.128c.689 0 1.492.056 2.295.056.86.056 1.72.056 2.523 0z" fill="url(#paint33_linear_459_19837)" fill-opacity=".6"/><path d="M136.071 110.732c-.804 0-1.549 0-2.295-.056V119h4.818v-8.38a36.36 36.36 0 01-2.523.112z" fill="url(#paint34_linear_459_19837)" fill-opacity=".6"/><defs><linearGradient id="paint0_linear_459_19837" x1="64.286" y1="58" x2="114.15" y2="-27.87" gradientUnits="userSpaceOnUse"><stop stop-color="#FF2F01" stop-opacity=".6"/><stop offset="1" stop-opacity="0"/><stop offset="1" stop-color="#FF2F01" stop-opacity=".4"/></linearGradient><linearGradient id="paint1_linear_459_19837" x1="25" y1="-11.52" x2="73.699" y2="72.115" gradientUnits="userSpaceOnUse"><stop stop-color="#FF2F01" stop-opacity=".2"/><stop offset="1" stop-color="#FF2F01" stop-opacity=".7"/></linearGradient><linearGradient id="paint2_linear_459_19837" x1="135.845" y1="36.25" x2="167.011" y2="-17.419" gradientUnits="userSpaceOnUse"><stop stop-color="#FF2F01" stop-opacity=".6"/><stop offset="1" stop-opacity="0"/><stop offset="1" stop-color="#FF2F01" stop-opacity=".4"/></linearGradient><linearGradient id="paint3_linear_459_19837" x1="111.292" y1="-7.2" x2="141.728" y2="45.072" gradientUnits="userSpaceOnUse"><stop stop-color="#FF2F01" stop-opacity=".2"/><stop offset="1" stop-color="#FF2F01" stop-opacity=".7"/></linearGradient><linearGradient id="paint4_linear_459_19837" x1="225.619" y1="58" x2="275.484" y2="-27.87" gradientUnits="userSpaceOnUse"><stop stop-color="#FF2F01" stop-opacity=".6"/><stop offset="1" stop-opacity="0"/><stop offset="1" stop-color="#FF2F01" stop-opacity=".4"/></linearGradient><linearGradient id="paint5_linear_459_19837" x1="186.333" y1="-11.52" x2="235.032" y2="72.115" gradientUnits="userSpaceOnUse"><stop stop-color="#FF2F01" stop-opacity=".2"/><stop offset="1" stop-color="#FF2F01" stop-opacity=".7"/></linearGradient><linearGradient id="paint6_linear_459_19837" x1="70.179" y1="123.25" x2="101.344" y2="69.582" gradientUnits="userSpaceOnUse"><stop stop-color="#FF2F01" stop-opacity=".6"/><stop offset="1" stop-opacity="0"/><stop offset="1" stop-color="#FF2F01" stop-opacity=".4"/></linearGradient><linearGradient id="paint7_linear_459_19837" x1="45.625" y1="79.8" x2="76.062" y2="132.072" gradientUnits="userSpaceOnUse"><stop stop-color="#FF2F01" stop-opacity=".2"/><stop offset="1" stop-color="#FF2F01" stop-opacity=".7"/></linearGradient><linearGradient id="paint8_linear_459_19837" x1="213.107" y1="114.75" x2="231.806" y2="82.549" gradientUnits="userSpaceOnUse"><stop stop-color="#FF2F01" stop-opacity=".6"/><stop offset="1" stop-opacity="0"/><stop offset="1" stop-color="#FF2F01" stop-opacity=".4"/></linearGradient><linearGradient id="paint9_linear_459_19837" x1="198.375" y1="88.68" x2="216.637" y2="120.043" gradientUnits="userSpaceOnUse"><stop stop-color="#FF2F01" stop-opacity=".2"/><stop offset="1" stop-color="#FF2F01" stop-opacity=".7"/></linearGradient><linearGradient id="paint10_linear_459_19837" x1="297.179" y1="36.25" x2="328.344" y2="-17.419" gradientUnits="userSpaceOnUse"><stop stop-color="#FF2F01" stop-opacity=".6"/><stop offset="1" stop-opacity="0"/><stop offset="1" stop-color="#FF2F01" stop-opacity=".4"/></linearGradient><linearGradient id="paint11_linear_459_19837" x1="272.625" y1="-7.2" x2="303.062" y2="45.072" gradientUnits="userSpaceOnUse"><stop stop-color="#FF2F01" stop-opacity=".2"/><stop offset="1" stop-color="#FF2F01" stop-opacity=".7"/></linearGradient><linearGradient id="paint12_linear_459_19837" x1="160.286" y1="127" x2="210.15" y2="41.13" gradientUnits="userSpaceOnUse"><stop stop-color="#FF2F01" stop-opacity=".6"/><stop offset="1" stop-opacity="0"/><stop offset="1" stop-color="#FF2F01" stop-opacity=".4"/></linearGradient><linearGradient id="paint13_linear_459_19837" x1="121" y1="57.48" x2="169.699" y2="141.116" gradientUnits="userSpaceOnUse"><stop stop-color="#FF2F01" stop-opacity=".2"/><stop offset="1" stop-color="#FF2F01" stop-opacity=".7"/></linearGradient><linearGradient id="paint14_linear_459_19837" x1="292.661" y1="121.925" x2="338.162" y2="43.569" gradientUnits="userSpaceOnUse"><stop stop-color="#FF2F01" stop-opacity=".6"/><stop offset="1" stop-opacity="0"/><stop offset="1" stop-color="#FF2F01" stop-opacity=".4"/></linearGradient><linearGradient id="paint15_linear_459_19837" x1="256.812" y1="58.488" x2="301.25" y2="134.805" gradientUnits="userSpaceOnUse"><stop stop-color="#FF2F01" stop-opacity=".2"/><stop offset="1" stop-color="#FF2F01" stop-opacity=".7"/></linearGradient><linearGradient id="paint16_linear_459_19837" x1="34.519" y1="27.121" x2="48.506" y2="40.65" gradientUnits="userSpaceOnUse"><stop stop-color="#FF2F01" stop-opacity=".2"/><stop offset="1" stop-color="#FF2F01" stop-opacity=".7"/></linearGradient><linearGradient id="paint17_linear_459_19837" x1="43.896" y1="28.766" x2="49.385" y2="37.245" gradientUnits="userSpaceOnUse"><stop stop-color="#FF2F01" stop-opacity=".2"/><stop offset="1" stop-color="#FF2F01" stop-opacity=".7"/></linearGradient><linearGradient id="paint18_linear_459_19837" x1="43.929" y1="39.662" x2="49.702" y2="48.572" gradientUnits="userSpaceOnUse"><stop stop-color="#FF2F01" stop-opacity=".2"/><stop offset="1" stop-color="#FF2F01" stop-opacity=".7"/></linearGradient><linearGradient id="paint19_linear_459_19837" x1="118.327" y1="17.139" x2="125.917" y2="31.105" gradientUnits="userSpaceOnUse"><stop stop-color="#FF2F01" stop-opacity=".2"/><stop offset="1" stop-color="#FF2F01" stop-opacity=".7"/></linearGradient><linearGradient id="paint20_linear_459_19837" x1="201.219" y1="100.056" x2="209.437" y2="114.169" gradientUnits="userSpaceOnUse"><stop stop-color="#FF2F01" stop-opacity=".2"/><stop offset="1" stop-color="#FF2F01" stop-opacity=".7"/></linearGradient><linearGradient id="paint21_linear_459_19837" x1="278.017" y1="19.215" x2="285.708" y2="26.973" gradientUnits="userSpaceOnUse"><stop stop-color="#FF2F01" stop-opacity=".2"/><stop offset="1" stop-color="#FF2F01" stop-opacity=".7"/></linearGradient><linearGradient id="paint22_linear_459_19837" x1="282.905" y1="16.018" x2="292.477" y2="24.558" gradientUnits="userSpaceOnUse"><stop stop-color="#FF2F01" stop-opacity=".2"/><stop offset="1" stop-color="#FF2F01" stop-opacity=".7"/></linearGradient><linearGradient id="paint23_linear_459_19837" x1="53.09" y1="104.118" x2="61.932" y2="115.607" gradientUnits="userSpaceOnUse"><stop stop-color="#FF2F01" stop-opacity=".2"/><stop offset="1" stop-color="#FF2F01" stop-opacity=".7"/></linearGradient><linearGradient id="paint24_linear_459_19837" x1="273.468" y1="88.136" x2="286.971" y2="98.666" gradientUnits="userSpaceOnUse"><stop stop-color="#FF2F01" stop-opacity=".2"/><stop offset="1" stop-color="#FF2F01" stop-opacity=".7"/></linearGradient><linearGradient id="paint25_linear_459_19837" x1="264.762" y1="88.136" x2="278.191" y2="98.384" gradientUnits="userSpaceOnUse"><stop stop-color="#FF2F01" stop-opacity=".2"/><stop offset="1" stop-color="#FF2F01" stop-opacity=".7"/></linearGradient><linearGradient id="paint26_linear_459_19837" x1="273.528" y1="106.751" x2="282.056" y2="117.279" gradientUnits="userSpaceOnUse"><stop stop-color="#FF2F01" stop-opacity=".2"/><stop offset="1" stop-color="#FF2F01" stop-opacity=".7"/></linearGradient><linearGradient id="paint27_linear_459_19837" x1="264.762" y1="106.751" x2="273.313" y2="117.171" gradientUnits="userSpaceOnUse"><stop stop-color="#FF2F01" stop-opacity=".2"/><stop offset="1" stop-color="#FF2F01" stop-opacity=".7"/></linearGradient><linearGradient id="paint28_linear_459_19837" x1="273.601" y1="100.318" x2="279.348" y2="109.757" gradientUnits="userSpaceOnUse"><stop stop-color="#FF2F01" stop-opacity=".2"/><stop offset="1" stop-color="#FF2F01" stop-opacity=".7"/></linearGradient><linearGradient id="paint29_linear_459_19837" x1="264.762" y1="100.318" x2="270.509" y2="109.757" gradientUnits="userSpaceOnUse"><stop stop-color="#FF2F01" stop-opacity=".2"/><stop offset="1" stop-color="#FF2F01" stop-opacity=".7"/></linearGradient><linearGradient id="paint30_linear_459_19837" x1="195.443" y1="14.24" x2="222.518" y2="49.367" gradientUnits="userSpaceOnUse"><stop stop-color="#FF2F01" stop-opacity=".2"/><stop offset="1" stop-color="#FF2F01" stop-opacity=".7"/></linearGradient><linearGradient id="paint31_linear_459_19837" x1="132.998" y1="97.777" x2="136.162" y2="108.752" gradientUnits="userSpaceOnUse"><stop stop-color="#FF2F01" stop-opacity=".2"/><stop offset="1" stop-color="#FF2F01" stop-opacity=".7"/></linearGradient><linearGradient id="paint32_linear_459_19837" x1="131.919" y1="104.468" x2="133" y2="111.977" gradientUnits="userSpaceOnUse"><stop stop-color="#FF2F01" stop-opacity=".2"/><stop offset="1" stop-color="#FF2F01" stop-opacity=".7"/></linearGradient><linearGradient id="paint33_linear_459_19837" x1="135.339" y1="105.175" x2="136.914" y2="109.145" gradientUnits="userSpaceOnUse"><stop stop-color="#FF2F01" stop-opacity=".2"/><stop offset="1" stop-color="#FF2F01" stop-opacity=".7"/></linearGradient><linearGradient id="paint34_linear_459_19837" x1="135.282" y1="109.413" x2="141.147" y2="115.205" gradientUnits="userSpaceOnUse"><stop stop-color="#FF2F01" stop-opacity=".2"/><stop offset="1" stop-color="#FF2F01" stop-opacity=".7"/></linearGradient></defs></svg>