<svg width="320" height="123" fill="none" xmlns="http://www.w3.org/2000/svg"><g opacity=".24" clip-path="url(#clip0_459_19076)"><path d="M296.022 29.019c7.989 0 7.989-15.514 15.978-15.514V123h-559.243v-10.319c8.655 0 7.989 5.707 15.979 5.707 7.989 0 7.989-16.207 15.978-16.207s6.658 4.987 15.978 4.987c9.321 0 6.658 9.336 15.979 9.336 9.32 0 7.323-3.546 15.978-3.546s6.991-16.899 15.978-16.899c8.988 0 6.658 5.513 15.979 5.513 9.321 0 7.656 7.591 15.978 7.591s6.991-25.21 15.979-25.21c8.987 0 7.989 8.726 15.978 8.726 7.99 0 6.657-12.216 15.978-12.216s7.324 7.812 15.979 7.812 7.323-31.942 15.978-31.942 6.99 8.893 15.978 8.893 6.658 5.873 15.979 5.873c9.32 0 6.99-15.237 15.978-15.237s6.658 7.48 15.978 7.48c9.321 0 7.657-12.328 15.979-12.328s7.323-20.61 15.978-20.61 7.324 34.49 15.979 34.49c8.654 0 7.656-24.157 15.978-24.157s6.658 10.582 15.978 10.582c9.321 0 7.324 9.502 15.979 9.502s7.656-15.735 15.978-15.735 7.656 14.96 15.978 14.96 7.324-6.649 15.979-6.649 7.323-13.713 15.978-13.713 7.324 5.485 15.978 5.485c8.655 0 7.99-20.029 15.979-20.029 7.989 0 6.657 27.454 15.978 27.454s6.991-18.644 15.979-18.644c8.987 0 7.656 7.673 15.978 7.673s7.656-19.114 15.978-19.114 7.989 6.51 15.979 6.51z" fill="url(#paint0_linear_459_19076)"/></g><g clip-path="url(#clip1_459_19076)"><path d="M312 13.505c-7.989 0-7.989 15.514-15.978 15.514-7.99 0-7.657-6.51-15.979-6.51s-7.656 19.114-15.978 19.114-6.991-7.673-15.978-7.673c-8.988 0-6.658 18.644-15.979 18.644-9.321 0-7.989-27.454-15.978-27.454s-7.324 20.03-15.979 20.03c-8.654 0-7.323-5.486-15.978-5.486s-7.323 13.713-15.978 13.713-7.657 6.649-15.979 6.649-7.656-14.96-15.978-14.96-7.323 15.735-15.978 15.735-6.658-9.502-15.979-9.502c-9.32 0-7.656-10.582-15.978-10.582S80.98 64.894 72.325 64.894 65 30.404 56.346 30.404s-7.656 20.61-15.978 20.61-6.658 12.328-15.979 12.328c-9.32 0-6.99-7.48-15.978-7.48S1.753 71.1-7.567 71.1c-9.321 0-6.99-5.873-15.979-5.873-8.987 0-7.323-8.892-15.978-8.892s-7.323 31.94-15.978 31.94-6.658-7.811-15.979-7.811c-9.32 0-7.989 12.216-15.978 12.216-7.99 0-6.99-8.726-15.978-8.726s-7.657 25.21-15.979 25.21-6.657-7.591-15.978-7.591-6.991-5.513-15.979-5.513c-8.987 0-7.323 16.899-15.978 16.899s-6.658 3.546-15.978 3.546c-9.321 0-6.658-9.336-15.979-9.336-9.32 0-7.989-4.987-15.978-4.987s-7.989 16.207-15.978 16.207c-7.99 0-7.324-5.707-15.979-5.707" stroke="#FF2F01" stroke-width=".666"/></g><rect width="5.326" height="5.326" rx="2.663" transform="matrix(-1 0 0 1 298.674 26.553)" fill="#FF2F01"/><rect x=".333" y="-.333" width="5.992" height="5.992" rx="2.996" transform="matrix(-1 0 0 1 299.34 26.553)" stroke="url(#paint1_linear_459_19076)" stroke-opacity=".6" stroke-width=".666"/><rect width="5.326" height="5.326" rx="2.663" transform="matrix(-1 0 0 1 282.696 20.018)" fill="#FF2F01"/><rect x=".333" y="-.333" width="5.992" height="5.992" rx="2.996" transform="matrix(-1 0 0 1 283.361 20.018)" stroke="url(#paint2_linear_459_19076)" stroke-opacity=".6" stroke-width=".666"/><rect width="5.326" height="5.326" rx="2.663" transform="matrix(-1 0 0 1 266.717 39.237)" fill="#FF2F01"/><rect x=".333" y="-.333" width="5.992" height="5.992" rx="2.996" transform="matrix(-1 0 0 1 267.383 39.237)" stroke="url(#paint3_linear_459_19076)" stroke-opacity=".6" stroke-width=".666"/><rect width="5.326" height="5.326" rx="2.663" transform="matrix(-1 0 0 1 250.739 31.55)" fill="#FF2F01"/><rect x=".333" y="-.333" width="5.992" height="5.992" rx="2.996" transform="matrix(-1 0 0 1 251.405 31.55)" stroke="url(#paint4_linear_459_19076)" stroke-opacity=".6" stroke-width=".666"/><rect width="5.326" height="5.326" rx="2.663" transform="matrix(-1 0 0 1 314.652 10.793)" fill="#FF2F01"/><rect x=".333" y="-.333" width="5.992" height="5.992" rx="2.996" transform="matrix(-1 0 0 1 315.318 10.793)" stroke="url(#paint5_linear_459_19076)" stroke-opacity=".6" stroke-width=".666"/><rect width="5.326" height="5.326" rx="2.663" transform="matrix(-1 0 0 1 218.782 22.709)" fill="#FF2F01"/><rect x=".333" y="-.333" width="5.992" height="5.992" rx="2.996" transform="matrix(-1 0 0 1 219.448 22.709)" stroke="url(#paint6_linear_459_19076)" stroke-opacity=".6" stroke-width=".666"/><rect width="5.326" height="5.326" rx="2.663" transform="matrix(-1 0 0 1 202.804 43.08)" fill="#FF2F01"/><rect x=".333" y="-.333" width="5.992" height="5.992" rx="2.996" transform="matrix(-1 0 0 1 203.469 43.08)" stroke="url(#paint7_linear_459_19076)" stroke-opacity=".6" stroke-width=".666"/><rect width="5.326" height="5.326" rx="2.663" transform="matrix(-1 0 0 1 186.825 37.7)" fill="#FF2F01"/><rect x=".333" y="-.333" width="5.992" height="5.992" rx="2.996" transform="matrix(-1 0 0 1 187.491 37.7)" stroke="url(#paint8_linear_459_19076)" stroke-opacity=".6" stroke-width=".666"/><rect width="5.326" height="5.326" rx="2.663" transform="matrix(-1 0 0 1 170.847 51.153)" fill="#FF2F01"/><rect x=".333" y="-.333" width="5.992" height="5.992" rx="2.996" transform="matrix(-1 0 0 1 171.513 51.153)" stroke="url(#paint9_linear_459_19076)" stroke-opacity=".6" stroke-width=".666"/><rect width="5.326" height="5.326" rx="2.663" transform="matrix(-1 0 0 1 234.76 50.384)" fill="#FF2F01"/><rect x=".333" y="-.333" width="5.992" height="5.992" rx="2.996" transform="matrix(-1 0 0 1 235.426 50.384)" stroke="url(#paint10_linear_459_19076)" stroke-opacity=".6" stroke-width=".666"/><rect width="5.326" height="5.326" rx="2.663" transform="matrix(-1 0 0 1 138.89 42.696)" fill="#FF2F01"/><rect x=".333" y="-.333" width="5.992" height="5.992" rx="2.996" transform="matrix(-1 0 0 1 139.556 42.696)" stroke="url(#paint11_linear_459_19076)" stroke-opacity=".6" stroke-width=".666"/><rect width="5.326" height="5.326" rx="2.663" transform="matrix(-1 0 0 1 122.912 58.456)" fill="#FF2F01"/><rect x=".333" y="-.333" width="5.992" height="5.992" rx="2.996" transform="matrix(-1 0 0 1 123.578 58.456)" stroke="url(#paint12_linear_459_19076)" stroke-opacity=".6" stroke-width=".666"/><rect width="5.326" height="5.326" rx="2.663" transform="matrix(-1 0 0 1 106.934 49.23)" fill="#FF2F01"/><rect x=".333" y="-.333" width="5.992" height="5.992" rx="2.996" transform="matrix(-1 0 0 1 107.599 49.23)" stroke="url(#paint13_linear_459_19076)" stroke-opacity=".6" stroke-width=".666"/><rect width="5.326" height="5.326" rx="2.663" transform="matrix(-1 0 0 1 90.955 38.468)" fill="#FF2F01"/><rect x=".333" y="-.333" width="5.992" height="5.992" rx="2.996" transform="matrix(-1 0 0 1 91.62 38.468)" stroke="url(#paint14_linear_459_19076)" stroke-opacity=".6" stroke-width=".666"/><rect width="5.326" height="5.326" rx="2.663" transform="matrix(-1 0 0 1 74.977 62.684)" fill="#FF2F01"/><rect x=".333" y="-.333" width="5.992" height="5.992" rx="2.996" transform="matrix(-1 0 0 1 75.643 62.684)" stroke="url(#paint15_linear_459_19076)" stroke-opacity=".6" stroke-width=".666"/><rect width="5.326" height="5.326" rx="2.663" transform="matrix(-1 0 0 1 154.869 58.071)" fill="#FF2F01"/><rect x=".333" y="-.333" width="5.992" height="5.992" rx="2.996" transform="matrix(-1 0 0 1 155.534 58.071)" stroke="url(#paint16_linear_459_19076)" stroke-opacity=".6" stroke-width=".666"/><rect width="5.326" height="5.326" rx="2.663" transform="matrix(-1 0 0 1 43.02 48.846)" fill="#FF2F01"/><rect x=".333" y="-.333" width="5.992" height="5.992" rx="2.996" transform="matrix(-1 0 0 1 43.686 48.846)" stroke="url(#paint17_linear_459_19076)" stroke-opacity=".6" stroke-width=".666"/><rect width="5.326" height="5.326" rx="2.663" transform="matrix(-1 0 0 1 27.042 61.146)" fill="#FF2F01"/><rect x=".333" y="-.333" width="5.992" height="5.992" rx="2.996" transform="matrix(-1 0 0 1 27.707 61.146)" stroke="url(#paint18_linear_459_19076)" stroke-opacity=".6" stroke-width=".666"/><rect width="5.326" height="5.326" rx="2.663" transform="matrix(-1 0 0 1 11.063 53.459)" fill="#FF2F01"/><rect x=".333" y="-.333" width="5.992" height="5.992" rx="2.996" transform="matrix(-1 0 0 1 11.73 53.459)" stroke="url(#paint19_linear_459_19076)" stroke-opacity=".6" stroke-width=".666"/><rect width="5.326" height="5.326" rx="2.663" transform="matrix(-1 0 0 1 58.998 28.09)" fill="#FF2F01"/><rect x=".333" y="-.333" width="5.992" height="5.992" rx="2.996" transform="matrix(-1 0 0 1 59.664 28.09)" stroke="url(#paint20_linear_459_19076)" stroke-opacity=".6" stroke-width=".666"/><defs><linearGradient id="paint0_linear_459_19076" x1="-90.799" y1="39.814" x2="-83.102" y2="137.192" gradientUnits="userSpaceOnUse"><stop stop-color="#FF2F01" stop-opacity=".6"/><stop offset="1"/><stop offset="1" stop-color="#FF2F01" stop-opacity=".4"/></linearGradient><linearGradient id="paint1_linear_459_19076" x1="1.664" y1="-.767" x2="4.907" y2="4.801" gradientUnits="userSpaceOnUse"><stop stop-color="#FF2F01" stop-opacity=".2"/><stop offset="1" stop-color="#FF2F01" stop-opacity=".7"/></linearGradient><linearGradient id="paint2_linear_459_19076" x1="1.664" y1="-.767" x2="4.907" y2="4.801" gradientUnits="userSpaceOnUse"><stop stop-color="#FF2F01" stop-opacity=".2"/><stop offset="1" stop-color="#FF2F01" stop-opacity=".7"/></linearGradient><linearGradient id="paint3_linear_459_19076" x1="1.664" y1="-.767" x2="4.907" y2="4.801" gradientUnits="userSpaceOnUse"><stop stop-color="#FF2F01" stop-opacity=".2"/><stop offset="1" stop-color="#FF2F01" stop-opacity=".7"/></linearGradient><linearGradient id="paint4_linear_459_19076" x1="1.664" y1="-.767" x2="4.907" y2="4.801" gradientUnits="userSpaceOnUse"><stop stop-color="#FF2F01" stop-opacity=".2"/><stop offset="1" stop-color="#FF2F01" stop-opacity=".7"/></linearGradient><linearGradient id="paint5_linear_459_19076" x1="1.664" y1="-.767" x2="4.907" y2="4.801" gradientUnits="userSpaceOnUse"><stop stop-color="#FF2F01" stop-opacity=".2"/><stop offset="1" stop-color="#FF2F01" stop-opacity=".7"/></linearGradient><linearGradient id="paint6_linear_459_19076" x1="1.664" y1="-.767" x2="4.907" y2="4.801" gradientUnits="userSpaceOnUse"><stop stop-color="#FF2F01" stop-opacity=".2"/><stop offset="1" stop-color="#FF2F01" stop-opacity=".7"/></linearGradient><linearGradient id="paint7_linear_459_19076" x1="1.664" y1="-.767" x2="4.907" y2="4.801" gradientUnits="userSpaceOnUse"><stop stop-color="#FF2F01" stop-opacity=".2"/><stop offset="1" stop-color="#FF2F01" stop-opacity=".7"/></linearGradient><linearGradient id="paint8_linear_459_19076" x1="1.664" y1="-.767" x2="4.907" y2="4.801" gradientUnits="userSpaceOnUse"><stop stop-color="#FF2F01" stop-opacity=".2"/><stop offset="1" stop-color="#FF2F01" stop-opacity=".7"/></linearGradient><linearGradient id="paint9_linear_459_19076" x1="1.664" y1="-.767" x2="4.907" y2="4.801" gradientUnits="userSpaceOnUse"><stop stop-color="#FF2F01" stop-opacity=".2"/><stop offset="1" stop-color="#FF2F01" stop-opacity=".7"/></linearGradient><linearGradient id="paint10_linear_459_19076" x1="1.664" y1="-.767" x2="4.907" y2="4.801" gradientUnits="userSpaceOnUse"><stop stop-color="#FF2F01" stop-opacity=".2"/><stop offset="1" stop-color="#FF2F01" stop-opacity=".7"/></linearGradient><linearGradient id="paint11_linear_459_19076" x1="1.664" y1="-.767" x2="4.907" y2="4.801" gradientUnits="userSpaceOnUse"><stop stop-color="#FF2F01" stop-opacity=".2"/><stop offset="1" stop-color="#FF2F01" stop-opacity=".7"/></linearGradient><linearGradient id="paint12_linear_459_19076" x1="1.664" y1="-.767" x2="4.907" y2="4.801" gradientUnits="userSpaceOnUse"><stop stop-color="#FF2F01" stop-opacity=".2"/><stop offset="1" stop-color="#FF2F01" stop-opacity=".7"/></linearGradient><linearGradient id="paint13_linear_459_19076" x1="1.664" y1="-.767" x2="4.907" y2="4.801" gradientUnits="userSpaceOnUse"><stop stop-color="#FF2F01" stop-opacity=".2"/><stop offset="1" stop-color="#FF2F01" stop-opacity=".7"/></linearGradient><linearGradient id="paint14_linear_459_19076" x1="1.664" y1="-.767" x2="4.907" y2="4.801" gradientUnits="userSpaceOnUse"><stop stop-color="#FF2F01" stop-opacity=".2"/><stop offset="1" stop-color="#FF2F01" stop-opacity=".7"/></linearGradient><linearGradient id="paint15_linear_459_19076" x1="1.664" y1="-.767" x2="4.907" y2="4.801" gradientUnits="userSpaceOnUse"><stop stop-color="#FF2F01" stop-opacity=".2"/><stop offset="1" stop-color="#FF2F01" stop-opacity=".7"/></linearGradient><linearGradient id="paint16_linear_459_19076" x1="1.664" y1="-.767" x2="4.907" y2="4.801" gradientUnits="userSpaceOnUse"><stop stop-color="#FF2F01" stop-opacity=".2"/><stop offset="1" stop-color="#FF2F01" stop-opacity=".7"/></linearGradient><linearGradient id="paint17_linear_459_19076" x1="1.664" y1="-.767" x2="4.907" y2="4.801" gradientUnits="userSpaceOnUse"><stop stop-color="#FF2F01" stop-opacity=".2"/><stop offset="1" stop-color="#FF2F01" stop-opacity=".7"/></linearGradient><linearGradient id="paint18_linear_459_19076" x1="1.664" y1="-.767" x2="4.907" y2="4.801" gradientUnits="userSpaceOnUse"><stop stop-color="#FF2F01" stop-opacity=".2"/><stop offset="1" stop-color="#FF2F01" stop-opacity=".7"/></linearGradient><linearGradient id="paint19_linear_459_19076" x1="1.664" y1="-.767" x2="4.907" y2="4.801" gradientUnits="userSpaceOnUse"><stop stop-color="#FF2F01" stop-opacity=".2"/><stop offset="1" stop-color="#FF2F01" stop-opacity=".7"/></linearGradient><linearGradient id="paint20_linear_459_19076" x1="1.664" y1="-.767" x2="4.907" y2="4.801" gradientUnits="userSpaceOnUse"><stop stop-color="#FF2F01" stop-opacity=".2"/><stop offset="1" stop-color="#FF2F01" stop-opacity=".7"/></linearGradient><clipPath id="clip0_459_19076"><path fill="#fff" transform="matrix(-1 0 0 1 312 13.505)" d="M0 0h307v109.495H0z"/></clipPath><clipPath id="clip1_459_19076"><path fill="#fff" transform="matrix(-1 0 0 1 312 13.453)" d="M0 0h307v109.547H0z"/></clipPath></defs></svg>