<svg width="320" height="137" fill="none" xmlns="http://www.w3.org/2000/svg"><g opacity=".16" clip-path="url(#clip0_459_20039)"><path d="M23.978 32.356L8 15.093v121.842h559.243V39.908l-15.979-14.18-15.978 36.715-15.978-4.717-15.979 27.498-15.978-10.79-15.978 32.522-15.979-17.818-15.978 32.399-15.979-28.052-15.978 9.711-15.978-54.656-15.979-8.416-15.978 19.205-15.978 6.474-15.979-34.526-15.978 17.263-15.978 8.323-15.979-13.718-15.978 42.078-15.979-12.947-15.978 31.289-15.978-46.394-15.979 34.526-15.978 26.974-15.978-51.79-15.979 9.711-15.978-32.368-15.978 12.947L103.87 28.04 87.892 72.276 71.914 96.013l-15.98-49.631-15.977 12.947-15.979-26.973z" fill="#FF2F01"/></g><g clip-path="url(#clip1_459_20039)"><path d="M8 15.093l15.978 17.263 15.979 26.973 15.978-12.947 15.978 49.63 15.979-23.736L103.87 28.04l15.979 29.131 15.978-12.947 15.978 32.368 15.979-9.71 15.978 51.789 15.978-26.974 15.979-34.526 15.978 46.394 15.978-31.289 15.979 12.948 15.978-42.079 15.979 13.718 15.978-8.323 15.978-17.263 15.979 34.526 15.978-6.474 15.978-19.205 15.979 8.416 15.978 54.656 15.978-9.71 15.979 28.051 15.978-32.399 15.979 17.818 15.978-32.522 15.978 10.79 15.979-27.498 15.978 4.717 15.978-36.715 15.979 14.18" stroke="#FF2F01" stroke-width=".666"/></g><rect x="21.326" y="29.348" width="5.326" height="5.326" rx="2.663" fill="#FF2F01"/><rect x="20.993" y="29.015" width="5.992" height="5.992" rx="2.996" stroke="url(#paint0_linear_459_20039)" stroke-opacity=".4" stroke-width=".666"/><rect x="37.304" y="56.294" width="5.326" height="5.326" rx="2.663" fill="#FF2F01"/><rect x="36.972" y="55.962" width="5.992" height="5.992" rx="2.996" stroke="url(#paint1_linear_459_20039)" stroke-opacity=".4" stroke-width=".666"/><rect x="53.283" y="43.463" width="5.326" height="5.326" rx="2.663" fill="#FF2F01"/><rect x="52.95" y="43.13" width="5.992" height="5.992" rx="2.996" stroke="url(#paint2_linear_459_20039)" stroke-opacity=".4" stroke-width=".666"/><rect x="69.261" y="93.078" width="5.326" height="5.326" rx="2.663" fill="#FF2F01"/><rect x="68.928" y="92.746" width="5.992" height="5.992" rx="2.996" stroke="url(#paint3_linear_459_20039)" stroke-opacity=".4" stroke-width=".666"/><rect x="5.348" y="11.811" width="5.326" height="5.326" rx="2.663" fill="#FF2F01"/><rect x="5.015" y="11.479" width="5.992" height="5.992" rx="2.996" stroke="url(#paint4_linear_459_20039)" stroke-opacity=".4" stroke-width=".666"/><rect x="101.218" y="25.071" width="5.326" height="5.326" rx="2.663" fill="#FF2F01"/><rect x="100.885" y="24.738" width="5.992" height="5.992" rx="2.996" stroke="url(#paint5_linear_459_20039)" stroke-opacity=".4" stroke-width=".666"/><rect x="117.196" y="54.584" width="5.326" height="5.326" rx="2.663" fill="#FF2F01"/><rect x="116.863" y="54.251" width="5.992" height="5.992" rx="2.996" stroke="url(#paint6_linear_459_20039)" stroke-opacity=".4" stroke-width=".666"/><rect x="133.175" y="41.752" width="5.326" height="5.326" rx="2.663" fill="#FF2F01"/><rect x="132.842" y="41.419" width="5.992" height="5.992" rx="2.996" stroke="url(#paint7_linear_459_20039)" stroke-opacity=".4" stroke-width=".666"/><rect x="149.153" y="73.831" width="5.326" height="5.326" rx="2.663" fill="#FF2F01"/><rect x="148.82" y="73.498" width="5.992" height="5.992" rx="2.996" stroke="url(#paint8_linear_459_20039)" stroke-opacity=".4" stroke-width=".666"/><rect x="85.24" y="69.554" width="5.326" height="5.326" rx="2.663" fill="#FF2F01"/><rect x="84.907" y="69.221" width="5.992" height="5.992" rx="2.996" stroke="url(#paint9_linear_459_20039)" stroke-opacity=".4" stroke-width=".666"/><rect x="181.11" y="115.748" width="5.326" height="5.326" rx="2.663" fill="#FF2F01"/><rect x="180.777" y="115.415" width="5.992" height="5.992" rx="2.996" stroke="url(#paint10_linear_459_20039)" stroke-opacity=".4" stroke-width=".666"/><rect x="197.088" y="88.801" width="5.326" height="5.326" rx="2.663" fill="#FF2F01"/><rect x="196.755" y="88.468" width="5.992" height="5.992" rx="2.996" stroke="url(#paint11_linear_459_20039)" stroke-opacity=".4" stroke-width=".666"/><rect x="213.066" y="54.584" width="5.326" height="5.326" rx="2.663" fill="#FF2F01"/><rect x="212.734" y="54.251" width="5.992" height="5.992" rx="2.996" stroke="url(#paint12_linear_459_20039)" stroke-opacity=".4" stroke-width=".666"/><rect x="229.045" y="100.777" width="5.326" height="5.326" rx="2.663" fill="#FF2F01"/><rect x="228.712" y="100.445" width="5.992" height="5.992" rx="2.996" stroke="url(#paint13_linear_459_20039)" stroke-opacity=".4" stroke-width=".666"/><rect x="245.023" y="69.554" width="5.326" height="5.326" rx="2.663" fill="#FF2F01"/><rect x="244.69" y="69.221" width="5.992" height="5.992" rx="2.996" stroke="url(#paint14_linear_459_20039)" stroke-opacity=".4" stroke-width=".666"/><rect x="165.131" y="64.421" width="5.326" height="5.326" rx="2.663" fill="#FF2F01"/><rect x="164.798" y="64.088" width="5.992" height="5.992" rx="2.996" stroke="url(#paint15_linear_459_20039)" stroke-opacity=".4" stroke-width=".666"/><rect x="276.98" y="40.469" width="5.326" height="5.326" rx="2.663" fill="#FF2F01"/><rect x="276.647" y="40.136" width="5.992" height="5.992" rx="2.996" stroke="url(#paint16_linear_459_20039)" stroke-opacity=".6" stroke-width=".666"/><rect x="292.958" y="54.156" width="5.326" height="5.326" rx="2.663" fill="#FF2F01"/><rect x="292.625" y="53.823" width="5.992" height="5.992" rx="2.996" stroke="url(#paint17_linear_459_20039)" stroke-opacity=".6" stroke-width=".666"/><rect x="308.937" y="45.601" width="5.326" height="5.326" rx="2.663" fill="#FF2F01"/><rect x="308.604" y="45.269" width="5.992" height="5.992" rx="2.996" stroke="url(#paint18_linear_459_20039)" stroke-opacity=".6" stroke-width=".666"/><defs><linearGradient id="paint0_linear_459_20039" x1="25.606" y1="33.209" x2="28.926" y2="27.492" gradientUnits="userSpaceOnUse"><stop stop-color="#FF2F01" stop-opacity=".6"/><stop offset="1" stop-opacity="0"/><stop offset="1" stop-color="#FF2F01" stop-opacity=".4"/></linearGradient><linearGradient id="paint1_linear_459_20039" x1="41.584" y1="60.156" x2="44.904" y2="54.439" gradientUnits="userSpaceOnUse"><stop stop-color="#FF2F01" stop-opacity=".6"/><stop offset="1" stop-opacity="0"/><stop offset="1" stop-color="#FF2F01" stop-opacity=".4"/></linearGradient><linearGradient id="paint2_linear_459_20039" x1="57.563" y1="47.324" x2="60.883" y2="41.607" gradientUnits="userSpaceOnUse"><stop stop-color="#FF2F01" stop-opacity=".6"/><stop offset="1" stop-opacity="0"/><stop offset="1" stop-color="#FF2F01" stop-opacity=".4"/></linearGradient><linearGradient id="paint3_linear_459_20039" x1="73.541" y1="96.94" x2="76.861" y2="91.223" gradientUnits="userSpaceOnUse"><stop stop-color="#FF2F01" stop-opacity=".6"/><stop offset="1" stop-opacity="0"/><stop offset="1" stop-color="#FF2F01" stop-opacity=".4"/></linearGradient><linearGradient id="paint4_linear_459_20039" x1="9.628" y1="15.673" x2="12.947" y2="9.956" gradientUnits="userSpaceOnUse"><stop stop-color="#FF2F01" stop-opacity=".6"/><stop offset="1" stop-opacity="0"/><stop offset="1" stop-color="#FF2F01" stop-opacity=".4"/></linearGradient><linearGradient id="paint5_linear_459_20039" x1="105.498" y1="28.932" x2="108.818" y2="23.215" gradientUnits="userSpaceOnUse"><stop stop-color="#FF2F01" stop-opacity=".6"/><stop offset="1" stop-opacity="0"/><stop offset="1" stop-color="#FF2F01" stop-opacity=".4"/></linearGradient><linearGradient id="paint6_linear_459_20039" x1="121.476" y1="58.445" x2="124.796" y2="52.728" gradientUnits="userSpaceOnUse"><stop stop-color="#FF2F01" stop-opacity=".6"/><stop offset="1" stop-opacity="0"/><stop offset="1" stop-color="#FF2F01" stop-opacity=".4"/></linearGradient><linearGradient id="paint7_linear_459_20039" x1="137.455" y1="45.613" x2="140.774" y2="39.896" gradientUnits="userSpaceOnUse"><stop stop-color="#FF2F01" stop-opacity=".6"/><stop offset="1" stop-opacity="0"/><stop offset="1" stop-color="#FF2F01" stop-opacity=".4"/></linearGradient><linearGradient id="paint8_linear_459_20039" x1="153.433" y1="77.692" x2="156.753" y2="71.975" gradientUnits="userSpaceOnUse"><stop stop-color="#FF2F01" stop-opacity=".6"/><stop offset="1" stop-opacity="0"/><stop offset="1" stop-color="#FF2F01" stop-opacity=".4"/></linearGradient><linearGradient id="paint9_linear_459_20039" x1="89.519" y1="73.415" x2="92.839" y2="67.698" gradientUnits="userSpaceOnUse"><stop stop-color="#FF2F01" stop-opacity=".6"/><stop offset="1" stop-opacity="0"/><stop offset="1" stop-color="#FF2F01" stop-opacity=".4"/></linearGradient><linearGradient id="paint10_linear_459_20039" x1="185.39" y1="119.609" x2="188.709" y2="113.892" gradientUnits="userSpaceOnUse"><stop stop-color="#FF2F01" stop-opacity=".6"/><stop offset="1" stop-opacity="0"/><stop offset="1" stop-color="#FF2F01" stop-opacity=".4"/></linearGradient><linearGradient id="paint11_linear_459_20039" x1="201.368" y1="92.663" x2="204.688" y2="86.946" gradientUnits="userSpaceOnUse"><stop stop-color="#FF2F01" stop-opacity=".6"/><stop offset="1" stop-opacity="0"/><stop offset="1" stop-color="#FF2F01" stop-opacity=".4"/></linearGradient><linearGradient id="paint12_linear_459_20039" x1="217.346" y1="58.445" x2="220.666" y2="52.728" gradientUnits="userSpaceOnUse"><stop stop-color="#FF2F01" stop-opacity=".6"/><stop offset="1" stop-opacity="0"/><stop offset="1" stop-color="#FF2F01" stop-opacity=".4"/></linearGradient><linearGradient id="paint13_linear_459_20039" x1="233.325" y1="104.639" x2="236.645" y2="98.922" gradientUnits="userSpaceOnUse"><stop stop-color="#FF2F01" stop-opacity=".6"/><stop offset="1" stop-opacity="0"/><stop offset="1" stop-color="#FF2F01" stop-opacity=".4"/></linearGradient><linearGradient id="paint14_linear_459_20039" x1="249.303" y1="73.415" x2="252.623" y2="67.698" gradientUnits="userSpaceOnUse"><stop stop-color="#FF2F01" stop-opacity=".6"/><stop offset="1" stop-opacity="0"/><stop offset="1" stop-color="#FF2F01" stop-opacity=".4"/></linearGradient><linearGradient id="paint15_linear_459_20039" x1="169.411" y1="68.282" x2="172.731" y2="62.566" gradientUnits="userSpaceOnUse"><stop stop-color="#FF2F01" stop-opacity=".6"/><stop offset="1" stop-opacity="0"/><stop offset="1" stop-color="#FF2F01" stop-opacity=".4"/></linearGradient><linearGradient id="paint16_linear_459_20039" x1="278.644" y1="39.702" x2="281.887" y2="45.27" gradientUnits="userSpaceOnUse"><stop stop-color="#FF2F01" stop-opacity=".2"/><stop offset="1" stop-color="#FF2F01" stop-opacity=".7"/></linearGradient><linearGradient id="paint17_linear_459_20039" x1="294.623" y1="53.389" x2="297.865" y2="58.957" gradientUnits="userSpaceOnUse"><stop stop-color="#FF2F01" stop-opacity=".2"/><stop offset="1" stop-color="#FF2F01" stop-opacity=".7"/></linearGradient><linearGradient id="paint18_linear_459_20039" x1="310.601" y1="44.834" x2="313.843" y2="50.403" gradientUnits="userSpaceOnUse"><stop stop-color="#FF2F01" stop-opacity=".2"/><stop offset="1" stop-color="#FF2F01" stop-opacity=".7"/></linearGradient><clipPath id="clip0_459_20039"><path fill="#fff" transform="translate(8 15.093)" d="M0 0h307v121.843H0z"/></clipPath><clipPath id="clip1_459_20039"><path fill="#fff" transform="translate(8 15.093)" d="M0 0h307v106.445H0z"/></clipPath></defs></svg>