<svg width="309" height="123" fill="none" xmlns="http://www.w3.org/2000/svg"><rect width="126" height="30" rx="4" fill="url(#paint0_linear_459_19508)" fill-opacity=".6"/><rect x=".5" y=".5" width="125" height="29" rx="3.5" stroke="url(#paint1_linear_459_19508)" stroke-opacity=".4"/><path d="M260.92 21.454v-9h.972v1.04h.119c.074-.113.177-.258.307-.434.134-.18.324-.338.571-.478.25-.142.588-.213 1.014-.213.552 0 1.037.138 1.458.414.42.275.748.666.984 1.171.236.506.354 1.103.354 1.79 0 .694-.118 1.294-.354 1.803-.236.506-.562.898-.98 1.176a2.563 2.563 0 01-1.445.413c-.42 0-.757-.07-1.009-.208a1.867 1.867 0 01-.584-.482 6.326 6.326 0 01-.316-.452h-.085v3.46h-1.006zm.989-5.727c0 .495.073.93.217 1.308.145.375.357.67.635.883.279.21.62.315 1.023.315.421 0 .771-.11 1.053-.332.284-.225.497-.526.639-.904a3.54 3.54 0 00.217-1.27c0-.46-.071-.875-.213-1.244a1.922 1.922 0 00-.635-.882c-.281-.219-.635-.328-1.061-.328-.409 0-.753.103-1.031.31a1.863 1.863 0 00-.631.862c-.142.366-.213.794-.213 1.282zm7.33-5.454V19h-1.006v-8.727h1.006zm3.768 8.88c-.415 0-.791-.078-1.13-.234a1.939 1.939 0 01-.805-.686c-.199-.301-.298-.665-.298-1.091 0-.375.074-.679.221-.912a1.57 1.57 0 01.593-.554 3.12 3.12 0 01.818-.298 10.1 10.1 0 01.908-.162c.397-.051.72-.09.967-.115.25-.029.432-.075.545-.14.117-.066.175-.18.175-.342v-.034c0-.42-.115-.747-.345-.98-.227-.233-.573-.35-1.036-.35-.48 0-.856.106-1.129.316-.273.21-.464.435-.575.673l-.955-.34c.171-.398.398-.708.682-.93.287-.224.6-.38.938-.468a3.888 3.888 0 011.005-.137c.211 0 .452.026.725.077.275.048.541.15.797.303.258.153.473.384.643.694.171.31.256.725.256 1.245V19h-1.006v-.886h-.051a1.768 1.768 0 01-.341.456 1.97 1.97 0 01-.635.413c-.264.114-.587.17-.967.17zm.153-.903c.398 0 .733-.078 1.006-.234a1.597 1.597 0 00.835-1.385v-.92c-.043.05-.136.097-.281.14-.142.04-.307.075-.495.106a22.013 22.013 0 01-.963.128 3.91 3.91 0 00-.733.166 1.263 1.263 0 00-.545.337c-.136.148-.205.35-.205.605 0 .35.13.614.388.793.262.176.593.264.993.264zm7.529-5.796v.853h-3.392v-.853h3.392zm-2.403-1.568h1.005v6.239c0 .284.041.497.124.64a.64.64 0 00.324.28c.133.046.274.069.422.069.11 0 .201-.006.272-.017l.171-.035.204.904a2.035 2.035 0 01-.285.077 2.104 2.104 0 01-.465.042 2.01 2.01 0 01-.835-.183 1.658 1.658 0 01-.673-.558c-.176-.25-.264-.566-.264-.946v-6.512zM282.202 19v-6.546h1.005V19h-1.005zm.511-7.636a.715.715 0 01-.507-.2.645.645 0 01-.209-.482c0-.188.07-.348.209-.482a.715.715 0 01.507-.2.7.7 0 01.503.2.637.637 0 01.213.482.638.638 0 01-.213.481.7.7 0 01-.503.2zm3.342 3.698V19h-1.006v-6.546h.972v1.023h.085c.154-.332.387-.6.699-.8.313-.205.716-.308 1.21-.308.443 0 .831.091 1.164.273.332.179.591.452.775.818.185.364.277.824.277 1.38V19h-1.006v-4.09c0-.515-.133-.916-.4-1.203-.267-.29-.634-.434-1.1-.434-.321 0-.607.07-.86.209-.25.139-.448.342-.593.609-.145.267-.217.59-.217.972zm10.139 1.262v-3.87h1.006V19h-1.006v-1.108h-.068a2.152 2.152 0 01-.716.848c-.324.23-.733.345-1.227.345-.41 0-.773-.09-1.091-.268a1.87 1.87 0 01-.75-.818c-.182-.367-.273-.828-.273-1.385v-4.16h1.006v4.091c0 .478.133.858.4 1.142.27.285.614.427 1.031.427.25 0 .505-.064.763-.192a1.66 1.66 0 00.656-.588c.179-.264.269-.601.269-1.01zM299.042 19v-6.546h.971v1.023h.085c.137-.35.357-.62.661-.814.304-.196.669-.294 1.095-.294.432 0 .791.098 1.078.294.29.194.516.465.678.814h.068a1.91 1.91 0 01.754-.805c.335-.202.737-.303 1.206-.303.585 0 1.064.184 1.436.55.372.364.558.93.558 1.7V19h-1.005v-4.38c0-.484-.132-.829-.397-1.036a1.466 1.466 0 00-.933-.311c-.46 0-.817.139-1.069.417-.253.276-.38.625-.38 1.049V19h-1.022v-4.483c0-.372-.121-.672-.363-.9-.241-.23-.552-.344-.933-.344-.261 0-.505.07-.733.209a1.57 1.57 0 00-.545.58 1.704 1.704 0 00-.205.847V19h-1.005z" fill="#A19A99"/><rect y="31" width="239" height="30" rx="4" fill="url(#paint2_linear_459_19508)" fill-opacity=".6"/><rect x=".5" y="31.5" width="238" height="29" rx="3.5" stroke="url(#paint3_linear_459_19508)" stroke-opacity=".4"/><path d="M287.562 52.59c-.485 0-.903-.062-1.252-.187a2.656 2.656 0 01-.874-.485 2.674 2.674 0 01-.55-.64l.802-.562c.09.12.205.256.345.409.139.156.329.291.571.405.244.116.564.175.958.175.529 0 .965-.128 1.309-.384.343-.256.515-.656.515-1.202v-1.33h-.085a5.54 5.54 0 01-.315.444 1.794 1.794 0 01-.58.464c-.25.134-.588.2-1.014.2a2.73 2.73 0 01-1.423-.374 2.626 2.626 0 01-.993-1.091c-.242-.477-.362-1.057-.362-1.739 0-.67.118-1.254.353-1.751.236-.5.564-.887.985-1.16.42-.275.906-.413 1.457-.413.426 0 .764.071 1.014.213.253.14.446.299.58.478a7 7 0 01.315.434h.102v-1.04h.972v6.733c0 .563-.128 1.02-.383 1.373a2.185 2.185 0 01-1.023.78 3.861 3.861 0 01-1.424.25zm-.034-3.596c.404 0 .745-.092 1.023-.277.279-.184.49-.45.635-.797.145-.346.217-.76.217-1.244 0-.471-.071-.888-.213-1.248a1.875 1.875 0 00-.63-.848c-.279-.205-.622-.307-1.032-.307-.426 0-.781.108-1.065.324a1.974 1.974 0 00-.635.869 3.365 3.365 0 00-.209 1.21c0 .455.071.857.213 1.206.145.347.358.62.64.818.284.196.636.294 1.056.294zm7.364 1.142c-.591 0-1.109-.14-1.555-.422a2.861 2.861 0 01-1.04-1.18c-.247-.506-.371-1.096-.371-1.773 0-.681.124-1.277.371-1.785.25-.509.596-.904 1.04-1.185.446-.281.964-.422 1.555-.422s1.108.14 1.551.422a2.82 2.82 0 011.04 1.185c.25.508.375 1.104.375 1.785 0 .676-.125 1.267-.375 1.773-.247.506-.594.9-1.04 1.18-.443.282-.96.422-1.551.422zm0-.903c.449 0 .818-.115 1.108-.345.29-.23.504-.533.643-.908.14-.375.209-.781.209-1.219 0-.437-.069-.845-.209-1.223a2.056 2.056 0 00-.643-.916c-.29-.233-.659-.35-1.108-.35-.449 0-.818.117-1.108.35-.29.233-.504.538-.643.916-.14.378-.209.786-.209 1.223 0 .438.069.844.209 1.22.139.374.353.677.643.907.29.23.659.345 1.108.345zm5.507-7.96V50h-1.006v-8.727h1.006zm4.313 8.863a2.56 2.56 0 01-1.444-.413c-.418-.278-.745-.67-.98-1.176-.236-.509-.354-1.11-.354-1.803 0-.687.118-1.284.354-1.79.235-.505.564-.896.984-1.171.42-.276.906-.414 1.457-.414.427 0 .763.071 1.01.213.25.14.441.299.571.478.134.176.238.32.311.434h.086v-3.221h1.005V50h-.971v-1.006h-.12c-.073.12-.179.27-.315.452-.136.179-.331.34-.584.482-.253.139-.589.208-1.01.208zm.137-.903c.403 0 .744-.105 1.022-.315.279-.213.491-.508.635-.883a3.63 3.63 0 00.218-1.308c0-.488-.071-.916-.213-1.282a1.87 1.87 0 00-.631-.861c-.278-.208-.622-.311-1.031-.311-.426 0-.782.11-1.066.328-.281.216-.493.51-.635.882-.139.37-.208.784-.208 1.244 0 .466.071.89.213 1.27.145.378.358.68.639.904.284.221.636.332 1.057.332z" fill="#A19A99"/><rect y="62" width="179" height="30" rx="4" fill="url(#paint4_linear_459_19508)" fill-opacity=".6"/><rect x=".5" y="62.5" width="178" height="29" rx="3.5" stroke="url(#paint5_linear_459_19508)" stroke-opacity=".4"/><path d="M284.557 75.92l-.904.256a1.65 1.65 0 00-.251-.439 1.223 1.223 0 00-.443-.358c-.188-.094-.428-.14-.72-.14-.401 0-.735.092-1.002.277-.264.181-.396.413-.396.694 0 .25.091.448.273.593.181.144.466.265.852.362l.972.238c.585.142 1.021.36 1.308.652.287.29.43.664.43 1.121 0 .375-.108.71-.324 1.006a2.145 2.145 0 01-.895.699c-.383.17-.829.255-1.338.255-.667 0-1.22-.144-1.657-.434-.438-.29-.715-.713-.831-1.27l.954-.239c.091.353.263.617.516.793.256.176.589.264 1.001.264.469 0 .841-.1 1.117-.298.278-.202.417-.444.417-.725a.761.761 0 00-.238-.57c-.159-.157-.404-.273-.733-.35l-1.091-.256c-.6-.142-1.04-.362-1.321-.66-.279-.302-.418-.678-.418-1.13 0-.369.104-.696.311-.98.211-.284.496-.507.857-.669a3.004 3.004 0 011.236-.243c.647 0 1.156.142 1.525.427.372.283.637.658.793 1.124zM286.19 81v-6.546h1.006V81h-1.006zm.511-7.636a.715.715 0 01-.507-.2.645.645 0 01-.209-.482c0-.188.07-.348.209-.482a.715.715 0 01.507-.2.7.7 0 01.503.2.637.637 0 01.213.482.638.638 0 01-.213.481.7.7 0 01-.503.2zm3.342-1.091V81h-1.005v-8.727h1.005zm7.195 2.181L294.817 81h-1.023l-2.42-6.546h1.091l1.807 5.217h.068l1.807-5.217h1.091zm3.837 6.682c-.631 0-1.175-.139-1.632-.417a2.8 2.8 0 01-1.053-1.176c-.244-.506-.366-1.094-.366-1.765 0-.67.122-1.261.366-1.772a2.887 2.887 0 011.032-1.202c.443-.29.96-.435 1.551-.435.341 0 .677.057 1.01.17.332.114.635.3.907.555.273.253.49.588.652 1.005.162.418.243.932.243 1.543v.426h-5.045v-.87h4.022c0-.368-.073-.698-.221-.988a1.67 1.67 0 00-.622-.686 1.744 1.744 0 00-.946-.251c-.401 0-.748.1-1.04.298a1.96 1.96 0 00-.669.767 2.257 2.257 0 00-.235 1.014v.58c0 .494.086.913.256 1.257.173.34.414.6.72.78.307.176.664.264 1.07.264a2.2 2.2 0 00.716-.11c.216-.078.402-.191.558-.342.156-.153.277-.344.362-.57l.972.272c-.102.33-.274.62-.516.87-.241.246-.54.44-.895.579a3.316 3.316 0 01-1.197.204zm4.24-.136v-6.546h.972v.99h.068c.119-.325.335-.588.647-.79a1.908 1.908 0 011.057-.302c.074 0 .166.002.277.004.111.003.195.008.252.013v1.023a3.026 3.026 0 00-.235-.038 2.295 2.295 0 00-.379-.03 1.78 1.78 0 00-.852.2 1.47 1.47 0 00-.801 1.334V81h-1.006z" fill="#A19A99"/><rect y="93" width="309" height="30" rx="4" fill="url(#paint6_linear_459_19508)" fill-opacity=".6"/><rect x=".5" y="93.5" width="308" height="29" rx="3.5" stroke="url(#paint7_linear_459_19508)" stroke-opacity=".4"/><defs><linearGradient id="paint0_linear_459_19508" x1="39.375" y1="-4.32" x2="45.087" y2="36.885" gradientUnits="userSpaceOnUse"><stop stop-color="#FF2F01" stop-opacity=".2"/><stop offset="1" stop-color="#FF2F01" stop-opacity=".7"/></linearGradient><linearGradient id="paint1_linear_459_19508" x1="101.25" y1="21.75" x2="107.092" y2="-20.502" gradientUnits="userSpaceOnUse"><stop stop-color="#FF2F01" stop-opacity=".6"/><stop offset="1" stop-opacity="0"/><stop offset="1" stop-color="#FF2F01" stop-opacity=".4"/></linearGradient><linearGradient id="paint2_linear_459_19508" x1="74.688" y1="26.68" x2="77.741" y2="68.454" gradientUnits="userSpaceOnUse"><stop stop-color="#FF2F01" stop-opacity=".2"/><stop offset="1" stop-color="#FF2F01" stop-opacity=".7"/></linearGradient><linearGradient id="paint3_linear_459_19508" x1="192.054" y1="52.75" x2="195.176" y2="9.918" gradientUnits="userSpaceOnUse"><stop stop-color="#FF2F01" stop-opacity=".6"/><stop offset="1" stop-opacity="0"/><stop offset="1" stop-color="#FF2F01" stop-opacity=".4"/></linearGradient><linearGradient id="paint4_linear_459_19508" x1="55.938" y1="57.68" x2="59.997" y2="99.281" gradientUnits="userSpaceOnUse"><stop stop-color="#FF2F01" stop-opacity=".2"/><stop offset="1" stop-color="#FF2F01" stop-opacity=".7"/></linearGradient><linearGradient id="paint5_linear_459_19508" x1="143.839" y1="83.75" x2="147.991" y2="41.094" gradientUnits="userSpaceOnUse"><stop stop-color="#FF2F01" stop-opacity=".6"/><stop offset="1" stop-opacity="0"/><stop offset="1" stop-color="#FF2F01" stop-opacity=".4"/></linearGradient><linearGradient id="paint6_linear_459_19508" x1="96.563" y1="88.68" x2="98.929" y2="130.543" gradientUnits="userSpaceOnUse"><stop stop-color="#FF2F01" stop-opacity=".2"/><stop offset="1" stop-color="#FF2F01" stop-opacity=".7"/></linearGradient><linearGradient id="paint7_linear_459_19508" x1="248.304" y1="114.75" x2="250.724" y2="71.827" gradientUnits="userSpaceOnUse"><stop stop-color="#FF2F01" stop-opacity=".6"/><stop offset="1" stop-opacity="0"/><stop offset="1" stop-color="#FF2F01" stop-opacity=".4"/></linearGradient></defs></svg>