<svg width="46" height="183" fill="none" xmlns="http://www.w3.org/2000/svg"><mask id="a" fill="#fff"><path d="M45.455 173.672c-11.533-9.453-21.477-21.659-28.94-35.557-8.017-14.929-13.159-31.788-14.903-48.864-1.745-17.076-.09-34.345 4.798-50.05C11.038 24.326 18.557 10.874 28.27.061"/><path d="M46.008 174.545c-2.745-2.352-4.544-4.781-6.254-7.966a30.37 30.37 0 01-3.416-11.198c-.4-3.913-.02-7.87 1.1-11.469 1.06-3.408 2.783-6.491 5.009-8.969"/><path d="M15.313 183.008c.187-3.203 1.11-6.094 2.69-8.417 1.699-2.495 4.155-4.329 7.118-5.317 2.964-.988 6.432-1.127 10.05-.404 3.427.684 6.876 1.741 10.35 4.234"/></mask><path d="M16.515 138.115l-.88.474.88-.474zM1.612 89.251l-.995.102.995-.102zM6.41 39.2l-.955-.298.955.297zm33.344 127.378l-.881.473.88-.473zm-3.416-11.198l-.994.102.994-.102zm1.1-11.469l-.955-.297.955.297zM18.003 174.59l-.826-.563.826.563zm7.118-5.317l-.316-.949.316.949zm10.05-.404l.196-.981-.195.981zm10.284 4.802l.634-.774c-11.427-9.365-21.289-21.467-28.693-35.256l-.88.473-.882.474c7.521 14.006 17.547 26.316 29.188 35.856l.633-.773zm-28.94-35.557l.881-.473C9.442 122.83 4.338 106.097 2.606 89.149l-.994.102-.995.102c1.758 17.204 6.938 34.189 15.017 49.236l.881-.474zM1.612 89.251l.995-.102C.875 72.201 2.52 55.07 7.365 39.497L6.41 39.2l-.955-.297C.526 54.743-1.14 72.148.617 89.353l.995-.102zM6.41 39.2l.955.296C11.953 24.752 19.405 11.43 29.013.731l-.744-.668-.744-.669c-9.814 10.927-17.402 24.508-22.07 39.51l.955.296zm39.598 135.344l.65-.759c-2.632-2.257-4.36-4.581-6.023-7.68l-.881.473-.881.473c1.756 3.271 3.628 5.804 6.484 8.252l.65-.759zm-6.254-7.966l.88-.473a29.379 29.379 0 01-3.3-10.826l-.996.101-.994.102a31.373 31.373 0 003.529 11.569l.88-.473zm-3.416-11.198l.995-.101c-.386-3.785-.018-7.606 1.06-11.071l-.955-.297-.955-.297c-1.162 3.733-1.552 7.827-1.14 11.868l.995-.102zm1.1-11.469l.955.297c1.02-3.28 2.675-6.234 4.798-8.597l-.744-.669-.744-.668c-2.328 2.592-4.12 5.804-5.22 9.34l.955.297zm-22.125 39.096l.998.058c.178-3.049 1.054-5.76 2.519-7.912l-.827-.563-.826-.563c-1.697 2.493-2.666 5.565-2.863 8.921l.999.059zm2.69-8.417l.827.563c1.57-2.307 3.844-4.01 6.608-4.931l-.317-.949-.316-.949c-3.163 1.055-5.802 3.021-7.628 5.703l.826.563zm7.118-5.317l.317.949c2.77-.924 6.058-1.068 9.538-.373l.196-.98.195-.981c-3.758-.751-7.405-.616-10.562.436l.316.949zm10.05-.404l-.195.98c3.351.67 6.647 1.688 9.962 4.066l.582-.812.583-.813c-3.632-2.606-7.233-3.702-10.736-4.402l-.195.981z" fill="#fff" mask="url(#a)"/></svg>