<svg width="101" height="100" fill="none" xmlns="http://www.w3.org/2000/svg"><rect width="21" height="35" rx="2" transform="matrix(-1 0 0 1 89 47)" fill="#fff" fill-opacity=".2"/><rect x="-.25" y=".25" width="20.5" height="34.5" rx="1.75" transform="matrix(-1 0 0 1 88.5 47)" stroke="#fff" stroke-opacity=".2" stroke-width=".5"/><g clip-path="url(#clip0_581_1464)" stroke="#fff"><path d="M148 162.917L-22.877-133.052M143.67 165.417L-27.208-130.552M139.34 167.917L-31.538-128.052M135.01 170.417L-35.868-125.552M130.68 172.917L-40.198-123.052M126.35 175.417L-44.528-120.552m166.547 298.469L-48.858-118.052m166.547 298.469L-53.189-115.552m166.548 298.469L-57.519-113.052m166.548 298.469L-61.849-110.552m166.548 298.469L-66.179-108.052m166.548 298.469L-70.509-105.552M96.039 192.917L-74.84-103.052M91.709 195.417L-79.17-100.552M87.378 197.917L-83.499-98.052M83.048 200.417L-87.83-95.552M78.718 202.917L-92.16-93.052M74.388 205.417L-96.49-90.552M70.058 207.917L-100.82-88.052M65.728 210.417L-105.15-85.552M61.398 212.917L-109.48-83.052M57.067 215.417L-113.81-80.552M52.737 217.917L-118.14-78.052"/></g><circle cx=".987" cy=".987" r=".987" transform="matrix(0 -1 -1 0 37.656 83)" fill="#fff"/><circle cx=".987" cy=".987" r=".987" transform="matrix(0 -1 -1 0 37.656 77.156)" fill="#fff"/><circle cx=".987" cy=".987" r=".987" transform="matrix(0 -1 -1 0 37.656 71.313)" fill="#fff"/><circle cx=".987" cy=".987" r=".987" transform="matrix(0 -1 -1 0 37.656 65.469)" fill="#fff"/><circle cx=".987" cy=".987" r=".987" transform="matrix(0 -1 -1 0 37.656 59.625)" fill="#fff"/><circle cx=".987" cy=".987" r=".987" transform="matrix(0 -1 -1 0 37.656 53.782)" fill="#fff"/><circle cx=".987" cy=".987" r=".987" transform="matrix(0 -1 -1 0 37.656 47.938)" fill="#fff"/><circle cx=".987" cy=".987" r=".987" transform="matrix(0 -1 -1 0 37.656 42.094)" fill="#fff"/><circle cx=".987" cy=".987" r=".987" transform="matrix(0 -1 -1 0 37.656 36.25)" fill="#fff"/><circle cx=".987" cy=".987" r=".987" transform="matrix(0 -1 -1 0 37.656 30.407)" fill="#fff"/><circle cx=".987" cy=".987" r=".987" transform="matrix(0 -1 -1 0 37.656 24.563)" fill="#fff"/><circle cx=".987" cy=".987" r=".987" transform="matrix(0 -1 -1 0 37.656 18.72)" fill="#fff"/><circle cx=".987" cy=".987" r=".987" transform="matrix(0 -1 -1 0 33.656 83)" fill="#fff"/><circle cx=".987" cy=".987" r=".987" transform="matrix(0 -1 -1 0 33.656 77.156)" fill="#fff"/><circle cx=".987" cy=".987" r=".987" transform="matrix(0 -1 -1 0 33.656 71.313)" fill="#fff"/><circle cx=".987" cy=".987" r=".987" transform="matrix(0 -1 -1 0 33.656 65.469)" fill="#fff"/><circle cx=".987" cy=".987" r=".987" transform="matrix(0 -1 -1 0 33.656 59.625)" fill="#fff"/><circle cx=".987" cy=".987" r=".987" transform="matrix(0 -1 -1 0 33.656 53.782)" fill="#fff"/><circle cx=".987" cy=".987" r=".987" transform="matrix(0 -1 -1 0 33.656 47.938)" fill="#fff"/><circle cx=".987" cy=".987" r=".987" transform="matrix(0 -1 -1 0 33.656 42.094)" fill="#fff"/><circle cx=".987" cy=".987" r=".987" transform="matrix(0 -1 -1 0 33.656 36.25)" fill="#fff"/><circle cx=".987" cy=".987" r=".987" transform="matrix(0 -1 -1 0 33.656 30.407)" fill="#fff"/><circle cx=".987" cy=".987" r=".987" transform="matrix(0 -1 -1 0 33.656 24.563)" fill="#fff"/><circle cx=".987" cy=".987" r=".987" transform="matrix(0 -1 -1 0 33.656 18.72)" fill="#fff"/><circle cx=".987" cy=".987" r=".987" transform="matrix(0 -1 -1 0 29.656 83)" fill="#fff"/><circle cx=".987" cy=".987" r=".987" transform="matrix(0 -1 -1 0 29.656 77.156)" fill="#fff"/><circle cx=".987" cy=".987" r=".987" transform="matrix(0 -1 -1 0 29.656 71.313)" fill="#fff"/><circle cx=".987" cy=".987" r=".987" transform="matrix(0 -1 -1 0 29.656 65.469)" fill="#fff"/><circle cx=".987" cy=".987" r=".987" transform="matrix(0 -1 -1 0 29.656 59.625)" fill="#fff"/><circle cx=".987" cy=".987" r=".987" transform="matrix(0 -1 -1 0 29.656 53.782)" fill="#fff"/><circle cx=".987" cy=".987" r=".987" transform="matrix(0 -1 -1 0 29.656 47.938)" fill="#fff"/><circle cx=".987" cy=".987" r=".987" transform="matrix(0 -1 -1 0 29.656 42.094)" fill="#fff"/><circle cx=".987" cy=".987" r=".987" transform="matrix(0 -1 -1 0 29.656 36.25)" fill="#fff"/><circle cx=".987" cy=".987" r=".987" transform="matrix(0 -1 -1 0 29.656 30.407)" fill="#fff"/><circle cx=".987" cy=".987" r=".987" transform="matrix(0 -1 -1 0 29.656 24.563)" fill="#fff"/><circle cx=".987" cy=".987" r=".987" transform="matrix(0 -1 -1 0 29.656 18.72)" fill="#fff"/><circle cx=".987" cy=".987" r=".987" transform="matrix(0 -1 -1 0 25.656 83)" fill="#fff"/><circle cx=".987" cy=".987" r=".987" transform="matrix(0 -1 -1 0 25.656 77.156)" fill="#fff"/><circle cx=".987" cy=".987" r=".987" transform="matrix(0 -1 -1 0 25.656 71.313)" fill="#fff"/><circle cx=".987" cy=".987" r=".987" transform="matrix(0 -1 -1 0 25.656 65.469)" fill="#fff"/><circle cx=".987" cy=".987" r=".987" transform="matrix(0 -1 -1 0 25.656 59.625)" fill="#fff"/><circle cx=".987" cy=".987" r=".987" transform="matrix(0 -1 -1 0 25.656 53.782)" fill="#fff"/><circle cx=".987" cy=".987" r=".987" transform="matrix(0 -1 -1 0 25.656 47.938)" fill="#fff"/><circle cx=".987" cy=".987" r=".987" transform="matrix(0 -1 -1 0 25.656 42.094)" fill="#fff"/><circle cx=".987" cy=".987" r=".987" transform="matrix(0 -1 -1 0 25.656 36.25)" fill="#fff"/><circle cx=".987" cy=".987" r=".987" transform="matrix(0 -1 -1 0 25.656 30.407)" fill="#fff"/><circle cx=".987" cy=".987" r=".987" transform="matrix(0 -1 -1 0 25.656 24.563)" fill="#fff"/><circle cx=".987" cy=".987" r=".987" transform="matrix(0 -1 -1 0 25.656 18.72)" fill="#fff"/><circle cx=".987" cy=".987" r=".987" transform="matrix(0 -1 -1 0 21.656 83)" fill="#fff"/><circle cx=".987" cy=".987" r=".987" transform="matrix(0 -1 -1 0 21.656 77.156)" fill="#fff"/><circle cx=".987" cy=".987" r=".987" transform="matrix(0 -1 -1 0 21.656 71.313)" fill="#fff"/><circle cx=".987" cy=".987" r=".987" transform="matrix(0 -1 -1 0 21.656 65.469)" fill="#fff"/><circle cx=".987" cy=".987" r=".987" transform="matrix(0 -1 -1 0 21.656 59.625)" fill="#fff"/><circle cx=".987" cy=".987" r=".987" transform="matrix(0 -1 -1 0 21.656 53.782)" fill="#fff"/><circle cx=".987" cy=".987" r=".987" transform="matrix(0 -1 -1 0 21.656 47.938)" fill="#fff"/><circle cx=".987" cy=".987" r=".987" transform="matrix(0 -1 -1 0 21.656 42.094)" fill="#fff"/><circle cx=".987" cy=".987" r=".987" transform="matrix(0 -1 -1 0 21.656 36.25)" fill="#fff"/><circle cx=".987" cy=".987" r=".987" transform="matrix(0 -1 -1 0 21.656 30.407)" fill="#fff"/><circle cx=".987" cy=".987" r=".987" transform="matrix(0 -1 -1 0 21.656 24.563)" fill="#fff"/><circle cx=".987" cy=".987" r=".987" transform="matrix(0 -1 -1 0 21.656 18.72)" fill="#fff"/><circle cx=".987" cy=".987" r=".987" transform="matrix(0 -1 -1 0 21.656 12.876)" fill="#fff"/><path d="M98.5 50c1.105 0 2.004.896 1.96 2a50.004 50.004 0 01-30.826 44.194 49.996 49.996 0 01-54.49-10.839A50 50 0 0148.5.04c1.104-.044 2 .855 2 1.96v1c0 1.105-.896 1.995-2 2.044A45 45 0 1095.457 52c.049-1.104.94-2 2.044-2h1z" fill="#fff"/><defs><clipPath id="clip0_581_1464"><rect x="61" y="83" width="17" height="53" rx="2" transform="rotate(180 61 83)" fill="#fff"/></clipPath></defs></svg>