<svg width="183" height="46" fill="none" xmlns="http://www.w3.org/2000/svg"><mask id="a" fill="#fff"><path d="M173.609.707c-9.452 11.533-21.659 21.477-35.556 28.94-14.929 8.017-31.789 13.159-48.865 14.903-17.076 1.745-34.344.09-50.05-4.798C24.265 35.124 10.813 27.605 0 17.893"/><path d="M174.483.154c-2.353 2.745-4.782 4.544-7.967 6.254a30.368 30.368 0 01-11.197 3.416c-3.913.4-7.87.02-11.47-1.1-3.408-1.06-6.49-2.784-8.968-5.009"/><path d="M182.945 30.85c-3.202-.188-6.094-1.11-8.416-2.691-2.495-1.699-4.33-4.155-5.317-7.118-.988-2.964-1.128-6.432-.405-10.05.685-3.427 1.742-6.876 4.234-10.35"/></mask><path d="M138.053 29.647l.473.88-.473-.88zM89.188 44.55l.102.995-.102-.995zm-50.05-4.798l-.297.955.297-.955zM166.516 6.408l.474.881-.474-.88zm-11.197 3.416l.101.994-.101-.994zm-11.47-1.1l-.297.955.297-.955zm30.68 19.435l-.563.826.563-.826zm-5.317-7.118l-.949.316.949-.316zm-.405-10.05l-.98-.196.98.196zM172.836.073c-9.365 11.427-21.468 21.289-35.256 28.693l.946 1.762c14.006-7.521 26.317-17.547 35.857-29.188L172.836.073zM137.58 28.766c-14.813 7.954-31.546 13.058-48.493 14.79l.203 1.989c17.204-1.758 34.19-6.938 49.236-15.017l-.946-1.762zm-48.493 14.79c-16.948 1.73-34.08.086-49.652-4.759l-.594 1.91c15.84 4.929 33.245 6.596 50.449 4.838l-.203-1.99zm-49.652-4.759C24.69 34.21 11.367 26.757.668 17.15l-1.336 1.488C10.259 28.451 23.84 36.04 38.84 40.707l.594-1.91zM173.723-.497c-2.256 2.633-4.581 4.36-7.68 6.024l.947 1.762c3.27-1.756 5.804-3.628 8.252-6.484l-1.519-1.302zm-7.68 6.024a29.367 29.367 0 01-10.826 3.302l.203 1.99a31.373 31.373 0 0011.57-3.53l-.947-1.762zM155.217 8.83c-3.785.386-7.606.018-11.07-1.06l-.595 1.91c3.734 1.162 7.827 1.552 11.868 1.14l-.203-1.99zm-11.07-1.06c-3.281-1.02-6.234-2.675-8.598-4.798l-1.336 1.488c2.592 2.328 5.803 4.12 9.339 5.22l.595-1.91zm38.856 22.082c-3.048-.178-5.759-1.054-7.912-2.519l-1.125 1.653c2.493 1.697 5.564 2.666 8.921 2.863l.116-1.997zm-7.912-2.519c-2.307-1.57-4.01-3.844-4.931-6.608l-1.897.633c1.054 3.163 3.02 5.802 5.703 7.628l1.125-1.653zm-4.931-6.608c-.923-2.77-1.067-6.058-.372-9.538l-1.961-.391c-.751 3.758-.616 7.405.436 10.562l1.897-.633zm-.372-9.538c.669-3.351 1.687-6.647 4.066-9.962L172.228.06c-2.606 3.632-3.702 7.233-4.401 10.736l1.961.391z" fill="#fff" mask="url(#a)"/></svg>