<svg width="37" height="36" fill="none" xmlns="http://www.w3.org/2000/svg"><path d="M36.176 22.355c-2.404 9.644-12.173 15.513-21.818 13.108-9.64-2.404-15.51-12.172-13.105-21.816C3.657 4.002 13.424-1.868 23.067.537 32.71 2.94 38.58 12.71 36.176 22.355z" fill="#FF2F01"/><path d="M23.803 12h2.168l-4.512 4.467a4.216 4.216 0 01-5.918 0L11.028 12h2.17l3.427 3.393a2.67 2.67 0 003.748 0L23.803 12zM13.17 24.422H11l4.541-4.495a4.216 4.216 0 015.918 0L26 24.422h-2.168L20.375 21a2.67 2.67 0 00-3.747 0l-3.458 3.42z" fill="#fff"/></svg>