<svg width="101" height="100" fill="none" xmlns="http://www.w3.org/2000/svg"><mask id="a" fill="#fff"><path d="M98.5 50c1.105 0 2.004.896 1.96 2A50 50 0 01.54 52c-.044-1.104.855-2 1.96-2h1c1.105 0 1.995.896 2.044 2a45 45 0 0089.912 0c.049-1.104.94-2 2.044-2h1z"/></mask><path d="M98.5 50c1.105 0 2.004.896 1.96 2A50 50 0 01.54 52c-.044-1.104.855-2 1.96-2h1c1.105 0 1.995.896 2.044 2a45 45 0 0089.912 0c.049-1.104.94-2 2.044-2h1z" fill="#fff" stroke="#fff" stroke-opacity=".2" stroke-width="1.25" mask="url(#a)"/><circle cx="30.188" cy="41.563" r=".938" transform="rotate(-90 30.188 41.563)" fill="#fff"/><circle cx="30.188" cy="33.438" r=".938" transform="rotate(-90 30.188 33.438)" fill="#fff"/><circle cx="30.188" cy="25.313" r=".938" transform="rotate(-90 30.188 25.313)" fill="#fff"/><circle cx="30.188" cy="17.188" r=".938" transform="rotate(-90 30.188 17.188)" fill="#fff"/><circle cx="30.188" cy="9.063" r=".938" transform="rotate(-90 30.188 9.063)" fill="#fff"/><circle cx="30.188" cy=".938" r=".938" transform="rotate(-90 30.188 .938)" fill="#fff"/><circle cx="38.313" cy="41.563" r=".938" transform="rotate(-90 38.313 41.563)" fill="#fff"/><circle cx="38.313" cy="33.438" r=".938" transform="rotate(-90 38.313 33.438)" fill="#fff"/><circle cx="38.313" cy="25.313" r=".938" transform="rotate(-90 38.313 25.313)" fill="#fff"/><circle cx="38.313" cy="17.188" r=".938" transform="rotate(-90 38.313 17.188)" fill="#fff"/><circle cx="38.313" cy="9.063" r=".938" transform="rotate(-90 38.313 9.063)" fill="#fff"/><circle cx="38.313" cy=".938" r=".938" transform="rotate(-90 38.313 .938)" fill="#fff"/><circle cx="46.438" cy="41.563" r=".938" transform="rotate(-90 46.438 41.563)" fill="#fff"/><circle cx="46.438" cy="33.438" r=".938" transform="rotate(-90 46.438 33.438)" fill="#fff"/><circle cx="46.438" cy="25.313" r=".938" transform="rotate(-90 46.438 25.313)" fill="#fff"/><circle cx="46.438" cy="17.188" r=".938" transform="rotate(-90 46.438 17.188)" fill="#fff"/><circle cx="46.438" cy="9.063" r=".938" transform="rotate(-90 46.438 9.063)" fill="#fff"/><circle cx="46.438" cy=".938" r=".938" transform="rotate(-90 46.438 .938)" fill="#fff"/><circle cx="54.563" cy="41.563" r=".938" transform="rotate(-90 54.563 41.563)" fill="#fff"/><circle cx="54.563" cy="33.438" r=".938" transform="rotate(-90 54.563 33.438)" fill="#fff"/><circle cx="54.563" cy="25.313" r=".938" transform="rotate(-90 54.563 25.313)" fill="#fff"/><circle cx="54.563" cy="17.188" r=".938" transform="rotate(-90 54.563 17.188)" fill="#fff"/><circle cx="54.563" cy="9.063" r=".938" transform="rotate(-90 54.563 9.063)" fill="#fff"/><circle cx="54.563" cy=".938" r=".938" transform="rotate(-90 54.563 .938)" fill="#fff"/><circle cx="62.688" cy="41.563" r=".938" transform="rotate(-90 62.688 41.563)" fill="#fff"/><circle cx="62.688" cy="33.438" r=".938" transform="rotate(-90 62.688 33.438)" fill="#fff"/><circle cx="62.688" cy="25.313" r=".938" transform="rotate(-90 62.688 25.313)" fill="#fff"/><circle cx="62.688" cy="17.188" r=".938" transform="rotate(-90 62.688 17.188)" fill="#fff"/><circle cx="62.688" cy="9.063" r=".938" transform="rotate(-90 62.688 9.063)" fill="#fff"/><circle cx="62.688" cy=".938" r=".938" transform="rotate(-90 62.688 .938)" fill="#fff"/><circle cx="70.813" cy="41.563" r=".938" transform="rotate(-90 70.813 41.563)" fill="#fff"/><circle cx="70.813" cy="33.438" r=".938" transform="rotate(-90 70.813 33.438)" fill="#fff"/><circle cx="70.813" cy="25.313" r=".938" transform="rotate(-90 70.813 25.313)" fill="#fff"/><circle cx="70.813" cy="17.188" r=".938" transform="rotate(-90 70.813 17.188)" fill="#fff"/><circle cx="70.813" cy="9.063" r=".938" transform="rotate(-90 70.813 9.063)" fill="#fff"/><circle cx="70.813" cy=".938" r=".938" transform="rotate(-90 70.813 .938)" fill="#fff"/><rect x="35.188" y="88.75" width="63.75" height="6.25" rx="2" transform="rotate(-90 35.188 88.75)" fill="#fff" fill-opacity=".2"/><rect x="35.438" y="88.5" width="63.25" height="5.75" rx="1.75" transform="rotate(-90 35.438 88.5)" stroke="#fff" stroke-opacity=".2" stroke-width=".5"/><rect x="58.938" y="88.75" width="76.25" height="6.25" rx="2" transform="rotate(-90 58.938 88.75)" fill="#fff" fill-opacity=".2"/><rect x="59.188" y="88.5" width="75.75" height="5.75" rx="1.75" transform="rotate(-90 59.188 88.5)" stroke="#fff" stroke-opacity=".2" stroke-width=".5"/><rect x="11.438" y="65.625" width="28.125" height="6.25" rx="2" transform="rotate(-90 11.438 65.625)" fill="#fff" fill-opacity=".2"/><rect x="11.688" y="65.375" width="27.625" height="5.75" rx="1.75" transform="rotate(-90 11.688 65.375)" stroke="#fff" stroke-opacity=".2" stroke-width=".5"/><rect x="82.688" y="65.625" width="65.625" height="6.25" rx="2" transform="rotate(-90 82.688 65.625)" fill="#fff" fill-opacity=".2"/><rect x="82.938" y="65.375" width="65.125" height="5.75" rx="1.75" transform="rotate(-90 82.938 65.375)" stroke="#fff" stroke-opacity=".2" stroke-width=".5"/></svg>