<svg width="331" height="355" fill="none" xmlns="http://www.w3.org/2000/svg"><path d="M196.739 281.854c-16.759 1.822-34.481.18-51.604-4.802-18.394-5.352-36.068-14.552-51.227-26.665-15.16-12.113-27.782-27.122-36.586-43.501-8.336-15.511-13.236-32.229-14.271-48.626" stroke="#fff"/><mask id="a" fill="#fff"><path d="M197.882 282.1c-4.072.352-7.456-.119-11.38-1.261-4.215-1.226-8.265-3.335-11.739-6.11-3.474-2.776-6.366-6.216-8.384-9.969-1.91-3.554-3.033-7.385-3.27-11.143"/></mask><path d="M186.502 280.839l-.279.96.279-.96zm-11.739-6.11l-.624.781.624-.781zm-8.384-9.969l-.881.473.881-.473zm31.417 16.344c-3.925.339-7.184-.111-11.014-1.225l-.559 1.92c4.017 1.169 7.527 1.662 11.745 1.297l-.172-1.992zm-11.014-1.225a33.332 33.332 0 01-11.395-5.932l-1.248 1.563c3.574 2.856 7.741 5.026 12.084 6.289l.559-1.92zm-11.395-5.932c-3.373-2.695-6.176-6.031-8.127-9.66l-1.762.946c2.084 3.878 5.066 7.42 8.641 10.277l1.248-1.563zm-8.127-9.66c-1.847-3.437-2.926-7.129-3.153-10.733l-1.996.126c.247 3.911 1.414 7.881 3.387 11.553l1.762-.946z" fill="#fff" mask="url(#a)"/><mask id="b" fill="#fff"><path d="M180.406 313.567c-2.436-2.686-4.039-5.72-4.661-8.835-.668-3.346-.204-6.78 1.346-9.953 1.55-3.174 4.183-6.082 7.631-8.429 3.266-2.223 6.849-4.169 11.611-4.998"/></mask><path d="M175.745 304.732l-.98.196.98-.196zm1.346-9.953l-.899-.439.899.439zm7.631-8.429l-.563-.827.563.827zm-3.576 26.546c-2.332-2.573-3.838-5.447-4.42-8.36l-1.961.392c.662 3.317 2.361 6.51 4.9 9.311l1.481-1.343zm-4.42-8.36c-.624-3.123-.194-6.334 1.264-9.318l-1.798-.878c-1.642 3.363-2.14 7.019-1.427 10.588l1.961-.392zm1.264-9.318c1.46-2.991 3.964-5.774 7.295-8.042l-1.126-1.653c-3.566 2.428-6.328 5.461-7.967 8.817l1.798.878zm7.295-8.042c3.202-2.18 6.651-4.043 11.219-4.839l-.343-1.971c-4.954.864-8.672 2.891-12.002 5.157l1.126 1.653z" fill="#fff" mask="url(#b)"/><path d="M300.585 176.109c-7.381 12.957-17.744 24.81-30.19 34.501-13.371 10.411-29.127 18.311-45.668 22.899-16.54 4.588-33.841 5.856-50.145 3.677-15.439-2.065-29.963-7.218-42.253-14.975" stroke="#fff"/><mask id="c" fill="#fff"><path d="M301.353 175.417c-1.858 3.101-3.95 5.283-6.802 7.504a30.38 30.38 0 01-10.465 5.247c-3.791 1.052-7.755 1.342-11.491.843-3.538-.473-6.866-1.654-9.683-3.432"/></mask><path d="M294.551 182.921l.614.789-.614-.789zm-10.465 5.247l.267.964-.267-.964zm-11.491.843l-.133.991.133-.991zm27.9-14.108c-1.782 2.975-3.783 5.068-6.559 7.229l1.229 1.578c2.929-2.281 5.112-4.552 7.046-7.779l-1.716-1.028zm-6.559 7.229a29.368 29.368 0 01-10.118 5.073l.535 1.927a31.377 31.377 0 0010.812-5.422l-1.229-1.578zm-10.118 5.073c-3.666 1.016-7.494 1.295-11.091.815l-.265 1.982c3.876.518 7.976.216 11.891-.87l-.535-1.927zm-11.091.815c-3.405-.456-6.595-1.591-9.281-3.286l-1.068 1.691c2.947 1.86 6.414 3.086 10.084 3.577l.265-1.982z" fill="#fff" mask="url(#c)"/><mask id="d" fill="#fff"><path d="M314.851 204.255c-3.189.353-6.194-.071-8.749-1.239-2.745-1.255-4.966-3.368-6.437-6.124-1.472-2.756-2.192-6.15-2.087-9.839.099-3.493.562-7.07 2.436-10.913"/></mask><path d="M306.102 203.016l-.416.909.416-.909zm-6.437-6.124l-.882.471.882-.471zm-2.087-9.839l-.999-.029.999.029zm17.163 16.208c-3.036.336-5.855-.072-8.223-1.154l-.832 1.818c2.742 1.255 5.933 1.694 9.275 1.324l-.22-1.988zm-8.223-1.154c-2.538-1.161-4.599-3.116-5.971-5.686l-1.764.942c1.571 2.942 3.952 5.213 6.903 6.562l.832-1.818zm-5.971-5.686c-1.376-2.577-2.07-5.793-1.969-9.34l-1.999-.057c-.109 3.831.637 7.404 2.204 10.339l1.764-.942zm-1.969-9.34c.097-3.416.547-6.836 2.335-10.503l-1.798-.876c-1.959 4.018-2.435 7.752-2.536 11.322l1.999.057z" fill="#fff" mask="url(#d)"/><path fill-rule="evenodd" clip-rule="evenodd" d="M197.789 2.497a99.846 99.846 0 00-37.115 3.151 99.818 99.818 0 00-34.627 17.56 99.822 99.822 0 00-25.271 29.474 99.822 99.822 0 00-12.068 36.901 99.818 99.818 0 002.972 38.711 99.818 99.818 0 0017.56 34.627 99.82 99.82 0 0029.474 25.271 99.81 99.81 0 0036.901 12.068 99.806 99.806 0 0038.711-2.972 99.808 99.808 0 0034.627-17.559 99.833 99.833 0 0025.271-29.474 99.809 99.809 0 0012.068-36.902 99.803 99.803 0 00-2.972-38.71 99.796 99.796 0 00-17.56-34.627 99.82 99.82 0 00-29.474-25.272 99.816 99.816 0 00-38.238-12.22l-.259-.027zm-37.385 2.188a100.848 100.848 0 0137.488-3.182l.262.027a100.828 100.828 0 0138.623 12.343 100.823 100.823 0 0129.77 25.525 100.825 100.825 0 0117.736 34.975 100.826 100.826 0 013.002 39.1 100.823 100.823 0 01-12.189 37.272 100.826 100.826 0 01-25.526 29.77 100.802 100.802 0 01-34.974 17.736 100.807 100.807 0 01-39.1 3.002 100.827 100.827 0 01-37.273-12.189 100.837 100.837 0 01-29.77-25.525 100.83 100.83 0 01-17.736-34.975 100.822 100.822 0 01-3.002-39.1 100.821 100.821 0 0112.19-37.272 100.813 100.813 0 0125.525-29.77 100.815 100.815 0 0134.974-17.737zm10.007-2.024a46.24 46.24 0 002.905 3.551l-.297.268.297-.268a49.748 49.748 0 008.058 7.154c6.038 4.3 13.205 7.44 20.771 9.097 7.566 1.656 15.517 1.824 23.043.49 5.902-1.047 11.535-3.017 16.551-5.768l.481.876c-5.115 2.806-10.852 4.811-16.857 5.876-7.657 1.358-15.74 1.186-23.432-.497-7.692-1.684-14.984-4.877-21.137-9.26a50.788 50.788 0 01-8.22-7.298 47.425 47.425 0 01-2.968-3.627l.805-.594zM89.616 119.222c7.416 13.261 18.188 25.253 31.352 34.866 13.901 10.152 30.447 17.635 47.956 21.685 17.509 4.049 35.953 4.659 53.456 1.768 16.292-2.691 31.744-8.411 45.001-16.633l.527.85c-13.374 8.294-28.951 14.059-45.365 16.77-17.633 2.913-36.209 2.298-53.844-1.781-17.635-4.079-34.306-11.617-48.321-21.851-13.271-9.692-24.144-21.791-31.635-35.186l.873-.488zM201.678 3.044a106.37 106.37 0 00-10.693 4.608c-11.204 5.567-21.769 13.203-31.102 22.534-12.843 12.839-23.333 28.868-30.401 46.46-7.068 17.591-10.703 36.717-10.536 55.43.156 17.536 3.651 34.684 10.149 49.916l-.92.392c-6.552-15.359-10.072-32.639-10.229-50.299-.169-18.846 3.492-38.1 10.608-55.812 7.116-17.711 17.68-33.856 30.622-46.795 9.406-9.404 20.059-17.105 31.364-22.721a107.304 107.304 0 0110.794-4.652l.344.94zm-38.949 195.214L208.712 3.66l.973.23-45.983 194.598-.973-.23zM94.944 62.96a.5.5 0 01.707.014c11.325 11.757 25.834 22.87 40.838 31.022 15.006 8.153 31.477 14.22 48.516 17.87 17.038 3.65 34.636 4.882 51.833 3.627 11.359-.828 23.539-3.046 34.951-6.189 5.432-1.497 10.687-3.202 15.595-5.067a.5.5 0 01.356.935c-4.94 1.877-10.226 3.592-15.685 5.096-11.468 3.159-23.712 5.389-35.144 6.223-17.293 1.261-34.985.023-52.116-3.647-17.13-3.67-33.692-9.77-48.783-17.97-15.094-8.2-29.685-19.375-41.081-31.206a.5.5 0 01.013-.707zm146.981-11.115c-5.653-17.216-14.578-32.955-25.909-45.722l.748-.663c11.427 12.874 20.418 28.735 26.111 46.073 5.876 17.897 8.231 37.346 6.825 56.373-1.406 19.027-6.57 37.607-14.971 53.855-7.975 15.423-18.857 28.725-31.641 38.695l-.615-.789c12.663-9.875 23.454-23.061 31.367-38.365 8.337-16.123 13.466-34.572 14.863-53.47 1.396-18.898-.943-38.216-6.778-55.987z" fill="#fff"/></svg>