<svg width="183" height="46" fill="none" xmlns="http://www.w3.org/2000/svg"><mask id="a" fill="#fff"><path d="M173.609 44.558c-9.452-11.533-21.659-21.477-35.556-28.94C123.124 7.601 106.264 2.459 89.188.715 72.112-1.03 54.844.625 39.138 5.513 24.265 10.14 10.813 17.66 0 27.372"/><path d="M174.483 45.11c-2.353-2.744-4.782-4.544-7.967-6.254a30.368 30.368 0 00-11.197-3.415c-3.913-.4-7.87-.02-11.47 1.1-3.408 1.06-6.49 2.783-8.968 5.009"/><path d="M182.945 14.415c-3.202.188-6.094 1.11-8.416 2.691-2.495 1.699-4.33 4.154-5.317 7.118-.988 2.964-1.128 6.431-.405 10.05.685 3.427 1.742 6.875 4.234 10.35"/></mask><path d="M138.053 15.618l.473-.881-.473.881zM89.188.715l.102-.995-.102.995zm-50.05 4.798l-.297-.955.297.955zm127.378 33.343l.474-.88-.474.88zm-11.197-3.415l.101-.995-.101.995zm-11.47 1.1l-.297-.955.297.955zm30.68-19.435l-.563-.827.563.827zm-5.317 7.118l-.949-.316.949.316zm-.405 10.05l-.98.196.98-.196zm5.576 9.65c-9.54-11.64-21.851-21.666-35.857-29.187l-.946 1.762c13.788 7.404 25.891 17.266 35.256 28.693l1.547-1.268zm-35.857-29.187C123.48 6.657 106.494 1.477 89.29-.28l-.203 1.99c16.947 1.73 33.68 6.835 48.493 14.789l.946-1.762zM89.29-.28C72.086-2.038 54.681-.371 38.84 4.558l.595 1.91C55.007 1.622 72.139-.022 89.087 1.71l.203-1.99zM38.84 4.558c-15 4.668-28.581 12.256-39.508 22.07l1.336 1.488c10.699-9.61 24.022-17.06 38.767-21.648l-.594-1.91zM175.243 44.46c-2.448-2.857-4.982-4.729-8.252-6.485l-.947 1.762c3.099 1.664 5.424 3.391 7.68 6.024l1.519-1.301zm-8.252-6.485a31.372 31.372 0 00-11.57-3.529l-.203 1.99a29.367 29.367 0 0110.826 3.301l.947-1.762zm-11.57-3.529c-4.041-.413-8.134-.022-11.868 1.14l.595 1.91c3.464-1.079 7.285-1.447 11.07-1.06l.203-1.99zm-11.868 1.14c-3.536 1.1-6.747 2.892-9.339 5.22l1.336 1.488c2.364-2.123 5.317-3.778 8.598-4.798l-.595-1.91zm39.335-22.169c-3.357.196-6.428 1.166-8.921 2.862l1.125 1.654c2.153-1.465 4.864-2.341 7.912-2.52l-.116-1.996zm-8.921 2.862c-2.683 1.827-4.649 4.465-5.703 7.629l1.897.632c.921-2.763 2.624-5.037 4.931-6.607l-1.125-1.654zm-5.703 7.629c-1.052 3.156-1.187 6.804-.436 10.562l1.961-.392c-.695-3.479-.551-6.767.372-9.538l-1.897-.632zm-.436 10.562c.699 3.502 1.795 7.103 4.401 10.736l1.626-1.166c-2.379-3.315-3.397-6.61-4.066-9.962l-1.961.392z" fill="#fff" mask="url(#a)"/></svg>