<svg width="320" height="369" fill="none" xmlns="http://www.w3.org/2000/svg"><rect x=".883" y="249.429" width="80" height="35" rx="17.5" transform="rotate(-5.956 .883 249.429)" stroke="#fff"/><path d="M27.233 270.49c-.723.075-1.38-.041-1.973-.349-.592-.311-1.08-.786-1.462-1.424-.383-.642-.623-1.422-.719-2.341-.095-.912-.021-1.719.222-2.423.242-.703.623-1.266 1.143-1.69.52-.424 1.145-.673 1.876-.75.565-.059 1.02-.011 1.368.143.351.15.626.335.824.554.201.215.359.393.472.533l.113-.011-.446-4.273 1.334-.139 1.208 11.574-1.289.134-.139-1.334-.158.017c-.082.168-.2.383-.356.643-.156.256-.392.496-.707.719-.316.22-.753.358-1.31.417zm.056-1.217c.535-.056.973-.243 1.313-.56.34-.321.58-.74.72-1.258.14-.521.175-1.109.107-1.765-.068-.648-.221-1.205-.46-1.671-.24-.47-.558-.822-.956-1.054-.398-.237-.868-.327-1.41-.27-.565.059-1.021.253-1.368.582-.343.326-.583.745-.72 1.258a4.676 4.676 0 00-.104 1.679 4.81 4.81 0 00.458 1.655c.244.481.569.85.973 1.109.407.255.89.353 1.447.295zm10.19.148c-.837.087-1.577-.022-2.222-.328a3.74 3.74 0 01-1.559-1.414c-.394-.637-.637-1.4-.73-2.289-.093-.889-.013-1.69.24-2.402.257-.716.658-1.295 1.202-1.736.548-.446 1.213-.709 1.997-.791a4.133 4.133 0 011.363.086c.456.105.883.308 1.28.609.397.298.731.712 1.004 1.244.272.531.45 1.202.535 2.012l.06.565-6.692.698-.12-1.153 5.335-.557a2.864 2.864 0 00-.43-1.28 2.229 2.229 0 00-.92-.824c-.378-.185-.808-.252-1.29-.202-.531.055-.977.235-1.338.539-.357.3-.617.67-.78 1.11-.165.44-.221.899-.171 1.377l.08.769c.068.656.24 1.199.513 1.632a2.46 2.46 0 001.063.934c.431.191.916.259 1.455.203.35-.037.661-.119.934-.246.276-.132.507-.308.693-.53.186-.225.32-.494.401-.807l1.326.227c-.09.451-.277.859-.563 1.224a3.346 3.346 0 01-1.107.893 4.44 4.44 0 01-1.56.437zm8.18-.831a3.56 3.56 0 01-1.53-.154 2.592 2.592 0 01-1.164-.799c-.305-.372-.487-.84-.546-1.405-.052-.498.004-.911.167-1.24.164-.333.4-.606.71-.817a4.162 4.162 0 011.043-.509c.39-.132.784-.245 1.181-.34.52-.123.943-.218 1.267-.286.328-.073.563-.16.704-.262.145-.103.207-.262.185-.477l-.005-.045c-.058-.557-.256-.975-.593-1.252-.334-.277-.808-.384-1.422-.32-.637.066-1.121.258-1.454.574-.332.317-.556.641-.67.973l-1.313-.32c.171-.551.43-.993.776-1.326a3.41 3.41 0 011.178-.752 5.24 5.24 0 011.315-.32 5.33 5.33 0 01.971.002 3.1 3.1 0 011.1.291c.363.167.68.445.949.832.268.387.439.925.51 1.615l.597 5.719-1.333.139-.123-1.176-.068.007c-.07.198-.2.415-.389.652-.188.237-.45.449-.785.636-.334.187-.754.307-1.259.36zm.078-1.219c.527-.055.96-.205 1.3-.45a2.126 2.126 0 00.917-1.952l-.127-1.221c-.05.074-.168.149-.354.225a6.087 6.087 0 01-.64.21c-.242.063-.477.122-.708.177-.227.05-.411.092-.552.126a5.108 5.108 0 00-.95.322 1.685 1.685 0 00-.676.522c-.16.214-.223.491-.188.83.049.464.257.796.624.998.371.197.822.268 1.354.213zm6.439-11.366l1.207 11.573-1.333.14-1.208-11.574 1.334-.139zm9.096 3.941l-1.163.464a2.234 2.234 0 00-.394-.547 1.627 1.627 0 00-.637-.414c-.262-.098-.587-.127-.975-.087-.531.056-.961.225-1.29.506-.325.278-.468.603-.429.976.035.332.182.581.444.748.26.167.654.288 1.18.363l1.321.182c.796.107 1.404.335 1.825.683.421.345.663.82.726 1.427.052.497-.044.957-.29 1.378-.242.422-.605.772-1.09 1.051-.485.279-1.065.454-1.74.524-.884.093-1.637-.023-2.258-.347-.62-.324-1.046-.847-1.277-1.569l1.233-.449c.169.455.433.782.793.98.364.198.818.269 1.365.212.621-.065 1.101-.248 1.439-.55.341-.306.492-.645.454-1.018a1.017 1.017 0 00-.396-.725c-.233-.185-.573-.306-1.02-.362l-1.482-.188c-.815-.105-1.43-.336-1.844-.693-.41-.361-.647-.841-.71-1.44a2.161 2.161 0 01.277-1.343c.24-.405.587-.741 1.044-1.005.46-.265.995-.43 1.605-.493.859-.09 1.553.028 2.082.354.533.325.935.786 1.207 1.382z" fill="#fff"/><rect x=".883" y="333.64" width="80" height="35" rx="17.5" transform="rotate(-5.956 .883 333.64)" stroke="#fff"/><path d="M24.276 358.117l-1.245-11.935 1.289-.135.143 1.379.159-.016c.082-.161.197-.367.346-.619.153-.256.383-.493.692-.712.311-.223.75-.364 1.315-.423.73-.076 1.394.039 1.99.347.596.307 1.085.779 1.467 1.417.383.638.622 1.413.717 2.325.096.919.023 1.732-.22 2.439-.242.704-.621 1.269-1.136 1.696-.516.423-1.136.672-1.86.748-.557.058-1.013.012-1.367-.137-.355-.154-.636-.34-.841-.558a8.807 8.807 0 01-.48-.556l-.114.012.479 4.589-1.334.139zm.519-7.732c.068.656.225 1.224.47 1.705.243.477.564.838.963 1.082.398.24.865.332 1.4.277.558-.059 1.008-.254 1.35-.587.346-.337.586-.766.723-1.286a4.73 4.73 0 00.112-1.715 4.591 4.591 0 00-.455-1.62c-.236-.474-.557-.835-.964-1.082-.403-.251-.887-.347-1.452-.288-.543.056-.984.241-1.325.555-.34.31-.58.719-.717 1.229-.138.505-.173 1.082-.105 1.73zm8.839 3.465l-.906-8.68 1.289-.134.137 1.311.09-.01c.113-.446.363-.824.75-1.135.386-.311.84-.493 1.36-.547.098-.011.22-.021.367-.033.148-.012.26-.018.336-.018l.141 1.356a4.59 4.59 0 00-.316-.018 3.003 3.003 0 00-.507.013c-.422.044-.79.172-1.103.383-.31.208-.544.476-.704.805a1.96 1.96 0 00-.173 1.075l.573 5.493-1.334.139zm9.202-.777c-.784.082-1.49-.033-2.121-.344-.627-.312-1.14-.786-1.542-1.422-.398-.636-.644-1.403-.737-2.299-.094-.905-.013-1.711.244-2.42.262-.709.667-1.28 1.215-1.714.553-.435 1.221-.693 2.005-.775.783-.082 1.488.033 2.115.345.63.311 1.145.787 1.543 1.427.402.64.65 1.412.744 2.316.094.896.01 1.697-.252 2.403a3.774 3.774 0 01-1.215 1.709c-.55.434-1.215.692-1.999.774zm-.125-1.198c.595-.062 1.07-.266 1.422-.611.352-.345.594-.776.727-1.293a4.633 4.633 0 00.108-1.645 4.682 4.682 0 00-.446-1.593 2.749 2.749 0 00-.98-1.126c-.416-.269-.922-.372-1.517-.31-.596.062-1.07.268-1.421.617a2.745 2.745 0 00-.727 1.304 4.673 4.673 0 00-.108 1.65c.061.581.21 1.11.446 1.588.236.478.563.849.979 1.114.416.265.922.367 1.517.305zm9.035-8.689l.118 1.13-4.68.488-.117-1.13 4.679-.488zm-2.372 9.022l-1.03-9.878c-.053-.498.02-.924.22-1.28.199-.356.476-.636.832-.841.355-.205.74-.329 1.155-.372.328-.034.598-.036.81-.004.213.031.373.064.48.098l-.264 1.193a7.047 7.047 0 00-.292-.055 1.71 1.71 0 00-.469-.003c-.44.046-.747.191-.92.433-.169.243-.23.579-.186 1.008l.998 9.562-1.334.139zm5.147-.537l-.906-8.68 1.334-.139.905 8.68-1.333.139zm-.379-10.198a.955.955 0 01-.7-.195.858.858 0 01-.344-.61.858.858 0 01.21-.667.952.952 0 01.645-.336.933.933 0 01.695.196c.207.157.323.36.35.609a.85.85 0 01-.217.668.934.934 0 01-.639.335zm7.024.73l.118 1.13-4.498.469-.118-1.13 4.498-.469zm-3.404-1.747l1.334-.139.863 8.273c.04.377.123.654.252.831a.858.858 0 00.469.328c.183.041.373.052.569.032a2.44 2.44 0 00.359-.061l.221-.068.396 1.169a2.847 2.847 0 01-.978.262 2.692 2.692 0 01-1.133-.127 2.213 2.213 0 01-.97-.647c-.268-.307-.428-.713-.481-1.218l-.9-8.635z" fill="#fff"/><rect x="206.549" y="316.829" width="109" height="35" rx="17.5" transform="rotate(-5.956 206.549 316.829)" stroke="#fff"/><path d="M232.179 337.988c-.55.057-1.06.006-1.53-.155a2.579 2.579 0 01-1.163-.798c-.306-.372-.488-.841-.547-1.406-.052-.497.004-.91.168-1.24.163-.333.399-.605.709-.816a4.128 4.128 0 011.043-.509c.39-.132.784-.246 1.182-.34.52-.123.942-.219 1.267-.287.327-.072.562-.159.704-.262.145-.103.206-.261.184-.476l-.005-.045c-.058-.558-.256-.975-.593-1.252-.334-.278-.807-.384-1.422-.32-.636.066-1.121.258-1.453.574-.333.317-.556.641-.67.973l-1.313-.32c.171-.552.429-.994.775-1.327.35-.337.743-.588 1.179-.751a5.192 5.192 0 011.315-.32 5.32 5.32 0 01.971.001 3.1 3.1 0 011.099.291c.364.168.68.445.949.832.269.388.439.926.511 1.615l.597 5.719-1.334.139-.122-1.175-.068.007a2.382 2.382 0 01-.389.652c-.189.237-.45.449-.785.636s-.754.307-1.259.36zm.078-1.22c.528-.055.961-.205 1.301-.45.344-.245.591-.541.742-.888.154-.347.212-.702.174-1.064l-.127-1.22c-.049.073-.167.148-.354.225a6.516 6.516 0 01-.64.21 29.116 29.116 0 01-1.26.303 5.11 5.11 0 00-.949.321 1.69 1.69 0 00-.677.522c-.16.215-.222.492-.187.831.048.463.256.796.624.997.371.198.822.269 1.353.213zm9.858.16c-.813.085-1.534-.034-2.162-.357a3.778 3.778 0 01-1.522-1.446c-.387-.642-.625-1.396-.716-2.262-.092-.882-.011-1.677.243-2.385.257-.712.657-1.289 1.201-1.73.548-.446 1.214-.71 1.997-.792.611-.063 1.173-.008 1.686.167.513.175.947.45 1.303.824.355.374.598.829.73 1.364l-1.333.139c-.143-.385-.406-.712-.788-.981-.379-.272-.862-.378-1.45-.317-.52.054-.962.238-1.325.55-.36.308-.624.718-.791 1.231-.165.508-.212 1.09-.144 1.745.07.671.236 1.244.499 1.719.267.475.609.83 1.025 1.064.421.235.895.324 1.422.269a2.39 2.39 0 00.925-.279c.27-.15.491-.349.664-.595.172-.246.283-.532.333-.857l1.334-.14a3.112 3.112 0 01-.415 1.443 3.138 3.138 0 01-1.069 1.094c-.457.288-1.006.465-1.647.532zm8.89-.927c-.814.085-1.535-.034-2.163-.357a3.78 3.78 0 01-1.522-1.447c-.387-.641-.625-1.395-.716-2.262-.092-.881-.011-1.676.243-2.384.257-.713.657-1.29 1.202-1.731.547-.446 1.213-.709 1.997-.791a3.905 3.905 0 011.685.167c.513.175.948.449 1.303.824.355.374.599.828.731 1.363l-1.334.139c-.143-.385-.406-.712-.788-.98-.379-.273-.862-.379-1.45-.317-.52.054-.961.237-1.325.549-.36.308-.624.718-.791 1.231-.164.508-.212 1.09-.144 1.746.07.671.237 1.244.5 1.719.266.475.608.829 1.025 1.064.42.234.894.324 1.422.269.346-.037.654-.13.924-.28.27-.15.492-.348.664-.594.172-.247.283-.533.333-.858l1.334-.139a3.107 3.107 0 01-.415 1.443 3.155 3.155 0 01-1.069 1.094c-.457.288-1.006.465-1.646.532zm8.889-.928c-.784.082-1.491-.033-2.121-.344-.627-.312-1.141-.786-1.542-1.422-.398-.636-.644-1.402-.737-2.299-.095-.904-.013-1.711.244-2.419.261-.709.666-1.281 1.215-1.715.553-.435 1.221-.693 2.004-.775.784-.082 1.489.033 2.116.345.63.311 1.145.787 1.543 1.427.402.64.65 1.412.744 2.316.094.897.01 1.698-.252 2.403a3.768 3.768 0 01-1.216 1.709c-.548.434-1.215.692-1.998.774zm-.125-1.198c.595-.062 1.069-.266 1.421-.611.353-.345.595-.776.728-1.293a4.615 4.615 0 00.108-1.645 4.668 4.668 0 00-.446-1.593 2.745 2.745 0 00-.98-1.126c-.416-.269-.922-.372-1.518-.31-.595.062-1.068.268-1.42.617a2.74 2.74 0 00-.727 1.304 4.702 4.702 0 00-.108 1.651c.061.58.209 1.109.446 1.587.236.478.563.85.979 1.115.416.265.922.366 1.517.304zm11.175-3.725l-.535-5.131 1.333-.139.906 8.68-1.334.139-.153-1.469-.09.009c-.158.462-.435.87-.833 1.224-.397.35-.924.559-1.579.627a2.915 2.915 0 01-1.484-.205c-.447-.197-.817-.524-1.108-.981-.292-.461-.476-1.061-.553-1.799l-.576-5.516 1.334-.139.566 5.425c.066.633.296 1.12.689 1.459.397.34.873.481 1.427.423.331-.035.66-.155.985-.36.329-.206.592-.496.789-.871.2-.375.273-.834.216-1.376zm4.935-2.206l.545 5.222-1.333.139-.906-8.68 1.288-.135.142 1.357.113-.012c.157-.462.429-.849.816-1.159.386-.315.907-.506 1.562-.575.588-.061 1.115.006 1.581.201.465.191.846.517 1.142.978.295.456.481 1.054.558 1.792l.575 5.516-1.333.139-.566-5.425c-.071-.682-.304-1.195-.698-1.538-.394-.348-.9-.489-1.518-.425a2.352 2.352 0 00-1.113.396c-.312.22-.546.516-.701.89-.155.375-.206.814-.154 1.319zm11.39-4.684l.118 1.13-4.499.469-.118-1.13 4.499-.469zm-3.404-1.748l1.333-.139.863 8.274c.04.376.124.653.253.83a.85.85 0 00.468.328c.184.042.373.053.569.032a2.31 2.31 0 00.359-.06l.222-.069.396 1.17a2.84 2.84 0 01-.368.141 2.786 2.786 0 01-.61.121 2.707 2.707 0 01-1.133-.127 2.214 2.214 0 01-.97-.648c-.268-.307-.429-.713-.482-1.218l-.9-8.635zm11.606 2.857l-1.163.464a2.216 2.216 0 00-.394-.547 1.64 1.64 0 00-.637-.414c-.262-.098-.587-.127-.975-.086-.531.055-.961.224-1.289.505-.326.278-.469.603-.43.976.035.332.183.581.444.748.261.167.654.288 1.18.363l1.322.182c.795.107 1.404.335 1.825.683.42.345.662.82.725 1.427.052.497-.044.957-.29 1.378-.242.422-.605.772-1.09 1.051-.485.279-1.065.454-1.739.524-.885.093-1.638-.023-2.258-.347-.621-.324-1.047-.847-1.278-1.569l1.233-.448c.169.454.434.781.793.979.364.199.819.269 1.365.212.621-.065 1.101-.248 1.439-.55.341-.306.493-.645.454-1.018a1.02 1.02 0 00-.396-.725c-.232-.185-.572-.306-1.02-.362l-1.482-.188c-.815-.105-1.429-.336-1.843-.693-.411-.361-.648-.841-.711-1.44a2.162 2.162 0 01.277-1.342c.24-.406.588-.742 1.044-1.006.46-.265.995-.43 1.605-.493.859-.09 1.553.028 2.082.354.533.325.935.786 1.207 1.382z" fill="#fff"/><rect x="50.657" y="274.547" width="164" height="35" rx="17.5" transform="rotate(10 50.657 274.547)" stroke="#fff"/><path d="M69.482 301.937a3.552 3.552 0 01-1.428-.569 2.586 2.586 0 01-.9-1.087c-.19-.442-.237-.942-.138-1.502.087-.492.254-.874.502-1.146.248-.275.55-.472.906-.59a4.165 4.165 0 011.143-.203c.412-.019.821-.02 1.23-.002a53.1 53.1 0 011.297.073c.334.02.584.001.748-.059.168-.058.271-.194.309-.407l.008-.045c.097-.552.021-1.007-.227-1.366-.244-.359-.67-.592-1.279-.699-.63-.111-1.149-.06-1.555.153-.407.213-.711.463-.912.751l-1.174-.669c.316-.483.686-.837 1.11-1.062a3.423 3.423 0 011.34-.399c.468-.04.92-.022 1.352.054.276.049.587.138.933.269.351.127.676.321.977.582.304.261.532.614.684 1.061.152.446.168 1.01.047 1.693l-.998 5.662-1.32-.233.205-1.163-.068-.012a2.38 2.38 0 01-.553.52 2.636 2.636 0 01-.93.395c-.372.088-.809.088-1.309 0zm.41-1.151c.523.092.981.068 1.376-.075a2.126 2.126 0 001.417-1.625l.213-1.208c-.068.057-.202.097-.402.119a6.24 6.24 0 01-.674.026 32.65 32.65 0 01-1.294-.055c-.35-.016-.684 0-1 .048-.313.045-.577.15-.795.316-.213.162-.35.411-.409.747-.08.459.028.836.326 1.131.303.291.717.484 1.243.576zm9.435 2.864c-.806-.142-1.466-.455-1.98-.938a3.775 3.775 0 01-1.066-1.809c-.196-.723-.218-1.513-.067-2.371.154-.873.45-1.615.889-2.226.443-.615.987-1.059 1.631-1.334.65-.278 1.362-.348 2.138-.212a3.92 3.92 0 011.574.624c.446.31.788.693 1.026 1.15.239.458.348.962.328 1.512l-1.32-.233c-.032-.409-.195-.796-.488-1.159-.29-.366-.725-.601-1.307-.703a2.355 2.355 0 00-1.425.164c-.431.197-.798.519-1.1.966-.297.443-.503.99-.617 1.639-.118.664-.115 1.26.007 1.79.126.529.357.964.693 1.305.34.34.771.557 1.293.649.343.06.665.056.966-.015.301-.07.568-.199.802-.389.233-.19.419-.434.556-.733l1.32.233a3.104 3.104 0 01-.795 1.273 3.13 3.13 0 01-1.328.758c-.52.151-1.096.171-1.73.059zm8.802 1.552c-.806-.142-1.466-.455-1.981-.938a3.776 3.776 0 01-1.066-1.809c-.195-.723-.217-1.513-.066-2.371.154-.873.45-1.615.888-2.226.444-.615.987-1.059 1.632-1.334.649-.278 1.361-.348 2.137-.212a3.92 3.92 0 011.575.624c.445.31.787.693 1.026 1.15.239.458.348.962.328 1.512l-1.32-.233c-.032-.409-.195-.796-.489-1.159-.289-.366-.725-.601-1.306-.703a2.355 2.355 0 00-1.426.164c-.43.197-.797.519-1.099.966-.297.443-.503.99-.618 1.639-.117.664-.114 1.26.008 1.79.126.529.357.964.693 1.305.34.34.77.557 1.293.649.343.06.665.055.966-.015.3-.07.568-.199.802-.389.233-.19.418-.434.556-.733l1.32.233c-.164.494-.43.919-.796 1.273a3.13 3.13 0 01-1.328.758c-.518.151-1.095.171-1.73.059zm8.802 1.552c-.776-.137-1.424-.442-1.945-.914-.517-.472-.88-1.069-1.092-1.791-.208-.721-.233-1.526-.076-2.413.157-.896.457-1.649.9-2.259.446-.61.992-1.048 1.64-1.315.65-.266 1.364-.331 2.14-.194.775.137 1.422.441 1.938.913.521.473.885 1.072 1.091 1.797.211.725.237 1.536.079 2.431-.156.888-.457 1.635-.902 2.241a3.77 3.77 0 01-1.639 1.309c-.647.267-1.358.332-2.134.195zm.209-1.186c.59.104 1.1.038 1.534-.197a2.714 2.714 0 001.056-1.043c.27-.46.455-.977.556-1.552a4.693 4.693 0 00.009-1.654 2.747 2.747 0 00-.633-1.352c-.326-.373-.784-.612-1.374-.715-.59-.104-1.101-.037-1.535.202a2.75 2.75 0 00-1.058 1.054c-.27.464-.456.983-.557 1.557a4.634 4.634 0 00-.008 1.649c.096.525.308.972.635 1.341s.785.606 1.375.71zm11.768-.51l.896-5.081 1.321.233-1.516 8.595-1.32-.233.256-1.455-.089-.016a2.864 2.864 0 01-1.137.948c-.478.227-1.042.284-1.691.169a2.903 2.903 0 01-1.37-.605c-.376-.312-.641-.728-.796-1.248-.153-.523-.166-1.15-.037-1.881l.963-5.462 1.32.233-.947 5.372c-.11.627-.023 1.157.262 1.592.288.436.707.702 1.255.799.329.057.677.032 1.046-.076.373-.107.706-.314.998-.62.296-.305.492-.727.586-1.264zm5.352-.764l-.911 5.17-1.321-.233 1.516-8.594 1.275.225-.236 1.343.111.019a2.5 2.5 0 011.104-.89c.457-.196 1.011-.237 1.66-.122.582.102 1.07.311 1.464.627.395.312.671.73.829 1.254.158.52.173 1.146.044 1.877l-.963 5.461-1.32-.233.947-5.371c.119-.676.036-1.232-.248-1.671-.283-.442-.731-.717-1.343-.825a2.326 2.326 0 00-1.179.075 1.98 1.98 0 00-.918.663c-.252.317-.423.725-.511 1.225zm12.239-1.373l-.198 1.119-4.454-.785.198-1.119 4.454.785zm-2.793-2.616l1.32.233-1.444 8.192c-.066.373-.061.662.014.868.08.203.2.351.36.444.165.091.344.153.538.188.146.025.267.039.362.04l.232-.005.06 1.234a2.838 2.838 0 01-.393.034 2.825 2.825 0 01-.62-.051 2.71 2.71 0 01-1.054-.434 2.218 2.218 0 01-.755-.889c-.173-.369-.216-.804-.128-1.304l1.508-8.55zm7.874 12.374l2.021-11.46 1.32.233-.746 4.23.112.02c.124-.132.291-.299.504-.5.217-.204.503-.368.86-.494.361-.129.822-.144 1.381-.045.724.128 1.33.421 1.818.88s.829 1.048 1.021 1.767c.193.718.21 1.529.05 2.432-.16.91-.454 1.672-.881 2.285-.427.609-.947 1.048-1.56 1.317-.612.265-1.276.335-1.992.209-.552-.098-.978-.267-1.278-.508-.299-.245-.517-.501-.655-.768a8.772 8.772 0 01-.31-.666l-.156-.028-.233 1.321-1.276-.225zm2.056-4.068c-.114.649-.12 1.238-.017 1.768.103.526.313.961.629 1.305.317.34.74.557 1.27.651.552.097 1.038.033 1.459-.193.425-.229.774-.575 1.048-1.038a4.728 4.728 0 00.58-1.617 4.608 4.608 0 00.008-1.684c-.096-.52-.306-.956-.629-1.305-.319-.352-.758-.578-1.318-.676-.537-.095-1.012-.038-1.426.169-.413.204-.755.533-1.027.985-.272.448-.464.993-.577 1.635zm10.045 6.409a3.535 3.535 0 01-1.428-.569 2.581 2.581 0 01-.899-1.087c-.191-.442-.238-.942-.139-1.502.087-.492.254-.874.502-1.146.249-.275.551-.472.906-.59a4.133 4.133 0 011.143-.202c.412-.02.821-.021 1.23-.003.534.025.966.049 1.297.073.334.021.584.001.748-.058.168-.059.271-.195.309-.407l.008-.045c.097-.552.022-1.008-.227-1.367-.244-.359-.67-.591-1.278-.699-.631-.111-1.15-.06-1.556.153-.407.213-.711.463-.912.751l-1.174-.669c.316-.483.686-.837 1.11-1.062a3.41 3.41 0 011.34-.398 5.134 5.134 0 011.352.054c.276.048.587.138.933.268.351.127.677.321.977.582.304.261.532.615.684 1.061.152.446.168 1.01.047 1.693l-.998 5.663-1.321-.233.206-1.164-.067-.012a2.365 2.365 0 01-.554.52 2.615 2.615 0 01-.929.396c-.373.088-.81.088-1.31-.001zm.411-1.15c.522.092.98.067 1.375-.075a2.128 2.128 0 001.417-1.625l.213-1.209c-.068.057-.202.097-.402.12-.195.019-.42.027-.673.025a27.675 27.675 0 01-.729-.025 31.223 31.223 0 00-.566-.03c-.351-.016-.684 0-1.001.048a1.694 1.694 0 00-.794.316c-.213.163-.349.412-.408.747-.081.459.027.836.325 1.131.303.292.717.484 1.243.577zm9.315-9.158l-2.02 11.459-1.321-.232 2.021-11.46 1.32.233zm2.892 12.533a3.529 3.529 0 01-1.428-.569 2.58 2.58 0 01-.899-1.087c-.192-.442-.238-.942-.139-1.502.087-.492.254-.874.502-1.146.248-.275.55-.472.906-.59a4.12 4.12 0 011.143-.202c.412-.02.821-.021 1.23-.003.534.025.966.049 1.296.073.335.021.585.001.749-.058.168-.059.271-.195.309-.408l.007-.044c.098-.552.022-1.008-.226-1.367-.244-.359-.671-.592-1.279-.699-.63-.111-1.149-.06-1.555.153-.407.213-.711.463-.912.751l-1.174-.669c.316-.483.686-.837 1.11-1.062a3.405 3.405 0 011.34-.398 5.18 5.18 0 011.352.053c.276.049.587.139.933.269.351.127.676.321.977.582.304.261.532.615.684 1.061.152.446.168 1.01.047 1.693l-.998 5.662-1.321-.232.206-1.164-.068-.012a2.338 2.338 0 01-.553.52 2.632 2.632 0 01-.929.395c-.373.088-.81.088-1.31 0zm.411-1.15c.522.092.98.067 1.375-.075.398-.142.717-.359.957-.651.243-.291.397-.616.46-.974l.213-1.209c-.068.057-.202.097-.402.119a6.24 6.24 0 01-.674.026 32.696 32.696 0 01-1.294-.055c-.351-.016-.684 0-1.001.048a1.694 1.694 0 00-.794.316c-.213.162-.349.411-.409.747-.08.459.028.836.326 1.131.303.292.717.484 1.243.577zm8.206-2.869l-.911 5.17-1.321-.233 1.516-8.594 1.275.225-.236 1.343.111.019a2.5 2.5 0 011.104-.89c.457-.196 1.011-.237 1.66-.122.582.102 1.07.311 1.464.627.395.312.672.73.829 1.254.158.52.173 1.146.044 1.877l-.963 5.461-1.32-.233.947-5.371c.119-.676.036-1.232-.248-1.671-.283-.442-.731-.717-1.343-.825a2.322 2.322 0 00-1.178.075 1.977 1.977 0 00-.919.663c-.252.317-.423.725-.511 1.225zm10.445 7.357c-.805-.142-1.466-.454-1.981-.937a3.781 3.781 0 01-1.065-1.809c-.196-.723-.218-1.514-.067-2.372.154-.873.45-1.615.889-2.226.443-.614.987-1.059 1.631-1.334.649-.277 1.362-.348 2.138-.211a3.892 3.892 0 011.574.624c.446.309.788.692 1.027 1.15.238.457.347.961.327 1.512l-1.32-.233c-.032-.41-.195-.796-.488-1.159-.29-.367-.725-.601-1.307-.704a2.354 2.354 0 00-1.425.164c-.431.197-.798.519-1.099.966-.298.444-.504.99-.618 1.639-.117.664-.115 1.261.007 1.79.126.53.357.965.693 1.305.34.341.771.557 1.293.649.344.061.666.056.967-.014.3-.07.567-.2.801-.39.233-.189.419-.433.556-.732l1.321.232a3.11 3.11 0 01-.796 1.274 3.152 3.152 0 01-1.328.758c-.519.151-1.096.17-1.73.058zm8.914 1.572c-.828-.146-1.51-.455-2.046-.926a3.74 3.74 0 01-1.11-1.788c-.204-.721-.228-1.521-.073-2.402.155-.88.452-1.628.892-2.242.443-.618.987-1.065 1.632-1.34.649-.277 1.362-.348 2.137-.211.448.079.877.231 1.287.457.41.227.765.539 1.064.938.299.395.507.886.623 1.472.116.585.103 1.279-.038 2.081l-.099.56-6.625-1.168.201-1.142 5.282.932a2.856 2.856 0 00-.062-1.35 2.224 2.224 0 00-.658-1.045c-.312-.282-.706-.465-1.184-.549-.526-.093-1.004-.042-1.434.151a2.61 2.61 0 00-1.056.852 3.015 3.015 0 00-.543 1.278l-.134.761c-.114.649-.099 1.219.045 1.71.148.487.403.884.765 1.19.362.303.81.501 1.343.595.347.061.669.068.966.02.301-.051.572-.157.812-.318.24-.166.443-.387.608-.666l1.212.583c-.21.409-.503.75-.878 1.022a3.353 3.353 0 01-1.309.554 4.415 4.415 0 01-1.62-.009z" fill="#fff"/><path d="M253.289 112.913A100.332 100.332 0 01241.16 150a100.335 100.335 0 01-25.398 29.622 100.313 100.313 0 01-34.801 17.648 100.334 100.334 0 01-38.905 2.987 100.332 100.332 0 01-37.087-12.129 100.312 100.312 0 01-29.623-25.398 100.323 100.323 0 01-17.648-34.801 100.318 100.318 0 01-2.986-38.905A100.32 100.32 0 0166.84 51.937a100.32 100.32 0 0125.398-29.622A100.316 100.316 0 01127.04 4.667a100.345 100.345 0 0138.906-2.987 100.32 100.32 0 0137.086 12.129 100.32 100.32 0 0129.623 25.398 100.327 100.327 0 0117.648 34.8 100.335 100.335 0 012.987 38.906z" stroke="#fff"/></svg>