<svg width="109" height="120" fill="none" xmlns="http://www.w3.org/2000/svg"><g clip-path="url(#clip0_686_499)" stroke="#fff" stroke-opacity=".2" stroke-linecap="round"><path d="M-12.726 135.156l127.64-221.078M-9.492 137.024l127.64-221.079M-6.257 138.891L121.382-82.187M-3.023 140.759L124.617-80.32M.211 142.626l127.64-221.078M3.446 144.493l127.64-221.078M6.68 146.361L134.32-74.717M9.915 148.228L137.555-72.85M13.15 150.096L140.788-70.983M16.384 151.963L144.023-69.115M19.618 153.83l127.64-221.078M22.853 155.698L150.493-65.38M26.087 157.565l127.64-221.078M29.322 159.433L156.96-61.646M32.556 161.3l127.64-221.078M35.79 163.167L163.43-57.911M39.025 165.035l127.64-221.078M42.26 166.902L169.899-54.176M45.494 168.77l127.64-221.079M48.728 170.637l127.64-221.078M51.963 172.505l127.64-221.079M55.197 174.372l127.64-221.078M58.432 176.239L186.07-44.839"/></g><path d="M6.103 87.942c1.662 2.878 4.664 4.712 8.527 5.636 3.86.923 8.65.957 14.025.186 10.756-1.543 24.02-6.334 37.266-13.982 13.247-7.648 24.028-16.74 30.743-25.283 3.355-4.27 5.72-8.434 6.851-12.239 1.131-3.807 1.044-7.325-.617-10.202s-4.664-4.711-8.527-5.635c-3.86-.923-8.65-.958-14.025-.187-10.756 1.543-24.02 6.335-37.266 13.982-13.247 7.648-24.028 16.74-30.742 25.283-3.356 4.27-5.72 8.434-6.851 12.24-1.132 3.806-1.045 7.324.616 10.201zm4.157-2.4c-1.297-2.247-1.437-5.11-.445-8.45.993-3.341 3.103-7.093 6.19-11.02 6.172-7.854 16.151-16.288 28.486-23.41 12.334-7.12 24.628-11.546 34.515-12.964 4.945-.71 9.249-.661 12.64.15 3.389.81 5.797 2.362 7.095 4.61s1.437 5.11.445 8.45c-.993 3.342-3.103 7.093-6.19 11.021-6.172 7.853-16.151 16.287-28.486 23.409-12.334 7.121-24.628 11.546-34.515 12.965-4.945.71-9.249.66-12.64-.15-3.389-.81-5.797-2.363-7.095-4.61z" fill="#fff" stroke="#fff" stroke-width="1.5"/><path d="M65.546 40.868c26.37 15.225 42.802 36.133 36.702 46.7-6.1 10.566-32.424 6.79-58.794-8.436C17.084 63.907.652 43 6.752 32.432c6.101-10.566 32.424-6.789 58.794 8.436z" stroke="#fff" stroke-width="1.569" stroke-linecap="round" stroke-dasharray="0.1 4.9"/><defs><clipPath id="clip0_686_499"><rect width="31.372" height="31.372" rx="15.686" transform="matrix(1 0 0 -1 38.815 75.461)" fill="#fff"/></clipPath></defs></svg>