<svg width="101" height="100" fill="none" xmlns="http://www.w3.org/2000/svg"><circle cx="58.938" cy=".938" r=".938" fill="#fff"/><circle cx="67.063" cy=".938" r=".938" fill="#fff"/><circle cx="75.188" cy=".938" r=".938" fill="#fff"/><circle cx="83.313" cy=".938" r=".938" fill="#fff"/><circle cx="91.438" cy=".938" r=".938" fill="#fff"/><circle cx="99.563" cy=".938" r=".938" fill="#fff"/><circle cx="58.938" cy="9.063" r=".938" fill="#fff"/><circle cx="67.063" cy="9.063" r=".938" fill="#fff"/><circle cx="75.188" cy="9.063" r=".938" fill="#fff"/><circle cx="83.313" cy="9.063" r=".938" fill="#fff"/><circle cx="91.438" cy="9.063" r=".938" fill="#fff"/><circle cx="99.563" cy="9.063" r=".938" fill="#fff"/><circle cx="58.938" cy="17.188" r=".938" fill="#fff"/><circle cx="67.063" cy="17.188" r=".938" fill="#fff"/><circle cx="75.188" cy="17.188" r=".938" fill="#fff"/><circle cx="83.313" cy="17.188" r=".938" fill="#fff"/><circle cx="91.438" cy="17.188" r=".938" fill="#fff"/><circle cx="99.563" cy="17.188" r=".938" fill="#fff"/><circle cx="58.938" cy="25.313" r=".938" fill="#fff"/><circle cx="67.063" cy="25.313" r=".938" fill="#fff"/><circle cx="75.188" cy="25.313" r=".938" fill="#fff"/><circle cx="83.313" cy="25.313" r=".938" fill="#fff"/><circle cx="91.438" cy="25.313" r=".938" fill="#fff"/><circle cx="99.563" cy="25.313" r=".938" fill="#fff"/><circle cx="58.938" cy="33.438" r=".938" fill="#fff"/><circle cx="67.063" cy="33.438" r=".938" fill="#fff"/><circle cx="75.188" cy="33.438" r=".938" fill="#fff"/><circle cx="83.313" cy="33.438" r=".938" fill="#fff"/><circle cx="91.438" cy="33.438" r=".938" fill="#fff"/><circle cx="99.563" cy="33.438" r=".938" fill="#fff"/><circle cx="58.938" cy="41.563" r=".938" fill="#fff"/><circle cx="67.063" cy="41.563" r=".938" fill="#fff"/><circle cx="75.188" cy="41.563" r=".938" fill="#fff"/><circle cx="83.313" cy="41.563" r=".938" fill="#fff"/><circle cx="91.438" cy="41.563" r=".938" fill="#fff"/><circle cx="99.563" cy="41.563" r=".938" fill="#fff"/><path d="M17.897 45.411a2.5 2.5 0 10-3.544 3.528l3.544-3.528zm75-21.147a2.5 2.5 0 10-3.544-3.528l3.544 3.528zM39.923 71.077l-1.771 1.764 1.771-1.764zm-25.57-22.138l23.799 23.902 3.543-3.528L17.897 45.41l-3.544 3.528zM44.53 72.841l48.368-48.577-3.544-3.528-48.367 48.577 3.543 3.528zm-6.377 0a4.5 4.5 0 006.377 0l-3.543-3.528a.5.5 0 01.709 0l-3.543 3.528z" fill="#fff" fill-opacity=".2"/><path d="M98.5 50c1.105 0 2.004.896 1.96 2a50.004 50.004 0 01-30.826 44.194 49.996 49.996 0 01-54.49-10.839A50 50 0 0148.5.04c1.104-.044 2 .855 2 1.96v1c0 1.105-.896 1.995-2 2.044A45 45 0 1095.457 52c.049-1.104.94-2 2.044-2h1z" fill="#fff"/></svg>