<svg width="36" height="36" fill="none" xmlns="http://www.w3.org/2000/svg"><path d="M18 36c9.941 0 18-8.059 18-18S27.941 0 18 0 0 8.059 0 18s8.059 18 18 18z" fill="#FF2F01"/><path fill-rule="evenodd" clip-rule="evenodd" d="M13.846 17.067l4.866-3.163 4.826 3.182-4.847-8.778-4.845 8.759zm.186.913l4.686-3.087 4.624 3.064-4.622 3.091-4.688-3.068zm-.186.884c1.708 1.12 3.49 2.293 4.866 3.2l4.827-3.2a2905.97 2905.97 0 01-4.827 8.828l-.995-1.803a5485.448 5485.448 0 01-3.87-7.024z" fill="#fff"/><path fill-rule="evenodd" clip-rule="evenodd" d="M18.692 8.308l.019 5.596 4.828 3.183-4.847-8.78zm.023 6.585l4.655 3.064-4.652 3.091-.003-6.155zm-.004 7.17l4.828-3.198c-1.498 3.205-4.828 8.827-4.828 8.827v-5.628z" fill="#fff"/></svg>