<svg width="46" height="183" fill="none" xmlns="http://www.w3.org/2000/svg"><mask id="a" fill="#fff"><path d="M1.49 173.672c11.534-9.453 21.478-21.659 28.94-35.557 8.017-14.929 13.16-31.788 14.904-48.864 1.744-17.076.089-34.345-4.799-50.05C35.908 24.326 28.389 10.874 18.677.061"/><path d="M.938 174.545c2.744-2.352 4.544-4.781 6.254-7.966a30.374 30.374 0 003.415-11.198c.4-3.913.02-7.87-1.1-11.469-1.06-3.408-2.783-6.491-5.008-8.969"/><path d="M31.633 183.008c-.187-3.203-1.11-6.094-2.69-8.417-1.7-2.495-4.155-4.329-7.119-5.317-2.964-.988-6.431-1.127-10.05-.404-3.427.684-6.875 1.741-10.349 4.234"/></mask><path d="M30.43 138.115l.881.474-.88-.474zm14.904-48.864l.994.102-.994-.102zM40.535 39.2l.955-.298-.955.297zM7.192 166.578l.881.473-.881-.473zm3.415-11.198l.995.102-.995-.102zm-1.1-11.469l.956-.297-.955.297zm19.435 30.679l.827-.563-.827.563zm-7.118-5.317l.316-.949-.316.949zm-10.05-.404l-.196-.981.196.981zM1.49 173.672l.634.773c11.64-9.54 21.666-21.85 29.187-35.856l-.88-.474-.882-.473c-7.404 13.789-17.266 25.891-28.693 35.256l.634.774zm28.94-35.557l.881.474c8.08-15.047 13.26-32.032 15.017-49.236l-.994-.102-.995-.102c-1.731 16.948-6.835 33.681-14.79 48.493l.881.473zm14.904-48.864l.994.102c1.758-17.205.091-34.61-4.838-50.45l-.955.297-.954.297c4.845 15.572 6.49 32.704 4.758 49.652l.995.102zM40.535 39.2l.955-.298c-4.667-15-12.255-28.582-22.07-39.509l-.743.668-.744.669c9.608 10.698 17.06 24.021 21.648 38.766l.954-.297zM.938 174.544l.65.759c2.857-2.448 4.729-4.981 6.485-8.252l-.881-.473-.881-.473c-1.664 3.099-3.391 5.423-6.024 7.68l.65.759zm6.254-7.966l.881.473a31.375 31.375 0 003.529-11.569l-.995-.102-.995-.101a29.379 29.379 0 01-3.301 10.826l.881.473zm3.415-11.198l.995.102c.413-4.041.022-8.135-1.14-11.868l-.954.297-.955.297c1.078 3.465 1.446 7.286 1.06 11.071l.994.101zm-1.1-11.469l.956-.297c-1.1-3.536-2.892-6.748-5.22-9.34l-.744.668-.744.669c2.122 2.363 3.777 5.317 4.798 8.597l.955-.297zm22.126 39.096l.998-.059c-.196-3.356-1.165-6.428-2.862-8.921l-.827.563-.826.563c1.465 2.152 2.34 4.863 2.519 7.912l.998-.058zm-2.69-8.417l.826-.563c-1.826-2.682-4.465-4.648-7.629-5.703l-.316.949-.316.949c2.764.921 5.037 2.624 6.608 4.931l.826-.563zm-7.119-5.317l.316-.949c-3.156-1.052-6.804-1.187-10.562-.436l.196.981.196.98c3.48-.695 6.767-.551 9.538.373l.316-.949zm-10.05-.404l-.196-.981c-3.502.7-7.103 1.796-10.736 4.402l.583.813.583.812c3.315-2.378 6.61-3.396 9.962-4.066l-.196-.98z" fill="#fff" mask="url(#a)"/></svg>