<svg width="37" height="36" fill="none" xmlns="http://www.w3.org/2000/svg"><path d="M35.604 22.355C33.2 31.999 23.432 37.868 13.787 35.463 4.146 33.06-1.723 23.291.681 13.647 3.085 4.002 12.852-1.868 22.495.537 32.139 2.94 38.008 12.71 35.604 22.355z" fill="#FF2F01"/><path fill-rule="evenodd" clip-rule="evenodd" d="M23.563 15.909c.243-1.625-.994-2.499-2.686-3.082l.549-2.201-1.34-.334-.535 2.143c-.352-.088-.713-.17-1.073-.252l.538-2.158-1.339-.334-.55 2.2a44.68 44.68 0 01-.855-.2l.002-.007-1.848-.461-.357 1.43s.995.228.974.243c.542.135.64.494.624.779l-.625 2.508c.037.01.086.023.14.044l-.142-.035-.877 3.513c-.066.165-.234.412-.614.318.014.02-.974-.243-.974-.243l-.665 1.534 1.744.435.584.15.371.097-.554 2.227 1.338.333.55-2.202c.365.099.72.19 1.067.277l-.547 2.192 1.34.334.554-2.222c2.285.432 4.003.258 4.726-1.808.583-1.664-.029-2.624-1.23-3.25.875-.203 1.534-.779 1.71-1.968zm-3.062 4.293c-.38 1.527-2.771.895-3.864.606a11.915 11.915 0 00-.26-.067l.736-2.95c.091.023.203.048.329.076 1.13.254 3.448.774 3.06 2.335zm-2.832-3.704c.912.244 2.9.774 3.247-.613.354-1.42-1.58-1.848-2.523-2.056-.107-.024-.2-.045-.277-.064l-.667 2.676c.063.015.137.035.22.057z" fill="#fff"/></svg>